<?xml version="1.0" encoding="utf-8" standalone="no"?>
<!DOCTYPE svg PUBLIC "-//W3C//DTD SVG 1.1//EN"
  "http://www.w3.org/Graphics/SVG/1.1/DTD/svg11.dtd">
<svg xmlns:xlink="http://www.w3.org/1999/xlink" width="900pt" height="506.16pt" viewBox="0 0 900 506.16" xmlns="http://www.w3.org/2000/svg" version="1.1">
 <metadata>
  <rdf:RDF xmlns:dc="http://purl.org/dc/elements/1.1/" xmlns:cc="http://creativecommons.org/ns#" xmlns:rdf="http://www.w3.org/1999/02/22-rdf-syntax-ns#">
   <cc:Work>
    <dc:type rdf:resource="http://purl.org/dc/dcmitype/StillImage"/>
    <dc:date>2026-06-21T10:09:00.926421</dc:date>
    <dc:format>image/svg+xml</dc:format>
    <dc:creator>
     <cc:Agent>
      <dc:title>Matplotlib v3.10.9, https://matplotlib.org/</dc:title>
     </cc:Agent>
    </dc:creator>
   </cc:Work>
  </rdf:RDF>
 </metadata>
 <defs>
  <style type="text/css">*{stroke-linejoin: round; stroke-linecap: butt}</style>
 </defs>
 <g id="figure_1">
  <g id="patch_1">
   <path d="M 0 506.16 
L 900 506.16 
L 900 -0 
L 0 -0 
z
" style="fill: #ffffff"/>
  </g>
  <g id="axes_1">
   <g id="patch_2">
    <path d="M 362.32704 113.470992 
L 537.67296 113.470992 
Q 557.31456 113.470992 557.31456 102.493872 
L 557.31456 74.352528 
Q 557.31456 63.375408 537.67296 63.375408 
L 362.32704 63.375408 
Q 342.68544 63.375408 342.68544 74.352528 
L 342.68544 102.493872 
Q 342.68544 113.470992 362.32704 113.470992 
z
" clip-path="url(#pf5b23ad0b0)" style="fill: #f8fafc; stroke: #1e3a8a; stroke-width: 2; stroke-linejoin: miter"/>
   </g>
   <g id="patch_3">
    <path d="M 362.32704 183.325392 
L 537.67296 183.325392 
Q 557.31456 183.325392 557.31456 172.348272 
L 557.31456 144.206928 
Q 557.31456 133.229808 537.67296 133.229808 
L 362.32704 133.229808 
Q 342.68544 133.229808 342.68544 144.206928 
L 342.68544 172.348272 
Q 342.68544 183.325392 362.32704 183.325392 
z
" clip-path="url(#pf5b23ad0b0)" style="fill: #dbeafe; stroke: #1e3a8a; stroke-width: 2; stroke-linejoin: miter"/>
   </g>
   <g id="patch_4">
    <path d="M 362.32704 253.179792 
L 537.67296 253.179792 
Q 557.31456 253.179792 557.31456 242.202672 
L 557.31456 214.061328 
Q 557.31456 203.084208 537.67296 203.084208 
L 362.32704 203.084208 
Q 342.68544 203.084208 342.68544 214.061328 
L 342.68544 242.202672 
Q 342.68544 253.179792 362.32704 253.179792 
z
" clip-path="url(#pf5b23ad0b0)" style="fill: #dbeafe; stroke: #1e3a8a; stroke-width: 2; stroke-linejoin: miter"/>
   </g>
   <g id="patch_5">
    <path d="M 362.32704 323.034192 
L 537.67296 323.034192 
Q 557.31456 323.034192 557.31456 312.057072 
L 557.31456 283.915728 
Q 557.31456 272.938608 537.67296 272.938608 
L 362.32704 272.938608 
Q 342.68544 272.938608 342.68544 283.915728 
L 342.68544 312.057072 
Q 342.68544 323.034192 362.32704 323.034192 
z
" clip-path="url(#pf5b23ad0b0)" style="fill: #dbeafe; stroke: #1e3a8a; stroke-width: 2; stroke-linejoin: miter"/>
   </g>
   <g id="patch_6">
    <path d="M 362.32704 392.888592 
L 537.67296 392.888592 
Q 557.31456 392.888592 557.31456 381.911472 
L 557.31456 353.770128 
Q 557.31456 342.793008 537.67296 342.793008 
L 362.32704 342.793008 
Q 342.68544 342.793008 342.68544 353.770128 
L 342.68544 381.911472 
Q 342.68544 392.888592 362.32704 392.888592 
z
" clip-path="url(#pf5b23ad0b0)" style="fill: #fef3c7; stroke: #f59e0b; stroke-width: 2; stroke-linejoin: miter"/>
   </g>
   <g id="patch_7">
    <path d="M 362.32704 462.742992 
L 537.67296 462.742992 
Q 557.31456 462.742992 557.31456 451.765872 
L 557.31456 423.624528 
Q 557.31456 412.647408 537.67296 412.647408 
L 362.32704 412.647408 
Q 342.68544 412.647408 342.68544 423.624528 
L 342.68544 451.765872 
Q 342.68544 462.742992 362.32704 462.742992 
z
" clip-path="url(#pf5b23ad0b0)" style="fill: #ecfdf5; stroke: #10b981; stroke-width: 2; stroke-linejoin: miter"/>
   </g>
   <g id="patch_8">
    <path d="M 450 115.373862 
Q 450 123.35005 450 129.09017 
" clip-path="url(#pf5b23ad0b0)" style="fill: none; stroke: #1e3a8a; stroke-width: 2; stroke-linecap: round"/>
    <path d="M 453.6 121.89017 
L 450 129.09017 
L 446.4 121.89017 
z
" clip-path="url(#pf5b23ad0b0)" style="fill: #1e3a8a; stroke: #1e3a8a; stroke-width: 2; stroke-linecap: round"/>
   </g>
   <g id="patch_9">
    <path d="M 450 185.228262 
Q 450 193.20445 450 198.94457 
" clip-path="url(#pf5b23ad0b0)" style="fill: none; stroke: #1e3a8a; stroke-width: 2; stroke-linecap: round"/>
    <path d="M 453.6 191.74457 
L 450 198.94457 
L 446.4 191.74457 
z
" clip-path="url(#pf5b23ad0b0)" style="fill: #1e3a8a; stroke: #1e3a8a; stroke-width: 2; stroke-linecap: round"/>
   </g>
   <g id="patch_10">
    <path d="M 450 255.082662 
Q 450 263.05885 450 268.79897 
" clip-path="url(#pf5b23ad0b0)" style="fill: none; stroke: #1e3a8a; stroke-width: 2; stroke-linecap: round"/>
    <path d="M 453.6 261.59897 
L 450 268.79897 
L 446.4 261.59897 
z
" clip-path="url(#pf5b23ad0b0)" style="fill: #1e3a8a; stroke: #1e3a8a; stroke-width: 2; stroke-linecap: round"/>
   </g>
   <g id="patch_11">
    <path d="M 450 324.937062 
Q 450 332.91325 450 338.65337 
" clip-path="url(#pf5b23ad0b0)" style="fill: none; stroke: #1e3a8a; stroke-width: 2; stroke-linecap: round"/>
    <path d="M 453.6 331.45337 
L 450 338.65337 
L 446.4 331.45337 
z
" clip-path="url(#pf5b23ad0b0)" style="fill: #1e3a8a; stroke: #1e3a8a; stroke-width: 2; stroke-linecap: round"/>
   </g>
   <g id="patch_12">
    <path d="M 450 394.791462 
Q 450 402.76765 450 408.50777 
" clip-path="url(#pf5b23ad0b0)" style="fill: none; stroke: #1e3a8a; stroke-width: 2; stroke-linecap: round"/>
    <path d="M 453.6 401.30777 
L 450 408.50777 
L 446.4 401.30777 
z
" clip-path="url(#pf5b23ad0b0)" style="fill: #1e3a8a; stroke: #1e3a8a; stroke-width: 2; stroke-linecap: round"/>
   </g>
   <g id="patch_13">
    <path d="M 94.48704 253.179792 
L 234.12096 253.179792 
Q 253.76256 253.179792 253.76256 242.202672 
L 253.76256 204.082128 
Q 253.76256 193.105008 234.12096 193.105008 
L 94.48704 193.105008 
Q 74.84544 193.105008 74.84544 204.082128 
L 74.84544 242.202672 
Q 74.84544 253.179792 94.48704 253.179792 
z
" clip-path="url(#pf5b23ad0b0)" style="fill: #eff6ff; stroke: #1e3a8a; stroke-width: 2; stroke-linejoin: miter"/>
   </g>
   <g id="patch_14">
    <path d="M 665.87904 253.179792 
L 805.51296 253.179792 
Q 825.15456 253.179792 825.15456 242.202672 
L 825.15456 204.082128 
Q 825.15456 193.105008 805.51296 193.105008 
L 665.87904 193.105008 
Q 646.23744 193.105008 646.23744 204.082128 
L 646.23744 242.202672 
Q 646.23744 253.179792 665.87904 253.179792 
z
" clip-path="url(#pf5b23ad0b0)" style="fill: #eff6ff; stroke: #1e3a8a; stroke-width: 2; stroke-linejoin: miter"/>
   </g>
   <g id="patch_15">
    <path d="M 665.87904 333.013392 
L 805.51296 333.013392 
Q 825.15456 333.013392 825.15456 322.036272 
L 825.15456 283.915728 
Q 825.15456 272.938608 805.51296 272.938608 
L 665.87904 272.938608 
Q 646.23744 272.938608 646.23744 283.915728 
L 646.23744 322.036272 
Q 646.23744 333.013392 665.87904 333.013392 
z
" clip-path="url(#pf5b23ad0b0)" style="fill: #eff6ff; stroke: #1e3a8a; stroke-width: 2; stroke-linejoin: miter"/>
   </g>
   <g id="patch_16">
    <path d="M 255.586588 223.1424 
Q 298.225151 223.1424 338.627647 223.1424 
" clip-path="url(#pf5b23ad0b0)" style="fill: none; stroke-dasharray: 7.4,3.2; stroke-dashoffset: 0; stroke: #1e3a8a; stroke-width: 2; stroke-linecap: round"/>
    <path d="M 331.427647 219.5424 
L 338.627647 223.1424 
L 331.427647 226.7424 
z
" clip-path="url(#pf5b23ad0b0)" style="fill: #1e3a8a; stroke-dasharray: 7.4,3.2; stroke-dashoffset: 0; stroke: #1e3a8a; stroke-width: 2; stroke-linecap: round"/>
   </g>
   <g id="patch_17">
    <path d="M 559.138588 223.1424 
Q 601.777151 223.1424 642.179647 223.1424 
" clip-path="url(#pf5b23ad0b0)" style="fill: none; stroke-dasharray: 7.4,3.2; stroke-dashoffset: 0; stroke: #1e3a8a; stroke-width: 2; stroke-linecap: round"/>
    <path d="M 634.979647 219.5424 
L 642.179647 223.1424 
L 634.979647 226.7424 
z
" clip-path="url(#pf5b23ad0b0)" style="fill: #1e3a8a; stroke-dasharray: 7.4,3.2; stroke-dashoffset: 0; stroke: #1e3a8a; stroke-width: 2; stroke-linecap: round"/>
   </g>
   <g id="patch_18">
    <path d="M 559.138588 302.976 
Q 601.777151 302.976 642.179647 302.976 
" clip-path="url(#pf5b23ad0b0)" style="fill: none; stroke-dasharray: 7.4,3.2; stroke-dashoffset: 0; stroke: #1e3a8a; stroke-width: 2; stroke-linecap: round"/>
    <path d="M 634.979647 299.376 
L 642.179647 302.976 
L 634.979647 306.576 
z
" clip-path="url(#pf5b23ad0b0)" style="fill: #1e3a8a; stroke-dasharray: 7.4,3.2; stroke-dashoffset: 0; stroke: #1e3a8a; stroke-width: 2; stroke-linecap: round"/>
   </g>
   <g id="text_1">
    <!-- 文件系统整体结构 -->
    <g style="fill: #1e3a8a" transform="translate(354 30.3609) scale(0.24 -0.24)">
     <defs>
      <path id="NotoSansCJKjp-Regular-6587" d="M 2944 5376 
L 2944 4288 
L 320 4288 
L 320 3821 
L 1274 3821 
C 1638 2797 2138 1920 2803 1216 
C 2118 653 1274 237 250 -58 
C 346 -173 499 -403 557 -518 
C 1594 -186 2458 262 3162 864 
C 3878 230 4755 -237 5824 -512 
C 5907 -378 6061 -154 6176 -45 
C 5133 198 4262 640 3558 1229 
C 4230 1914 4742 2758 5120 3821 
L 6106 3821 
L 6106 4288 
L 3437 4288 
L 3437 5376 
L 2944 5376 
z
M 3187 1574 
C 2579 2195 2118 2950 1798 3821 
L 4563 3821 
C 4230 2912 3782 2170 3187 1574 
z
" transform="scale(0.015625)"/>
      <path id="NotoSansCJKjp-Regular-4ef6" d="M 2029 2182 
L 2029 1715 
L 3866 1715 
L 3866 -512 
L 4346 -512 
L 4346 1715 
L 6099 1715 
L 6099 2182 
L 4346 2182 
L 4346 3597 
L 5818 3597 
L 5818 4064 
L 4346 4064 
L 4346 5299 
L 3866 5299 
L 3866 4064 
L 3008 4064 
C 3091 4352 3162 4659 3226 4960 
L 2765 5056 
C 2618 4218 2349 3392 1978 2861 
C 2093 2803 2298 2688 2387 2618 
C 2560 2886 2720 3226 2854 3597 
L 3866 3597 
L 3866 2182 
L 2029 2182 
z
M 1715 5350 
C 1370 4384 806 3424 205 2797 
C 288 2688 429 2438 480 2323 
C 685 2541 877 2797 1069 3072 
L 1069 -499 
L 1530 -499 
L 1530 3821 
C 1773 4269 1990 4742 2170 5216 
L 1715 5350 
z
" transform="scale(0.015625)"/>
      <path id="NotoSansCJKjp-Regular-7cfb" d="M 1715 1222 
C 1363 749 787 262 243 -51 
C 371 -128 582 -288 678 -378 
C 1197 -32 1805 512 2208 1043 
L 1715 1222 
z
M 4109 986 
C 4666 582 5350 -6 5677 -371 
L 6093 -64 
C 5741 301 5037 864 4493 1248 
L 4109 986 
z
M 5286 5286 
C 4179 5062 2208 4928 557 4883 
C 602 4768 659 4576 672 4448 
C 1235 4461 1843 4486 2445 4525 
C 2195 4198 1882 3840 1594 3565 
L 1158 3827 
L 832 3533 
C 1344 3232 1939 2790 2310 2445 
C 2125 2291 1933 2150 1760 2016 
L 358 2003 
L 403 1517 
L 2938 1581 
L 2938 -512 
L 3443 -512 
L 3443 1594 
L 5293 1645 
C 5466 1459 5613 1286 5715 1139 
L 6138 1427 
C 5811 1862 5126 2509 4563 2957 
L 4173 2707 
C 4403 2522 4646 2298 4883 2074 
L 2464 2029 
C 3226 2618 4083 3398 4730 4077 
L 4269 4326 
C 3853 3846 3270 3270 2682 2765 
C 2490 2938 2227 3136 1952 3328 
C 2317 3661 2739 4122 3072 4525 
L 3002 4563 
C 3974 4634 4915 4736 5632 4877 
L 5286 5286 
z
" transform="scale(0.015625)"/>
      <path id="NotoSansCJKjp-Regular-7edf" d="M 4467 2253 
L 4467 230 
C 4467 -243 4576 -384 5024 -384 
C 5114 -384 5498 -384 5587 -384 
C 5984 -384 6099 -141 6131 730 
C 6010 762 5818 838 5722 928 
C 5702 154 5677 38 5536 38 
C 5459 38 5158 38 5101 38 
C 4960 38 4941 58 4941 230 
L 4941 2253 
L 4467 2253 
z
M 3264 2240 
C 3226 973 3078 288 2029 -102 
C 2138 -192 2272 -371 2330 -493 
C 3488 -19 3686 806 3738 2240 
L 3264 2240 
z
M 269 339 
L 378 -134 
C 954 51 1709 288 2426 525 
L 2349 941 
C 1574 710 787 474 269 339 
z
M 3808 5274 
C 3930 5011 4090 4666 4154 4448 
L 2605 4448 
L 2605 4013 
L 3757 4013 
C 3469 3616 3027 3027 2880 2886 
C 2758 2771 2598 2726 2477 2694 
C 2528 2592 2618 2349 2637 2227 
C 2816 2304 3085 2336 5408 2554 
C 5510 2381 5606 2214 5670 2086 
L 6074 2310 
C 5882 2682 5466 3283 5120 3731 
L 4742 3539 
C 4883 3354 5030 3142 5165 2931 
L 3405 2784 
C 3693 3136 4058 3635 4326 4013 
L 6067 4013 
L 6067 4448 
L 4224 4448 
L 4634 4576 
C 4557 4781 4397 5133 4250 5389 
L 3808 5274 
z
M 384 2707 
C 480 2752 627 2784 1395 2893 
C 1120 2490 870 2176 755 2054 
C 550 1818 403 1658 262 1632 
C 320 1504 397 1267 422 1165 
C 557 1248 774 1318 2362 1664 
C 2349 1766 2342 1952 2355 2086 
L 1146 1850 
C 1632 2413 2112 3098 2515 3789 
L 2086 4045 
C 1965 3808 1830 3565 1683 3341 
L 896 3258 
C 1293 3808 1690 4506 1984 5178 
L 1498 5402 
C 1216 4627 742 3802 589 3590 
C 448 3373 326 3226 211 3200 
C 275 3066 352 2810 384 2707 
z
" transform="scale(0.015625)"/>
      <path id="NotoSansCJKjp-Regular-6574" d="M 1357 1139 
L 1357 32 
L 301 32 
L 301 -371 
L 6118 -371 
L 6118 32 
L 3430 32 
L 3430 563 
L 5274 563 
L 5274 934 
L 3430 934 
L 3430 1427 
L 5696 1427 
L 5696 1824 
L 730 1824 
L 730 1427 
L 2957 1427 
L 2957 32 
L 1818 32 
L 1818 1139 
L 1357 1139 
z
M 4109 5376 
C 3930 4742 3597 4154 3162 3770 
L 3162 4282 
L 2054 4282 
L 2054 4608 
L 3315 4608 
L 3315 4960 
L 2054 4960 
L 2054 5376 
L 1626 5376 
L 1626 4960 
L 365 4960 
L 365 4608 
L 1626 4608 
L 1626 4282 
L 550 4282 
L 550 3110 
L 1440 3110 
C 1126 2790 646 2470 256 2304 
C 346 2234 474 2093 538 1997 
C 883 2176 1306 2496 1626 2822 
L 1626 1997 
L 2054 1997 
L 2054 2784 
C 2368 2611 2790 2362 2970 2227 
L 3206 2547 
C 3027 2650 2349 2989 2086 3110 
L 3162 3110 
L 3162 3725 
C 3264 3642 3411 3494 3462 3411 
C 3603 3546 3744 3699 3866 3878 
C 4000 3590 4186 3296 4416 3021 
C 4064 2714 3629 2490 3104 2330 
C 3200 2253 3341 2074 3392 1978 
C 3904 2163 4339 2400 4704 2714 
C 5030 2406 5434 2138 5926 1958 
C 5990 2067 6112 2246 6202 2336 
C 5715 2483 5318 2720 4998 3002 
C 5299 3347 5530 3757 5677 4269 
L 6093 4269 
L 6093 4659 
L 4314 4659 
C 4403 4858 4480 5069 4544 5280 
L 4109 5376 
z
M 947 3962 
L 1626 3962 
L 1626 3430 
L 947 3430 
L 947 3962 
z
M 2054 3962 
L 2752 3962 
L 2752 3430 
L 2054 3430 
L 2054 3962 
z
M 4122 4269 
L 5216 4269 
C 5101 3891 4928 3571 4698 3302 
C 4435 3603 4243 3930 4109 4250 
L 4122 4269 
z
" transform="scale(0.015625)"/>
      <path id="NotoSansCJKjp-Regular-4f53" d="M 1606 5350 
C 1286 4384 762 3424 192 2797 
C 288 2688 429 2432 474 2323 
C 666 2541 851 2790 1024 3066 
L 1024 -499 
L 1485 -499 
L 1485 3872 
C 1702 4307 1894 4768 2054 5222 
L 1606 5350 
z
M 2662 1120 
L 2662 678 
L 3718 678 
L 3718 -474 
L 4186 -474 
L 4186 678 
L 5216 678 
L 5216 1120 
L 4186 1120 
L 4186 3334 
C 4582 2221 5197 1146 5862 538 
C 5952 666 6112 832 6227 915 
C 5536 1472 4870 2547 4493 3622 
L 6106 3622 
L 6106 4083 
L 4186 4083 
L 4186 5357 
L 3718 5357 
L 3718 4083 
L 1907 4083 
L 1907 3622 
L 3430 3622 
C 3034 2534 2362 1446 1658 883 
C 1766 800 1926 634 2003 518 
C 2682 1133 3309 2189 3718 3315 
L 3718 1120 
L 2662 1120 
z
" transform="scale(0.015625)"/>
      <path id="NotoSansCJKjp-Regular-7ed3" d="M 224 339 
L 307 -154 
C 941 -13 1792 166 2598 352 
L 2560 794 
C 1702 621 819 435 224 339 
z
M 358 2733 
C 454 2778 614 2810 1427 2906 
C 1139 2502 870 2182 749 2061 
C 538 1830 390 1677 243 1645 
C 301 1517 378 1280 403 1178 
C 557 1261 787 1312 2573 1638 
C 2560 1741 2541 1933 2547 2061 
L 1120 1830 
C 1638 2387 2144 3066 2579 3757 
L 2138 4026 
C 2016 3795 1875 3565 1728 3341 
L 877 3270 
C 1254 3802 1626 4480 1914 5133 
L 1421 5338 
C 1165 4589 704 3795 557 3590 
C 422 3386 307 3238 192 3213 
C 250 3078 333 2835 358 2733 
z
M 4090 5382 
L 4090 4518 
L 2611 4518 
L 2611 4058 
L 4090 4058 
L 4090 3059 
L 2771 3059 
L 2771 2598 
L 5926 2598 
L 5926 3059 
L 4582 3059 
L 4582 4058 
L 6035 4058 
L 6035 4518 
L 4582 4518 
L 4582 5382 
L 4090 5382 
z
M 2938 1946 
L 2938 -506 
L 3405 -506 
L 3405 -230 
L 5286 -230 
L 5286 -480 
L 5766 -480 
L 5766 1946 
L 2938 1946 
z
M 3405 205 
L 3405 1510 
L 5286 1510 
L 5286 205 
L 3405 205 
z
" transform="scale(0.015625)"/>
      <path id="NotoSansCJKjp-Regular-6784" d="M 3341 5376 
C 3181 4723 2931 4090 2618 3578 
L 2618 4006 
L 1766 4006 
L 1766 5376 
L 1306 5376 
L 1306 4006 
L 307 4006 
L 307 3546 
L 1242 3546 
C 1024 2694 576 1702 147 1184 
C 224 1069 346 870 397 742 
C 730 1171 1056 1882 1306 2605 
L 1306 -506 
L 1766 -506 
L 1766 2483 
C 1990 2176 2266 1779 2381 1568 
L 2682 1958 
C 2547 2138 1958 2842 1766 3046 
L 1766 3546 
L 2598 3546 
C 2483 3354 2349 3174 2214 3021 
C 2336 2950 2534 2797 2618 2720 
C 2874 3034 3110 3430 3322 3878 
L 5530 3878 
C 5446 1254 5350 275 5158 51 
C 5094 -32 5030 -51 4915 -45 
C 4781 -45 4474 -45 4128 -13 
C 4211 -154 4269 -358 4282 -493 
C 4595 -512 4915 -518 5107 -493 
C 5318 -467 5453 -416 5587 -237 
C 5824 77 5914 1069 6010 4077 
C 6010 4141 6010 4326 6010 4326 
L 3514 4326 
C 3629 4627 3738 4947 3827 5267 
L 3341 5376 
z
M 2432 1248 
L 2541 794 
L 4589 1101 
C 4646 928 4698 774 4723 640 
L 5126 794 
C 5030 1184 4749 1811 4474 2298 
L 4102 2170 
C 4224 1958 4339 1709 4442 1466 
L 3392 1344 
C 3603 1901 3827 2662 4000 3283 
L 3533 3386 
C 3411 2765 3168 1875 2950 1299 
L 2432 1248 
z
" transform="scale(0.015625)"/>
     </defs>
     <use xlink:href="#NotoSansCJKjp-Regular-6587"/>
     <use xlink:href="#NotoSansCJKjp-Regular-4ef6" transform="translate(99.999985 0)"/>
     <use xlink:href="#NotoSansCJKjp-Regular-7cfb" transform="translate(199.999969 0)"/>
     <use xlink:href="#NotoSansCJKjp-Regular-7edf" transform="translate(299.999954 0)"/>
     <use xlink:href="#NotoSansCJKjp-Regular-6574" transform="translate(399.999939 0)"/>
     <use xlink:href="#NotoSansCJKjp-Regular-4f53" transform="translate(499.999924 0)"/>
     <use xlink:href="#NotoSansCJKjp-Regular-7ed3" transform="translate(599.999908 0)"/>
     <use xlink:href="#NotoSansCJKjp-Regular-6784" transform="translate(699.999893 0)"/>
    </g>
   </g>
   <g id="text_2">
    <!-- 用户命令 -->
    <g style="fill: #111827" transform="translate(424 84.410669) scale(0.13 -0.13)">
     <defs>
      <path id="NotoSansCJKjp-Regular-7528" d="M 979 4928 
L 979 2605 
C 979 1702 915 570 205 -230 
C 314 -288 506 -448 576 -544 
C 1069 0 1286 736 1382 1453 
L 2989 1453 
L 2989 -454 
L 3475 -454 
L 3475 1453 
L 5203 1453 
L 5203 141 
C 5203 26 5158 -13 5030 -19 
C 4909 -26 4474 -32 4026 -13 
C 4090 -141 4166 -352 4192 -474 
C 4794 -480 5165 -474 5382 -397 
C 5600 -320 5677 -173 5677 141 
L 5677 4928 
L 979 4928 
z
M 1453 4467 
L 2989 4467 
L 2989 3437 
L 1453 3437 
L 1453 4467 
z
M 5203 4467 
L 5203 3437 
L 3475 3437 
L 3475 4467 
L 5203 4467 
z
M 1453 2982 
L 2989 2982 
L 2989 1907 
L 1427 1907 
C 1446 2150 1453 2387 1453 2605 
L 1453 2982 
z
M 5203 2982 
L 5203 1907 
L 3475 1907 
L 3475 2982 
L 5203 2982 
z
" transform="scale(0.015625)"/>
      <path id="NotoSansCJKjp-Regular-6237" d="M 1581 3936 
L 4922 3936 
L 4922 2650 
L 1574 2650 
L 1581 2989 
L 1581 3936 
z
M 2822 5286 
C 2950 5005 3091 4646 3168 4384 
L 1082 4384 
L 1082 2989 
C 1082 2022 998 691 218 -262 
C 333 -314 544 -461 634 -550 
C 1261 218 1485 1280 1555 2202 
L 4922 2202 
L 4922 1779 
L 5408 1779 
L 5408 4384 
L 3379 4384 
L 3674 4474 
C 3597 4723 3437 5114 3283 5408 
L 2822 5286 
z
" transform="scale(0.015625)"/>
      <path id="NotoSansCJKjp-Regular-547d" d="M 3174 4934 
C 3802 4186 4979 3354 5984 2893 
C 6074 3027 6182 3200 6304 3315 
C 5267 3731 4115 4531 3392 5389 
L 2899 5389 
C 2374 4640 1261 3763 122 3238 
C 230 3136 352 2963 416 2848 
C 1530 3386 2618 4224 3174 4934 
z
M 1914 3731 
L 1914 3296 
L 4538 3296 
L 4538 3731 
L 1914 3731 
z
M 864 2720 
L 864 -19 
L 1306 -19 
L 1306 525 
L 2854 525 
L 2854 2720 
L 864 2720 
z
M 1306 2291 
L 2419 2291 
L 2419 954 
L 1306 954 
L 1306 2291 
z
M 3411 2720 
L 3411 -525 
L 3866 -525 
L 3866 2298 
L 5158 2298 
L 5158 723 
C 5158 640 5133 621 5043 621 
C 4947 614 4640 614 4275 627 
C 4339 499 4403 320 4422 186 
C 4902 186 5203 186 5389 262 
C 5574 339 5619 474 5619 717 
L 5619 2720 
L 3411 2720 
z
" transform="scale(0.015625)"/>
      <path id="NotoSansCJKjp-Regular-4ee4" d="M 3174 4902 
C 3770 4109 4896 3181 5882 2624 
C 5965 2765 6086 2931 6202 3046 
C 5203 3533 4070 4448 3392 5376 
L 2906 5376 
C 2406 4557 1325 3565 218 2976 
C 326 2874 467 2701 525 2592 
C 1606 3213 2643 4134 3174 4902 
z
M 1850 3462 
L 1850 3021 
L 4557 3021 
L 4557 3462 
L 1850 3462 
z
M 826 2246 
L 826 1805 
L 2528 1805 
L 2528 -512 
L 3027 -512 
L 3027 1805 
L 4890 1805 
L 4890 486 
C 4890 410 4858 390 4755 384 
C 4659 384 4294 378 3917 390 
C 3987 262 4070 70 4090 -70 
C 4589 -70 4915 -64 5120 13 
C 5318 90 5376 230 5376 480 
L 5376 2246 
L 826 2246 
z
" transform="scale(0.015625)"/>
     </defs>
     <use xlink:href="#NotoSansCJKjp-Regular-7528"/>
     <use xlink:href="#NotoSansCJKjp-Regular-6237" transform="translate(99.999985 0)"/>
     <use xlink:href="#NotoSansCJKjp-Regular-547d" transform="translate(199.999969 0)"/>
     <use xlink:href="#NotoSansCJKjp-Regular-4ee4" transform="translate(299.999954 0)"/>
    </g>
    <!-- ls / cat / echo / open -->
    <g style="fill: #111827" transform="translate(388.968047 99.805106) scale(0.13 -0.13)">
     <defs>
      <path id="NotoSansCJKjp-Regular-6c" d="M 1203 -83 
C 1363 -83 1459 -58 1542 -32 
L 1459 416 
C 1395 403 1370 403 1338 403 
C 1248 403 1178 474 1178 653 
L 1178 5094 
L 589 5094 
L 589 691 
C 589 198 768 -83 1203 -83 
z
" transform="scale(0.015625)"/>
      <path id="NotoSansCJKjp-Regular-73" d="M 1498 -83 
C 2317 -83 2758 384 2758 947 
C 2758 1606 2208 1811 1702 2003 
C 1312 2150 954 2278 954 2605 
C 954 2880 1158 3110 1600 3110 
C 1907 3110 2150 2976 2387 2803 
L 2669 3168 
C 2406 3386 2022 3565 1594 3565 
C 832 3565 397 3130 397 2579 
C 397 1984 922 1754 1408 1574 
C 1792 1434 2202 1267 2202 915 
C 2202 614 1978 371 1517 371 
C 1101 371 794 538 486 787 
L 205 397 
C 531 122 1005 -83 1498 -83 
z
" transform="scale(0.015625)"/>
      <path id="NotoSansCJKjp-Regular-20" transform="scale(0.015625)"/>
      <path id="NotoSansCJKjp-Regular-2f" d="M 70 -1146 
L 499 -1146 
L 2413 5082 
L 1990 5082 
L 70 -1146 
z
" transform="scale(0.015625)"/>
      <path id="NotoSansCJKjp-Regular-63" d="M 1958 -83 
C 2374 -83 2771 83 3085 352 
L 2829 749 
C 2611 557 2330 403 2010 403 
C 1370 403 934 934 934 1734 
C 934 2534 1395 3072 2029 3072 
C 2298 3072 2522 2950 2720 2771 
L 3014 3155 
C 2771 3373 2458 3565 2003 3565 
C 1107 3565 333 2893 333 1734 
C 333 582 1037 -83 1958 -83 
z
" transform="scale(0.015625)"/>
      <path id="NotoSansCJKjp-Regular-61" d="M 1389 -83 
C 1818 -83 2208 141 2541 416 
L 2560 416 
L 2611 0 
L 3091 0 
L 3091 2138 
C 3091 3002 2739 3565 1888 3565 
C 1325 3565 838 3315 525 3110 
L 749 2707 
C 1024 2893 1389 3078 1792 3078 
C 2362 3078 2509 2650 2509 2202 
C 1030 2035 378 1658 378 902 
C 378 275 806 -83 1389 -83 
z
M 1555 390 
C 1210 390 941 544 941 941 
C 941 1389 1338 1677 2509 1811 
L 2509 845 
C 2170 544 1888 390 1555 390 
z
" transform="scale(0.015625)"/>
      <path id="NotoSansCJKjp-Regular-74" d="M 1677 -83 
C 1894 -83 2125 -19 2323 45 
L 2208 486 
C 2093 435 1939 390 1811 390 
C 1408 390 1274 634 1274 1056 
L 1274 3002 
L 2221 3002 
L 2221 3475 
L 1274 3475 
L 1274 4454 
L 787 4454 
L 723 3475 
L 173 3443 
L 173 3002 
L 691 3002 
L 691 1075 
C 691 378 941 -83 1677 -83 
z
" transform="scale(0.015625)"/>
      <path id="NotoSansCJKjp-Regular-65" d="M 1997 -83 
C 2464 -83 2835 70 3136 269 
L 2931 659 
C 2669 486 2400 384 2061 384 
C 1402 384 947 858 909 1600 
L 3251 1600 
C 3264 1690 3277 1805 3277 1933 
C 3277 2925 2778 3565 1888 3565 
C 1094 3565 333 2867 333 1734 
C 333 589 1069 -83 1997 -83 
z
M 902 2016 
C 973 2707 1408 3098 1901 3098 
C 2445 3098 2765 2720 2765 2016 
L 902 2016 
z
" transform="scale(0.015625)"/>
      <path id="NotoSansCJKjp-Regular-68" d="M 589 0 
L 1178 0 
L 1178 2522 
C 1523 2874 1766 3053 2125 3053 
C 2586 3053 2784 2778 2784 2125 
L 2784 0 
L 3366 0 
L 3366 2202 
C 3366 3085 3034 3565 2304 3565 
C 1830 3565 1472 3302 1152 2982 
L 1178 3699 
L 1178 5094 
L 589 5094 
L 589 0 
z
" transform="scale(0.015625)"/>
      <path id="NotoSansCJKjp-Regular-6f" d="M 1939 -83 
C 2790 -83 3546 582 3546 1734 
C 3546 2893 2790 3565 1939 3565 
C 1088 3565 333 2893 333 1734 
C 333 582 1088 -83 1939 -83 
z
M 1939 403 
C 1338 403 934 934 934 1734 
C 934 2534 1338 3072 1939 3072 
C 2541 3072 2950 2534 2950 1734 
C 2950 934 2541 403 1939 403 
z
" transform="scale(0.015625)"/>
      <path id="NotoSansCJKjp-Regular-70" d="M 589 -1466 
L 1178 -1466 
L 1178 -288 
L 1158 320 
C 1472 58 1805 -83 2118 -83 
C 2912 -83 3629 602 3629 1792 
C 3629 2867 3142 3565 2246 3565 
C 1843 3565 1453 3334 1139 3072 
L 1126 3072 
L 1069 3475 
L 589 3475 
L 589 -1466 
z
M 2022 410 
C 1792 410 1485 499 1178 768 
L 1178 2598 
C 1510 2906 1811 3072 2099 3072 
C 2765 3072 3021 2560 3021 1786 
C 3021 928 2598 410 2022 410 
z
" transform="scale(0.015625)"/>
      <path id="NotoSansCJKjp-Regular-6e" d="M 589 0 
L 1178 0 
L 1178 2522 
C 1523 2874 1766 3053 2125 3053 
C 2586 3053 2784 2778 2784 2125 
L 2784 0 
L 3366 0 
L 3366 2202 
C 3366 3085 3034 3565 2304 3565 
C 1830 3565 1466 3302 1139 2970 
L 1126 2970 
L 1069 3475 
L 589 3475 
L 589 0 
z
" transform="scale(0.015625)"/>
     </defs>
     <use xlink:href="#NotoSansCJKjp-Regular-6c"/>
     <use xlink:href="#NotoSansCJKjp-Regular-73" transform="translate(28.399994 0)"/>
     <use xlink:href="#NotoSansCJKjp-Regular-20" transform="translate(75.199982 0)"/>
     <use xlink:href="#NotoSansCJKjp-Regular-2f" transform="translate(97.599976 0)"/>
     <use xlink:href="#NotoSansCJKjp-Regular-20" transform="translate(136.799973 0)"/>
     <use xlink:href="#NotoSansCJKjp-Regular-63" transform="translate(159.199966 0)"/>
     <use xlink:href="#NotoSansCJKjp-Regular-61" transform="translate(210.199951 0)"/>
     <use xlink:href="#NotoSansCJKjp-Regular-74" transform="translate(266.499939 0)"/>
     <use xlink:href="#NotoSansCJKjp-Regular-20" transform="translate(304.199936 0)"/>
     <use xlink:href="#NotoSansCJKjp-Regular-2f" transform="translate(326.59993 0)"/>
     <use xlink:href="#NotoSansCJKjp-Regular-20" transform="translate(365.799927 0)"/>
     <use xlink:href="#NotoSansCJKjp-Regular-65" transform="translate(388.199921 0)"/>
     <use xlink:href="#NotoSansCJKjp-Regular-63" transform="translate(443.599915 0)"/>
     <use xlink:href="#NotoSansCJKjp-Regular-68" transform="translate(494.599899 0)"/>
     <use xlink:href="#NotoSansCJKjp-Regular-6f" transform="translate(555.299896 0)"/>
     <use xlink:href="#NotoSansCJKjp-Regular-20" transform="translate(615.899887 0)"/>
     <use xlink:href="#NotoSansCJKjp-Regular-2f" transform="translate(638.299881 0)"/>
     <use xlink:href="#NotoSansCJKjp-Regular-20" transform="translate(677.499878 0)"/>
     <use xlink:href="#NotoSansCJKjp-Regular-6f" transform="translate(699.899872 0)"/>
     <use xlink:href="#NotoSansCJKjp-Regular-70" transform="translate(760.499863 0)"/>
     <use xlink:href="#NotoSansCJKjp-Regular-65" transform="translate(822.499847 0)"/>
     <use xlink:href="#NotoSansCJKjp-Regular-6e" transform="translate(877.899841 0)"/>
    </g>
   </g>
   <g id="text_3">
    <!-- sysfile.c -->
    <g style="fill: #111827" transform="translate(426.060703 154.317881) scale(0.13 -0.13)">
     <defs>
      <path id="NotoSansCJKjp-Regular-79" d="M 646 -1498 
C 1338 -1498 1702 -973 1946 -294 
L 3251 3475 
L 2682 3475 
L 2054 1549 
C 1965 1235 1862 883 1773 563 
L 1741 563 
C 1619 890 1504 1242 1395 1549 
L 691 3475 
L 83 3475 
L 1478 -6 
L 1402 -269 
C 1254 -698 1011 -1018 621 -1018 
C 525 -1018 422 -986 352 -960 
L 237 -1427 
C 346 -1472 486 -1498 646 -1498 
z
" transform="scale(0.015625)"/>
      <path id="NotoSansCJKjp-Regular-66" d="M 211 3002 
L 685 3002 
L 685 0 
L 1267 0 
L 1267 3002 
L 2003 3002 
L 2003 3475 
L 1267 3475 
L 1267 4026 
C 1267 4474 1427 4710 1760 4710 
C 1882 4710 2022 4678 2150 4614 
L 2278 5069 
C 2118 5133 1914 5178 1696 5178 
C 1005 5178 685 4736 685 4032 
L 685 3475 
L 211 3443 
L 211 3002 
z
" transform="scale(0.015625)"/>
      <path id="NotoSansCJKjp-Regular-69" d="M 589 0 
L 1178 0 
L 1178 3475 
L 589 3475 
L 589 0 
z
M 883 4192 
C 1114 4192 1274 4346 1274 4582 
C 1274 4806 1114 4960 883 4960 
C 653 4960 499 4806 499 4582 
C 499 4346 653 4192 883 4192 
z
" transform="scale(0.015625)"/>
      <path id="NotoSansCJKjp-Regular-2e" d="M 890 -83 
C 1120 -83 1312 96 1312 358 
C 1312 627 1120 806 890 806 
C 653 806 467 627 467 358 
C 467 96 653 -83 890 -83 
z
" transform="scale(0.015625)"/>
     </defs>
     <use xlink:href="#NotoSansCJKjp-Regular-73"/>
     <use xlink:href="#NotoSansCJKjp-Regular-79" transform="translate(46.799988 0)"/>
     <use xlink:href="#NotoSansCJKjp-Regular-73" transform="translate(98.899979 0)"/>
     <use xlink:href="#NotoSansCJKjp-Regular-66" transform="translate(145.699966 0)"/>
     <use xlink:href="#NotoSansCJKjp-Regular-69" transform="translate(178.199951 0)"/>
     <use xlink:href="#NotoSansCJKjp-Regular-6c" transform="translate(205.699936 0)"/>
     <use xlink:href="#NotoSansCJKjp-Regular-65" transform="translate(234.09993 0)"/>
     <use xlink:href="#NotoSansCJKjp-Regular-2e" transform="translate(289.499924 0)"/>
     <use xlink:href="#NotoSansCJKjp-Regular-63" transform="translate(317.299911 0)"/>
    </g>
    <!-- 系统调用入口 -->
    <g style="fill: #111827" transform="translate(411 169.777319) scale(0.13 -0.13)">
     <defs>
      <path id="NotoSansCJKjp-Regular-8c03" d="M 672 4941 
C 1018 4646 1446 4218 1638 3936 
L 1978 4275 
C 1773 4544 1338 4954 986 5235 
L 672 4941 
z
M 275 3366 
L 275 2906 
L 1178 2906 
L 1178 685 
C 1178 346 947 96 819 -6 
C 909 -77 1062 -237 1120 -333 
C 1203 -224 1357 -96 2208 582 
C 2118 282 1990 0 1811 -250 
C 1907 -301 2093 -435 2163 -506 
C 2790 365 2880 1715 2880 2701 
L 2880 4659 
L 5478 4659 
L 5478 70 
C 5478 -26 5446 -58 5350 -58 
C 5261 -64 4960 -64 4627 -51 
C 4691 -173 4762 -371 4781 -493 
C 5235 -493 5510 -486 5683 -416 
C 5856 -333 5914 -192 5914 64 
L 5914 5088 
L 2451 5088 
L 2451 2701 
C 2451 2093 2432 1382 2253 723 
C 2202 819 2144 954 2112 1050 
L 1645 691 
L 1645 3366 
L 275 3366 
z
M 3968 4467 
L 3968 3930 
L 3277 3930 
L 3277 3558 
L 3968 3558 
L 3968 2906 
L 3136 2906 
L 3136 2541 
L 5235 2541 
L 5235 2906 
L 4358 2906 
L 4358 3558 
L 5075 3558 
L 5075 3930 
L 4358 3930 
L 4358 4467 
L 3968 4467 
z
M 3277 2016 
L 3277 224 
L 3648 224 
L 3648 518 
L 4998 518 
L 4998 2016 
L 3277 2016 
z
M 3648 1658 
L 4627 1658 
L 4627 883 
L 3648 883 
L 3648 1658 
z
" transform="scale(0.015625)"/>
      <path id="NotoSansCJKjp-Regular-5165" d="M 2842 3731 
C 2451 1920 1651 627 230 -115 
C 358 -205 582 -403 666 -499 
C 1946 250 2758 1427 3238 3085 
C 3533 1869 4218 461 5798 -493 
C 5882 -371 6074 -173 6189 -83 
C 3661 1414 3514 3846 3514 4986 
L 1459 4986 
L 1459 4499 
L 3040 4499 
C 3053 4256 3078 3981 3123 3680 
L 2842 3731 
z
" transform="scale(0.015625)"/>
      <path id="NotoSansCJKjp-Regular-53e3" d="M 813 4704 
L 813 -352 
L 1312 -352 
L 1312 192 
L 5094 192 
L 5094 -326 
L 5606 -326 
L 5606 4704 
L 813 4704 
z
M 1312 685 
L 1312 4224 
L 5094 4224 
L 5094 685 
L 1312 685 
z
" transform="scale(0.015625)"/>
     </defs>
     <use xlink:href="#NotoSansCJKjp-Regular-7cfb"/>
     <use xlink:href="#NotoSansCJKjp-Regular-7edf" transform="translate(99.999985 0)"/>
     <use xlink:href="#NotoSansCJKjp-Regular-8c03" transform="translate(199.999969 0)"/>
     <use xlink:href="#NotoSansCJKjp-Regular-7528" transform="translate(299.999954 0)"/>
     <use xlink:href="#NotoSansCJKjp-Regular-5165" transform="translate(399.999939 0)"/>
     <use xlink:href="#NotoSansCJKjp-Regular-53e3" transform="translate(499.999924 0)"/>
    </g>
   </g>
   <g id="text_4">
    <!-- file.c -->
    <g style="fill: #111827" transform="translate(435.530391 224.119469) scale(0.13 -0.13)">
     <use xlink:href="#NotoSansCJKjp-Regular-66"/>
     <use xlink:href="#NotoSansCJKjp-Regular-69" transform="translate(32.499985 0)"/>
     <use xlink:href="#NotoSansCJKjp-Regular-6c" transform="translate(59.999969 0)"/>
     <use xlink:href="#NotoSansCJKjp-Regular-65" transform="translate(88.399963 0)"/>
     <use xlink:href="#NotoSansCJKjp-Regular-2e" transform="translate(143.799957 0)"/>
     <use xlink:href="#NotoSansCJKjp-Regular-63" transform="translate(171.599945 0)"/>
    </g>
    <!-- struct file / 偏移 / 引用计数 -->
    <g style="fill: #111827" transform="translate(371.548047 239.513906) scale(0.13 -0.13)">
     <defs>
      <path id="NotoSansCJKjp-Regular-72" d="M 589 0 
L 1178 0 
L 1178 2234 
C 1408 2822 1760 3040 2048 3040 
C 2195 3040 2272 3021 2387 2982 
L 2496 3488 
C 2387 3546 2278 3565 2125 3565 
C 1741 3565 1382 3283 1139 2842 
L 1126 2842 
L 1069 3475 
L 589 3475 
L 589 0 
z
" transform="scale(0.015625)"/>
      <path id="NotoSansCJKjp-Regular-75" d="M 1606 -83 
C 2080 -83 2426 166 2752 544 
L 2771 544 
L 2816 0 
L 3302 0 
L 3302 3475 
L 2720 3475 
L 2720 1011 
C 2387 602 2138 422 1779 422 
C 1318 422 1126 698 1126 1344 
L 1126 3475 
L 538 3475 
L 538 1274 
C 538 384 870 -83 1606 -83 
z
" transform="scale(0.015625)"/>
      <path id="NotoSansCJKjp-Regular-504f" d="M 2035 5018 
L 2035 4614 
L 6131 4614 
L 6131 5018 
L 2035 5018 
z
M 2317 4173 
L 2317 3040 
C 2317 2150 2240 909 1581 6 
C 1683 -45 1869 -205 1939 -288 
C 2342 262 2554 960 2662 1632 
L 2662 -525 
L 3066 -525 
L 3066 755 
L 3648 755 
L 3648 -480 
L 4006 -480 
L 4006 755 
L 4602 755 
L 4602 -480 
L 4966 -480 
L 4966 755 
L 5568 755 
L 5568 -32 
C 5568 -90 5549 -109 5491 -109 
C 5434 -109 5274 -109 5075 -102 
C 5139 -218 5203 -403 5216 -518 
C 5510 -518 5696 -512 5837 -442 
C 5965 -365 5997 -243 5997 -38 
L 5997 2253 
L 2733 2253 
L 2758 2726 
L 5875 2726 
L 5875 4173 
L 2317 4173 
z
M 2765 3795 
L 5408 3795 
L 5408 3110 
L 2765 3110 
L 2765 3795 
z
M 5568 1875 
L 5568 1139 
L 4966 1139 
L 4966 1875 
L 5568 1875 
z
M 3066 1139 
L 3066 1875 
L 3648 1875 
L 3648 1139 
L 3066 1139 
z
M 4006 1875 
L 4602 1875 
L 4602 1139 
L 4006 1139 
L 4006 1875 
z
M 1491 5344 
C 1184 4352 672 3366 115 2726 
C 198 2605 320 2355 365 2240 
C 576 2490 781 2778 973 3098 
L 973 -512 
L 1434 -512 
L 1434 3962 
C 1626 4365 1798 4794 1933 5222 
L 1491 5344 
z
" transform="scale(0.015625)"/>
      <path id="NotoSansCJKjp-Regular-79fb" d="M 3910 4416 
L 5197 4416 
C 5024 4083 4774 3795 4486 3546 
C 4275 3750 3949 3994 3654 4179 
L 3910 4416 
z
M 4109 5376 
C 3827 4883 3277 4307 2477 3910 
C 2573 3834 2720 3680 2784 3578 
C 2982 3686 3168 3808 3341 3930 
C 3629 3750 3949 3494 4154 3290 
C 3686 2970 3136 2739 2586 2605 
C 2675 2515 2790 2336 2835 2221 
C 4122 2586 5325 3347 5824 4691 
L 5523 4838 
L 5434 4819 
L 4269 4819 
C 4390 4973 4499 5126 4589 5286 
L 4109 5376 
z
M 4211 1952 
L 5536 1952 
C 5350 1555 5088 1222 4768 941 
C 4531 1165 4166 1427 3840 1626 
C 3974 1728 4096 1837 4211 1952 
z
M 4454 2963 
C 4141 2400 3501 1760 2560 1325 
C 2656 1254 2797 1094 2861 992 
C 3085 1107 3296 1229 3488 1363 
C 3821 1165 4173 890 4410 659 
C 3846 282 3168 32 2451 -102 
C 2541 -205 2650 -397 2694 -512 
C 4243 -166 5613 621 6157 2246 
L 5850 2381 
L 5760 2362 
L 4576 2362 
C 4717 2534 4832 2707 4934 2880 
L 4454 2963 
z
M 2310 5286 
C 1837 5069 992 4883 275 4762 
C 333 4659 397 4499 416 4397 
C 717 4435 1037 4493 1357 4557 
L 1357 3571 
L 314 3571 
L 314 3123 
L 1293 3123 
C 1037 2387 595 1555 179 1101 
C 262 986 378 794 429 659 
C 755 1056 1094 1690 1357 2336 
L 1357 -499 
L 1830 -499 
L 1830 2259 
C 2048 1990 2304 1645 2413 1466 
L 2701 1843 
C 2573 1990 2016 2566 1830 2726 
L 1830 3123 
L 2630 3123 
L 2630 3571 
L 1830 3571 
L 1830 4666 
C 2131 4736 2413 4819 2643 4915 
L 2310 5286 
z
" transform="scale(0.015625)"/>
      <path id="NotoSansCJKjp-Regular-5f15" d="M 4954 5312 
L 4954 -512 
L 5434 -512 
L 5434 5312 
L 4954 5312 
z
M 838 3635 
C 749 2989 595 2131 461 1600 
L 941 1523 
L 1005 1830 
L 2707 1830 
C 2611 672 2502 179 2349 38 
C 2278 -19 2208 -32 2067 -32 
C 1914 -32 1485 -26 1056 13 
C 1152 -122 1216 -333 1229 -486 
C 1638 -499 2042 -512 2246 -493 
C 2483 -474 2624 -435 2765 -288 
C 2982 -58 3098 544 3213 2054 
C 3219 2125 3226 2278 3226 2278 
L 1094 2278 
L 1254 3187 
L 3194 3187 
L 3194 5107 
L 621 5107 
L 621 4659 
L 2726 4659 
L 2726 3635 
L 838 3635 
z
" transform="scale(0.015625)"/>
      <path id="NotoSansCJKjp-Regular-8ba1" d="M 877 4960 
C 1235 4659 1683 4224 1888 3949 
L 2214 4307 
C 1997 4570 1542 4979 1190 5267 
L 877 4960 
z
M 294 3366 
L 294 2893 
L 1312 2893 
L 1312 595 
C 1312 320 1114 128 992 51 
C 1082 -45 1210 -262 1254 -390 
C 1357 -256 1536 -115 2746 742 
C 2694 832 2618 1037 2586 1165 
L 1798 627 
L 1798 3366 
L 294 3366 
z
M 4006 5357 
L 4006 3251 
L 2381 3251 
L 2381 2758 
L 4006 2758 
L 4006 -512 
L 4512 -512 
L 4512 2758 
L 6138 2758 
L 6138 3251 
L 4512 3251 
L 4512 5357 
L 4006 5357 
z
" transform="scale(0.015625)"/>
      <path id="NotoSansCJKjp-Regular-6570" d="M 2803 5254 
C 2688 4998 2483 4627 2317 4403 
L 2643 4243 
C 2816 4454 3027 4781 3219 5075 
L 2803 5254 
z
M 531 5075 
C 704 4806 870 4454 928 4230 
L 1312 4397 
C 1248 4627 1075 4973 890 5222 
L 531 5075 
z
M 4026 5382 
C 3846 4243 3507 3162 2970 2490 
C 3078 2413 3283 2246 3360 2163 
C 3533 2394 3693 2669 3827 2970 
C 3974 2310 4160 1709 4410 1184 
C 4090 698 3667 314 3110 19 
C 2912 166 2656 326 2374 480 
C 2598 774 2746 1126 2829 1562 
L 3398 1562 
L 3398 1958 
L 1677 1958 
L 1894 2413 
L 1779 2438 
L 2061 2438 
L 2061 3398 
C 2374 3168 2771 2854 2938 2701 
L 3206 3046 
C 3034 3174 2336 3616 2061 3776 
L 2061 3802 
L 3373 3802 
L 3373 4198 
L 2061 4198 
L 2061 5382 
L 1613 5382 
L 1613 4198 
L 288 4198 
L 288 3802 
L 1485 3802 
C 1171 3379 678 2982 218 2784 
C 314 2694 422 2528 480 2419 
C 870 2637 1293 2989 1613 3373 
L 1613 2477 
L 1440 2515 
L 1178 1958 
L 250 1958 
L 250 1562 
L 979 1562 
C 806 1222 627 896 486 653 
L 909 506 
L 1005 678 
C 1222 589 1434 493 1638 384 
C 1306 147 858 -13 269 -109 
C 352 -211 448 -384 480 -512 
C 1171 -365 1683 -154 2061 160 
C 2355 -13 2611 -186 2810 -352 
L 2963 -192 
C 3046 -301 3136 -448 3174 -531 
C 3802 -205 4288 205 4666 710 
C 4979 192 5370 -224 5862 -512 
C 5939 -378 6093 -192 6208 -96 
C 5690 173 5280 614 4960 1165 
C 5350 1856 5594 2707 5754 3750 
L 6144 3750 
L 6144 4198 
L 4262 4198 
C 4358 4557 4442 4928 4506 5312 
L 4026 5382 
z
M 1478 1562 
L 2368 1562 
C 2285 1216 2157 928 1965 698 
C 1715 819 1459 934 1197 1030 
L 1478 1562 
z
M 4134 3750 
L 5254 3750 
C 5139 2950 4966 2266 4698 1696 
C 4435 2298 4250 3002 4134 3750 
z
" transform="scale(0.015625)"/>
     </defs>
     <use xlink:href="#NotoSansCJKjp-Regular-73"/>
     <use xlink:href="#NotoSansCJKjp-Regular-74" transform="translate(46.799988 0)"/>
     <use xlink:href="#NotoSansCJKjp-Regular-72" transform="translate(84.499985 0)"/>
     <use xlink:href="#NotoSansCJKjp-Regular-75" transform="translate(123.299973 0)"/>
     <use xlink:href="#NotoSansCJKjp-Regular-63" transform="translate(183.999969 0)"/>
     <use xlink:href="#NotoSansCJKjp-Regular-74" transform="translate(234.999954 0)"/>
     <use xlink:href="#NotoSansCJKjp-Regular-20" transform="translate(272.699951 0)"/>
     <use xlink:href="#NotoSansCJKjp-Regular-66" transform="translate(295.099945 0)"/>
     <use xlink:href="#NotoSansCJKjp-Regular-69" transform="translate(327.59993 0)"/>
     <use xlink:href="#NotoSansCJKjp-Regular-6c" transform="translate(355.099915 0)"/>
     <use xlink:href="#NotoSansCJKjp-Regular-65" transform="translate(383.499908 0)"/>
     <use xlink:href="#NotoSansCJKjp-Regular-20" transform="translate(438.899902 0)"/>
     <use xlink:href="#NotoSansCJKjp-Regular-2f" transform="translate(461.299896 0)"/>
     <use xlink:href="#NotoSansCJKjp-Regular-20" transform="translate(500.499893 0)"/>
     <use xlink:href="#NotoSansCJKjp-Regular-504f" transform="translate(522.899887 0)"/>
     <use xlink:href="#NotoSansCJKjp-Regular-79fb" transform="translate(622.899872 0)"/>
     <use xlink:href="#NotoSansCJKjp-Regular-20" transform="translate(722.899857 0)"/>
     <use xlink:href="#NotoSansCJKjp-Regular-2f" transform="translate(745.29985 0)"/>
     <use xlink:href="#NotoSansCJKjp-Regular-20" transform="translate(784.499847 0)"/>
     <use xlink:href="#NotoSansCJKjp-Regular-5f15" transform="translate(806.899841 0)"/>
     <use xlink:href="#NotoSansCJKjp-Regular-7528" transform="translate(906.899826 0)"/>
     <use xlink:href="#NotoSansCJKjp-Regular-8ba1" transform="translate(1006.899811 0)"/>
     <use xlink:href="#NotoSansCJKjp-Regular-6570" transform="translate(1106.899796 0)"/>
    </g>
   </g>
   <g id="text_5">
    <!-- fs.c -->
    <g style="fill: #111827" transform="translate(439.723906 293.973869) scale(0.13 -0.13)">
     <use xlink:href="#NotoSansCJKjp-Regular-66"/>
     <use xlink:href="#NotoSansCJKjp-Regular-73" transform="translate(32.499985 0)"/>
     <use xlink:href="#NotoSansCJKjp-Regular-2e" transform="translate(79.299973 0)"/>
     <use xlink:href="#NotoSansCJKjp-Regular-63" transform="translate(107.09996 0)"/>
    </g>
    <!-- inode / 目录项 / 路径解析 -->
    <g style="fill: #111827" transform="translate(376.255469 309.368306) scale(0.13 -0.13)">
     <defs>
      <path id="NotoSansCJKjp-Regular-64" d="M 1773 -83 
C 2189 -83 2560 141 2829 410 
L 2848 410 
L 2899 0 
L 3379 0 
L 3379 5094 
L 2790 5094 
L 2790 3757 
L 2822 3162 
C 2515 3411 2253 3565 1843 3565 
C 1050 3565 339 2861 339 1734 
C 339 576 902 -83 1773 -83 
z
M 1901 410 
C 1293 410 941 902 941 1741 
C 941 2534 1389 3072 1946 3072 
C 2234 3072 2502 2970 2790 2707 
L 2790 883 
C 2502 563 2221 410 1901 410 
z
" transform="scale(0.015625)"/>
      <path id="NotoSansCJKjp-Regular-76ee" d="M 1491 3008 
L 4858 3008 
L 4858 1952 
L 1491 1952 
L 1491 3008 
z
M 1491 3469 
L 1491 4506 
L 4858 4506 
L 4858 3469 
L 1491 3469 
z
M 1491 1491 
L 4858 1491 
L 4858 429 
L 1491 429 
L 1491 1491 
z
M 1011 4979 
L 1011 -474 
L 1491 -474 
L 1491 -38 
L 4858 -38 
L 4858 -474 
L 5357 -474 
L 5357 4979 
L 1011 4979 
z
" transform="scale(0.015625)"/>
      <path id="NotoSansCJKjp-Regular-5f55" d="M 858 2029 
C 1274 1798 1779 1434 2022 1190 
L 2362 1523 
C 2106 1766 1587 2106 1184 2323 
L 858 2029 
z
M 858 5018 
L 858 4576 
L 4736 4576 
L 4710 3987 
L 1050 3987 
L 1050 3546 
L 4685 3546 
L 4646 2957 
L 429 2957 
L 429 2528 
L 2950 2528 
L 2950 1357 
C 2022 973 1056 582 435 346 
L 691 -83 
C 1318 186 2157 544 2950 896 
L 2950 13 
C 2950 -77 2918 -102 2816 -109 
C 2714 -115 2355 -115 1978 -102 
C 2042 -224 2118 -403 2144 -525 
C 2643 -525 2970 -525 3168 -454 
C 3373 -384 3437 -269 3437 6 
L 3437 1510 
C 3987 678 4787 58 5786 -256 
C 5850 -128 5997 58 6099 160 
C 5408 346 4806 685 4320 1133 
C 4730 1382 5210 1741 5594 2067 
L 5184 2368 
C 4896 2080 4422 1702 4026 1434 
C 3789 1702 3590 2010 3437 2336 
L 3437 2528 
L 6016 2528 
L 6016 2957 
L 5146 2957 
C 5203 3616 5248 4403 5261 5018 
L 4883 5043 
L 4800 5018 
L 858 5018 
z
" transform="scale(0.015625)"/>
      <path id="NotoSansCJKjp-Regular-9879" d="M 3955 3200 
L 3955 1850 
C 3955 1178 3782 358 2042 -122 
C 2144 -218 2285 -390 2342 -493 
C 4154 77 4435 1011 4435 1850 
L 4435 3200 
L 3955 3200 
z
M 4410 582 
C 4902 262 5530 -198 5830 -506 
L 6150 -166 
C 5843 134 5203 576 4710 883 
L 4410 582 
z
M 186 1178 
L 307 678 
C 896 877 1677 1146 2426 1402 
L 2362 1818 
L 1581 1581 
L 1581 4160 
L 2323 4160 
L 2323 4621 
L 294 4621 
L 294 4160 
L 1101 4160 
L 1101 1440 
L 186 1178 
z
M 2669 3994 
L 2669 979 
L 3136 979 
L 3136 3558 
L 5222 3558 
L 5222 992 
L 5702 992 
L 5702 3994 
L 4192 3994 
C 4288 4192 4390 4429 4493 4659 
L 6125 4659 
L 6125 5094 
L 2438 5094 
L 2438 4659 
L 3923 4659 
C 3859 4442 3782 4198 3699 3994 
L 2669 3994 
z
" transform="scale(0.015625)"/>
      <path id="NotoSansCJKjp-Regular-8def" d="M 998 4685 
L 2208 4685 
L 2208 3558 
L 998 3558 
L 998 4685 
z
M 243 269 
L 326 -198 
C 1005 -38 1926 186 2803 410 
L 2758 838 
L 1914 640 
L 1914 1786 
L 2592 1786 
C 2682 1696 2771 1562 2822 1466 
C 2950 1523 3078 1581 3206 1651 
L 3206 -499 
L 3654 -499 
L 3654 -262 
L 5267 -262 
L 5267 -480 
L 5722 -480 
L 5722 1638 
L 5926 1542 
C 5997 1670 6131 1856 6227 1946 
C 5645 2163 5158 2502 4755 2893 
C 5165 3373 5491 3942 5702 4608 
L 5402 4742 
L 5312 4723 
L 4070 4723 
C 4147 4902 4211 5082 4275 5267 
L 3821 5382 
C 3578 4608 3155 3878 2650 3405 
L 2650 5107 
L 570 5107 
L 570 3136 
L 1478 3136 
L 1478 538 
L 979 422 
L 979 2534 
L 570 2534 
L 570 333 
L 243 269 
z
M 3654 160 
L 3654 1395 
L 5267 1395 
L 5267 160 
L 3654 160 
z
M 5101 4301 
C 4934 3904 4710 3546 4448 3226 
C 4179 3539 3968 3872 3814 4192 
L 3872 4301 
L 5101 4301 
z
M 3494 1811 
C 3834 2022 4166 2272 4461 2573 
C 4736 2291 5050 2029 5408 1811 
L 3494 1811 
z
M 4160 2906 
C 3731 2470 3226 2131 2714 1907 
L 2714 2214 
L 1914 2214 
L 1914 3136 
L 2650 3136 
L 2650 3341 
C 2758 3264 2918 3130 2989 3053 
C 3194 3258 3392 3507 3571 3789 
C 3731 3501 3923 3200 4160 2906 
z
" transform="scale(0.015625)"/>
      <path id="NotoSansCJKjp-Regular-5f84" d="M 1651 5370 
C 1357 4902 762 4352 230 4006 
C 307 3910 435 3718 486 3616 
C 1082 4000 1715 4621 2106 5190 
L 1651 5370 
z
M 5178 4627 
C 4934 4192 4582 3821 4173 3507 
C 3770 3821 3443 4198 3226 4627 
L 5178 4627 
z
M 2400 5037 
L 2400 4627 
L 3155 4627 
L 2803 4506 
C 3053 4019 3386 3603 3795 3245 
C 3264 2918 2656 2675 2042 2522 
C 2131 2426 2246 2253 2291 2138 
C 2950 2323 3597 2592 4160 2963 
C 4678 2605 5286 2336 5958 2170 
C 6022 2291 6150 2483 6259 2579 
C 5626 2714 5043 2938 4550 3245 
C 5094 3680 5542 4230 5824 4915 
L 5517 5056 
L 5427 5037 
L 2400 5037 
z
M 2483 1542 
L 2483 1120 
L 3917 1120 
L 3917 115 
L 2074 115 
L 2074 -314 
L 6138 -314 
L 6138 115 
L 4390 115 
L 4390 1120 
L 5792 1120 
L 5792 1542 
L 4390 1542 
L 4390 2406 
L 3917 2406 
L 3917 1542 
L 2483 1542 
z
M 1862 4109 
C 1453 3411 781 2726 147 2285 
C 230 2182 371 1952 422 1850 
C 678 2042 934 2272 1190 2528 
L 1190 -506 
L 1658 -506 
L 1658 3046 
C 1901 3334 2118 3635 2298 3942 
L 1862 4109 
z
" transform="scale(0.015625)"/>
      <path id="NotoSansCJKjp-Regular-89e3" d="M 1677 3379 
L 1677 2662 
L 1101 2662 
L 1101 3379 
L 1677 3379 
z
M 2029 3379 
L 2605 3379 
L 2605 2662 
L 2029 2662 
L 2029 3379 
z
M 1037 3750 
C 1152 3962 1261 4186 1357 4422 
L 2067 4422 
C 1984 4192 1875 3942 1779 3750 
L 1037 3750 
z
M 1210 5382 
C 1011 4595 659 3834 205 3341 
C 307 3277 493 3130 563 3053 
L 698 3219 
L 698 2048 
C 698 1325 653 371 218 -307 
C 314 -346 493 -454 563 -525 
C 864 -58 1005 576 1062 1171 
L 2605 1171 
L 2605 19 
C 2605 -70 2573 -96 2483 -96 
C 2400 -102 2106 -102 1779 -96 
C 1837 -205 1907 -390 1926 -506 
C 2374 -506 2630 -499 2797 -429 
C 2957 -352 3014 -218 3014 13 
L 3014 3219 
C 3110 3142 3219 2995 3270 2906 
C 4070 3258 4384 3885 4518 4646 
L 5536 4646 
C 5498 3898 5446 3597 5376 3514 
C 5331 3462 5280 3456 5184 3456 
C 5101 3456 4864 3462 4608 3482 
C 4672 3373 4710 3206 4723 3085 
C 4986 3066 5254 3066 5389 3078 
C 5549 3091 5651 3136 5734 3238 
C 5875 3392 5933 3802 5978 4870 
C 5984 4934 5990 5050 5990 5050 
L 3200 5050 
L 3200 4646 
L 4070 4646 
C 3955 4045 3699 3526 3014 3238 
L 3014 3750 
L 2202 3750 
C 2355 4026 2509 4352 2611 4646 
L 2330 4826 
L 2259 4806 
L 1504 4806 
C 1555 4966 1606 5126 1651 5286 
L 1210 5382 
z
M 1677 2298 
L 1677 1555 
L 1088 1555 
L 1101 2048 
L 1101 2298 
L 1677 2298 
z
M 2029 2298 
L 2605 2298 
L 2605 1555 
L 2029 1555 
L 2029 2298 
z
M 3642 2944 
C 3533 2406 3334 1869 3053 1504 
C 3162 1459 3347 1363 3430 1306 
C 3552 1478 3661 1690 3763 1926 
L 4480 1926 
L 4480 1152 
L 3123 1152 
L 3123 723 
L 4480 723 
L 4480 -486 
L 4934 -486 
L 4934 723 
L 6163 723 
L 6163 1152 
L 4934 1152 
L 4934 1926 
L 6048 1926 
L 6048 2349 
L 4934 2349 
L 4934 3002 
L 4480 3002 
L 4480 2349 
L 3917 2349 
C 3968 2515 4019 2694 4058 2867 
L 3642 2944 
z
" transform="scale(0.015625)"/>
      <path id="NotoSansCJKjp-Regular-6790" d="M 5459 5306 
C 4998 5094 4230 4883 3501 4730 
L 3104 4851 
L 3104 3053 
C 3104 2080 3027 787 2310 -173 
C 2426 -230 2605 -384 2675 -493 
C 3386 454 3546 1734 3565 2726 
L 4730 2726 
L 4730 -512 
L 5203 -512 
L 5203 2726 
L 6157 2726 
L 6157 3181 
L 3571 3181 
L 3571 4320 
C 4371 4461 5254 4678 5869 4934 
L 5459 5306 
z
M 1325 5376 
L 1325 4006 
L 333 4006 
L 333 3546 
L 1261 3546 
C 1050 2662 614 1658 179 1120 
C 256 1005 378 813 429 685 
C 762 1120 1082 1837 1325 2566 
L 1325 -506 
L 1792 -506 
L 1792 2400 
C 2016 2086 2272 1696 2381 1491 
L 2682 1875 
C 2554 2054 1997 2733 1792 2963 
L 1792 3546 
L 2662 3546 
L 2662 4006 
L 1792 4006 
L 1792 5376 
L 1325 5376 
z
" transform="scale(0.015625)"/>
     </defs>
     <use xlink:href="#NotoSansCJKjp-Regular-69"/>
     <use xlink:href="#NotoSansCJKjp-Regular-6e" transform="translate(27.499985 0)"/>
     <use xlink:href="#NotoSansCJKjp-Regular-6f" transform="translate(88.499969 0)"/>
     <use xlink:href="#NotoSansCJKjp-Regular-64" transform="translate(149.09996 0)"/>
     <use xlink:href="#NotoSansCJKjp-Regular-65" transform="translate(211.099945 0)"/>
     <use xlink:href="#NotoSansCJKjp-Regular-20" transform="translate(266.499939 0)"/>
     <use xlink:href="#NotoSansCJKjp-Regular-2f" transform="translate(288.899933 0)"/>
     <use xlink:href="#NotoSansCJKjp-Regular-20" transform="translate(328.09993 0)"/>
     <use xlink:href="#NotoSansCJKjp-Regular-76ee" transform="translate(350.499924 0)"/>
     <use xlink:href="#NotoSansCJKjp-Regular-5f55" transform="translate(450.499908 0)"/>
     <use xlink:href="#NotoSansCJKjp-Regular-9879" transform="translate(550.499893 0)"/>
     <use xlink:href="#NotoSansCJKjp-Regular-20" transform="translate(650.499878 0)"/>
     <use xlink:href="#NotoSansCJKjp-Regular-2f" transform="translate(672.899872 0)"/>
     <use xlink:href="#NotoSansCJKjp-Regular-20" transform="translate(712.099869 0)"/>
     <use xlink:href="#NotoSansCJKjp-Regular-8def" transform="translate(734.499863 0)"/>
     <use xlink:href="#NotoSansCJKjp-Regular-5f84" transform="translate(834.499847 0)"/>
     <use xlink:href="#NotoSansCJKjp-Regular-89e3" transform="translate(934.499832 0)"/>
     <use xlink:href="#NotoSansCJKjp-Regular-6790" transform="translate(1034.499817 0)"/>
    </g>
   </g>
   <g id="text_6">
    <!-- log.c -->
    <g style="fill: #111827" transform="translate(435.426797 363.692175) scale(0.13 -0.13)">
     <defs>
      <path id="NotoSansCJKjp-Regular-67" d="M 1760 -1600 
C 2835 -1600 3520 -1043 3520 -397 
C 3520 179 3110 429 2310 429 
L 1626 429 
C 1158 429 1018 589 1018 806 
C 1018 998 1114 1114 1242 1222 
C 1395 1146 1587 1101 1754 1101 
C 2470 1101 3027 1568 3027 2310 
C 3027 2611 2912 2867 2746 3027 
L 3456 3027 
L 3456 3475 
L 2246 3475 
C 2125 3526 1952 3565 1754 3565 
C 1056 3565 454 3085 454 2323 
C 454 1907 678 1568 909 1389 
L 909 1363 
C 723 1235 525 1005 525 717 
C 525 442 659 256 838 147 
L 838 115 
C 512 -83 326 -371 326 -672 
C 326 -1267 915 -1600 1760 -1600 
z
M 1754 1498 
C 1357 1498 1018 1818 1018 2323 
C 1018 2835 1350 3136 1754 3136 
C 2170 3136 2496 2835 2496 2323 
C 2496 1818 2157 1498 1754 1498 
z
M 1843 -1197 
C 1210 -1197 838 -960 838 -589 
C 838 -390 941 -179 1190 0 
C 1344 -38 1510 -51 1638 -51 
L 2240 -51 
C 2701 -51 2944 -166 2944 -493 
C 2944 -851 2515 -1197 1843 -1197 
z
" transform="scale(0.015625)"/>
     </defs>
     <use xlink:href="#NotoSansCJKjp-Regular-6c"/>
     <use xlink:href="#NotoSansCJKjp-Regular-6f" transform="translate(28.399994 0)"/>
     <use xlink:href="#NotoSansCJKjp-Regular-67" transform="translate(88.999985 0)"/>
     <use xlink:href="#NotoSansCJKjp-Regular-2e" transform="translate(145.399979 0)"/>
     <use xlink:href="#NotoSansCJKjp-Regular-63" transform="translate(173.199966 0)"/>
    </g>
    <!-- 事务边界 / 崩溃一致性 -->
    <g style="fill: #111827" transform="translate(386.038984 379.3588) scale(0.13 -0.13)">
     <defs>
      <path id="NotoSansCJKjp-Regular-4e8b" d="M 858 838 
L 858 461 
L 2938 461 
L 2938 26 
C 2938 -90 2899 -122 2778 -128 
C 2669 -134 2278 -141 1894 -128 
C 1958 -237 2042 -416 2067 -531 
C 2605 -531 2938 -525 3136 -454 
C 3334 -384 3424 -269 3424 26 
L 3424 461 
L 4960 461 
L 4960 179 
L 5446 179 
L 5446 1318 
L 6112 1318 
L 6112 1702 
L 5446 1702 
L 5446 2502 
L 3424 2502 
L 3424 2957 
L 5344 2957 
L 5344 4090 
L 3424 4090 
L 3424 4467 
L 5984 4467 
L 5984 4864 
L 3424 4864 
L 3424 5376 
L 2938 5376 
L 2938 4864 
L 429 4864 
L 429 4467 
L 2938 4467 
L 2938 4090 
L 1101 4090 
L 1101 2957 
L 2938 2957 
L 2938 2502 
L 915 2502 
L 915 2150 
L 2938 2150 
L 2938 1702 
L 307 1702 
L 307 1318 
L 2938 1318 
L 2938 838 
L 858 838 
z
M 1562 3750 
L 2938 3750 
L 2938 3296 
L 1562 3296 
L 1562 3750 
z
M 3424 3750 
L 4858 3750 
L 4858 3296 
L 3424 3296 
L 3424 3750 
z
M 3424 2150 
L 4960 2150 
L 4960 1702 
L 3424 1702 
L 3424 2150 
z
M 3424 1318 
L 4960 1318 
L 4960 838 
L 3424 838 
L 3424 1318 
z
" transform="scale(0.015625)"/>
      <path id="NotoSansCJKjp-Regular-52a1" d="M 2854 2438 
C 2829 2208 2784 1997 2733 1805 
L 806 1805 
L 806 1382 
L 2586 1382 
C 2214 557 1504 128 365 -90 
C 448 -186 582 -397 627 -499 
C 1894 -198 2688 339 3098 1382 
L 5043 1382 
C 4934 538 4806 147 4659 26 
C 4589 -32 4512 -38 4378 -38 
C 4224 -38 3808 -32 3405 6 
C 3488 -115 3546 -294 3558 -422 
C 3942 -442 4320 -448 4518 -442 
C 4749 -429 4896 -390 5037 -262 
C 5261 -64 5402 422 5542 1587 
C 5555 1658 5568 1805 5568 1805 
L 3232 1805 
C 3283 1990 3322 2189 3354 2400 
L 2854 2438 
z
M 4768 4307 
C 4390 3923 3866 3616 3258 3373 
C 2752 3590 2349 3866 2074 4218 
L 2163 4307 
L 4768 4307 
z
M 2445 5382 
C 2112 4826 1478 4166 576 3706 
C 678 3629 813 3456 877 3347 
C 1203 3526 1498 3731 1760 3942 
C 2016 3642 2336 3386 2714 3181 
C 1952 2938 1107 2784 294 2707 
C 371 2598 454 2406 486 2285 
C 1421 2400 2387 2598 3251 2925 
C 3994 2624 4890 2445 5882 2362 
C 5939 2496 6048 2688 6150 2797 
C 5293 2842 4493 2963 3821 3168 
C 4531 3514 5133 3962 5517 4544 
L 5229 4742 
L 5146 4717 
L 2541 4717 
C 2694 4902 2829 5094 2944 5286 
L 2445 5382 
z
" transform="scale(0.015625)"/>
      <path id="NotoSansCJKjp-Regular-8fb9" d="M 525 5018 
C 877 4685 1306 4218 1510 3917 
L 1901 4224 
C 1690 4512 1248 4960 896 5280 
L 525 5018 
z
M 3539 5280 
C 3533 4922 3526 4570 3507 4230 
L 2189 4230 
L 2189 3770 
L 3475 3770 
C 3366 2541 3046 1517 2003 896 
C 2131 813 2278 659 2349 544 
C 3482 1261 3840 2400 3974 3770 
L 5395 3770 
C 5312 1971 5222 1267 5062 1094 
C 4998 1024 4928 1011 4806 1018 
C 4659 1018 4301 1018 3923 1050 
C 4013 909 4077 704 4090 557 
C 4442 544 4806 531 4998 550 
C 5216 570 5357 621 5491 787 
C 5709 1050 5798 1824 5888 4000 
C 5894 4064 5894 4230 5894 4230 
L 4006 4230 
C 4026 4570 4038 4922 4045 5280 
L 3539 5280 
z
M 1587 3206 
L 269 3206 
L 269 2733 
L 1107 2733 
L 1107 742 
C 826 627 499 326 154 -58 
L 512 -525 
C 826 -77 1126 333 1331 333 
C 1472 333 1690 102 1958 -77 
C 2419 -371 2963 -442 3795 -442 
C 4442 -442 5626 -403 6080 -371 
C 6093 -224 6170 32 6234 166 
C 5587 96 4608 38 3814 38 
C 3066 38 2502 83 2080 358 
C 1856 499 1709 627 1587 704 
L 1587 3206 
z
" transform="scale(0.015625)"/>
      <path id="NotoSansCJKjp-Regular-754c" d="M 1990 1734 
L 1990 1357 
C 1990 877 1882 256 755 -166 
C 858 -256 1018 -429 1082 -550 
C 2330 -51 2483 730 2483 1344 
L 2483 1734 
L 1990 1734 
z
M 1478 3699 
L 2950 3699 
L 2950 3002 
L 1478 3002 
L 1478 3699 
z
M 3430 3699 
L 4915 3699 
L 4915 3002 
L 3430 3002 
L 3430 3699 
z
M 1478 4762 
L 2950 4762 
L 2950 4077 
L 1478 4077 
L 1478 4762 
z
M 3430 4762 
L 4915 4762 
L 4915 4077 
L 3430 4077 
L 3430 4762 
z
M 4026 1734 
L 4026 -499 
L 4518 -499 
L 4518 1722 
C 4922 1446 5376 1222 5830 1082 
C 5901 1203 6048 1389 6157 1491 
C 5395 1690 4627 2099 4134 2598 
L 5408 2598 
L 5408 5171 
L 1005 5171 
L 1005 2598 
L 2285 2598 
C 1792 2093 1024 1664 288 1453 
C 397 1350 538 1178 608 1050 
C 1453 1350 2342 1926 2874 2598 
L 3578 2598 
C 3821 2278 4141 1984 4499 1734 
L 4026 1734 
z
" transform="scale(0.015625)"/>
      <path id="NotoSansCJKjp-Regular-5d29" d="M 2400 3027 
L 2400 2400 
L 1197 2400 
L 1197 3027 
L 2400 3027 
z
M 755 3430 
L 755 2067 
C 755 1376 698 448 205 -224 
C 301 -282 480 -435 550 -531 
C 864 -115 1030 422 1114 947 
L 2400 947 
L 2400 77 
C 2400 0 2374 -26 2291 -32 
C 2214 -38 1946 -38 1651 -26 
C 1715 -141 1786 -333 1805 -454 
C 2214 -454 2470 -448 2637 -371 
C 2803 -294 2848 -166 2848 64 
L 2848 3430 
L 755 3430 
z
M 2400 1344 
L 1165 1344 
C 1184 1574 1197 1798 1197 2003 
L 2400 2003 
L 2400 1344 
z
M 5267 3027 
L 5267 2400 
L 3968 2400 
L 3968 3027 
L 5267 3027 
z
M 3526 3430 
L 3526 1888 
C 3526 1229 3475 371 2976 -237 
C 3066 -288 3245 -454 3315 -544 
C 3654 -134 3827 410 3904 934 
L 5267 934 
L 5267 70 
C 5267 -13 5242 -32 5152 -38 
C 5069 -38 4787 -45 4480 -32 
C 4544 -147 4614 -339 4640 -467 
C 5075 -467 5338 -461 5510 -390 
C 5677 -307 5728 -173 5728 70 
L 5728 3430 
L 3526 3430 
z
M 5267 1325 
L 3949 1325 
C 3962 1517 3968 1709 3968 1882 
L 3968 2003 
L 5267 2003 
L 5267 1325 
z
M 2944 5376 
L 2944 4288 
L 1184 4288 
L 1184 5152 
L 710 5152 
L 710 3853 
L 5741 3853 
L 5741 5152 
L 5248 5152 
L 5248 4288 
L 3430 4288 
L 3430 5376 
L 2944 5376 
z
" transform="scale(0.015625)"/>
      <path id="NotoSansCJKjp-Regular-6e83" d="M 2451 2586 
L 2451 589 
L 2918 589 
L 2918 2208 
L 5146 2208 
L 5146 589 
L 5626 589 
L 5626 2586 
L 2451 2586 
z
M 4205 250 
C 4742 58 5402 -262 5722 -512 
L 5958 -147 
C 5626 90 4960 397 4429 576 
L 4205 250 
z
M 3840 1850 
L 3840 1274 
C 3840 730 3552 205 2048 -154 
C 2131 -230 2253 -422 2298 -518 
C 3891 -122 4275 563 4275 1254 
L 4275 1850 
L 3840 1850 
z
M 595 4973 
C 992 4736 1510 4384 1760 4154 
L 2061 4525 
C 1805 4742 1274 5075 883 5299 
L 595 4973 
z
M 269 3194 
C 646 2995 1139 2701 1382 2509 
L 1658 2899 
C 1402 3085 902 3366 538 3539 
L 269 3194 
z
M 486 -102 
L 902 -410 
C 1229 154 1606 883 1901 1517 
L 1530 1811 
C 1210 1139 781 358 486 -102 
z
M 2413 4934 
L 2413 3686 
L 3808 3686 
L 3808 3302 
L 1926 3302 
L 1926 2925 
L 6112 2925 
L 6112 3302 
L 4256 3302 
L 4256 3686 
L 5658 3686 
L 5658 4934 
L 4256 4934 
L 4256 5357 
L 3808 5357 
L 3808 4934 
L 2413 4934 
z
M 2848 4576 
L 3808 4576 
L 3808 4045 
L 2848 4045 
L 2848 4576 
z
M 4256 4576 
L 5203 4576 
L 5203 4045 
L 4256 4045 
L 4256 4576 
z
" transform="scale(0.015625)"/>
      <path id="NotoSansCJKjp-Regular-4e00" d="M 282 2758 
L 282 2234 
L 6144 2234 
L 6144 2758 
L 282 2758 
z
" transform="scale(0.015625)"/>
      <path id="NotoSansCJKjp-Regular-81f4" d="M 3878 5376 
C 3725 4518 3482 3686 3130 3040 
C 2976 3373 2682 3827 2413 4179 
L 2035 3994 
C 2170 3808 2310 3590 2438 3379 
L 1152 3290 
C 1338 3654 1530 4122 1690 4525 
L 3162 4525 
L 3162 4966 
L 294 4966 
L 294 4525 
L 1171 4525 
C 1043 4122 864 3629 691 3258 
L 237 3232 
L 294 2778 
L 2656 2982 
C 2701 2886 2746 2790 2771 2714 
L 3014 2848 
C 2950 2752 2886 2656 2822 2573 
C 2938 2502 3149 2342 3232 2259 
C 3379 2458 3514 2688 3642 2944 
C 3795 2278 4006 1677 4275 1152 
C 3891 621 3373 211 2682 -96 
C 2771 -198 2912 -416 2963 -525 
C 3622 -205 4141 198 4544 704 
C 4890 186 5318 -230 5862 -518 
C 5933 -384 6086 -198 6202 -102 
C 5638 160 5190 589 4838 1133 
C 5261 1824 5536 2675 5709 3731 
L 6112 3731 
L 6112 4179 
L 4109 4179 
C 4211 4538 4301 4915 4371 5299 
L 3878 5376 
z
M 243 320 
L 320 -166 
C 1101 -26 2214 166 3258 358 
L 3238 813 
L 1939 589 
L 1939 1549 
L 3059 1549 
L 3059 1984 
L 1939 1984 
L 1939 2733 
L 1485 2733 
L 1485 1984 
L 442 1984 
L 442 1549 
L 1485 1549 
L 1485 518 
L 243 320 
z
M 3962 3731 
L 5210 3731 
C 5082 2899 4877 2202 4570 1619 
C 4275 2208 4070 2899 3936 3648 
L 3962 3731 
z
" transform="scale(0.015625)"/>
      <path id="NotoSansCJKjp-Regular-6027" d="M 1101 5376 
L 1101 -506 
L 1581 -506 
L 1581 5376 
L 1101 5376 
z
M 512 4160 
C 467 3642 352 2938 179 2509 
L 557 2381 
C 723 2848 838 3584 877 4109 
L 512 4160 
z
M 1626 4198 
C 1811 3846 2003 3379 2067 3091 
L 2426 3277 
C 2355 3546 2157 4000 1965 4346 
L 1626 4198 
z
M 2138 173 
L 2138 -282 
L 6074 -282 
L 6074 173 
L 4461 173 
L 4461 1779 
L 5779 1779 
L 5779 2227 
L 4461 2227 
L 4461 3558 
L 5920 3558 
L 5920 4019 
L 4461 4019 
L 4461 5350 
L 3974 5350 
L 3974 4019 
L 3181 4019 
C 3264 4333 3341 4672 3405 5005 
L 2938 5082 
C 2790 4211 2534 3341 2163 2784 
C 2278 2733 2496 2624 2592 2560 
C 2758 2835 2906 3174 3034 3558 
L 3974 3558 
L 3974 2227 
L 2618 2227 
L 2618 1779 
L 3974 1779 
L 3974 173 
L 2138 173 
z
" transform="scale(0.015625)"/>
     </defs>
     <use xlink:href="#NotoSansCJKjp-Regular-4e8b"/>
     <use xlink:href="#NotoSansCJKjp-Regular-52a1" transform="translate(99.999985 0)"/>
     <use xlink:href="#NotoSansCJKjp-Regular-8fb9" transform="translate(199.999969 0)"/>
     <use xlink:href="#NotoSansCJKjp-Regular-754c" transform="translate(299.999954 0)"/>
     <use xlink:href="#NotoSansCJKjp-Regular-20" transform="translate(399.999939 0)"/>
     <use xlink:href="#NotoSansCJKjp-Regular-2f" transform="translate(422.399933 0)"/>
     <use xlink:href="#NotoSansCJKjp-Regular-20" transform="translate(461.59993 0)"/>
     <use xlink:href="#NotoSansCJKjp-Regular-5d29" transform="translate(483.999924 0)"/>
     <use xlink:href="#NotoSansCJKjp-Regular-6e83" transform="translate(583.999908 0)"/>
     <use xlink:href="#NotoSansCJKjp-Regular-4e00" transform="translate(683.999893 0)"/>
     <use xlink:href="#NotoSansCJKjp-Regular-81f4" transform="translate(783.999878 0)"/>
     <use xlink:href="#NotoSansCJKjp-Regular-6027" transform="translate(883.999863 0)"/>
    </g>
   </g>
   <g id="text_7">
    <!-- bio.c + virtio disk -->
    <g style="fill: #111827" transform="translate(398.838906 433.650981) scale(0.13 -0.13)">
     <defs>
      <path id="NotoSansCJKjp-Regular-62" d="M 2118 -83 
C 2912 -83 3629 602 3629 1792 
C 3629 2867 3142 3565 2246 3565 
C 1856 3565 1472 3347 1152 3078 
L 1178 3699 
L 1178 5094 
L 589 5094 
L 589 0 
L 1056 0 
L 1107 358 
L 1133 358 
C 1434 83 1798 -83 2118 -83 
z
M 2022 410 
C 1792 410 1478 499 1178 768 
L 1178 2598 
C 1504 2906 1811 3072 2099 3072 
C 2765 3072 3021 2560 3021 1786 
C 3021 928 2598 410 2022 410 
z
" transform="scale(0.015625)"/>
      <path id="NotoSansCJKjp-Regular-2b" d="M 1542 742 
L 2010 742 
L 2010 2144 
L 3315 2144 
L 3315 2579 
L 2010 2579 
L 2010 3981 
L 1542 3981 
L 1542 2579 
L 243 2579 
L 243 2144 
L 1542 2144 
L 1542 742 
z
" transform="scale(0.015625)"/>
      <path id="NotoSansCJKjp-Regular-76" d="M 1338 0 
L 2022 0 
L 3251 3475 
L 2675 3475 
L 2016 1498 
C 1914 1158 1798 806 1696 474 
L 1664 474 
C 1562 806 1453 1158 1344 1498 
L 691 3475 
L 83 3475 
L 1338 0 
z
" transform="scale(0.015625)"/>
      <path id="NotoSansCJKjp-Regular-6b" d="M 589 0 
L 1165 0 
L 1165 915 
L 1818 1677 
L 2835 0 
L 3469 0 
L 2157 2074 
L 3315 3475 
L 2662 3475 
L 1190 1645 
L 1165 1645 
L 1165 5094 
L 589 5094 
L 589 0 
z
" transform="scale(0.015625)"/>
     </defs>
     <use xlink:href="#NotoSansCJKjp-Regular-62"/>
     <use xlink:href="#NotoSansCJKjp-Regular-69" transform="translate(61.799988 0)"/>
     <use xlink:href="#NotoSansCJKjp-Regular-6f" transform="translate(89.299973 0)"/>
     <use xlink:href="#NotoSansCJKjp-Regular-2e" transform="translate(149.899963 0)"/>
     <use xlink:href="#NotoSansCJKjp-Regular-63" transform="translate(177.699951 0)"/>
     <use xlink:href="#NotoSansCJKjp-Regular-20" transform="translate(228.699936 0)"/>
     <use xlink:href="#NotoSansCJKjp-Regular-2b" transform="translate(251.09993 0)"/>
     <use xlink:href="#NotoSansCJKjp-Regular-20" transform="translate(306.599915 0)"/>
     <use xlink:href="#NotoSansCJKjp-Regular-76" transform="translate(328.999908 0)"/>
     <use xlink:href="#NotoSansCJKjp-Regular-69" transform="translate(381.099899 0)"/>
     <use xlink:href="#NotoSansCJKjp-Regular-72" transform="translate(408.599884 0)"/>
     <use xlink:href="#NotoSansCJKjp-Regular-74" transform="translate(447.399872 0)"/>
     <use xlink:href="#NotoSansCJKjp-Regular-69" transform="translate(485.099869 0)"/>
     <use xlink:href="#NotoSansCJKjp-Regular-6f" transform="translate(512.599854 0)"/>
     <use xlink:href="#NotoSansCJKjp-Regular-20" transform="translate(573.199844 0)"/>
     <use xlink:href="#NotoSansCJKjp-Regular-64" transform="translate(595.599838 0)"/>
     <use xlink:href="#NotoSansCJKjp-Regular-69" transform="translate(657.599823 0)"/>
     <use xlink:href="#NotoSansCJKjp-Regular-73" transform="translate(685.099808 0)"/>
     <use xlink:href="#NotoSansCJKjp-Regular-6b" transform="translate(731.899796 0)"/>
    </g>
    <!-- 块缓存 / 磁盘块读写 -->
    <g style="fill: #111827" transform="translate(392.538984 449.108794) scale(0.13 -0.13)">
     <defs>
      <path id="NotoSansCJKjp-Regular-5757" d="M 5178 2426 
L 4173 2426 
C 4192 2656 4198 2893 4198 3123 
L 4198 3840 
L 5178 3840 
L 5178 2426 
z
M 3731 5306 
L 3731 4294 
L 2573 4294 
L 2573 3840 
L 3731 3840 
L 3731 3130 
C 3731 2893 3725 2656 3699 2426 
L 2381 2426 
L 2381 1971 
L 3635 1971 
C 3462 1158 3008 403 1850 -160 
C 1958 -243 2112 -416 2176 -525 
C 3386 77 3878 890 4077 1773 
C 4410 704 4979 -102 5862 -525 
C 5933 -390 6086 -198 6195 -102 
C 5331 256 4762 1005 4461 1971 
L 6080 1971 
L 6080 2426 
L 5632 2426 
L 5632 4294 
L 4198 4294 
L 4198 5306 
L 3731 5306 
z
M 230 1043 
L 422 563 
C 979 806 1696 1133 2374 1446 
L 2266 1875 
L 1562 1574 
L 1562 3379 
L 2266 3379 
L 2266 3834 
L 1562 3834 
L 1562 5299 
L 1107 5299 
L 1107 3834 
L 333 3834 
L 333 3379 
L 1107 3379 
L 1107 1389 
C 774 1254 474 1133 230 1043 
z
" transform="scale(0.015625)"/>
      <path id="NotoSansCJKjp-Regular-7f13" d="M 224 333 
L 333 -141 
C 902 64 1664 326 2387 582 
L 2310 966 
C 1530 723 742 480 224 333 
z
M 3834 4595 
C 3910 4314 3981 3942 4006 3725 
L 4416 3821 
C 4384 4026 4301 4384 4218 4659 
L 3834 4595 
z
M 5626 5331 
C 4877 5165 3514 5056 2400 5018 
C 2445 4915 2502 4755 2509 4646 
C 3642 4672 5030 4781 5907 4973 
L 5626 5331 
z
M 358 2714 
C 454 2758 608 2797 1395 2886 
C 1114 2483 858 2163 742 2035 
C 544 1805 390 1645 256 1613 
C 307 1498 378 1274 403 1178 
C 538 1254 755 1312 2355 1638 
C 2342 1741 2336 1920 2342 2048 
L 1082 1818 
C 1581 2381 2074 3072 2483 3770 
L 2080 4013 
C 1958 3776 1818 3539 1677 3315 
L 864 3245 
C 1242 3795 1619 4499 1907 5184 
L 1434 5370 
C 1171 4608 710 3782 563 3571 
C 429 3354 314 3206 198 3181 
C 256 3053 333 2816 358 2714 
z
M 2688 4461 
C 2803 4205 2931 3859 2989 3648 
L 3379 3782 
C 3322 3981 3181 4314 3059 4563 
L 2688 4461 
z
M 5376 4730 
C 5242 4410 4998 3962 4781 3648 
L 2496 3648 
L 2496 3251 
L 3270 3251 
L 3226 2746 
L 2240 2746 
L 2240 2336 
L 3168 2336 
C 3014 1408 2675 403 1811 -166 
C 1920 -243 2067 -390 2131 -499 
C 2726 -83 3098 506 3328 1146 
C 3533 838 3776 563 4064 333 
C 3686 102 3245 -51 2765 -160 
C 2848 -243 2982 -422 3027 -525 
C 3546 -397 4019 -205 4429 70 
C 4858 -205 5370 -410 5933 -531 
C 5997 -403 6131 -218 6234 -122 
C 5702 -26 5216 141 4800 365 
C 5190 723 5491 1190 5683 1798 
L 5414 1920 
L 5325 1901 
L 3546 1901 
L 3629 2336 
L 6093 2336 
L 6093 2746 
L 3686 2746 
L 3738 3251 
L 6016 3251 
L 6016 3648 
L 5248 3648 
C 5434 3930 5651 4269 5830 4582 
L 5376 4730 
z
M 3578 1530 
L 5120 1530 
C 4960 1152 4723 845 4435 595 
C 4070 858 3782 1171 3578 1530 
z
" transform="scale(0.015625)"/>
      <path id="NotoSansCJKjp-Regular-5b58" d="M 3936 2298 
L 3936 1702 
L 2144 1702 
L 2144 1254 
L 3936 1254 
L 3936 64 
C 3936 -26 3910 -51 3802 -58 
C 3686 -64 3302 -64 2874 -51 
C 2944 -186 3002 -371 3027 -512 
C 3578 -512 3936 -506 4147 -435 
C 4365 -365 4422 -224 4422 58 
L 4422 1254 
L 6125 1254 
L 6125 1702 
L 4422 1702 
L 4422 2029 
C 4877 2330 5376 2752 5722 3149 
L 5414 3386 
L 5318 3360 
L 2688 3360 
L 2688 2918 
L 4890 2918 
C 4666 2694 4390 2464 4128 2298 
L 3936 2298 
z
M 2464 5376 
C 2387 5101 2298 4819 2189 4538 
L 403 4538 
L 403 4077 
L 1990 4077 
C 1574 3194 986 2368 205 1818 
C 282 1709 403 1498 461 1370 
C 730 1562 979 1779 1203 2022 
L 1203 -499 
L 1690 -499 
L 1690 2605 
C 2022 3059 2304 3558 2534 4077 
L 6010 4077 
L 6010 4538 
L 2726 4538 
C 2816 4774 2899 5018 2970 5254 
L 2464 5376 
z
" transform="scale(0.015625)"/>
      <path id="NotoSansCJKjp-Regular-78c1" d="M 5178 5344 
C 5082 5037 4896 4595 4742 4314 
L 4813 4288 
L 3603 4288 
L 3744 4346 
C 3661 4614 3456 5018 3238 5325 
L 2848 5178 
C 3027 4909 3200 4557 3290 4288 
L 2355 4288 
L 2355 3872 
L 6144 3872 
L 6144 4288 
L 5184 4288 
C 5338 4544 5517 4890 5670 5197 
L 5178 5344 
z
M 5600 2835 
C 5472 2502 5299 2112 5114 1722 
C 5011 1882 4877 2067 4723 2253 
C 4934 2650 5178 3226 5370 3699 
L 4947 3808 
C 4832 3437 4646 2944 4461 2547 
L 4333 2675 
L 4109 2342 
C 4403 2035 4730 1600 4896 1286 
C 4672 851 4435 442 4224 115 
C 4141 480 4006 902 3859 1254 
L 3507 1107 
C 3597 870 3686 595 3757 326 
L 2893 218 
C 3328 934 3821 1920 4186 2714 
L 3789 2867 
C 3661 2534 3494 2157 3315 1773 
C 3206 1933 3066 2118 2912 2304 
C 3130 2688 3373 3245 3565 3706 
L 3142 3821 
C 3027 3456 2835 2976 2656 2598 
L 2515 2739 
L 2291 2400 
C 2586 2086 2912 1664 3104 1344 
C 2880 909 2650 493 2438 160 
L 2118 122 
L 2208 -301 
L 3853 -64 
C 3878 -186 3891 -301 3904 -403 
L 4269 -256 
L 4282 -314 
L 5766 -70 
C 5798 -211 5830 -346 5850 -461 
L 6234 -294 
C 6163 134 5946 781 5696 1280 
L 5338 1120 
C 5453 877 5562 595 5651 320 
L 4691 179 
C 5133 890 5645 1888 6003 2688 
L 5600 2835 
z
M 282 4954 
L 282 4512 
L 998 4512 
C 858 3411 614 2374 173 1690 
C 262 1587 403 1376 461 1274 
C 563 1427 653 1600 736 1786 
L 736 -269 
L 1133 -269 
L 1133 230 
L 2278 230 
L 2278 3034 
L 1165 3034 
C 1280 3501 1376 4000 1446 4512 
L 2406 4512 
L 2406 4954 
L 282 4954 
z
M 1133 2605 
L 1869 2605 
L 1869 653 
L 1133 653 
L 1133 2605 
z
" transform="scale(0.015625)"/>
      <path id="NotoSansCJKjp-Regular-76d8" d="M 2496 2726 
C 2854 2541 3302 2253 3520 2048 
L 3763 2355 
C 3546 2560 3091 2829 2739 3002 
L 2496 2726 
z
M 2970 5440 
C 2925 5286 2842 5075 2758 4896 
L 1357 4896 
L 1357 3770 
L 1350 3520 
L 326 3520 
L 326 3098 
L 1286 3098 
C 1190 2707 966 2310 474 1997 
C 576 1933 755 1754 826 1658 
C 1414 2042 1670 2573 1773 3098 
L 4742 3098 
L 4742 2349 
C 4742 2278 4717 2253 4627 2253 
C 4544 2246 4250 2246 3942 2253 
C 4013 2138 4077 1965 4096 1843 
C 4531 1843 4813 1843 4986 1914 
C 5165 1984 5222 2112 5222 2342 
L 5222 3098 
L 6118 3098 
L 6118 3520 
L 5222 3520 
L 5222 4896 
L 3277 4896 
L 3488 5338 
L 2970 5440 
z
M 2541 4141 
C 2880 3974 3290 3712 3488 3520 
L 1830 3520 
L 1837 3763 
L 1837 4499 
L 4742 4499 
L 4742 3520 
L 3501 3520 
L 3744 3814 
C 3533 4013 3117 4262 2778 4416 
L 2541 4141 
z
M 1011 1670 
L 1011 96 
L 288 96 
L 288 -333 
L 6112 -333 
L 6112 96 
L 5395 96 
L 5395 1670 
L 1011 1670 
z
M 1459 96 
L 1459 1280 
L 2317 1280 
L 2317 96 
L 1459 96 
z
M 2758 96 
L 2758 1280 
L 3616 1280 
L 3616 96 
L 2758 96 
z
M 4064 96 
L 4064 1280 
L 4928 1280 
L 4928 96 
L 4064 96 
z
" transform="scale(0.015625)"/>
      <path id="NotoSansCJKjp-Regular-8bfb" d="M 2835 2893 
C 3174 2714 3571 2445 3763 2246 
L 3994 2522 
C 3795 2714 3386 2970 3059 3136 
L 2835 2893 
z
M 2368 2310 
C 2714 2131 3117 1843 3315 1638 
L 3546 1920 
C 3354 2125 2938 2394 2598 2560 
L 2368 2310 
z
M 4371 672 
C 4896 326 5523 -192 5830 -531 
L 6138 -218 
C 5824 122 5178 614 4659 947 
L 4371 672 
z
M 672 4915 
C 1018 4621 1446 4205 1658 3936 
L 1984 4288 
C 1773 4550 1325 4947 979 5229 
L 672 4915 
z
M 2349 3795 
L 2349 3379 
L 5446 3379 
C 5357 3104 5254 2822 5165 2624 
L 5549 2522 
C 5696 2829 5862 3309 5997 3738 
L 5690 3814 
L 5613 3795 
L 4384 3795 
L 4384 4371 
L 5722 4371 
L 5722 4781 
L 4384 4781 
L 4384 5376 
L 3910 5376 
L 3910 4781 
L 2586 4781 
L 2586 4371 
L 3910 4371 
L 3910 3795 
L 2349 3795 
z
M 4090 3130 
L 4090 2374 
C 4090 2131 4077 1875 4006 1606 
L 2214 1606 
L 2214 1184 
L 3846 1184 
C 3597 691 3098 211 2112 -166 
C 2208 -256 2349 -429 2400 -544 
C 3584 -70 4122 550 4365 1184 
L 6054 1184 
L 6054 1606 
L 4486 1606 
C 4538 1869 4550 2118 4550 2362 
L 4550 3130 
L 4090 3130 
z
M 256 3366 
L 256 2906 
L 1203 2906 
L 1203 570 
C 1203 256 1011 45 902 -45 
C 979 -122 1107 -288 1158 -384 
L 1158 -378 
C 1248 -250 1414 -102 2413 723 
C 2355 813 2272 998 2227 1126 
L 1651 666 
L 1651 3366 
L 256 3366 
z
" transform="scale(0.015625)"/>
      <path id="NotoSansCJKjp-Regular-5199" d="M 499 5030 
L 499 3629 
L 979 3629 
L 979 4582 
L 5414 4582 
L 5414 3629 
L 5914 3629 
L 5914 5030 
L 499 5030 
z
M 1920 4531 
C 1773 3725 1536 2630 1344 1978 
L 1830 1933 
L 1888 2150 
L 4384 2150 
L 4301 1389 
L 352 1389 
L 352 947 
L 4237 947 
C 4147 390 4045 102 3917 -6 
C 3840 -70 3757 -83 3610 -83 
C 3450 -83 3014 -77 2566 -38 
C 2656 -166 2720 -358 2733 -493 
C 3149 -518 3558 -525 3776 -512 
C 4013 -499 4166 -448 4314 -301 
C 4486 -134 4614 218 4723 947 
L 6067 947 
L 6067 1389 
L 4781 1389 
C 4813 1670 4845 1990 4877 2355 
C 4890 2426 4896 2579 4896 2579 
L 1990 2579 
L 2170 3347 
L 4973 3347 
L 4973 3770 
L 2259 3770 
L 2400 4486 
L 1920 4531 
z
" transform="scale(0.015625)"/>
     </defs>
     <use xlink:href="#NotoSansCJKjp-Regular-5757"/>
     <use xlink:href="#NotoSansCJKjp-Regular-7f13" transform="translate(99.999985 0)"/>
     <use xlink:href="#NotoSansCJKjp-Regular-5b58" transform="translate(199.999969 0)"/>
     <use xlink:href="#NotoSansCJKjp-Regular-20" transform="translate(299.999954 0)"/>
     <use xlink:href="#NotoSansCJKjp-Regular-2f" transform="translate(322.399948 0)"/>
     <use xlink:href="#NotoSansCJKjp-Regular-20" transform="translate(361.599945 0)"/>
     <use xlink:href="#NotoSansCJKjp-Regular-78c1" transform="translate(383.999939 0)"/>
     <use xlink:href="#NotoSansCJKjp-Regular-76d8" transform="translate(483.999924 0)"/>
     <use xlink:href="#NotoSansCJKjp-Regular-5757" transform="translate(583.999908 0)"/>
     <use xlink:href="#NotoSansCJKjp-Regular-8bfb" transform="translate(683.999893 0)"/>
     <use xlink:href="#NotoSansCJKjp-Regular-5199" transform="translate(783.999878 0)"/>
    </g>
   </g>
   <g id="text_8">
    <!-- ofile[NOFILE] -->
    <g style="fill: #111827" transform="translate(124.250797 219.129869) scale(0.13 -0.13)">
     <defs>
      <path id="NotoSansCJKjp-Regular-5b" d="M 678 -1088 
L 1946 -1088 
L 1946 -755 
L 1114 -755 
L 1114 4730 
L 1946 4730 
L 1946 5069 
L 678 5069 
L 678 -1088 
z
" transform="scale(0.015625)"/>
      <path id="NotoSansCJKjp-Regular-4e" d="M 646 0 
L 1203 0 
L 1203 2464 
C 1203 2957 1158 3456 1133 3930 
L 1158 3930 
L 1664 2963 
L 3373 0 
L 3981 0 
L 3981 4691 
L 3418 4691 
L 3418 2253 
C 3418 1766 3462 1235 3501 768 
L 3469 768 
L 2963 1734 
L 1248 4691 
L 646 4691 
L 646 0 
z
" transform="scale(0.015625)"/>
      <path id="NotoSansCJKjp-Regular-4f" d="M 2374 -83 
C 3552 -83 4378 858 4378 2362 
C 4378 3866 3552 4774 2374 4774 
C 1197 4774 371 3866 371 2362 
C 371 858 1197 -83 2374 -83 
z
M 2374 435 
C 1530 435 979 1190 979 2362 
C 979 3533 1530 4256 2374 4256 
C 3219 4256 3770 3533 3770 2362 
C 3770 1190 3219 435 2374 435 
z
" transform="scale(0.015625)"/>
      <path id="NotoSansCJKjp-Regular-46" d="M 646 0 
L 1235 0 
L 1235 2106 
L 3027 2106 
L 3027 2605 
L 1235 2605 
L 1235 4192 
L 3347 4192 
L 3347 4691 
L 646 4691 
L 646 0 
z
" transform="scale(0.015625)"/>
      <path id="NotoSansCJKjp-Regular-49" d="M 646 0 
L 1235 0 
L 1235 4691 
L 646 4691 
L 646 0 
z
" transform="scale(0.015625)"/>
      <path id="NotoSansCJKjp-Regular-4c" d="M 646 0 
L 3290 0 
L 3290 506 
L 1235 506 
L 1235 4691 
L 646 4691 
L 646 0 
z
" transform="scale(0.015625)"/>
      <path id="NotoSansCJKjp-Regular-45" d="M 646 0 
L 3418 0 
L 3418 506 
L 1235 506 
L 1235 2214 
L 3014 2214 
L 3014 2720 
L 1235 2720 
L 1235 4192 
L 3347 4192 
L 3347 4691 
L 646 4691 
L 646 0 
z
" transform="scale(0.015625)"/>
      <path id="NotoSansCJKjp-Regular-5d" d="M 218 -1088 
L 1491 -1088 
L 1491 5069 
L 218 5069 
L 218 4730 
L 1050 4730 
L 1050 -755 
L 218 -755 
L 218 -1088 
z
" transform="scale(0.015625)"/>
     </defs>
     <use xlink:href="#NotoSansCJKjp-Regular-6f"/>
     <use xlink:href="#NotoSansCJKjp-Regular-66" transform="translate(60.599991 0)"/>
     <use xlink:href="#NotoSansCJKjp-Regular-69" transform="translate(93.099976 0)"/>
     <use xlink:href="#NotoSansCJKjp-Regular-6c" transform="translate(120.59996 0)"/>
     <use xlink:href="#NotoSansCJKjp-Regular-65" transform="translate(148.999954 0)"/>
     <use xlink:href="#NotoSansCJKjp-Regular-5b" transform="translate(204.399948 0)"/>
     <use xlink:href="#NotoSansCJKjp-Regular-4e" transform="translate(238.199936 0)"/>
     <use xlink:href="#NotoSansCJKjp-Regular-4f" transform="translate(310.499924 0)"/>
     <use xlink:href="#NotoSansCJKjp-Regular-46" transform="translate(384.699905 0)"/>
     <use xlink:href="#NotoSansCJKjp-Regular-49" transform="translate(439.899902 0)"/>
     <use xlink:href="#NotoSansCJKjp-Regular-4c" transform="translate(469.19989 0)"/>
     <use xlink:href="#NotoSansCJKjp-Regular-45" transform="translate(523.499878 0)"/>
     <use xlink:href="#NotoSansCJKjp-Regular-5d" transform="translate(582.399872 0)"/>
    </g>
    <!-- 文件描述符表 -->
    <g style="fill: #111827" transform="translate(125.304 234.524306) scale(0.13 -0.13)">
     <defs>
      <path id="NotoSansCJKjp-Regular-63cf" d="M 4787 5376 
L 4787 4454 
L 3642 4454 
L 3642 5376 
L 3181 5376 
L 3181 4454 
L 2291 4454 
L 2291 4019 
L 3181 4019 
L 3181 3181 
L 3642 3181 
L 3642 4019 
L 4787 4019 
L 4787 3181 
L 5248 3181 
L 5248 4019 
L 6093 4019 
L 6093 4454 
L 5248 4454 
L 5248 5376 
L 4787 5376 
z
M 3014 1158 
L 3981 1158 
L 3981 256 
L 3014 256 
L 3014 1158 
z
M 3014 1581 
L 3014 2464 
L 3981 2464 
L 3981 1581 
L 3014 1581 
z
M 5402 1158 
L 5402 256 
L 4416 256 
L 4416 1158 
L 5402 1158 
z
M 5402 1581 
L 4416 1581 
L 4416 2464 
L 5402 2464 
L 5402 1581 
z
M 2573 2893 
L 2573 -499 
L 3014 -499 
L 3014 -173 
L 5402 -173 
L 5402 -467 
L 5862 -467 
L 5862 2893 
L 2573 2893 
z
M 1043 5370 
L 1043 4083 
L 269 4083 
L 269 3635 
L 1043 3635 
L 1043 2227 
C 717 2125 416 2042 179 1978 
L 301 1504 
L 1043 1747 
L 1043 90 
C 1043 0 1011 -26 934 -26 
C 858 -32 608 -32 326 -26 
C 390 -154 448 -352 467 -467 
C 870 -474 1120 -454 1274 -378 
C 1434 -307 1491 -173 1491 90 
L 1491 1894 
L 2195 2125 
L 2131 2566 
L 1491 2368 
L 1491 3635 
L 2176 3635 
L 2176 4083 
L 1491 4083 
L 1491 5370 
L 1043 5370 
z
" transform="scale(0.015625)"/>
      <path id="NotoSansCJKjp-Regular-8ff0" d="M 2778 3245 
C 2611 2496 2330 1747 1958 1267 
C 2080 1210 2285 1088 2381 1024 
C 2746 1536 3059 2342 3245 3155 
L 2778 3245 
z
M 4762 3142 
C 5133 2483 5491 1606 5600 1069 
L 6048 1242 
C 5933 1779 5555 2630 5178 3283 
L 4762 3142 
z
M 4678 5146 
C 4986 4915 5331 4576 5491 4346 
L 5862 4602 
C 5696 4832 5338 5158 5030 5370 
L 4678 5146 
z
M 384 4934 
C 794 4646 1274 4218 1478 3904 
L 1862 4224 
C 1632 4531 1152 4947 730 5222 
L 384 4934 
z
M 3782 5312 
L 3782 4179 
L 2086 4179 
L 2086 3731 
L 3782 3731 
L 3782 429 
L 4262 429 
L 4262 3731 
L 6054 3731 
L 6054 4179 
L 4262 4179 
L 4262 5312 
L 3782 5312 
z
M 1677 2848 
L 314 2848 
L 314 2400 
L 1210 2400 
L 1210 768 
C 890 499 518 230 230 32 
L 480 -461 
C 826 -173 1152 102 1459 378 
C 1869 -128 2445 -358 3283 -390 
C 3994 -416 5318 -403 6016 -371 
C 6035 -224 6118 6 6176 115 
C 5414 64 3981 45 3283 77 
C 2541 102 1978 326 1677 794 
L 1677 2848 
z
" transform="scale(0.015625)"/>
      <path id="NotoSansCJKjp-Regular-7b26" d="M 2528 1773 
C 2810 1363 3168 813 3334 486 
L 3744 736 
C 3565 1050 3200 1581 2918 1978 
L 2528 1773 
z
M 4698 3462 
L 4698 2765 
L 2157 2765 
L 2157 2323 
L 4698 2323 
L 4698 102 
C 4698 -6 4659 -32 4531 -38 
C 4416 -45 3987 -45 3533 -32 
C 3603 -166 3674 -365 3699 -499 
C 4275 -499 4653 -493 4870 -422 
C 5088 -346 5165 -205 5165 96 
L 5165 2323 
L 6035 2323 
L 6035 2765 
L 5165 2765 
L 5165 3462 
L 4698 3462 
z
M 1664 3520 
C 1338 2822 806 2125 262 1670 
C 365 1574 531 1376 595 1280 
C 806 1466 1018 1690 1216 1939 
L 1216 -512 
L 1683 -512 
L 1683 2592 
C 1843 2848 1990 3104 2118 3366 
L 1664 3520 
z
M 1165 5395 
C 966 4755 627 4115 230 3699 
C 346 3642 544 3507 634 3430 
C 845 3680 1050 4000 1235 4352 
L 1568 4352 
C 1709 4058 1869 3706 1958 3488 
L 2387 3635 
C 2310 3814 2170 4096 2042 4352 
L 3040 4352 
L 3040 4762 
L 1427 4762 
C 1504 4934 1574 5114 1632 5286 
L 1165 5395 
z
M 3686 5395 
C 3494 4755 3142 4147 2720 3750 
C 2835 3686 3034 3552 3123 3475 
C 3347 3712 3565 4013 3750 4352 
L 4192 4352 
C 4371 4090 4570 3776 4659 3578 
L 5082 3750 
C 4998 3910 4851 4134 4698 4352 
L 5978 4352 
L 5978 4762 
L 3949 4762 
C 4019 4934 4083 5107 4141 5286 
L 3686 5395 
z
" transform="scale(0.015625)"/>
      <path id="NotoSansCJKjp-Regular-8868" d="M 896 -64 
L 1050 -512 
C 1811 -320 2912 -45 3923 224 
L 3872 653 
L 2272 256 
L 2272 1715 
C 2637 1946 2970 2208 3232 2470 
C 3680 1005 4512 -26 5875 -493 
C 5946 -358 6086 -166 6195 -70 
C 5472 147 4896 538 4461 1062 
C 4896 1312 5421 1664 5824 1990 
L 5446 2285 
C 5133 1997 4640 1638 4224 1376 
C 4000 1709 3821 2086 3686 2502 
L 5997 2502 
L 5997 2918 
L 3430 2918 
L 3430 3501 
L 5523 3501 
L 5523 3898 
L 3430 3898 
L 3430 4422 
L 5773 4422 
L 5773 4845 
L 3430 4845 
L 3430 5376 
L 2944 5376 
L 2944 4845 
L 640 4845 
L 640 4422 
L 2944 4422 
L 2944 3898 
L 928 3898 
L 928 3501 
L 2944 3501 
L 2944 2918 
L 403 2918 
L 403 2502 
L 2630 2502 
C 1990 1971 1024 1491 179 1254 
C 282 1152 422 979 493 858 
C 909 998 1363 1197 1798 1434 
L 1798 141 
L 896 -64 
z
" transform="scale(0.015625)"/>
     </defs>
     <use xlink:href="#NotoSansCJKjp-Regular-6587"/>
     <use xlink:href="#NotoSansCJKjp-Regular-4ef6" transform="translate(99.999985 0)"/>
     <use xlink:href="#NotoSansCJKjp-Regular-63cf" transform="translate(199.999969 0)"/>
     <use xlink:href="#NotoSansCJKjp-Regular-8ff0" transform="translate(299.999954 0)"/>
     <use xlink:href="#NotoSansCJKjp-Regular-7b26" transform="translate(399.999939 0)"/>
     <use xlink:href="#NotoSansCJKjp-Regular-8868" transform="translate(499.999924 0)"/>
    </g>
   </g>
   <g id="text_9">
    <!-- lseek -->
    <g style="fill: #111827" transform="translate(720.016781 219.129869) scale(0.13 -0.13)">
     <use xlink:href="#NotoSansCJKjp-Regular-6c"/>
     <use xlink:href="#NotoSansCJKjp-Regular-73" transform="translate(28.399994 0)"/>
     <use xlink:href="#NotoSansCJKjp-Regular-65" transform="translate(75.199982 0)"/>
     <use xlink:href="#NotoSansCJKjp-Regular-65" transform="translate(130.599976 0)"/>
     <use xlink:href="#NotoSansCJKjp-Regular-6b" transform="translate(185.999969 0)"/>
    </g>
    <!-- SEEK_SET/CUR/END -->
    <g style="fill: #111827" transform="translate(673.678891 234.524306) scale(0.13 -0.13)">
     <defs>
      <path id="NotoSansCJKjp-Regular-53" d="M 1946 -83 
C 2925 -83 3539 506 3539 1248 
C 3539 1946 3117 2266 2573 2502 
L 1907 2790 
C 1542 2944 1126 3117 1126 3578 
C 1126 3994 1472 4256 2003 4256 
C 2438 4256 2784 4090 3072 3821 
L 3379 4198 
C 3053 4538 2560 4774 2003 4774 
C 1152 4774 525 4256 525 3533 
C 525 2848 1043 2515 1478 2330 
L 2150 2035 
C 2598 1837 2938 1683 2938 1197 
C 2938 742 2573 435 1952 435 
C 1466 435 992 666 659 1018 
L 307 608 
C 710 186 1280 -83 1946 -83 
z
" transform="scale(0.015625)"/>
      <path id="NotoSansCJKjp-Regular-4b" d="M 646 0 
L 1235 0 
L 1235 1485 
L 2042 2445 
L 3450 0 
L 4109 0 
L 2413 2912 
L 3885 4691 
L 3213 4691 
L 1248 2336 
L 1235 2336 
L 1235 4691 
L 646 4691 
L 646 0 
z
" transform="scale(0.015625)"/>
      <path id="NotoSansCJKjp-Regular-5f" d="M 83 -896 
L 3488 -896 
L 3488 -512 
L 83 -512 
L 83 -896 
z
" transform="scale(0.015625)"/>
      <path id="NotoSansCJKjp-Regular-54" d="M 1619 0 
L 2214 0 
L 2214 4192 
L 3635 4192 
L 3635 4691 
L 198 4691 
L 198 4192 
L 1619 4192 
L 1619 0 
z
" transform="scale(0.015625)"/>
      <path id="NotoSansCJKjp-Regular-43" d="M 2413 -83 
C 3021 -83 3482 160 3853 589 
L 3526 966 
C 3226 634 2886 435 2438 435 
C 1542 435 979 1178 979 2362 
C 979 3533 1574 4256 2458 4256 
C 2861 4256 3168 4077 3418 3814 
L 3738 4198 
C 3469 4499 3021 4774 2451 4774 
C 1261 4774 371 3859 371 2342 
C 371 819 1242 -83 2413 -83 
z
" transform="scale(0.015625)"/>
      <path id="NotoSansCJKjp-Regular-55" d="M 2310 -83 
C 3264 -83 3994 429 3994 1933 
L 3994 4691 
L 3424 4691 
L 3424 1920 
C 3424 794 2931 435 2310 435 
C 1696 435 1216 794 1216 1920 
L 1216 4691 
L 627 4691 
L 627 1933 
C 627 429 1350 -83 2310 -83 
z
" transform="scale(0.015625)"/>
      <path id="NotoSansCJKjp-Regular-52" d="M 1235 2464 
L 1235 4211 
L 2022 4211 
C 2758 4211 3162 3994 3162 3379 
C 3162 2765 2758 2464 2022 2464 
L 1235 2464 
z
M 3219 0 
L 3885 0 
L 2694 2054 
C 3328 2208 3750 2643 3750 3379 
C 3750 4352 3066 4691 2112 4691 
L 646 4691 
L 646 0 
L 1235 0 
L 1235 1990 
L 2080 1990 
L 3219 0 
z
" transform="scale(0.015625)"/>
      <path id="NotoSansCJKjp-Regular-44" d="M 646 0 
L 1843 0 
C 3258 0 4026 877 4026 2362 
C 4026 3859 3258 4691 1818 4691 
L 646 4691 
L 646 0 
z
M 1235 486 
L 1235 4211 
L 1766 4211 
C 2874 4211 3418 3552 3418 2362 
C 3418 1178 2874 486 1766 486 
L 1235 486 
z
" transform="scale(0.015625)"/>
     </defs>
     <use xlink:href="#NotoSansCJKjp-Regular-53"/>
     <use xlink:href="#NotoSansCJKjp-Regular-45" transform="translate(59.599991 0)"/>
     <use xlink:href="#NotoSansCJKjp-Regular-45" transform="translate(118.499985 0)"/>
     <use xlink:href="#NotoSansCJKjp-Regular-4b" transform="translate(177.399979 0)"/>
     <use xlink:href="#NotoSansCJKjp-Regular-5f" transform="translate(241.999969 0)"/>
     <use xlink:href="#NotoSansCJKjp-Regular-53" transform="translate(297.899963 0)"/>
     <use xlink:href="#NotoSansCJKjp-Regular-45" transform="translate(357.499954 0)"/>
     <use xlink:href="#NotoSansCJKjp-Regular-54" transform="translate(416.399948 0)"/>
     <use xlink:href="#NotoSansCJKjp-Regular-2f" transform="translate(476.299942 0)"/>
     <use xlink:href="#NotoSansCJKjp-Regular-43" transform="translate(515.499939 0)"/>
     <use xlink:href="#NotoSansCJKjp-Regular-55" transform="translate(579.299927 0)"/>
     <use xlink:href="#NotoSansCJKjp-Regular-52" transform="translate(651.399918 0)"/>
     <use xlink:href="#NotoSansCJKjp-Regular-2f" transform="translate(714.899902 0)"/>
     <use xlink:href="#NotoSansCJKjp-Regular-45" transform="translate(754.099899 0)"/>
     <use xlink:href="#NotoSansCJKjp-Regular-4e" transform="translate(812.999893 0)"/>
     <use xlink:href="#NotoSansCJKjp-Regular-44" transform="translate(885.299881 0)"/>
    </g>
   </g>
   <g id="text_10">
    <!-- namex / namei -->
    <g style="fill: #111827" transform="translate(690.722094 298.963469) scale(0.13 -0.13)">
     <defs>
      <path id="NotoSansCJKjp-Regular-6d" d="M 589 0 
L 1178 0 
L 1178 2522 
C 1491 2880 1786 3053 2048 3053 
C 2490 3053 2694 2778 2694 2125 
L 2694 0 
L 3277 0 
L 3277 2522 
C 3603 2880 3885 3053 4154 3053 
C 4595 3053 4800 2778 4800 2125 
L 4800 0 
L 5382 0 
L 5382 2202 
C 5382 3085 5043 3565 4333 3565 
C 3904 3565 3546 3290 3181 2899 
C 3040 3309 2758 3565 2221 3565 
C 1805 3565 1446 3302 1139 2970 
L 1126 2970 
L 1069 3475 
L 589 3475 
L 589 0 
z
" transform="scale(0.015625)"/>
      <path id="NotoSansCJKjp-Regular-78" d="M 96 0 
L 710 0 
L 1178 813 
C 1299 1024 1408 1235 1530 1434 
L 1562 1434 
C 1696 1235 1824 1024 1939 813 
L 2451 0 
L 3091 0 
L 1946 1754 
L 3002 3475 
L 2394 3475 
L 1965 2714 
C 1856 2515 1760 2330 1658 2131 
L 1626 2131 
C 1510 2330 1389 2515 1286 2714 
L 819 3475 
L 186 3475 
L 1242 1811 
L 96 0 
z
" transform="scale(0.015625)"/>
     </defs>
     <use xlink:href="#NotoSansCJKjp-Regular-6e"/>
     <use xlink:href="#NotoSansCJKjp-Regular-61" transform="translate(60.999985 0)"/>
     <use xlink:href="#NotoSansCJKjp-Regular-6d" transform="translate(117.299973 0)"/>
     <use xlink:href="#NotoSansCJKjp-Regular-65" transform="translate(209.899963 0)"/>
     <use xlink:href="#NotoSansCJKjp-Regular-78" transform="translate(265.299957 0)"/>
     <use xlink:href="#NotoSansCJKjp-Regular-20" transform="translate(315.099945 0)"/>
     <use xlink:href="#NotoSansCJKjp-Regular-2f" transform="translate(337.499939 0)"/>
     <use xlink:href="#NotoSansCJKjp-Regular-20" transform="translate(376.699936 0)"/>
     <use xlink:href="#NotoSansCJKjp-Regular-6e" transform="translate(399.09993 0)"/>
     <use xlink:href="#NotoSansCJKjp-Regular-61" transform="translate(460.099915 0)"/>
     <use xlink:href="#NotoSansCJKjp-Regular-6d" transform="translate(516.399902 0)"/>
     <use xlink:href="#NotoSansCJKjp-Regular-65" transform="translate(608.999893 0)"/>
     <use xlink:href="#NotoSansCJKjp-Regular-69" transform="translate(664.399887 0)"/>
    </g>
    <!-- 绝对路径 + 相对路径 -->
    <g style="fill: #111827" transform="translate(677.175687 314.357906) scale(0.13 -0.13)">
     <defs>
      <path id="NotoSansCJKjp-Regular-7edd" d="M 250 339 
L 339 -122 
C 966 45 1805 243 2611 448 
L 2566 858 
C 1709 653 826 461 250 339 
z
M 371 2707 
C 474 2752 621 2790 1440 2899 
C 1146 2477 870 2144 749 2016 
C 544 1779 390 1619 250 1594 
C 301 1472 378 1261 397 1165 
C 538 1248 762 1306 2528 1664 
C 2522 1760 2515 1939 2528 2067 
L 1082 1798 
C 1594 2368 2093 3072 2528 3782 
L 2138 4019 
C 2016 3789 1875 3558 1734 3334 
L 883 3251 
C 1280 3808 1670 4518 1978 5203 
L 1530 5414 
C 1248 4627 755 3776 595 3558 
C 448 3341 333 3187 211 3162 
C 269 3034 346 2803 371 2707 
z
M 4090 3149 
L 4090 1971 
L 3270 1971 
L 3270 3149 
L 4090 3149 
z
M 4506 3149 
L 5325 3149 
L 5325 1971 
L 4506 1971 
L 4506 3149 
z
M 4717 4314 
C 4589 4058 4422 3776 4275 3584 
L 4288 3571 
L 3078 3571 
C 3245 3795 3405 4045 3558 4314 
L 4717 4314 
z
M 3590 5446 
C 3309 4678 2842 3917 2330 3418 
C 2438 3354 2618 3200 2701 3123 
L 2822 3258 
L 2822 371 
C 2822 -250 3040 -403 3744 -403 
C 3898 -403 5107 -403 5274 -403 
C 5914 -403 6054 -154 6125 685 
C 5997 717 5811 787 5696 870 
C 5664 166 5606 26 5254 26 
C 4998 26 3962 26 3763 26 
C 3347 26 3270 83 3270 371 
L 3270 1555 
L 5773 1555 
L 5773 3571 
L 4755 3571 
C 4979 3866 5197 4230 5363 4557 
L 5062 4762 
L 4973 4736 
L 3776 4736 
C 3872 4928 3955 5126 4032 5325 
L 3590 5446 
z
" transform="scale(0.015625)"/>
      <path id="NotoSansCJKjp-Regular-5bf9" d="M 3213 2522 
C 3514 2067 3802 1459 3904 1075 
L 4326 1286 
C 4224 1670 3917 2259 3603 2701 
L 3213 2522 
z
M 582 2899 
C 973 2547 1389 2131 1760 1709 
C 1376 890 870 269 288 -109 
C 403 -205 550 -384 627 -499 
C 1216 -77 1715 512 2106 1299 
C 2394 941 2630 602 2784 314 
L 3168 666 
C 2982 998 2682 1395 2330 1798 
C 2624 2534 2835 3411 2944 4448 
L 2630 4538 
L 2547 4518 
L 448 4518 
L 448 4064 
L 2419 4064 
C 2323 3373 2170 2752 1965 2202 
C 1626 2554 1267 2899 922 3200 
L 582 2899 
z
M 4896 5376 
L 4896 3834 
L 3085 3834 
L 3085 3373 
L 4896 3373 
L 4896 141 
C 4896 26 4851 -6 4742 -13 
C 4634 -13 4275 -19 3872 0 
C 3936 -147 4006 -371 4032 -506 
C 4576 -506 4902 -493 5094 -410 
C 5293 -326 5370 -179 5370 141 
L 5370 3373 
L 6138 3373 
L 6138 3834 
L 5370 3834 
L 5370 5376 
L 4896 5376 
z
" transform="scale(0.015625)"/>
      <path id="NotoSansCJKjp-Regular-76f8" d="M 3494 3034 
L 5440 3034 
L 5440 1920 
L 3494 1920 
L 3494 3034 
z
M 3494 3469 
L 3494 4544 
L 5440 4544 
L 5440 3469 
L 3494 3469 
z
M 3494 1478 
L 5440 1478 
L 5440 365 
L 3494 365 
L 3494 1478 
z
M 3027 4998 
L 3027 -467 
L 3494 -467 
L 3494 -77 
L 5440 -77 
L 5440 -448 
L 5926 -448 
L 5926 4998 
L 3027 4998 
z
M 1370 5376 
L 1370 4006 
L 333 4006 
L 333 3546 
L 1312 3546 
C 1088 2662 634 1651 186 1120 
C 262 1005 384 813 435 685 
C 781 1126 1120 1837 1370 2573 
L 1370 -506 
L 1837 -506 
L 1837 2419 
C 2080 2106 2368 1709 2490 1498 
L 2784 1888 
C 2643 2061 2061 2746 1837 2970 
L 1837 3546 
L 2752 3546 
L 2752 4006 
L 1837 4006 
L 1837 5376 
L 1370 5376 
z
" transform="scale(0.015625)"/>
     </defs>
     <use xlink:href="#NotoSansCJKjp-Regular-7edd"/>
     <use xlink:href="#NotoSansCJKjp-Regular-5bf9" transform="translate(99.999985 0)"/>
     <use xlink:href="#NotoSansCJKjp-Regular-8def" transform="translate(199.999969 0)"/>
     <use xlink:href="#NotoSansCJKjp-Regular-5f84" transform="translate(299.999954 0)"/>
     <use xlink:href="#NotoSansCJKjp-Regular-20" transform="translate(399.999939 0)"/>
     <use xlink:href="#NotoSansCJKjp-Regular-2b" transform="translate(422.399933 0)"/>
     <use xlink:href="#NotoSansCJKjp-Regular-20" transform="translate(477.899918 0)"/>
     <use xlink:href="#NotoSansCJKjp-Regular-76f8" transform="translate(500.299911 0)"/>
     <use xlink:href="#NotoSansCJKjp-Regular-5bf9" transform="translate(600.299896 0)"/>
     <use xlink:href="#NotoSansCJKjp-Regular-8def" transform="translate(700.299881 0)"/>
     <use xlink:href="#NotoSansCJKjp-Regular-5f84" transform="translate(800.299866 0)"/>
    </g>
   </g>
  </g>
 </g>
 <defs>
  <clipPath id="pf5b23ad0b0">
   <rect x="3.6" y="3.6" width="892.8" height="498.96"/>
  </clipPath>
 </defs>
</svg>
