<?xml version="1.0" encoding="utf-8" standalone="no"?>
<!DOCTYPE svg PUBLIC "-//W3C//DTD SVG 1.1//EN"
  "http://www.w3.org/Graphics/SVG/1.1/DTD/svg11.dtd">
<svg xmlns:xlink="http://www.w3.org/1999/xlink" width="900pt" height="506.16pt" viewBox="0 0 900 506.16" xmlns="http://www.w3.org/2000/svg" version="1.1">
 <metadata>
  <rdf:RDF xmlns:dc="http://purl.org/dc/elements/1.1/" xmlns:cc="http://creativecommons.org/ns#" xmlns:rdf="http://www.w3.org/1999/02/22-rdf-syntax-ns#">
   <cc:Work>
    <dc:type rdf:resource="http://purl.org/dc/dcmitype/StillImage"/>
    <dc:date>2026-06-21T10:09:01.106328</dc:date>
    <dc:format>image/svg+xml</dc:format>
    <dc:creator>
     <cc:Agent>
      <dc:title>Matplotlib v3.10.9, https://matplotlib.org/</dc:title>
     </cc:Agent>
    </dc:creator>
   </cc:Work>
  </rdf:RDF>
 </metadata>
 <defs>
  <style type="text/css">*{stroke-linejoin: round; stroke-linecap: butt}</style>
 </defs>
 <g id="figure_1">
  <g id="patch_1">
   <path d="M 0 506.16 
L 900 506.16 
L 900 -0 
L 0 -0 
z
" style="fill: #ffffff"/>
  </g>
  <g id="axes_1">
   <g id="patch_2">
    <path d="M 64.04256 243.250488 
L 318.13344 243.250488 
Q 343.13184 243.250488 343.13184 229.279608 
L 343.13184 97.254792 
Q 343.13184 83.283912 318.13344 83.283912 
L 64.04256 83.283912 
Q 39.04416 83.283912 39.04416 97.254792 
L 39.04416 229.279608 
Q 39.04416 243.250488 64.04256 243.250488 
z
" clip-path="url(#p04ed1370de)" style="fill: #f8fafc; stroke: #6b7280; stroke-width: 2.2; stroke-linejoin: miter"/>
   </g>
   <g id="patch_3">
    <path d="M 94.48704 183.325392 
L 126.98496 183.325392 
Q 146.62656 183.325392 146.62656 172.348272 
L 146.62656 154.186128 
Q 146.62656 143.209008 126.98496 143.209008 
L 94.48704 143.209008 
Q 74.84544 143.209008 74.84544 154.186128 
L 74.84544 172.348272 
Q 74.84544 183.325392 94.48704 183.325392 
z
" clip-path="url(#p04ed1370de)" style="fill: #fef3c7; stroke: #f59e0b; stroke-width: 2; stroke-linejoin: miter"/>
   </g>
   <g id="patch_4">
    <path d="M 183.76704 183.325392 
L 216.26496 183.325392 
Q 235.90656 183.325392 235.90656 172.348272 
L 235.90656 154.186128 
Q 235.90656 143.209008 216.26496 143.209008 
L 183.76704 143.209008 
Q 164.12544 143.209008 164.12544 154.186128 
L 164.12544 172.348272 
Q 164.12544 183.325392 183.76704 183.325392 
z
" clip-path="url(#p04ed1370de)" style="fill: #fef3c7; stroke: #f59e0b; stroke-width: 2; stroke-linejoin: miter"/>
   </g>
   <g id="patch_5">
    <path d="M 273.04704 183.325392 
L 287.68896 183.325392 
Q 307.33056 183.325392 307.33056 172.348272 
L 307.33056 154.186128 
Q 307.33056 143.209008 287.68896 143.209008 
L 273.04704 143.209008 
Q 253.40544 143.209008 253.40544 154.186128 
L 253.40544 172.348272 
Q 253.40544 183.325392 273.04704 183.325392 
z
" clip-path="url(#p04ed1370de)" style="fill: #fef3c7; stroke: #f59e0b; stroke-width: 2; stroke-linejoin: miter"/>
   </g>
   <g id="patch_6">
    <path d="M 183.76704 233.221392 
L 251.97696 233.221392 
Q 271.61856 233.221392 271.61856 222.244272 
L 271.61856 204.082128 
Q 271.61856 193.105008 251.97696 193.105008 
L 183.76704 193.105008 
Q 164.12544 193.105008 164.12544 204.082128 
L 164.12544 222.244272 
Q 164.12544 233.221392 183.76704 233.221392 
z
" clip-path="url(#p04ed1370de)" style="fill: #fef3c7; stroke: #f59e0b; stroke-width: 2; stroke-linejoin: miter"/>
   </g>
   <g id="patch_7">
    <path d="M 94.48704 233.221392 
L 126.98496 233.221392 
Q 146.62656 233.221392 146.62656 222.244272 
L 146.62656 204.082128 
Q 146.62656 193.105008 126.98496 193.105008 
L 94.48704 193.105008 
Q 74.84544 193.105008 74.84544 204.082128 
L 74.84544 222.244272 
Q 74.84544 233.221392 94.48704 233.221392 
z
" clip-path="url(#p04ed1370de)" style="fill: #fff7ed; stroke: #f59e0b; stroke-width: 2; stroke-linejoin: miter"/>
   </g>
   <g id="patch_8">
    <path d="M 148.448953 163.2672 
Q 155.375859 163.2672 160.066697 163.2672 
" clip-path="url(#p04ed1370de)" style="fill: none; stroke: #f59e0b; stroke-width: 2; stroke-linecap: round"/>
    <path d="M 152.866697 159.6672 
L 160.066697 163.2672 
L 152.866697 166.8672 
z
" clip-path="url(#p04ed1370de)" style="fill: #f59e0b; stroke: #f59e0b; stroke-width: 2; stroke-linecap: round"/>
   </g>
   <g id="patch_9">
    <path d="M 237.728953 163.2672 
Q 244.655859 163.2672 249.346697 163.2672 
" clip-path="url(#p04ed1370de)" style="fill: none; stroke: #f59e0b; stroke-width: 2; stroke-linecap: round"/>
    <path d="M 242.146697 159.6672 
L 249.346697 163.2672 
L 242.146697 166.8672 
z
" clip-path="url(#p04ed1370de)" style="fill: #f59e0b; stroke: #f59e0b; stroke-width: 2; stroke-linecap: round"/>
   </g>
   <g id="patch_10">
    <path d="M 278.395928 183.540495 
Q 249.122132 188.21486 222.056432 192.536641 
" clip-path="url(#p04ed1370de)" style="fill: none; stroke: #f59e0b; stroke-width: 2; stroke-linecap: round"/>
    <path d="M 229.73401 194.95631 
L 222.056432 192.536641 
L 228.598715 187.84638 
z
" clip-path="url(#p04ed1370de)" style="fill: #f59e0b; stroke: #f59e0b; stroke-width: 2; stroke-linecap: round"/>
   </g>
   <g id="patch_11">
    <path d="M 148.448953 213.1632 
Q 155.375859 213.1632 160.066697 213.1632 
" clip-path="url(#p04ed1370de)" style="fill: none; stroke-dasharray: 7.4,3.2; stroke-dashoffset: 0; stroke: #f59e0b; stroke-width: 2; stroke-linecap: round"/>
    <path d="M 152.866697 209.5632 
L 160.066697 213.1632 
L 152.866697 216.7632 
z
" clip-path="url(#p04ed1370de)" style="fill: #f59e0b; stroke-dasharray: 7.4,3.2; stroke-dashoffset: 0; stroke: #f59e0b; stroke-width: 2; stroke-linecap: round"/>
   </g>
   <g id="patch_12">
    <path d="M 403.30656 293.146488 
L 568.11744 293.146488 
Q 593.11584 293.146488 593.11584 279.175608 
L 593.11584 97.254792 
Q 593.11584 83.283912 568.11744 83.283912 
L 403.30656 83.283912 
Q 378.30816 83.283912 378.30816 97.254792 
L 378.30816 279.175608 
Q 378.30816 293.146488 403.30656 293.146488 
z
" clip-path="url(#p04ed1370de)" style="fill: #f8fafc; stroke: #6b7280; stroke-width: 2.2; stroke-linejoin: miter"/>
   </g>
   <g id="patch_13">
    <path d="M 442.67904 163.366992 
L 528.74496 163.366992 
Q 548.38656 163.366992 548.38656 152.389872 
L 548.38656 134.227728 
Q 548.38656 123.250608 528.74496 123.250608 
L 442.67904 123.250608 
Q 423.03744 123.250608 423.03744 134.227728 
L 423.03744 152.389872 
Q 423.03744 163.366992 442.67904 163.366992 
z
" clip-path="url(#p04ed1370de)" style="fill: #dbeafe; stroke: #1e3a8a; stroke-width: 2; stroke-linejoin: miter"/>
   </g>
   <g id="patch_14">
    <path d="M 433.75104 233.221392 
L 466.24896 233.221392 
Q 485.89056 233.221392 485.89056 222.244272 
L 485.89056 204.082128 
Q 485.89056 193.105008 466.24896 193.105008 
L 433.75104 193.105008 
Q 414.10944 193.105008 414.10944 204.082128 
L 414.10944 222.244272 
Q 414.10944 233.221392 433.75104 233.221392 
z
" clip-path="url(#p04ed1370de)" style="fill: #eff6ff; stroke: #1e3a8a; stroke-width: 2; stroke-linejoin: miter"/>
   </g>
   <g id="patch_15">
    <path d="M 523.03104 233.221392 
L 555.52896 233.221392 
Q 575.17056 233.221392 575.17056 222.244272 
L 575.17056 204.082128 
Q 575.17056 193.105008 555.52896 193.105008 
L 523.03104 193.105008 
Q 503.38944 193.105008 503.38944 204.082128 
L 503.38944 222.244272 
Q 503.38944 233.221392 523.03104 233.221392 
z
" clip-path="url(#p04ed1370de)" style="fill: #e0f2fe; stroke: #1e3a8a; stroke-width: 2; stroke-linejoin: miter"/>
   </g>
   <g id="patch_16">
    <path d="M 484.17968 164.551754 
Q 467.856504 178.235577 453.246926 190.482881 
" clip-path="url(#p04ed1370de)" style="fill: none; stroke: #1e3a8a; stroke-width: 2; stroke-linecap: round"/>
    <path d="M 461.077351 188.616216 
L 453.246926 190.482881 
L 456.451849 183.098542 
z
" clip-path="url(#p04ed1370de)" style="fill: #1e3a8a; stroke: #1e3a8a; stroke-width: 2; stroke-linecap: round"/>
   </g>
   <g id="patch_17">
    <path d="M 487.45466 164.241122 
Q 512.495877 178.235931 535.585173 191.139868 
" clip-path="url(#p04ed1370de)" style="fill: none; stroke: #1e3a8a; stroke-width: 2; stroke-linecap: round"/>
    <path d="M 531.056377 184.484794 
L 535.585173 191.139868 
L 527.543836 190.769861 
z
" clip-path="url(#p04ed1370de)" style="fill: #1e3a8a; stroke: #1e3a8a; stroke-width: 2; stroke-linecap: round"/>
   </g>
   <g id="patch_18">
    <path d="M 671.14656 293.146488 
L 835.95744 293.146488 
Q 860.95584 293.146488 860.95584 279.175608 
L 860.95584 97.254792 
Q 860.95584 83.283912 835.95744 83.283912 
L 671.14656 83.283912 
Q 646.14816 83.283912 646.14816 97.254792 
L 646.14816 279.175608 
Q 646.14816 293.146488 671.14656 293.146488 
z
" clip-path="url(#p04ed1370de)" style="fill: #f8fafc; stroke: #6b7280; stroke-width: 2.2; stroke-linejoin: miter"/>
   </g>
   <g id="patch_19">
    <path d="M 710.51904 163.366992 
L 796.58496 163.366992 
Q 816.22656 163.366992 816.22656 152.389872 
L 816.22656 134.227728 
Q 816.22656 123.250608 796.58496 123.250608 
L 710.51904 123.250608 
Q 690.87744 123.250608 690.87744 134.227728 
L 690.87744 152.389872 
Q 690.87744 163.366992 710.51904 163.366992 
z
" clip-path="url(#p04ed1370de)" style="fill: #dbeafe; stroke: #1e3a8a; stroke-width: 2; stroke-linejoin: miter"/>
   </g>
   <g id="patch_20">
    <path d="M 701.59104 233.221392 
L 716.23296 233.221392 
Q 735.87456 233.221392 735.87456 222.244272 
L 735.87456 204.082128 
Q 735.87456 193.105008 716.23296 193.105008 
L 701.59104 193.105008 
Q 681.94944 193.105008 681.94944 204.082128 
L 681.94944 222.244272 
Q 681.94944 233.221392 701.59104 233.221392 
z
" clip-path="url(#p04ed1370de)" style="fill: #eff6ff; stroke: #1e3a8a; stroke-width: 2; stroke-linejoin: miter"/>
   </g>
   <g id="patch_21">
    <path d="M 790.87104 233.221392 
L 805.51296 233.221392 
Q 825.15456 233.221392 825.15456 222.244272 
L 825.15456 204.082128 
Q 825.15456 193.105008 805.51296 193.105008 
L 790.87104 193.105008 
Q 771.22944 193.105008 771.22944 204.082128 
L 771.22944 222.244272 
Q 771.22944 233.221392 790.87104 233.221392 
z
" clip-path="url(#p04ed1370de)" style="fill: #eff6ff; stroke: #1e3a8a; stroke-width: 2; stroke-linejoin: miter"/>
   </g>
   <g id="patch_22">
    <path d="M 751.892713 164.379993 
Q 731.232642 178.23557 712.429675 190.845688 
" clip-path="url(#p04ed1370de)" style="fill: none; stroke: #1e3a8a; stroke-width: 2; stroke-linecap: round"/>
    <path d="M 720.414582 189.825272 
L 712.429675 190.845688 
L 716.404286 183.845512 
z
" clip-path="url(#p04ed1370de)" style="fill: #1e3a8a; stroke: #1e3a8a; stroke-width: 2; stroke-linecap: round"/>
   </g>
   <g id="patch_23">
    <path d="M 755.211287 164.379993 
Q 775.871358 178.23557 794.674325 190.845688 
" clip-path="url(#p04ed1370de)" style="fill: none; stroke: #1e3a8a; stroke-width: 2; stroke-linecap: round"/>
    <path d="M 790.699714 183.845512 
L 794.674325 190.845688 
L 786.689418 189.825272 
z
" clip-path="url(#p04ed1370de)" style="fill: #1e3a8a; stroke: #1e3a8a; stroke-width: 2; stroke-linecap: round"/>
   </g>
   <g id="patch_24">
    <path d="M 576.993226 213.1632 
Q 633.023848 213.1632 686.818403 213.1632 
" clip-path="url(#p04ed1370de)" style="fill: none; stroke: #1e3a8a; stroke-width: 2; stroke-linecap: round"/>
    <path d="M 679.618403 209.5632 
L 686.818403 213.1632 
L 679.618403 216.7632 
z
" clip-path="url(#p04ed1370de)" style="fill: #1e3a8a; stroke: #1e3a8a; stroke-width: 2; stroke-linecap: round"/>
   </g>
   <g id="patch_25">
    <path d="M 689.060532 242.938318 
Q 615.258521 237.198699 551.943476 271.033927 
" clip-path="url(#p04ed1370de)" style="fill: none; stroke-dasharray: 7.4,3.2; stroke-dashoffset: 0; stroke: #6b7280; stroke-width: 2; stroke-linecap: round"/>
    <path d="M 559.990357 270.815516 
L 551.943476 271.033927 
L 556.596875 264.465375 
z
" clip-path="url(#p04ed1370de)" style="fill: #6b7280; stroke-dasharray: 7.4,3.2; stroke-dashoffset: 0; stroke: #6b7280; stroke-width: 2; stroke-linecap: round"/>
   </g>
   <g id="patch_26">
    <path d="M 433.75104 392.888592 
L 555.52896 392.888592 
Q 575.17056 392.888592 575.17056 381.911472 
L 575.17056 353.770128 
Q 575.17056 342.793008 555.52896 342.793008 
L 433.75104 342.793008 
Q 414.10944 342.793008 414.10944 353.770128 
L 414.10944 381.911472 
Q 414.10944 392.888592 433.75104 392.888592 
z
" clip-path="url(#p04ed1370de)" style="fill: #f8fafc; stroke: #1e3a8a; stroke-width: 2; stroke-linejoin: miter"/>
   </g>
   <g id="patch_27">
    <path d="M 665.87904 392.888592 
L 805.51296 392.888592 
Q 825.15456 392.888592 825.15456 381.911472 
L 825.15456 353.770128 
Q 825.15456 342.793008 805.51296 342.793008 
L 665.87904 342.793008 
Q 646.23744 342.793008 646.23744 353.770128 
L 646.23744 381.911472 
Q 646.23744 392.888592 665.87904 392.888592 
z
" clip-path="url(#p04ed1370de)" style="fill: #f8fafc; stroke: #1e3a8a; stroke-width: 2; stroke-linejoin: miter"/>
   </g>
   <g id="text_1">
    <!-- 日志机制与双独立磁盘 -->
    <g style="fill: #1e3a8a" transform="translate(330 30.3609) scale(0.24 -0.24)">
     <defs>
      <path id="NotoSansCJKjp-Regular-65e5" d="M 1619 2253 
L 4813 2253 
L 4813 454 
L 1619 454 
L 1619 2253 
z
M 1619 2726 
L 1619 4461 
L 4813 4461 
L 4813 2726 
L 1619 2726 
z
M 1126 4941 
L 1126 -442 
L 1619 -442 
L 1619 -26 
L 4813 -26 
L 4813 -410 
L 5325 -410 
L 5325 4941 
L 1126 4941 
z
" transform="scale(0.015625)"/>
      <path id="NotoSansCJKjp-Regular-5fd7" d="M 1901 1613 
L 1901 211 
C 1901 -301 2080 -442 2752 -442 
C 2886 -442 3853 -442 4006 -442 
C 4570 -442 4723 -230 4781 608 
C 4646 640 4454 710 4346 787 
C 4320 102 4262 0 3968 0 
C 3757 0 2944 0 2790 0 
C 2438 0 2374 32 2374 218 
L 2374 1613 
L 1901 1613 
z
M 2342 2080 
C 2797 1837 3309 1446 3539 1146 
L 3891 1472 
C 3648 1773 3123 2144 2669 2374 
L 2342 2080 
z
M 4563 1459 
C 5056 973 5530 294 5702 -179 
L 6138 51 
C 5952 538 5459 1197 4966 1670 
L 4563 1459 
z
M 1050 1523 
C 934 915 672 320 198 -26 
L 602 -294 
C 1101 96 1338 749 1478 1395 
L 1050 1523 
z
M 2938 5376 
L 2938 4454 
L 358 4454 
L 358 3994 
L 2938 3994 
L 2938 2906 
L 774 2906 
L 774 2451 
L 5670 2451 
L 5670 2906 
L 3424 2906 
L 3424 3994 
L 6061 3994 
L 6061 4454 
L 3424 4454 
L 3424 5376 
L 2938 5376 
z
" transform="scale(0.015625)"/>
      <path id="NotoSansCJKjp-Regular-673a" d="M 3187 5011 
L 3187 2957 
C 3187 1965 3098 691 2234 -205 
C 2342 -262 2528 -422 2598 -512 
C 3520 435 3654 1888 3654 2957 
L 3654 4557 
L 4858 4557 
L 4858 435 
C 4858 -115 4896 -230 5005 -326 
C 5101 -410 5242 -448 5370 -448 
C 5453 -448 5600 -448 5696 -448 
C 5830 -448 5946 -422 6035 -358 
C 6131 -294 6182 -186 6214 0 
C 6240 160 6266 634 6266 998 
C 6144 1037 5997 1114 5901 1203 
C 5894 774 5888 435 5869 288 
C 5862 141 5843 83 5805 45 
C 5779 13 5728 0 5677 0 
C 5613 0 5536 0 5491 0 
C 5440 0 5408 13 5376 38 
C 5344 64 5331 186 5331 397 
L 5331 5011 
L 3187 5011 
z
M 1395 5376 
L 1395 4006 
L 333 4006 
L 333 3546 
L 1331 3546 
C 1101 2656 634 1658 179 1120 
C 256 1005 378 813 429 685 
C 787 1126 1133 1850 1395 2598 
L 1395 -506 
L 1862 -506 
L 1862 2432 
C 2112 2112 2413 1715 2541 1498 
L 2842 1894 
C 2694 2061 2086 2746 1862 2970 
L 1862 3546 
L 2810 3546 
L 2810 4006 
L 1862 4006 
L 1862 5376 
L 1395 5376 
z
" transform="scale(0.015625)"/>
      <path id="NotoSansCJKjp-Regular-5236" d="M 4326 4787 
L 4326 1242 
L 4781 1242 
L 4781 4787 
L 4326 4787 
z
M 5466 5312 
L 5466 147 
C 5466 45 5434 13 5338 13 
C 5216 6 4858 6 4480 19 
C 4544 -128 4614 -352 4640 -486 
C 5120 -486 5472 -474 5664 -397 
C 5862 -307 5939 -166 5939 154 
L 5939 5312 
L 5466 5312 
z
M 909 5222 
C 774 4602 557 3962 262 3533 
C 384 3488 595 3405 691 3354 
C 800 3539 909 3763 1011 4013 
L 1850 4013 
L 1850 3341 
L 288 3341 
L 288 2899 
L 1850 2899 
L 1850 2246 
L 582 2246 
L 582 13 
L 1018 13 
L 1018 1811 
L 1850 1811 
L 1850 -506 
L 2310 -506 
L 2310 1811 
L 3200 1811 
L 3200 499 
C 3200 429 3181 410 3110 410 
C 3040 403 2829 403 2560 416 
C 2618 294 2675 122 2694 -6 
C 3046 -6 3296 0 3443 70 
C 3603 147 3642 269 3642 486 
L 3642 2246 
L 2310 2246 
L 2310 2899 
L 3866 2899 
L 3866 3341 
L 2310 3341 
L 2310 4013 
L 3616 4013 
L 3616 4454 
L 2310 4454 
L 2310 5350 
L 1850 5350 
L 1850 4454 
L 1171 4454 
C 1242 4672 1306 4902 1357 5133 
L 909 5222 
z
" transform="scale(0.015625)"/>
      <path id="NotoSansCJKjp-Regular-4e0e" d="M 1939 5389 
C 1773 4429 1485 3098 1267 2317 
L 1760 2272 
L 1843 2605 
L 4525 2605 
C 4486 2246 4454 1939 4416 1664 
L 346 1664 
L 346 1210 
L 4346 1210 
C 4230 518 4102 160 3949 26 
C 3866 -45 3776 -51 3616 -51 
C 3437 -51 2957 -51 2470 0 
C 2560 -134 2624 -339 2637 -480 
C 3098 -512 3558 -518 3789 -506 
C 4045 -486 4198 -442 4365 -282 
C 4570 -83 4710 346 4845 1210 
L 6074 1210 
L 6074 1664 
L 4902 1664 
C 4947 1997 4986 2374 5030 2816 
C 5037 2886 5050 3053 5050 3053 
L 1952 3053 
L 2163 4000 
L 5402 4000 
L 5402 4461 
L 2259 4461 
L 2432 5338 
L 1939 5389 
z
" transform="scale(0.015625)"/>
      <path id="NotoSansCJKjp-Regular-53cc" d="M 5350 4422 
C 5190 3392 4890 2509 4480 1798 
C 4141 2547 3917 3443 3770 4422 
L 5350 4422 
z
M 3155 4883 
L 3155 4422 
L 3315 4422 
C 3501 3226 3763 2176 4179 1318 
C 3731 685 3181 211 2573 -96 
C 2682 -192 2829 -384 2893 -506 
C 3482 -179 4000 262 4448 838 
C 4800 269 5248 -192 5811 -525 
C 5888 -390 6042 -211 6157 -115 
C 5568 198 5107 678 4749 1280 
C 5312 2170 5702 3334 5882 4813 
L 5568 4902 
L 5485 4883 
L 3155 4883 
z
M 467 3482 
C 877 2995 1312 2419 1690 1856 
C 1306 973 806 294 224 -128 
C 339 -211 499 -390 576 -506 
C 1139 -58 1626 563 2003 1370 
C 2246 986 2451 627 2586 326 
L 2995 653 
C 2822 1005 2554 1446 2234 1907 
C 2547 2720 2771 3686 2886 4813 
L 2579 4902 
L 2496 4883 
L 410 4883 
L 410 4422 
L 2374 4422 
C 2272 3674 2112 2995 1901 2387 
C 1555 2861 1178 3334 826 3750 
L 467 3482 
z
" transform="scale(0.015625)"/>
      <path id="NotoSansCJKjp-Regular-72ec" d="M 2490 4109 
L 2490 1741 
L 3898 1741 
L 3898 352 
L 2157 179 
L 2246 -320 
C 3104 -224 4333 -90 5504 58 
C 5581 -147 5645 -333 5690 -486 
L 6170 -314 
C 6016 147 5670 915 5376 1498 
L 4934 1363 
C 5062 1101 5197 800 5325 506 
L 4378 403 
L 4378 1741 
L 5792 1741 
L 5792 4109 
L 4378 4109 
L 4378 5363 
L 3898 5363 
L 3898 4109 
L 2490 4109 
z
M 2963 3686 
L 3898 3686 
L 3898 2170 
L 2963 2170 
L 2963 3686 
z
M 4378 3686 
L 5299 3686 
L 5299 2170 
L 4378 2170 
L 4378 3686 
z
M 1901 5267 
C 1766 5018 1594 4755 1389 4506 
C 1210 4768 979 5024 685 5274 
L 346 5018 
C 666 4736 909 4448 1082 4147 
C 819 3866 538 3603 243 3392 
C 352 3315 499 3181 576 3085 
C 819 3277 1062 3494 1293 3725 
C 1408 3437 1478 3136 1517 2829 
C 1216 2272 691 1670 218 1370 
C 333 1280 467 1114 544 1005 
C 890 1274 1261 1683 1568 2118 
L 1568 1914 
C 1568 1069 1504 294 1344 77 
C 1293 6 1229 -19 1133 -32 
C 992 -51 742 -51 435 -32 
C 518 -166 570 -339 576 -493 
C 845 -506 1107 -499 1325 -461 
C 1485 -435 1606 -365 1690 -250 
C 1952 102 2022 966 2022 1901 
C 2022 2662 1965 3398 1626 4090 
C 1894 4397 2131 4730 2323 5056 
L 1901 5267 
z
" transform="scale(0.015625)"/>
      <path id="NotoSansCJKjp-Regular-7acb" d="M 1408 3194 
C 1728 2362 1971 1267 2003 563 
L 2496 685 
C 2445 1395 2202 2464 1862 3309 
L 1408 3194 
z
M 2938 5376 
L 2938 4115 
L 550 4115 
L 550 3642 
L 5894 3642 
L 5894 4115 
L 3437 4115 
L 3437 5376 
L 2938 5376 
z
M 4461 3347 
C 4275 2400 3910 1069 3590 243 
L 333 243 
L 333 -230 
L 6074 -230 
L 6074 243 
L 4096 243 
C 4403 1062 4762 2272 5011 3245 
L 4461 3347 
z
" transform="scale(0.015625)"/>
      <path id="NotoSansCJKjp-Regular-78c1" d="M 5178 5344 
C 5082 5037 4896 4595 4742 4314 
L 4813 4288 
L 3603 4288 
L 3744 4346 
C 3661 4614 3456 5018 3238 5325 
L 2848 5178 
C 3027 4909 3200 4557 3290 4288 
L 2355 4288 
L 2355 3872 
L 6144 3872 
L 6144 4288 
L 5184 4288 
C 5338 4544 5517 4890 5670 5197 
L 5178 5344 
z
M 5600 2835 
C 5472 2502 5299 2112 5114 1722 
C 5011 1882 4877 2067 4723 2253 
C 4934 2650 5178 3226 5370 3699 
L 4947 3808 
C 4832 3437 4646 2944 4461 2547 
L 4333 2675 
L 4109 2342 
C 4403 2035 4730 1600 4896 1286 
C 4672 851 4435 442 4224 115 
C 4141 480 4006 902 3859 1254 
L 3507 1107 
C 3597 870 3686 595 3757 326 
L 2893 218 
C 3328 934 3821 1920 4186 2714 
L 3789 2867 
C 3661 2534 3494 2157 3315 1773 
C 3206 1933 3066 2118 2912 2304 
C 3130 2688 3373 3245 3565 3706 
L 3142 3821 
C 3027 3456 2835 2976 2656 2598 
L 2515 2739 
L 2291 2400 
C 2586 2086 2912 1664 3104 1344 
C 2880 909 2650 493 2438 160 
L 2118 122 
L 2208 -301 
L 3853 -64 
C 3878 -186 3891 -301 3904 -403 
L 4269 -256 
L 4282 -314 
L 5766 -70 
C 5798 -211 5830 -346 5850 -461 
L 6234 -294 
C 6163 134 5946 781 5696 1280 
L 5338 1120 
C 5453 877 5562 595 5651 320 
L 4691 179 
C 5133 890 5645 1888 6003 2688 
L 5600 2835 
z
M 282 4954 
L 282 4512 
L 998 4512 
C 858 3411 614 2374 173 1690 
C 262 1587 403 1376 461 1274 
C 563 1427 653 1600 736 1786 
L 736 -269 
L 1133 -269 
L 1133 230 
L 2278 230 
L 2278 3034 
L 1165 3034 
C 1280 3501 1376 4000 1446 4512 
L 2406 4512 
L 2406 4954 
L 282 4954 
z
M 1133 2605 
L 1869 2605 
L 1869 653 
L 1133 653 
L 1133 2605 
z
" transform="scale(0.015625)"/>
      <path id="NotoSansCJKjp-Regular-76d8" d="M 2496 2726 
C 2854 2541 3302 2253 3520 2048 
L 3763 2355 
C 3546 2560 3091 2829 2739 3002 
L 2496 2726 
z
M 2970 5440 
C 2925 5286 2842 5075 2758 4896 
L 1357 4896 
L 1357 3770 
L 1350 3520 
L 326 3520 
L 326 3098 
L 1286 3098 
C 1190 2707 966 2310 474 1997 
C 576 1933 755 1754 826 1658 
C 1414 2042 1670 2573 1773 3098 
L 4742 3098 
L 4742 2349 
C 4742 2278 4717 2253 4627 2253 
C 4544 2246 4250 2246 3942 2253 
C 4013 2138 4077 1965 4096 1843 
C 4531 1843 4813 1843 4986 1914 
C 5165 1984 5222 2112 5222 2342 
L 5222 3098 
L 6118 3098 
L 6118 3520 
L 5222 3520 
L 5222 4896 
L 3277 4896 
L 3488 5338 
L 2970 5440 
z
M 2541 4141 
C 2880 3974 3290 3712 3488 3520 
L 1830 3520 
L 1837 3763 
L 1837 4499 
L 4742 4499 
L 4742 3520 
L 3501 3520 
L 3744 3814 
C 3533 4013 3117 4262 2778 4416 
L 2541 4141 
z
M 1011 1670 
L 1011 96 
L 288 96 
L 288 -333 
L 6112 -333 
L 6112 96 
L 5395 96 
L 5395 1670 
L 1011 1670 
z
M 1459 96 
L 1459 1280 
L 2317 1280 
L 2317 96 
L 1459 96 
z
M 2758 96 
L 2758 1280 
L 3616 1280 
L 3616 96 
L 2758 96 
z
M 4064 96 
L 4064 1280 
L 4928 1280 
L 4928 96 
L 4064 96 
z
" transform="scale(0.015625)"/>
     </defs>
     <use xlink:href="#NotoSansCJKjp-Regular-65e5"/>
     <use xlink:href="#NotoSansCJKjp-Regular-5fd7" transform="translate(99.999985 0)"/>
     <use xlink:href="#NotoSansCJKjp-Regular-673a" transform="translate(199.999969 0)"/>
     <use xlink:href="#NotoSansCJKjp-Regular-5236" transform="translate(299.999954 0)"/>
     <use xlink:href="#NotoSansCJKjp-Regular-4e0e" transform="translate(399.999939 0)"/>
     <use xlink:href="#NotoSansCJKjp-Regular-53cc" transform="translate(499.999924 0)"/>
     <use xlink:href="#NotoSansCJKjp-Regular-72ec" transform="translate(599.999908 0)"/>
     <use xlink:href="#NotoSansCJKjp-Regular-7acb" transform="translate(699.999893 0)"/>
     <use xlink:href="#NotoSansCJKjp-Regular-78c1" transform="translate(799.999878 0)"/>
     <use xlink:href="#NotoSansCJKjp-Regular-76d8" transform="translate(899.999863 0)"/>
    </g>
   </g>
   <g id="text_2">
    <!-- 日志事务机制 -->
    <g style="fill: #1e3a8a" transform="translate(57.168 102.653962) scale(0.15 -0.15)">
     <defs>
      <path id="NotoSansCJKjp-Regular-4e8b" d="M 858 838 
L 858 461 
L 2938 461 
L 2938 26 
C 2938 -90 2899 -122 2778 -128 
C 2669 -134 2278 -141 1894 -128 
C 1958 -237 2042 -416 2067 -531 
C 2605 -531 2938 -525 3136 -454 
C 3334 -384 3424 -269 3424 26 
L 3424 461 
L 4960 461 
L 4960 179 
L 5446 179 
L 5446 1318 
L 6112 1318 
L 6112 1702 
L 5446 1702 
L 5446 2502 
L 3424 2502 
L 3424 2957 
L 5344 2957 
L 5344 4090 
L 3424 4090 
L 3424 4467 
L 5984 4467 
L 5984 4864 
L 3424 4864 
L 3424 5376 
L 2938 5376 
L 2938 4864 
L 429 4864 
L 429 4467 
L 2938 4467 
L 2938 4090 
L 1101 4090 
L 1101 2957 
L 2938 2957 
L 2938 2502 
L 915 2502 
L 915 2150 
L 2938 2150 
L 2938 1702 
L 307 1702 
L 307 1318 
L 2938 1318 
L 2938 838 
L 858 838 
z
M 1562 3750 
L 2938 3750 
L 2938 3296 
L 1562 3296 
L 1562 3750 
z
M 3424 3750 
L 4858 3750 
L 4858 3296 
L 3424 3296 
L 3424 3750 
z
M 3424 2150 
L 4960 2150 
L 4960 1702 
L 3424 1702 
L 3424 2150 
z
M 3424 1318 
L 4960 1318 
L 4960 838 
L 3424 838 
L 3424 1318 
z
" transform="scale(0.015625)"/>
      <path id="NotoSansCJKjp-Regular-52a1" d="M 2854 2438 
C 2829 2208 2784 1997 2733 1805 
L 806 1805 
L 806 1382 
L 2586 1382 
C 2214 557 1504 128 365 -90 
C 448 -186 582 -397 627 -499 
C 1894 -198 2688 339 3098 1382 
L 5043 1382 
C 4934 538 4806 147 4659 26 
C 4589 -32 4512 -38 4378 -38 
C 4224 -38 3808 -32 3405 6 
C 3488 -115 3546 -294 3558 -422 
C 3942 -442 4320 -448 4518 -442 
C 4749 -429 4896 -390 5037 -262 
C 5261 -64 5402 422 5542 1587 
C 5555 1658 5568 1805 5568 1805 
L 3232 1805 
C 3283 1990 3322 2189 3354 2400 
L 2854 2438 
z
M 4768 4307 
C 4390 3923 3866 3616 3258 3373 
C 2752 3590 2349 3866 2074 4218 
L 2163 4307 
L 4768 4307 
z
M 2445 5382 
C 2112 4826 1478 4166 576 3706 
C 678 3629 813 3456 877 3347 
C 1203 3526 1498 3731 1760 3942 
C 2016 3642 2336 3386 2714 3181 
C 1952 2938 1107 2784 294 2707 
C 371 2598 454 2406 486 2285 
C 1421 2400 2387 2598 3251 2925 
C 3994 2624 4890 2445 5882 2362 
C 5939 2496 6048 2688 6150 2797 
C 5293 2842 4493 2963 3821 3168 
C 4531 3514 5133 3962 5517 4544 
L 5229 4742 
L 5146 4717 
L 2541 4717 
C 2694 4902 2829 5094 2944 5286 
L 2445 5382 
z
" transform="scale(0.015625)"/>
     </defs>
     <use xlink:href="#NotoSansCJKjp-Regular-65e5"/>
     <use xlink:href="#NotoSansCJKjp-Regular-5fd7" transform="translate(99.999985 0)"/>
     <use xlink:href="#NotoSansCJKjp-Regular-4e8b" transform="translate(199.999969 0)"/>
     <use xlink:href="#NotoSansCJKjp-Regular-52a1" transform="translate(299.999954 0)"/>
     <use xlink:href="#NotoSansCJKjp-Regular-673a" transform="translate(399.999939 0)"/>
     <use xlink:href="#NotoSansCJKjp-Regular-5236" transform="translate(499.999924 0)"/>
    </g>
   </g>
   <g id="text_3">
    <!-- begin_op() -->
    <g style="fill: #111827" transform="translate(82.784828 166.391028) scale(0.11 -0.11)">
     <defs>
      <path id="NotoSansCJKjp-Regular-62" d="M 2118 -83 
C 2912 -83 3629 602 3629 1792 
C 3629 2867 3142 3565 2246 3565 
C 1856 3565 1472 3347 1152 3078 
L 1178 3699 
L 1178 5094 
L 589 5094 
L 589 0 
L 1056 0 
L 1107 358 
L 1133 358 
C 1434 83 1798 -83 2118 -83 
z
M 2022 410 
C 1792 410 1478 499 1178 768 
L 1178 2598 
C 1504 2906 1811 3072 2099 3072 
C 2765 3072 3021 2560 3021 1786 
C 3021 928 2598 410 2022 410 
z
" transform="scale(0.015625)"/>
      <path id="NotoSansCJKjp-Regular-65" d="M 1997 -83 
C 2464 -83 2835 70 3136 269 
L 2931 659 
C 2669 486 2400 384 2061 384 
C 1402 384 947 858 909 1600 
L 3251 1600 
C 3264 1690 3277 1805 3277 1933 
C 3277 2925 2778 3565 1888 3565 
C 1094 3565 333 2867 333 1734 
C 333 589 1069 -83 1997 -83 
z
M 902 2016 
C 973 2707 1408 3098 1901 3098 
C 2445 3098 2765 2720 2765 2016 
L 902 2016 
z
" transform="scale(0.015625)"/>
      <path id="NotoSansCJKjp-Regular-67" d="M 1760 -1600 
C 2835 -1600 3520 -1043 3520 -397 
C 3520 179 3110 429 2310 429 
L 1626 429 
C 1158 429 1018 589 1018 806 
C 1018 998 1114 1114 1242 1222 
C 1395 1146 1587 1101 1754 1101 
C 2470 1101 3027 1568 3027 2310 
C 3027 2611 2912 2867 2746 3027 
L 3456 3027 
L 3456 3475 
L 2246 3475 
C 2125 3526 1952 3565 1754 3565 
C 1056 3565 454 3085 454 2323 
C 454 1907 678 1568 909 1389 
L 909 1363 
C 723 1235 525 1005 525 717 
C 525 442 659 256 838 147 
L 838 115 
C 512 -83 326 -371 326 -672 
C 326 -1267 915 -1600 1760 -1600 
z
M 1754 1498 
C 1357 1498 1018 1818 1018 2323 
C 1018 2835 1350 3136 1754 3136 
C 2170 3136 2496 2835 2496 2323 
C 2496 1818 2157 1498 1754 1498 
z
M 1843 -1197 
C 1210 -1197 838 -960 838 -589 
C 838 -390 941 -179 1190 0 
C 1344 -38 1510 -51 1638 -51 
L 2240 -51 
C 2701 -51 2944 -166 2944 -493 
C 2944 -851 2515 -1197 1843 -1197 
z
" transform="scale(0.015625)"/>
      <path id="NotoSansCJKjp-Regular-69" d="M 589 0 
L 1178 0 
L 1178 3475 
L 589 3475 
L 589 0 
z
M 883 4192 
C 1114 4192 1274 4346 1274 4582 
C 1274 4806 1114 4960 883 4960 
C 653 4960 499 4806 499 4582 
C 499 4346 653 4192 883 4192 
z
" transform="scale(0.015625)"/>
      <path id="NotoSansCJKjp-Regular-6e" d="M 589 0 
L 1178 0 
L 1178 2522 
C 1523 2874 1766 3053 2125 3053 
C 2586 3053 2784 2778 2784 2125 
L 2784 0 
L 3366 0 
L 3366 2202 
C 3366 3085 3034 3565 2304 3565 
C 1830 3565 1466 3302 1139 2970 
L 1126 2970 
L 1069 3475 
L 589 3475 
L 589 0 
z
" transform="scale(0.015625)"/>
      <path id="NotoSansCJKjp-Regular-5f" d="M 83 -896 
L 3488 -896 
L 3488 -512 
L 83 -512 
L 83 -896 
z
" transform="scale(0.015625)"/>
      <path id="NotoSansCJKjp-Regular-6f" d="M 1939 -83 
C 2790 -83 3546 582 3546 1734 
C 3546 2893 2790 3565 1939 3565 
C 1088 3565 333 2893 333 1734 
C 333 582 1088 -83 1939 -83 
z
M 1939 403 
C 1338 403 934 934 934 1734 
C 934 2534 1338 3072 1939 3072 
C 2541 3072 2950 2534 2950 1734 
C 2950 934 2541 403 1939 403 
z
" transform="scale(0.015625)"/>
      <path id="NotoSansCJKjp-Regular-70" d="M 589 -1466 
L 1178 -1466 
L 1178 -288 
L 1158 320 
C 1472 58 1805 -83 2118 -83 
C 2912 -83 3629 602 3629 1792 
C 3629 2867 3142 3565 2246 3565 
C 1843 3565 1453 3334 1139 3072 
L 1126 3072 
L 1069 3475 
L 589 3475 
L 589 -1466 
z
M 2022 410 
C 1792 410 1485 499 1178 768 
L 1178 2598 
C 1510 2906 1811 3072 2099 3072 
C 2765 3072 3021 2560 3021 1786 
C 3021 928 2598 410 2022 410 
z
" transform="scale(0.015625)"/>
      <path id="NotoSansCJKjp-Regular-28" d="M 1530 -1254 
L 1888 -1094 
C 1338 -186 1075 902 1075 1990 
C 1075 3072 1338 4154 1888 5069 
L 1530 5235 
C 941 4275 589 3245 589 1990 
C 589 730 941 -301 1530 -1254 
z
" transform="scale(0.015625)"/>
      <path id="NotoSansCJKjp-Regular-29" d="M 634 -1254 
C 1222 -301 1574 730 1574 1990 
C 1574 3245 1222 4275 634 5235 
L 269 5069 
C 819 4154 1094 3072 1094 1990 
C 1094 902 819 -186 269 -1094 
L 634 -1254 
z
" transform="scale(0.015625)"/>
     </defs>
     <use xlink:href="#NotoSansCJKjp-Regular-62"/>
     <use xlink:href="#NotoSansCJKjp-Regular-65" transform="translate(61.799988 0)"/>
     <use xlink:href="#NotoSansCJKjp-Regular-67" transform="translate(117.199982 0)"/>
     <use xlink:href="#NotoSansCJKjp-Regular-69" transform="translate(173.599976 0)"/>
     <use xlink:href="#NotoSansCJKjp-Regular-6e" transform="translate(201.09996 0)"/>
     <use xlink:href="#NotoSansCJKjp-Regular-5f" transform="translate(262.099945 0)"/>
     <use xlink:href="#NotoSansCJKjp-Regular-6f" transform="translate(317.999939 0)"/>
     <use xlink:href="#NotoSansCJKjp-Regular-70" transform="translate(378.59993 0)"/>
     <use xlink:href="#NotoSansCJKjp-Regular-28" transform="translate(440.599915 0)"/>
     <use xlink:href="#NotoSansCJKjp-Regular-29" transform="translate(474.399902 0)"/>
    </g>
   </g>
   <g id="text_4">
    <!-- log_write() -->
    <g style="fill: #111827" transform="translate(172.047641 166.391028) scale(0.11 -0.11)">
     <defs>
      <path id="NotoSansCJKjp-Regular-6c" d="M 1203 -83 
C 1363 -83 1459 -58 1542 -32 
L 1459 416 
C 1395 403 1370 403 1338 403 
C 1248 403 1178 474 1178 653 
L 1178 5094 
L 589 5094 
L 589 691 
C 589 198 768 -83 1203 -83 
z
" transform="scale(0.015625)"/>
      <path id="NotoSansCJKjp-Regular-77" d="M 1139 0 
L 1818 0 
L 2310 1862 
C 2400 2195 2470 2522 2547 2874 
L 2579 2874 
C 2662 2522 2726 2202 2816 1875 
L 3315 0 
L 4026 0 
L 4966 3475 
L 4403 3475 
L 3898 1466 
C 3821 1133 3757 819 3686 499 
L 3654 499 
C 3571 819 3494 1133 3411 1466 
L 2867 3475 
L 2298 3475 
L 1754 1466 
C 1670 1133 1594 819 1523 499 
L 1491 499 
C 1421 819 1357 1133 1286 1466 
L 768 3475 
L 173 3475 
L 1139 0 
z
" transform="scale(0.015625)"/>
      <path id="NotoSansCJKjp-Regular-72" d="M 589 0 
L 1178 0 
L 1178 2234 
C 1408 2822 1760 3040 2048 3040 
C 2195 3040 2272 3021 2387 2982 
L 2496 3488 
C 2387 3546 2278 3565 2125 3565 
C 1741 3565 1382 3283 1139 2842 
L 1126 2842 
L 1069 3475 
L 589 3475 
L 589 0 
z
" transform="scale(0.015625)"/>
      <path id="NotoSansCJKjp-Regular-74" d="M 1677 -83 
C 1894 -83 2125 -19 2323 45 
L 2208 486 
C 2093 435 1939 390 1811 390 
C 1408 390 1274 634 1274 1056 
L 1274 3002 
L 2221 3002 
L 2221 3475 
L 1274 3475 
L 1274 4454 
L 787 4454 
L 723 3475 
L 173 3443 
L 173 3002 
L 691 3002 
L 691 1075 
C 691 378 941 -83 1677 -83 
z
" transform="scale(0.015625)"/>
     </defs>
     <use xlink:href="#NotoSansCJKjp-Regular-6c"/>
     <use xlink:href="#NotoSansCJKjp-Regular-6f" transform="translate(28.399994 0)"/>
     <use xlink:href="#NotoSansCJKjp-Regular-67" transform="translate(88.999985 0)"/>
     <use xlink:href="#NotoSansCJKjp-Regular-5f" transform="translate(145.399979 0)"/>
     <use xlink:href="#NotoSansCJKjp-Regular-77" transform="translate(201.299973 0)"/>
     <use xlink:href="#NotoSansCJKjp-Regular-72" transform="translate(281.499954 0)"/>
     <use xlink:href="#NotoSansCJKjp-Regular-69" transform="translate(320.299942 0)"/>
     <use xlink:href="#NotoSansCJKjp-Regular-74" transform="translate(347.799927 0)"/>
     <use xlink:href="#NotoSansCJKjp-Regular-65" transform="translate(385.499924 0)"/>
     <use xlink:href="#NotoSansCJKjp-Regular-28" transform="translate(440.899918 0)"/>
     <use xlink:href="#NotoSansCJKjp-Regular-29" transform="translate(474.699905 0)"/>
    </g>
   </g>
   <g id="text_5">
    <!-- commit() -->
    <g style="fill: #111827" transform="translate(256.741203 166.385013) scale(0.11 -0.11)">
     <defs>
      <path id="NotoSansCJKjp-Regular-63" d="M 1958 -83 
C 2374 -83 2771 83 3085 352 
L 2829 749 
C 2611 557 2330 403 2010 403 
C 1370 403 934 934 934 1734 
C 934 2534 1395 3072 2029 3072 
C 2298 3072 2522 2950 2720 2771 
L 3014 3155 
C 2771 3373 2458 3565 2003 3565 
C 1107 3565 333 2893 333 1734 
C 333 582 1037 -83 1958 -83 
z
" transform="scale(0.015625)"/>
      <path id="NotoSansCJKjp-Regular-6d" d="M 589 0 
L 1178 0 
L 1178 2522 
C 1491 2880 1786 3053 2048 3053 
C 2490 3053 2694 2778 2694 2125 
L 2694 0 
L 3277 0 
L 3277 2522 
C 3603 2880 3885 3053 4154 3053 
C 4595 3053 4800 2778 4800 2125 
L 4800 0 
L 5382 0 
L 5382 2202 
C 5382 3085 5043 3565 4333 3565 
C 3904 3565 3546 3290 3181 2899 
C 3040 3309 2758 3565 2221 3565 
C 1805 3565 1446 3302 1139 2970 
L 1126 2970 
L 1069 3475 
L 589 3475 
L 589 0 
z
" transform="scale(0.015625)"/>
     </defs>
     <use xlink:href="#NotoSansCJKjp-Regular-63"/>
     <use xlink:href="#NotoSansCJKjp-Regular-6f" transform="translate(50.999985 0)"/>
     <use xlink:href="#NotoSansCJKjp-Regular-6d" transform="translate(111.599976 0)"/>
     <use xlink:href="#NotoSansCJKjp-Regular-6d" transform="translate(204.199966 0)"/>
     <use xlink:href="#NotoSansCJKjp-Regular-69" transform="translate(296.799957 0)"/>
     <use xlink:href="#NotoSansCJKjp-Regular-74" transform="translate(324.299942 0)"/>
     <use xlink:href="#NotoSansCJKjp-Regular-28" transform="translate(361.999939 0)"/>
     <use xlink:href="#NotoSansCJKjp-Regular-29" transform="translate(395.799927 0)"/>
    </g>
   </g>
   <g id="text_6">
    <!-- install_trans() -->
    <g style="fill: #111827" transform="translate(182.110828 216.281012) scale(0.11 -0.11)">
     <defs>
      <path id="NotoSansCJKjp-Regular-73" d="M 1498 -83 
C 2317 -83 2758 384 2758 947 
C 2758 1606 2208 1811 1702 2003 
C 1312 2150 954 2278 954 2605 
C 954 2880 1158 3110 1600 3110 
C 1907 3110 2150 2976 2387 2803 
L 2669 3168 
C 2406 3386 2022 3565 1594 3565 
C 832 3565 397 3130 397 2579 
C 397 1984 922 1754 1408 1574 
C 1792 1434 2202 1267 2202 915 
C 2202 614 1978 371 1517 371 
C 1101 371 794 538 486 787 
L 205 397 
C 531 122 1005 -83 1498 -83 
z
" transform="scale(0.015625)"/>
      <path id="NotoSansCJKjp-Regular-61" d="M 1389 -83 
C 1818 -83 2208 141 2541 416 
L 2560 416 
L 2611 0 
L 3091 0 
L 3091 2138 
C 3091 3002 2739 3565 1888 3565 
C 1325 3565 838 3315 525 3110 
L 749 2707 
C 1024 2893 1389 3078 1792 3078 
C 2362 3078 2509 2650 2509 2202 
C 1030 2035 378 1658 378 902 
C 378 275 806 -83 1389 -83 
z
M 1555 390 
C 1210 390 941 544 941 941 
C 941 1389 1338 1677 2509 1811 
L 2509 845 
C 2170 544 1888 390 1555 390 
z
" transform="scale(0.015625)"/>
     </defs>
     <use xlink:href="#NotoSansCJKjp-Regular-69"/>
     <use xlink:href="#NotoSansCJKjp-Regular-6e" transform="translate(27.499985 0)"/>
     <use xlink:href="#NotoSansCJKjp-Regular-73" transform="translate(88.499969 0)"/>
     <use xlink:href="#NotoSansCJKjp-Regular-74" transform="translate(135.299957 0)"/>
     <use xlink:href="#NotoSansCJKjp-Regular-61" transform="translate(172.999954 0)"/>
     <use xlink:href="#NotoSansCJKjp-Regular-6c" transform="translate(229.299942 0)"/>
     <use xlink:href="#NotoSansCJKjp-Regular-6c" transform="translate(257.699936 0)"/>
     <use xlink:href="#NotoSansCJKjp-Regular-5f" transform="translate(286.09993 0)"/>
     <use xlink:href="#NotoSansCJKjp-Regular-74" transform="translate(341.999924 0)"/>
     <use xlink:href="#NotoSansCJKjp-Regular-72" transform="translate(379.699921 0)"/>
     <use xlink:href="#NotoSansCJKjp-Regular-61" transform="translate(418.499908 0)"/>
     <use xlink:href="#NotoSansCJKjp-Regular-6e" transform="translate(474.799896 0)"/>
     <use xlink:href="#NotoSansCJKjp-Regular-73" transform="translate(535.799881 0)"/>
     <use xlink:href="#NotoSansCJKjp-Regular-28" transform="translate(582.599869 0)"/>
     <use xlink:href="#NotoSansCJKjp-Regular-29" transform="translate(616.399857 0)"/>
    </g>
   </g>
   <g id="text_7">
    <!-- recover -->
    <g style="fill: #111827" transform="translate(91.370844 216.281012) scale(0.11 -0.11)">
     <defs>
      <path id="NotoSansCJKjp-Regular-76" d="M 1338 0 
L 2022 0 
L 3251 3475 
L 2675 3475 
L 2016 1498 
C 1914 1158 1798 806 1696 474 
L 1664 474 
C 1562 806 1453 1158 1344 1498 
L 691 3475 
L 83 3475 
L 1338 0 
z
" transform="scale(0.015625)"/>
     </defs>
     <use xlink:href="#NotoSansCJKjp-Regular-72"/>
     <use xlink:href="#NotoSansCJKjp-Regular-65" transform="translate(38.799988 0)"/>
     <use xlink:href="#NotoSansCJKjp-Regular-63" transform="translate(94.199982 0)"/>
     <use xlink:href="#NotoSansCJKjp-Regular-6f" transform="translate(145.199966 0)"/>
     <use xlink:href="#NotoSansCJKjp-Regular-76" transform="translate(205.799957 0)"/>
     <use xlink:href="#NotoSansCJKjp-Regular-65" transform="translate(257.899948 0)"/>
     <use xlink:href="#NotoSansCJKjp-Regular-72" transform="translate(313.299942 0)"/>
    </g>
   </g>
   <g id="text_8">
    <!-- 根盘 ROOTDEV -->
    <g style="fill: #1e3a8a" transform="translate(396.432 102.653962) scale(0.15 -0.15)">
     <defs>
      <path id="NotoSansCJKjp-Regular-6839" d="M 5280 3469 
L 5280 2746 
L 3398 2746 
L 3398 3469 
L 5280 3469 
z
M 5280 3891 
L 3398 3891 
L 3398 4614 
L 5280 4614 
L 5280 3891 
z
M 5760 2106 
C 5510 1862 5120 1530 4781 1286 
C 4614 1606 4486 1952 4390 2323 
L 5741 2323 
L 5741 5037 
L 2938 5037 
L 2938 166 
L 2419 70 
L 2554 -390 
C 3142 -262 3923 -102 4666 70 
L 4627 499 
L 3398 256 
L 3398 2323 
L 3962 2323 
C 4282 1011 4877 -26 5875 -531 
C 5946 -397 6093 -218 6208 -128 
C 5696 96 5286 474 4973 954 
C 5331 1178 5741 1478 6080 1747 
L 5760 2106 
z
M 1293 5376 
L 1293 4006 
L 333 4006 
L 333 3552 
L 1235 3552 
C 1030 2669 602 1664 173 1120 
C 256 1011 378 819 429 691 
C 749 1120 1062 1824 1293 2554 
L 1293 -506 
L 1747 -506 
L 1747 2438 
C 1965 2118 2221 1722 2336 1504 
L 2630 1882 
C 2502 2061 1933 2790 1747 2995 
L 1747 3552 
L 2592 3552 
L 2592 4006 
L 1747 4006 
L 1747 5376 
L 1293 5376 
z
" transform="scale(0.015625)"/>
      <path id="NotoSansCJKjp-Regular-20" transform="scale(0.015625)"/>
      <path id="NotoSansCJKjp-Regular-52" d="M 1235 2464 
L 1235 4211 
L 2022 4211 
C 2758 4211 3162 3994 3162 3379 
C 3162 2765 2758 2464 2022 2464 
L 1235 2464 
z
M 3219 0 
L 3885 0 
L 2694 2054 
C 3328 2208 3750 2643 3750 3379 
C 3750 4352 3066 4691 2112 4691 
L 646 4691 
L 646 0 
L 1235 0 
L 1235 1990 
L 2080 1990 
L 3219 0 
z
" transform="scale(0.015625)"/>
      <path id="NotoSansCJKjp-Regular-4f" d="M 2374 -83 
C 3552 -83 4378 858 4378 2362 
C 4378 3866 3552 4774 2374 4774 
C 1197 4774 371 3866 371 2362 
C 371 858 1197 -83 2374 -83 
z
M 2374 435 
C 1530 435 979 1190 979 2362 
C 979 3533 1530 4256 2374 4256 
C 3219 4256 3770 3533 3770 2362 
C 3770 1190 3219 435 2374 435 
z
" transform="scale(0.015625)"/>
      <path id="NotoSansCJKjp-Regular-54" d="M 1619 0 
L 2214 0 
L 2214 4192 
L 3635 4192 
L 3635 4691 
L 198 4691 
L 198 4192 
L 1619 4192 
L 1619 0 
z
" transform="scale(0.015625)"/>
      <path id="NotoSansCJKjp-Regular-44" d="M 646 0 
L 1843 0 
C 3258 0 4026 877 4026 2362 
C 4026 3859 3258 4691 1818 4691 
L 646 4691 
L 646 0 
z
M 1235 486 
L 1235 4211 
L 1766 4211 
C 2874 4211 3418 3552 3418 2362 
C 3418 1178 2874 486 1766 486 
L 1235 486 
z
" transform="scale(0.015625)"/>
      <path id="NotoSansCJKjp-Regular-45" d="M 646 0 
L 3418 0 
L 3418 506 
L 1235 506 
L 1235 2214 
L 3014 2214 
L 3014 2720 
L 1235 2720 
L 1235 4192 
L 3347 4192 
L 3347 4691 
L 646 4691 
L 646 0 
z
" transform="scale(0.015625)"/>
      <path id="NotoSansCJKjp-Regular-56" d="M 1504 0 
L 2189 0 
L 3680 4691 
L 3078 4691 
L 2323 2150 
C 2163 1600 2048 1152 1869 602 
L 1843 602 
C 1670 1152 1549 1600 1389 2150 
L 627 4691 
L 6 4691 
L 1504 0 
z
" transform="scale(0.015625)"/>
     </defs>
     <use xlink:href="#NotoSansCJKjp-Regular-6839"/>
     <use xlink:href="#NotoSansCJKjp-Regular-76d8" transform="translate(99.999985 0)"/>
     <use xlink:href="#NotoSansCJKjp-Regular-20" transform="translate(199.999969 0)"/>
     <use xlink:href="#NotoSansCJKjp-Regular-52" transform="translate(222.399963 0)"/>
     <use xlink:href="#NotoSansCJKjp-Regular-4f" transform="translate(285.899948 0)"/>
     <use xlink:href="#NotoSansCJKjp-Regular-4f" transform="translate(360.09993 0)"/>
     <use xlink:href="#NotoSansCJKjp-Regular-54" transform="translate(434.299911 0)"/>
     <use xlink:href="#NotoSansCJKjp-Regular-44" transform="translate(494.199905 0)"/>
     <use xlink:href="#NotoSansCJKjp-Regular-45" transform="translate(562.999893 0)"/>
     <use xlink:href="#NotoSansCJKjp-Regular-56" transform="translate(621.899887 0)"/>
    </g>
   </g>
   <g id="text_9">
    <!-- / -->
    <g style="fill: #111827" transform="translate(483.359812 139.604925) scale(0.12 -0.12)">
     <defs>
      <path id="NotoSansCJKjp-Regular-2f" d="M 70 -1146 
L 499 -1146 
L 2413 5082 
L 1990 5082 
L 70 -1146 
z
" transform="scale(0.015625)"/>
     </defs>
     <use xlink:href="#NotoSansCJKjp-Regular-2f"/>
    </g>
    <!-- root namespace -->
    <g style="fill: #111827" transform="translate(440.298563 153.815175) scale(0.12 -0.12)">
     <use xlink:href="#NotoSansCJKjp-Regular-72"/>
     <use xlink:href="#NotoSansCJKjp-Regular-6f" transform="translate(38.799988 0)"/>
     <use xlink:href="#NotoSansCJKjp-Regular-6f" transform="translate(99.399979 0)"/>
     <use xlink:href="#NotoSansCJKjp-Regular-74" transform="translate(159.999969 0)"/>
     <use xlink:href="#NotoSansCJKjp-Regular-20" transform="translate(197.699966 0)"/>
     <use xlink:href="#NotoSansCJKjp-Regular-6e" transform="translate(220.09996 0)"/>
     <use xlink:href="#NotoSansCJKjp-Regular-61" transform="translate(281.099945 0)"/>
     <use xlink:href="#NotoSansCJKjp-Regular-6d" transform="translate(337.399933 0)"/>
     <use xlink:href="#NotoSansCJKjp-Regular-65" transform="translate(429.999924 0)"/>
     <use xlink:href="#NotoSansCJKjp-Regular-73" transform="translate(485.399918 0)"/>
     <use xlink:href="#NotoSansCJKjp-Regular-70" transform="translate(532.199905 0)"/>
     <use xlink:href="#NotoSansCJKjp-Regular-61" transform="translate(594.19989 0)"/>
     <use xlink:href="#NotoSansCJKjp-Regular-63" transform="translate(650.499878 0)"/>
     <use xlink:href="#NotoSansCJKjp-Regular-65" transform="translate(701.499863 0)"/>
    </g>
   </g>
   <g id="text_10">
    <!-- desktop -->
    <g style="fill: #111827" transform="translate(425.319297 216.847887) scale(0.13 -0.13)">
     <defs>
      <path id="NotoSansCJKjp-Regular-64" d="M 1773 -83 
C 2189 -83 2560 141 2829 410 
L 2848 410 
L 2899 0 
L 3379 0 
L 3379 5094 
L 2790 5094 
L 2790 3757 
L 2822 3162 
C 2515 3411 2253 3565 1843 3565 
C 1050 3565 339 2861 339 1734 
C 339 576 902 -83 1773 -83 
z
M 1901 410 
C 1293 410 941 902 941 1741 
C 941 2534 1389 3072 1946 3072 
C 2234 3072 2502 2970 2790 2707 
L 2790 883 
C 2502 563 2221 410 1901 410 
z
" transform="scale(0.015625)"/>
      <path id="NotoSansCJKjp-Regular-6b" d="M 589 0 
L 1165 0 
L 1165 915 
L 1818 1677 
L 2835 0 
L 3469 0 
L 2157 2074 
L 3315 3475 
L 2662 3475 
L 1190 1645 
L 1165 1645 
L 1165 5094 
L 589 5094 
L 589 0 
z
" transform="scale(0.015625)"/>
     </defs>
     <use xlink:href="#NotoSansCJKjp-Regular-64"/>
     <use xlink:href="#NotoSansCJKjp-Regular-65" transform="translate(61.999985 0)"/>
     <use xlink:href="#NotoSansCJKjp-Regular-73" transform="translate(117.399979 0)"/>
     <use xlink:href="#NotoSansCJKjp-Regular-6b" transform="translate(164.199966 0)"/>
     <use xlink:href="#NotoSansCJKjp-Regular-74" transform="translate(219.399963 0)"/>
     <use xlink:href="#NotoSansCJKjp-Regular-6f" transform="translate(257.09996 0)"/>
     <use xlink:href="#NotoSansCJKjp-Regular-70" transform="translate(317.699951 0)"/>
    </g>
   </g>
   <g id="text_11">
    <!-- disk1 -->
    <g style="fill: #111827" transform="translate(523.225 209.150669) scale(0.13 -0.13)">
     <defs>
      <path id="NotoSansCJKjp-Regular-31" d="M 563 0 
L 3136 0 
L 3136 486 
L 2195 486 
L 2195 4691 
L 1747 4691 
C 1491 4544 1190 4435 774 4358 
L 774 3987 
L 1613 3987 
L 1613 486 
L 563 486 
L 563 0 
z
" transform="scale(0.015625)"/>
     </defs>
     <use xlink:href="#NotoSansCJKjp-Regular-64"/>
     <use xlink:href="#NotoSansCJKjp-Regular-69" transform="translate(61.999985 0)"/>
     <use xlink:href="#NotoSansCJKjp-Regular-73" transform="translate(89.499969 0)"/>
     <use xlink:href="#NotoSansCJKjp-Regular-6b" transform="translate(136.299957 0)"/>
     <use xlink:href="#NotoSansCJKjp-Regular-31" transform="translate(191.499954 0)"/>
    </g>
    <!-- 挂载点 -->
    <g style="fill: #111827" transform="translate(519.78 224.545106) scale(0.13 -0.13)">
     <defs>
      <path id="NotoSansCJKjp-Regular-6302" d="M 1146 5376 
L 1146 4083 
L 339 4083 
L 339 3635 
L 1146 3635 
L 1146 2221 
C 813 2131 506 2048 256 1990 
L 397 1523 
L 1146 1741 
L 1146 96 
C 1146 6 1107 -19 1024 -26 
C 941 -26 659 -32 358 -19 
C 422 -141 486 -339 506 -461 
C 947 -461 1216 -454 1382 -378 
C 1549 -301 1613 -173 1613 96 
L 1613 1882 
L 2394 2112 
L 2336 2554 
L 1613 2349 
L 1613 3635 
L 2323 3635 
L 2323 4083 
L 1613 4083 
L 1613 5376 
L 1146 5376 
z
M 3968 5344 
L 3968 4499 
L 2643 4499 
L 2643 4064 
L 3968 4064 
L 3968 3123 
L 2419 3123 
L 2419 2675 
L 6080 2675 
L 6080 3123 
L 4454 3123 
L 4454 4064 
L 5773 4064 
L 5773 4499 
L 4454 4499 
L 4454 5344 
L 3968 5344 
z
M 3968 2432 
L 3968 1690 
L 2541 1690 
L 2541 1242 
L 3968 1242 
L 3968 173 
L 2112 173 
L 2112 -288 
L 6144 -288 
L 6144 173 
L 4454 173 
L 4454 1242 
L 5862 1242 
L 5862 1690 
L 4454 1690 
L 4454 2432 
L 3968 2432 
z
" transform="scale(0.015625)"/>
      <path id="NotoSansCJKjp-Regular-8f7d" d="M 4710 5018 
C 5005 4768 5344 4416 5491 4179 
L 5856 4435 
C 5696 4672 5350 5011 5056 5242 
L 4710 5018 
z
M 5370 3206 
C 5203 2598 4966 2010 4666 1478 
C 4544 2042 4461 2739 4410 3539 
L 6086 3539 
L 6086 3930 
L 4390 3930 
C 4371 4384 4365 4864 4371 5370 
L 3898 5370 
C 3898 4877 3910 4390 3930 3930 
L 2355 3930 
L 2355 4480 
L 3488 4480 
L 3488 4864 
L 2355 4864 
L 2355 5382 
L 1894 5382 
L 1894 4864 
L 672 4864 
L 672 4480 
L 1894 4480 
L 1894 3930 
L 346 3930 
L 346 3539 
L 3949 3539 
C 4013 2522 4134 1619 4326 928 
C 4013 480 3654 96 3245 -198 
C 3360 -282 3501 -422 3584 -525 
C 3923 -262 4230 58 4506 410 
C 4742 -141 5062 -461 5478 -461 
C 5926 -461 6086 -166 6163 794 
C 6048 838 5882 934 5786 1043 
C 5747 294 5683 6 5523 6 
C 5248 6 5011 320 4832 870 
C 5248 1530 5568 2285 5798 3078 
L 5370 3206 
z
M 416 589 
L 467 141 
L 2131 314 
L 2131 -486 
L 2579 -486 
L 2579 358 
L 3744 480 
L 3744 877 
L 2579 768 
L 2579 1370 
L 3597 1370 
L 3597 1786 
L 2579 1786 
L 2579 2304 
L 2131 2304 
L 2131 1786 
L 1242 1786 
C 1382 1997 1517 2240 1651 2502 
L 3731 2502 
L 3731 2899 
L 1843 2899 
C 1920 3066 1990 3232 2054 3398 
L 1581 3526 
C 1517 3315 1434 3098 1350 2899 
L 442 2899 
L 442 2502 
L 1171 2502 
C 1062 2285 973 2118 922 2042 
C 819 1869 723 1741 627 1722 
C 685 1600 749 1376 774 1280 
C 832 1331 1024 1370 1293 1370 
L 2131 1370 
L 2131 730 
L 416 589 
z
" transform="scale(0.015625)"/>
      <path id="NotoSansCJKjp-Regular-70b9" d="M 1517 2976 
L 4864 2976 
L 4864 1830 
L 1517 1830 
L 1517 2976 
z
M 2176 819 
C 2259 403 2310 -134 2310 -454 
L 2797 -390 
C 2790 -83 2726 448 2630 858 
L 2176 819 
z
M 3501 813 
C 3686 416 3878 -122 3949 -442 
L 4416 -320 
C 4339 0 4134 518 3936 909 
L 3501 813 
z
M 4806 864 
C 5126 461 5485 -109 5632 -461 
L 6086 -269 
C 5926 83 5555 627 5235 1030 
L 4806 864 
z
M 1133 992 
C 934 518 608 0 269 -294 
L 704 -506 
C 1056 -166 1382 371 1587 870 
L 1133 992 
z
M 1062 3430 
L 1062 1382 
L 5344 1382 
L 5344 3430 
L 3392 3430 
L 3392 4243 
L 5824 4243 
L 5824 4698 
L 3392 4698 
L 3392 5376 
L 2912 5376 
L 2912 3430 
L 1062 3430 
z
" transform="scale(0.015625)"/>
     </defs>
     <use xlink:href="#NotoSansCJKjp-Regular-6302"/>
     <use xlink:href="#NotoSansCJKjp-Regular-8f7d" transform="translate(99.999985 0)"/>
     <use xlink:href="#NotoSansCJKjp-Regular-70b9" transform="translate(199.999969 0)"/>
    </g>
   </g>
   <g id="text_12">
    <!-- 第二盘 DISK1DEV -->
    <g style="fill: #1e3a8a" transform="translate(664.272 102.653962) scale(0.15 -0.15)">
     <defs>
      <path id="NotoSansCJKjp-Regular-7b2c" d="M 1133 2566 
C 1037 2061 877 1421 742 1005 
L 1216 934 
L 1280 1158 
L 2547 1158 
C 1965 640 1069 198 275 -26 
C 378 -115 518 -288 589 -410 
C 1414 -134 2342 390 2963 1005 
L 2963 -512 
L 3430 -512 
L 3430 1158 
L 5363 1158 
C 5299 576 5229 326 5139 237 
C 5082 192 5024 186 4909 186 
C 4794 179 4493 186 4179 218 
C 4256 96 4307 -90 4314 -224 
C 4646 -243 4960 -243 5120 -230 
C 5299 -218 5421 -179 5530 -70 
C 5690 90 5779 480 5869 1376 
C 5875 1440 5882 1568 5882 1568 
L 3430 1568 
L 3430 2163 
L 5510 2163 
L 5510 3622 
L 826 3622 
L 826 3213 
L 2963 3213 
L 2963 2566 
L 1133 2566 
z
M 1523 2163 
L 2963 2163 
L 2963 1568 
L 1382 1568 
L 1523 2163 
z
M 3430 3213 
L 5037 3213 
L 5037 2566 
L 3430 2566 
L 3430 3213 
z
M 1178 5408 
C 966 4838 614 4269 211 3898 
C 326 3834 518 3706 608 3635 
C 819 3846 1024 4128 1210 4435 
L 1446 4435 
C 1581 4179 1702 3878 1747 3674 
L 2170 3840 
C 2125 3994 2029 4224 1926 4435 
L 3110 4435 
L 3110 4819 
L 1421 4819 
C 1498 4973 1562 5126 1626 5286 
L 1178 5408 
z
M 3699 5408 
C 3488 4832 3104 4294 2650 3942 
C 2765 3885 2963 3744 3046 3667 
C 3283 3872 3507 4141 3706 4435 
L 4160 4435 
C 4352 4179 4544 3872 4621 3661 
L 5043 3827 
C 4973 4000 4826 4230 4672 4435 
L 6099 4435 
L 6099 4819 
L 3936 4819 
C 4019 4973 4090 5133 4154 5293 
L 3699 5408 
z
" transform="scale(0.015625)"/>
      <path id="NotoSansCJKjp-Regular-4e8c" d="M 902 4461 
L 902 3942 
L 5504 3942 
L 5504 4461 
L 902 4461 
z
M 365 666 
L 365 128 
L 6048 128 
L 6048 666 
L 365 666 
z
" transform="scale(0.015625)"/>
      <path id="NotoSansCJKjp-Regular-49" d="M 646 0 
L 1235 0 
L 1235 4691 
L 646 4691 
L 646 0 
z
" transform="scale(0.015625)"/>
      <path id="NotoSansCJKjp-Regular-53" d="M 1946 -83 
C 2925 -83 3539 506 3539 1248 
C 3539 1946 3117 2266 2573 2502 
L 1907 2790 
C 1542 2944 1126 3117 1126 3578 
C 1126 3994 1472 4256 2003 4256 
C 2438 4256 2784 4090 3072 3821 
L 3379 4198 
C 3053 4538 2560 4774 2003 4774 
C 1152 4774 525 4256 525 3533 
C 525 2848 1043 2515 1478 2330 
L 2150 2035 
C 2598 1837 2938 1683 2938 1197 
C 2938 742 2573 435 1952 435 
C 1466 435 992 666 659 1018 
L 307 608 
C 710 186 1280 -83 1946 -83 
z
" transform="scale(0.015625)"/>
      <path id="NotoSansCJKjp-Regular-4b" d="M 646 0 
L 1235 0 
L 1235 1485 
L 2042 2445 
L 3450 0 
L 4109 0 
L 2413 2912 
L 3885 4691 
L 3213 4691 
L 1248 2336 
L 1235 2336 
L 1235 4691 
L 646 4691 
L 646 0 
z
" transform="scale(0.015625)"/>
     </defs>
     <use xlink:href="#NotoSansCJKjp-Regular-7b2c"/>
     <use xlink:href="#NotoSansCJKjp-Regular-4e8c" transform="translate(99.999985 0)"/>
     <use xlink:href="#NotoSansCJKjp-Regular-76d8" transform="translate(199.999969 0)"/>
     <use xlink:href="#NotoSansCJKjp-Regular-20" transform="translate(299.999954 0)"/>
     <use xlink:href="#NotoSansCJKjp-Regular-44" transform="translate(322.399948 0)"/>
     <use xlink:href="#NotoSansCJKjp-Regular-49" transform="translate(391.199936 0)"/>
     <use xlink:href="#NotoSansCJKjp-Regular-53" transform="translate(420.499924 0)"/>
     <use xlink:href="#NotoSansCJKjp-Regular-4b" transform="translate(480.099915 0)"/>
     <use xlink:href="#NotoSansCJKjp-Regular-31" transform="translate(544.699905 0)"/>
     <use xlink:href="#NotoSansCJKjp-Regular-44" transform="translate(600.19989 0)"/>
     <use xlink:href="#NotoSansCJKjp-Regular-45" transform="translate(668.999878 0)"/>
     <use xlink:href="#NotoSansCJKjp-Regular-56" transform="translate(727.899872 0)"/>
    </g>
   </g>
   <g id="text_13">
    <!-- 第二盘根目录 -->
    <g style="fill: #111827" transform="translate(717.552 146.71005) scale(0.12 -0.12)">
     <defs>
      <path id="NotoSansCJKjp-Regular-76ee" d="M 1491 3008 
L 4858 3008 
L 4858 1952 
L 1491 1952 
L 1491 3008 
z
M 1491 3469 
L 1491 4506 
L 4858 4506 
L 4858 3469 
L 1491 3469 
z
M 1491 1491 
L 4858 1491 
L 4858 429 
L 1491 429 
L 1491 1491 
z
M 1011 4979 
L 1011 -474 
L 1491 -474 
L 1491 -38 
L 4858 -38 
L 4858 -474 
L 5357 -474 
L 5357 4979 
L 1011 4979 
z
" transform="scale(0.015625)"/>
      <path id="NotoSansCJKjp-Regular-5f55" d="M 858 2029 
C 1274 1798 1779 1434 2022 1190 
L 2362 1523 
C 2106 1766 1587 2106 1184 2323 
L 858 2029 
z
M 858 5018 
L 858 4576 
L 4736 4576 
L 4710 3987 
L 1050 3987 
L 1050 3546 
L 4685 3546 
L 4646 2957 
L 429 2957 
L 429 2528 
L 2950 2528 
L 2950 1357 
C 2022 973 1056 582 435 346 
L 691 -83 
C 1318 186 2157 544 2950 896 
L 2950 13 
C 2950 -77 2918 -102 2816 -109 
C 2714 -115 2355 -115 1978 -102 
C 2042 -224 2118 -403 2144 -525 
C 2643 -525 2970 -525 3168 -454 
C 3373 -384 3437 -269 3437 6 
L 3437 1510 
C 3987 678 4787 58 5786 -256 
C 5850 -128 5997 58 6099 160 
C 5408 346 4806 685 4320 1133 
C 4730 1382 5210 1741 5594 2067 
L 5184 2368 
C 4896 2080 4422 1702 4026 1434 
C 3789 1702 3590 2010 3437 2336 
L 3437 2528 
L 6016 2528 
L 6016 2957 
L 5146 2957 
C 5203 3616 5248 4403 5261 5018 
L 4883 5043 
L 4800 5018 
L 858 5018 
z
" transform="scale(0.015625)"/>
     </defs>
     <use xlink:href="#NotoSansCJKjp-Regular-7b2c"/>
     <use xlink:href="#NotoSansCJKjp-Regular-4e8c" transform="translate(99.999985 0)"/>
     <use xlink:href="#NotoSansCJKjp-Regular-76d8" transform="translate(199.999969 0)"/>
     <use xlink:href="#NotoSansCJKjp-Regular-6839" transform="translate(299.999954 0)"/>
     <use xlink:href="#NotoSansCJKjp-Regular-76ee" transform="translate(399.999939 0)"/>
     <use xlink:href="#NotoSansCJKjp-Regular-5f55" transform="translate(499.999924 0)"/>
    </g>
   </g>
   <g id="text_14">
    <!-- x -->
    <g style="fill: #111827" transform="translate(705.675203 216.847887) scale(0.13 -0.13)">
     <defs>
      <path id="NotoSansCJKjp-Regular-78" d="M 96 0 
L 710 0 
L 1178 813 
C 1299 1024 1408 1235 1530 1434 
L 1562 1434 
C 1696 1235 1824 1024 1939 813 
L 2451 0 
L 3091 0 
L 1946 1754 
L 3002 3475 
L 2394 3475 
L 1965 2714 
C 1856 2515 1760 2330 1658 2131 
L 1626 2131 
C 1510 2330 1389 2515 1286 2714 
L 819 3475 
L 186 3475 
L 1242 1811 
L 96 0 
z
" transform="scale(0.015625)"/>
     </defs>
     <use xlink:href="#NotoSansCJKjp-Regular-78"/>
    </g>
   </g>
   <g id="text_15">
    <!-- ... -->
    <g style="fill: #111827" transform="translate(792.771609 216.847887) scale(0.13 -0.13)">
     <defs>
      <path id="NotoSansCJKjp-Regular-2e" d="M 890 -83 
C 1120 -83 1312 96 1312 358 
C 1312 627 1120 806 890 806 
C 653 806 467 627 467 358 
C 467 96 653 -83 890 -83 
z
" transform="scale(0.015625)"/>
     </defs>
     <use xlink:href="#NotoSansCJKjp-Regular-2e"/>
     <use xlink:href="#NotoSansCJKjp-Regular-2e" transform="translate(27.799988 0)"/>
     <use xlink:href="#NotoSansCJKjp-Regular-2e" transform="translate(55.599976 0)"/>
    </g>
   </g>
   <g id="text_16">
    <!-- 跨盘切换 -->
    <g style="fill: #1e3a8a" transform="translate(611.024 203.807012) scale(0.11 -0.11)">
     <defs>
      <path id="NotoSansCJKjp-Regular-8de8" d="M 966 4691 
L 2080 4691 
L 2080 3539 
L 966 3539 
L 966 4691 
z
M 4595 4237 
C 4742 3904 4941 3584 5165 3302 
L 3603 3302 
C 3846 3597 4038 3910 4186 4237 
L 4595 4237 
z
M 4051 5382 
C 4013 5152 3949 4909 3866 4672 
L 2682 4672 
L 2682 4237 
L 3674 4237 
C 3411 3725 3008 3245 2426 2893 
C 2528 2822 2675 2650 2733 2541 
C 3053 2746 3322 2982 3546 3238 
L 3546 2899 
L 5216 2899 
L 5216 3238 
C 5427 2982 5664 2765 5907 2611 
C 5984 2726 6125 2893 6234 2982 
C 5779 3232 5350 3712 5075 4237 
L 6138 4237 
L 6138 4672 
L 4352 4672 
C 4422 4890 4480 5114 4518 5331 
L 4051 5382 
z
M 2822 2355 
L 2822 1958 
L 3494 1958 
C 3392 1574 3258 1146 3136 845 
L 3578 762 
L 3680 1062 
L 5184 1062 
C 5088 371 4992 58 4870 -51 
C 4813 -102 4749 -109 4634 -109 
C 4506 -109 4192 -102 3866 -70 
C 3942 -192 3994 -365 4006 -499 
C 4326 -512 4634 -512 4800 -506 
C 4998 -499 5126 -461 5242 -346 
C 5434 -173 5555 256 5677 1261 
C 5690 1331 5696 1466 5696 1466 
L 3808 1466 
L 3955 1958 
L 5971 1958 
L 5971 2355 
L 2822 2355 
z
M 237 256 
L 339 -192 
C 1018 -19 1939 218 2816 448 
L 2765 858 
L 1798 627 
L 1798 1830 
L 2656 1830 
L 2656 2246 
L 1798 2246 
L 1798 3130 
L 2509 3130 
L 2509 5101 
L 550 5101 
L 550 3130 
L 1382 3130 
L 1382 525 
L 947 422 
L 947 2534 
L 550 2534 
L 550 326 
L 237 256 
z
" transform="scale(0.015625)"/>
      <path id="NotoSansCJKjp-Regular-5207" d="M 2566 4813 
L 2566 4352 
L 3693 4352 
C 3661 2490 3558 730 1971 -160 
C 2099 -243 2253 -410 2323 -538 
C 3987 448 4128 2349 4173 4352 
L 5523 4352 
C 5446 1440 5357 371 5165 134 
C 5094 45 5030 19 4909 19 
C 4762 19 4429 19 4051 51 
C 4141 -83 4198 -301 4205 -442 
C 4544 -461 4902 -467 5114 -442 
C 5325 -416 5472 -358 5613 -154 
C 5862 166 5933 1261 6016 4544 
C 6016 4614 6016 4813 6016 4813 
L 2566 4813 
z
M 960 5197 
L 960 3482 
L 186 3315 
L 269 2880 
L 960 3027 
L 960 1440 
C 960 864 1088 710 1568 710 
C 1664 710 2144 710 2246 710 
C 2688 710 2797 986 2848 1875 
C 2720 1907 2528 1990 2419 2080 
C 2400 1331 2374 1165 2208 1165 
C 2106 1165 1715 1165 1638 1165 
C 1466 1165 1434 1203 1434 1434 
L 1434 3130 
L 2970 3456 
L 2886 3885 
L 1434 3578 
L 1434 5197 
L 960 5197 
z
" transform="scale(0.015625)"/>
      <path id="NotoSansCJKjp-Regular-6362" d="M 1050 5370 
L 1050 4083 
L 307 4083 
L 307 3635 
L 1050 3635 
L 1050 2208 
C 742 2118 461 2035 230 1978 
L 358 1504 
L 1050 1728 
L 1050 77 
C 1050 0 1018 -26 947 -26 
C 877 -32 659 -32 410 -26 
C 474 -160 538 -371 557 -493 
C 928 -499 1165 -480 1312 -397 
C 1466 -320 1523 -186 1523 77 
L 1523 1882 
L 2208 2106 
L 2138 2554 
L 1523 2355 
L 1523 3635 
L 2118 3635 
L 2118 4083 
L 1523 4083 
L 1523 5370 
L 1050 5370 
z
M 3430 4403 
L 4762 4403 
C 4614 4186 4429 3949 4250 3757 
L 2931 3757 
C 3117 3968 3283 4186 3430 4403 
z
M 2131 1850 
L 2131 1434 
L 3680 1434 
C 3424 877 2893 307 1786 -179 
C 1888 -269 2035 -422 2106 -518 
C 3194 -6 3763 595 4064 1190 
C 4474 435 5133 -179 5894 -493 
C 5958 -378 6099 -205 6202 -109 
C 5427 160 4762 736 4397 1434 
L 6080 1434 
L 6080 1850 
L 5632 1850 
L 5632 3757 
L 4800 3757 
C 5043 4026 5293 4339 5459 4621 
L 5139 4838 
L 5062 4813 
L 3680 4813 
C 3770 4979 3853 5139 3923 5299 
L 3437 5389 
C 3213 4845 2784 4166 2157 3661 
C 2259 3590 2413 3430 2483 3322 
L 2598 3424 
L 2598 1850 
L 2131 1850 
z
M 3059 1850 
L 3059 3373 
L 3910 3373 
L 3910 2701 
C 3910 2445 3898 2157 3827 1850 
L 3059 1850 
z
M 5152 1850 
L 4294 1850 
C 4365 2150 4378 2438 4378 2694 
L 4378 3373 
L 5152 3373 
L 5152 1850 
z
" transform="scale(0.015625)"/>
     </defs>
     <use xlink:href="#NotoSansCJKjp-Regular-8de8"/>
     <use xlink:href="#NotoSansCJKjp-Regular-76d8" transform="translate(99.999985 0)"/>
     <use xlink:href="#NotoSansCJKjp-Regular-5207" transform="translate(199.999969 0)"/>
     <use xlink:href="#NotoSansCJKjp-Regular-6362" transform="translate(299.999954 0)"/>
    </g>
   </g>
   <g id="text_17">
    <!-- cd .. 返回根盘 -->
    <g style="fill: #6b7280" transform="translate(585.894656 248.713413) scale(0.11 -0.11)">
     <defs>
      <path id="NotoSansCJKjp-Regular-8fd4" d="M 365 4941 
C 762 4646 1210 4198 1402 3885 
L 1779 4192 
C 1581 4506 1120 4934 723 5222 
L 365 4941 
z
M 1594 2848 
L 314 2848 
L 314 2400 
L 1126 2400 
L 1126 768 
C 826 499 493 230 211 32 
L 467 -461 
C 794 -173 1094 102 1389 378 
C 1805 -134 2394 -358 3258 -390 
C 3968 -416 5299 -403 6010 -371 
C 6029 -224 6106 6 6163 115 
C 5402 64 3955 45 3258 77 
C 2490 102 1907 320 1594 794 
L 1594 2848 
z
M 2458 5056 
L 2458 3578 
C 2458 2752 2387 1632 1766 832 
C 1875 781 2080 646 2157 563 
C 2746 1325 2893 2413 2912 3277 
L 3059 3277 
C 3277 2618 3584 2048 3981 1574 
C 3584 1229 3130 966 2656 806 
C 2752 710 2874 525 2931 403 
C 3424 595 3898 870 4307 1235 
C 4723 845 5229 544 5824 352 
C 5894 480 6035 666 6138 768 
C 5549 928 5056 1203 4640 1568 
C 5126 2093 5498 2778 5702 3629 
L 5402 3731 
L 5312 3718 
L 2918 3718 
L 2918 4608 
L 5914 4608 
L 5914 5056 
L 2458 5056 
z
M 5120 3277 
C 4934 2746 4653 2285 4307 1901 
C 3968 2291 3706 2752 3520 3277 
L 5120 3277 
z
" transform="scale(0.015625)"/>
      <path id="NotoSansCJKjp-Regular-56de" d="M 2394 3200 
L 3955 3200 
L 3955 1734 
L 2394 1734 
L 2394 3200 
z
M 1939 3635 
L 1939 1306 
L 4429 1306 
L 4429 3635 
L 1939 3635 
z
M 525 5114 
L 525 -506 
L 1018 -506 
L 1018 -160 
L 5370 -160 
L 5370 -506 
L 5882 -506 
L 5882 5114 
L 525 5114 
z
M 1018 294 
L 1018 4634 
L 5370 4634 
L 5370 294 
L 1018 294 
z
" transform="scale(0.015625)"/>
     </defs>
     <use xlink:href="#NotoSansCJKjp-Regular-63"/>
     <use xlink:href="#NotoSansCJKjp-Regular-64" transform="translate(50.999985 0)"/>
     <use xlink:href="#NotoSansCJKjp-Regular-20" transform="translate(112.999969 0)"/>
     <use xlink:href="#NotoSansCJKjp-Regular-2e" transform="translate(135.399963 0)"/>
     <use xlink:href="#NotoSansCJKjp-Regular-2e" transform="translate(163.199951 0)"/>
     <use xlink:href="#NotoSansCJKjp-Regular-20" transform="translate(190.999939 0)"/>
     <use xlink:href="#NotoSansCJKjp-Regular-8fd4" transform="translate(213.399933 0)"/>
     <use xlink:href="#NotoSansCJKjp-Regular-56de" transform="translate(313.399918 0)"/>
     <use xlink:href="#NotoSansCJKjp-Regular-6839" transform="translate(413.399902 0)"/>
     <use xlink:href="#NotoSansCJKjp-Regular-76d8" transform="translate(513.399887 0)"/>
    </g>
   </g>
   <g id="text_18">
    <!-- 文件不能跨盘 -->
    <g style="fill: #111827" transform="translate(461.64 364.006612) scale(0.11 -0.11)">
     <defs>
      <path id="NotoSansCJKjp-Regular-6587" d="M 2944 5376 
L 2944 4288 
L 320 4288 
L 320 3821 
L 1274 3821 
C 1638 2797 2138 1920 2803 1216 
C 2118 653 1274 237 250 -58 
C 346 -173 499 -403 557 -518 
C 1594 -186 2458 262 3162 864 
C 3878 230 4755 -237 5824 -512 
C 5907 -378 6061 -154 6176 -45 
C 5133 198 4262 640 3558 1229 
C 4230 1914 4742 2758 5120 3821 
L 6106 3821 
L 6106 4288 
L 3437 4288 
L 3437 5376 
L 2944 5376 
z
M 3187 1574 
C 2579 2195 2118 2950 1798 3821 
L 4563 3821 
C 4230 2912 3782 2170 3187 1574 
z
" transform="scale(0.015625)"/>
      <path id="NotoSansCJKjp-Regular-4ef6" d="M 2029 2182 
L 2029 1715 
L 3866 1715 
L 3866 -512 
L 4346 -512 
L 4346 1715 
L 6099 1715 
L 6099 2182 
L 4346 2182 
L 4346 3597 
L 5818 3597 
L 5818 4064 
L 4346 4064 
L 4346 5299 
L 3866 5299 
L 3866 4064 
L 3008 4064 
C 3091 4352 3162 4659 3226 4960 
L 2765 5056 
C 2618 4218 2349 3392 1978 2861 
C 2093 2803 2298 2688 2387 2618 
C 2560 2886 2720 3226 2854 3597 
L 3866 3597 
L 3866 2182 
L 2029 2182 
z
M 1715 5350 
C 1370 4384 806 3424 205 2797 
C 288 2688 429 2438 480 2323 
C 685 2541 877 2797 1069 3072 
L 1069 -499 
L 1530 -499 
L 1530 3821 
C 1773 4269 1990 4742 2170 5216 
L 1715 5350 
z
" transform="scale(0.015625)"/>
      <path id="NotoSansCJKjp-Regular-4e0d" d="M 3578 3059 
C 4339 2547 5299 1792 5754 1299 
L 6144 1670 
C 5664 2163 4691 2880 3936 3366 
L 3578 3059 
z
M 442 4928 
L 442 4435 
L 3290 4435 
C 2656 3341 1555 2259 282 1632 
C 384 1523 531 1331 608 1210 
C 1498 1677 2291 2336 2938 3078 
L 2938 -499 
L 3456 -499 
L 3456 3738 
C 3622 3962 3770 4198 3904 4435 
L 5958 4435 
L 5958 4928 
L 442 4928 
z
" transform="scale(0.015625)"/>
      <path id="NotoSansCJKjp-Regular-80fd" d="M 2131 4774 
C 2278 4576 2432 4339 2560 4109 
L 1248 4058 
C 1446 4422 1651 4864 1824 5261 
L 1331 5382 
C 1197 4979 966 4442 742 4038 
L 256 4019 
L 294 3552 
C 960 3590 1882 3635 2784 3693 
C 2854 3552 2912 3424 2950 3309 
L 3366 3494 
C 3226 3891 2867 4486 2528 4928 
L 2131 4774 
z
M 2451 2688 
L 2451 2138 
L 1088 2138 
L 1088 2688 
L 2451 2688 
z
M 640 3098 
L 640 -506 
L 1088 -506 
L 1088 800 
L 2451 800 
L 2451 51 
C 2451 -32 2432 -58 2349 -58 
C 2253 -64 1984 -64 1683 -51 
C 1747 -179 1818 -365 1843 -493 
C 2246 -493 2522 -486 2701 -416 
C 2874 -339 2925 -205 2925 45 
L 2925 3098 
L 640 3098 
z
M 1088 1760 
L 2451 1760 
L 2451 1178 
L 1088 1178 
L 1088 1760 
z
M 5491 4896 
C 5126 4704 4550 4474 4006 4288 
L 4006 5363 
L 3526 5363 
L 3526 3238 
C 3526 2707 3686 2566 4307 2566 
C 4429 2566 5267 2566 5408 2566 
C 5920 2566 6061 2771 6118 3558 
C 5984 3590 5786 3661 5683 3744 
C 5658 3110 5613 3002 5363 3002 
C 5184 3002 4480 3002 4352 3002 
C 4058 3002 4006 3040 4006 3245 
L 4006 3904 
C 4621 4083 5306 4307 5811 4538 
L 5491 4896 
z
M 5568 2042 
C 5197 1805 4582 1555 4000 1363 
L 4000 2387 
L 3526 2387 
L 3526 224 
C 3526 -314 3693 -454 4320 -454 
C 4454 -454 5318 -454 5459 -454 
C 5997 -454 6138 -224 6195 634 
C 6061 666 5875 742 5760 819 
C 5734 96 5690 -26 5421 -26 
C 5229 -26 4506 -26 4365 -26 
C 4058 -26 4000 13 4000 224 
L 4000 966 
C 4646 1146 5382 1395 5882 1683 
L 5568 2042 
z
" transform="scale(0.015625)"/>
     </defs>
     <use xlink:href="#NotoSansCJKjp-Regular-6587"/>
     <use xlink:href="#NotoSansCJKjp-Regular-4ef6" transform="translate(99.999985 0)"/>
     <use xlink:href="#NotoSansCJKjp-Regular-4e0d" transform="translate(199.999969 0)"/>
     <use xlink:href="#NotoSansCJKjp-Regular-80fd" transform="translate(299.999954 0)"/>
     <use xlink:href="#NotoSansCJKjp-Regular-8de8" transform="translate(399.999939 0)"/>
     <use xlink:href="#NotoSansCJKjp-Regular-76d8" transform="translate(499.999924 0)"/>
    </g>
    <!-- fs.img / fs1.img 独立管理 -->
    <g style="fill: #111827" transform="translate(432.538984 377.6803) scale(0.11 -0.11)">
     <defs>
      <path id="NotoSansCJKjp-Regular-66" d="M 211 3002 
L 685 3002 
L 685 0 
L 1267 0 
L 1267 3002 
L 2003 3002 
L 2003 3475 
L 1267 3475 
L 1267 4026 
C 1267 4474 1427 4710 1760 4710 
C 1882 4710 2022 4678 2150 4614 
L 2278 5069 
C 2118 5133 1914 5178 1696 5178 
C 1005 5178 685 4736 685 4032 
L 685 3475 
L 211 3443 
L 211 3002 
z
" transform="scale(0.015625)"/>
      <path id="NotoSansCJKjp-Regular-7ba1" d="M 1453 2803 
L 1453 -518 
L 1907 -518 
L 1907 -301 
L 4922 -301 
L 4922 -506 
L 5402 -506 
L 5402 1075 
L 1907 1075 
L 1907 1517 
L 4992 1517 
L 4992 2803 
L 1453 2803 
z
M 4922 77 
L 1907 77 
L 1907 698 
L 4922 698 
L 4922 77 
z
M 3686 5408 
C 3558 5088 3360 4781 3117 4518 
L 3117 4883 
L 1427 4883 
C 1498 5018 1562 5152 1619 5286 
L 1171 5408 
C 973 4902 621 4403 243 4070 
C 352 4013 550 3878 640 3808 
C 826 3994 1018 4230 1190 4493 
L 1459 4493 
C 1587 4275 1715 4006 1760 3834 
L 2202 3962 
C 2150 4109 2054 4307 1946 4493 
L 3091 4493 
C 2963 4358 2829 4237 2688 4134 
L 2950 3994 
L 2950 3578 
L 525 3578 
L 525 2374 
L 979 2374 
L 979 3200 
L 5459 3200 
L 5459 2374 
L 5926 2374 
L 5926 3578 
L 3418 3578 
L 3418 4083 
L 3315 4083 
C 3443 4205 3565 4346 3680 4493 
L 4192 4493 
C 4371 4275 4550 3994 4634 3814 
L 5069 3962 
C 4998 4109 4864 4314 4717 4493 
L 6125 4493 
L 6125 4883 
L 3942 4883 
C 4019 5018 4090 5152 4147 5293 
L 3686 5408 
z
M 1907 2432 
L 4512 2432 
L 4512 1882 
L 1907 1882 
L 1907 2432 
z
" transform="scale(0.015625)"/>
      <path id="NotoSansCJKjp-Regular-7406" d="M 3046 3456 
L 4026 3456 
L 4026 2630 
L 3046 2630 
L 3046 3456 
z
M 4442 3456 
L 5421 3456 
L 5421 2630 
L 4442 2630 
L 4442 3456 
z
M 3046 4659 
L 4026 4659 
L 4026 3846 
L 3046 3846 
L 3046 4659 
z
M 4442 4659 
L 5421 4659 
L 5421 3846 
L 4442 3846 
L 4442 4659 
z
M 2035 141 
L 2035 -301 
L 6189 -301 
L 6189 141 
L 4480 141 
L 4480 1024 
L 5971 1024 
L 5971 1459 
L 4480 1459 
L 4480 2214 
L 5882 2214 
L 5882 5082 
L 2605 5082 
L 2605 2214 
L 3987 2214 
L 3987 1459 
L 2528 1459 
L 2528 1024 
L 3987 1024 
L 3987 141 
L 2035 141 
z
M 224 640 
L 346 154 
C 909 339 1645 589 2336 819 
L 2253 1286 
L 1549 1050 
L 1549 2643 
L 2195 2643 
L 2195 3091 
L 1549 3091 
L 1549 4493 
L 2291 4493 
L 2291 4941 
L 294 4941 
L 294 4493 
L 1088 4493 
L 1088 3091 
L 358 3091 
L 358 2643 
L 1088 2643 
L 1088 902 
C 762 800 467 710 224 640 
z
" transform="scale(0.015625)"/>
     </defs>
     <use xlink:href="#NotoSansCJKjp-Regular-66"/>
     <use xlink:href="#NotoSansCJKjp-Regular-73" transform="translate(32.499985 0)"/>
     <use xlink:href="#NotoSansCJKjp-Regular-2e" transform="translate(79.299973 0)"/>
     <use xlink:href="#NotoSansCJKjp-Regular-69" transform="translate(107.09996 0)"/>
     <use xlink:href="#NotoSansCJKjp-Regular-6d" transform="translate(134.599945 0)"/>
     <use xlink:href="#NotoSansCJKjp-Regular-67" transform="translate(227.199936 0)"/>
     <use xlink:href="#NotoSansCJKjp-Regular-20" transform="translate(283.59993 0)"/>
     <use xlink:href="#NotoSansCJKjp-Regular-2f" transform="translate(305.999924 0)"/>
     <use xlink:href="#NotoSansCJKjp-Regular-20" transform="translate(345.199921 0)"/>
     <use xlink:href="#NotoSansCJKjp-Regular-66" transform="translate(367.599915 0)"/>
     <use xlink:href="#NotoSansCJKjp-Regular-73" transform="translate(400.099899 0)"/>
     <use xlink:href="#NotoSansCJKjp-Regular-31" transform="translate(446.899887 0)"/>
     <use xlink:href="#NotoSansCJKjp-Regular-2e" transform="translate(502.399872 0)"/>
     <use xlink:href="#NotoSansCJKjp-Regular-69" transform="translate(530.19986 0)"/>
     <use xlink:href="#NotoSansCJKjp-Regular-6d" transform="translate(557.699844 0)"/>
     <use xlink:href="#NotoSansCJKjp-Regular-67" transform="translate(650.299835 0)"/>
     <use xlink:href="#NotoSansCJKjp-Regular-20" transform="translate(706.699829 0)"/>
     <use xlink:href="#NotoSansCJKjp-Regular-72ec" transform="translate(729.099823 0)"/>
     <use xlink:href="#NotoSansCJKjp-Regular-7acb" transform="translate(829.099808 0)"/>
     <use xlink:href="#NotoSansCJKjp-Regular-7ba1" transform="translate(929.099792 0)"/>
     <use xlink:href="#NotoSansCJKjp-Regular-7406" transform="translate(1029.099777 0)"/>
    </g>
   </g>
   <g id="text_19">
    <!-- 禁止删除 /disk1 -->
    <g style="fill: #111827" transform="translate(696.722484 364.445581) scale(0.11 -0.11)">
     <defs>
      <path id="NotoSansCJKjp-Regular-7981" d="M 4230 691 
C 4698 365 5267 -115 5536 -422 
L 5933 -160 
C 5645 147 5062 608 4602 922 
L 4230 691 
z
M 1152 2490 
L 1152 2080 
L 5344 2080 
L 5344 2490 
L 1152 2490 
z
M 1587 909 
C 1299 512 819 128 346 -128 
C 461 -198 640 -346 730 -429 
C 1190 -147 1709 307 2035 768 
L 1587 909 
z
M 1549 5382 
L 1549 4730 
L 474 4730 
L 474 4326 
L 1402 4326 
C 1114 3834 659 3341 237 3091 
C 333 3014 467 2867 538 2758 
C 896 3008 1261 3424 1549 3872 
L 1549 2714 
L 1997 2714 
L 1997 3853 
C 2266 3648 2586 3379 2733 3245 
L 2995 3571 
C 2835 3693 2240 4115 1997 4262 
L 1997 4326 
L 2886 4326 
L 2886 4730 
L 1997 4730 
L 1997 5382 
L 1549 5382 
z
M 416 1568 
L 416 1152 
L 2982 1152 
L 2982 6 
C 2982 -70 2957 -96 2854 -102 
C 2746 -109 2387 -109 1990 -96 
C 2054 -224 2125 -390 2150 -518 
C 2656 -518 2989 -518 3194 -448 
C 3405 -384 3469 -262 3469 0 
L 3469 1152 
L 6003 1152 
L 6003 1568 
L 416 1568 
z
M 4326 5382 
L 4326 4730 
L 3187 4730 
L 3187 4326 
L 4154 4326 
C 3846 3846 3360 3366 2906 3130 
C 3002 3053 3136 2899 3200 2797 
C 3597 3046 4013 3469 4326 3930 
L 4326 2714 
L 4781 2714 
L 4781 3904 
C 5088 3469 5485 3040 5824 2797 
C 5894 2899 6035 3053 6131 3130 
C 5709 3379 5222 3859 4915 4326 
L 5914 4326 
L 5914 4730 
L 4781 4730 
L 4781 5382 
L 4326 5382 
z
" transform="scale(0.015625)"/>
      <path id="NotoSansCJKjp-Regular-6b62" d="M 1203 3962 
L 1203 282 
L 314 282 
L 314 -192 
L 6074 -192 
L 6074 282 
L 3693 282 
L 3693 2752 
L 5792 2752 
L 5792 3232 
L 3693 3232 
L 3693 5357 
L 3194 5357 
L 3194 282 
L 1696 282 
L 1696 3962 
L 1203 3962 
z
" transform="scale(0.015625)"/>
      <path id="NotoSansCJKjp-Regular-5220" d="M 4538 4666 
L 4538 1050 
L 4928 1050 
L 4928 4666 
L 4538 4666 
z
M 5466 5267 
L 5466 32 
C 5466 -64 5434 -90 5350 -90 
C 5267 -90 4998 -96 4691 -83 
C 4755 -205 4819 -397 4832 -512 
C 5242 -512 5504 -499 5664 -429 
C 5824 -358 5888 -230 5888 32 
L 5888 5267 
L 5466 5267 
z
M 282 2880 
L 282 2438 
L 691 2438 
L 691 2118 
C 691 1325 659 378 250 -275 
C 352 -320 525 -442 602 -518 
C 1037 173 1094 1274 1094 2125 
L 1094 2438 
L 1690 2438 
L 1690 77 
C 1690 6 1664 -19 1600 -19 
C 1530 -19 1325 -26 1094 -19 
C 1152 -128 1203 -326 1216 -442 
C 1555 -442 1773 -429 1907 -352 
C 2048 -282 2093 -147 2093 70 
L 2093 2438 
L 2541 2438 
L 2541 2394 
C 2541 1549 2515 454 2157 -294 
C 2253 -339 2432 -442 2509 -506 
C 2893 282 2944 1504 2944 2400 
L 2944 2438 
L 3539 2438 
L 3539 77 
C 3539 0 3514 -19 3450 -26 
C 3379 -26 3174 -26 2944 -19 
C 3002 -134 3053 -326 3066 -442 
C 3411 -442 3622 -429 3757 -358 
C 3898 -282 3942 -154 3942 70 
L 3942 2438 
L 4275 2438 
L 4275 2880 
L 3942 2880 
L 3942 5171 
L 2541 5171 
L 2541 2880 
L 2093 2880 
L 2093 5171 
L 691 5171 
L 691 2880 
L 282 2880 
z
M 1094 4742 
L 1690 4742 
L 1690 2880 
L 1094 2880 
L 1094 4742 
z
M 2944 4742 
L 3539 4742 
L 3539 2880 
L 2944 2880 
L 2944 4742 
z
" transform="scale(0.015625)"/>
      <path id="NotoSansCJKjp-Regular-9664" d="M 4128 4922 
C 4544 4301 5286 3597 5952 3181 
C 6022 3302 6131 3482 6221 3584 
C 5536 3955 4794 4653 4326 5363 
L 3891 5363 
C 3546 4710 2829 3955 2099 3526 
C 2182 3430 2291 3264 2342 3149 
C 3072 3603 3763 4320 4128 4922 
z
M 2912 1536 
C 2720 1018 2413 512 2054 173 
C 2150 109 2323 -32 2400 -109 
C 2765 269 3123 851 3334 1434 
L 2912 1536 
z
M 4838 1370 
C 5171 915 5555 307 5709 -77 
L 6106 128 
C 5939 512 5555 1107 5203 1549 
L 4838 1370 
z
M 2490 2298 
L 2490 1882 
L 3910 1882 
L 3910 38 
C 3910 -45 3891 -64 3808 -70 
C 3718 -70 3456 -70 3155 -64 
C 3219 -192 3296 -390 3315 -512 
C 3718 -512 3981 -506 4147 -429 
C 4320 -352 4371 -218 4371 32 
L 4371 1882 
L 5901 1882 
L 5901 2298 
L 4371 2298 
L 4371 3098 
L 5402 3098 
L 5402 3507 
L 2918 3507 
L 2918 3098 
L 3910 3098 
L 3910 2298 
L 2490 2298 
z
M 518 5101 
L 518 -512 
L 947 -512 
L 947 4666 
L 1786 4666 
C 1651 4230 1459 3648 1274 3181 
C 1734 2682 1856 2253 1856 1901 
C 1856 1709 1818 1536 1722 1466 
C 1670 1427 1600 1414 1517 1408 
C 1414 1402 1293 1408 1146 1414 
C 1216 1293 1261 1107 1267 992 
C 1408 986 1568 992 1696 1005 
C 1830 1018 1939 1056 2029 1120 
C 2208 1242 2285 1510 2285 1856 
C 2285 2253 2176 2707 1709 3238 
C 1926 3750 2163 4403 2349 4934 
L 2035 5120 
L 1965 5101 
L 518 5101 
z
" transform="scale(0.015625)"/>
     </defs>
     <use xlink:href="#NotoSansCJKjp-Regular-7981"/>
     <use xlink:href="#NotoSansCJKjp-Regular-6b62" transform="translate(99.999985 0)"/>
     <use xlink:href="#NotoSansCJKjp-Regular-5220" transform="translate(199.999969 0)"/>
     <use xlink:href="#NotoSansCJKjp-Regular-9664" transform="translate(299.999954 0)"/>
     <use xlink:href="#NotoSansCJKjp-Regular-20" transform="translate(399.999939 0)"/>
     <use xlink:href="#NotoSansCJKjp-Regular-2f" transform="translate(422.399933 0)"/>
     <use xlink:href="#NotoSansCJKjp-Regular-64" transform="translate(461.59993 0)"/>
     <use xlink:href="#NotoSansCJKjp-Regular-69" transform="translate(523.599915 0)"/>
     <use xlink:href="#NotoSansCJKjp-Regular-73" transform="translate(551.099899 0)"/>
     <use xlink:href="#NotoSansCJKjp-Regular-6b" transform="translate(597.899887 0)"/>
     <use xlink:href="#NotoSansCJKjp-Regular-31" transform="translate(653.099884 0)"/>
    </g>
    <!-- 保护挂载点 -->
    <g style="fill: #111827" transform="translate(708.196 377.471644) scale(0.11 -0.11)">
     <defs>
      <path id="NotoSansCJKjp-Regular-4fdd" d="M 2893 4646 
L 5274 4646 
L 5274 3469 
L 2893 3469 
L 2893 4646 
z
M 2432 5075 
L 2432 3034 
L 3827 3034 
L 3827 2240 
L 1958 2240 
L 1958 1798 
L 3546 1798 
C 3110 1120 2432 474 1773 147 
C 1882 58 2029 -115 2106 -230 
C 2733 134 3379 774 3827 1485 
L 3827 -512 
L 4307 -512 
L 4307 1504 
C 4736 800 5350 128 5939 -243 
C 6022 -122 6170 45 6278 141 
C 5658 474 5005 1120 4595 1798 
L 6106 1798 
L 6106 2240 
L 4307 2240 
L 4307 3034 
L 5754 3034 
L 5754 5075 
L 2432 5075 
z
M 1773 5357 
C 1402 4390 787 3437 147 2822 
C 230 2714 371 2458 416 2349 
C 653 2586 883 2867 1107 3174 
L 1107 -493 
L 1568 -493 
L 1568 3885 
C 1818 4307 2042 4762 2221 5216 
L 1773 5357 
z
" transform="scale(0.015625)"/>
      <path id="NotoSansCJKjp-Regular-62a4" d="M 1203 5370 
L 1203 4083 
L 346 4083 
L 346 3622 
L 1203 3622 
L 1203 2240 
C 845 2138 512 2042 243 1978 
L 378 1504 
L 1203 1754 
L 1203 90 
C 1203 0 1171 -26 1088 -26 
C 1011 -32 749 -32 454 -26 
C 525 -160 576 -365 602 -486 
C 1030 -486 1286 -474 1446 -397 
C 1613 -320 1670 -179 1670 90 
L 1670 1901 
L 2451 2144 
L 2381 2586 
L 1670 2374 
L 1670 3622 
L 2413 3622 
L 2413 4083 
L 1670 4083 
L 1670 5370 
L 1203 5370 
z
M 3782 5190 
C 4013 4902 4262 4531 4378 4269 
L 2861 4269 
L 2861 2560 
C 2861 1702 2778 595 2067 -186 
C 2176 -256 2374 -429 2451 -525 
C 3117 205 3296 1267 3334 2157 
L 5440 2157 
L 5440 1754 
L 5920 1754 
L 5920 4269 
L 4390 4269 
L 4826 4461 
C 4710 4710 4461 5075 4211 5357 
L 3782 5190 
z
M 5440 2611 
L 3341 2611 
L 3341 3834 
L 5440 3834 
L 5440 2611 
z
" transform="scale(0.015625)"/>
     </defs>
     <use xlink:href="#NotoSansCJKjp-Regular-4fdd"/>
     <use xlink:href="#NotoSansCJKjp-Regular-62a4" transform="translate(99.999985 0)"/>
     <use xlink:href="#NotoSansCJKjp-Regular-6302" transform="translate(199.999969 0)"/>
     <use xlink:href="#NotoSansCJKjp-Regular-8f7d" transform="translate(299.999954 0)"/>
     <use xlink:href="#NotoSansCJKjp-Regular-70b9" transform="translate(399.999939 0)"/>
    </g>
   </g>
  </g>
 </g>
 <defs>
  <clipPath id="p04ed1370de">
   <rect x="3.6" y="3.6" width="892.8" height="498.96"/>
  </clipPath>
 </defs>
</svg>
