<?xml version="1.0" encoding="utf-8" standalone="no"?>
<!DOCTYPE svg PUBLIC "-//W3C//DTD SVG 1.1//EN"
  "http://www.w3.org/Graphics/SVG/1.1/DTD/svg11.dtd">
<svg xmlns:xlink="http://www.w3.org/1999/xlink" width="900pt" height="506.16pt" viewBox="0 0 900 506.16" xmlns="http://www.w3.org/2000/svg" version="1.1">
 <metadata>
  <rdf:RDF xmlns:dc="http://purl.org/dc/elements/1.1/" xmlns:cc="http://creativecommons.org/ns#" xmlns:rdf="http://www.w3.org/1999/02/22-rdf-syntax-ns#">
   <cc:Work>
    <dc:type rdf:resource="http://purl.org/dc/dcmitype/StillImage"/>
    <dc:date>2026-06-21T07:27:28.295197</dc:date>
    <dc:format>image/svg+xml</dc:format>
    <dc:creator>
     <cc:Agent>
      <dc:title>Matplotlib v3.10.9, https://matplotlib.org/</dc:title>
     </cc:Agent>
    </dc:creator>
   </cc:Work>
  </rdf:RDF>
 </metadata>
 <defs>
  <style type="text/css">*{stroke-linejoin: round; stroke-linecap: butt}</style>
 </defs>
 <g id="figure_1">
  <g id="patch_1">
   <path d="M 0 506.16 
L 900 506.16 
L 900 -0 
L 0 -0 
z
" style="fill: #ffffff"/>
  </g>
  <g id="axes_1">
   <g id="patch_2">
    <path d="M 58.77504 223.242192 
L 118.05696 223.242192 
Q 137.69856 223.242192 137.69856 212.265072 
L 137.69856 154.186128 
Q 137.69856 143.209008 118.05696 143.209008 
L 58.77504 143.209008 
Q 39.13344 143.209008 39.13344 154.186128 
L 39.13344 212.265072 
Q 39.13344 223.242192 58.77504 223.242192 
z
" clip-path="url(#p91c2de923f)" style="fill: #dbeafe; stroke: #1e3a8a; stroke-width: 2; stroke-linejoin: miter"/>
   </g>
   <g id="patch_3">
    <path d="M 174.83904 223.242192 
L 234.12096 223.242192 
Q 253.76256 223.242192 253.76256 212.265072 
L 253.76256 154.186128 
Q 253.76256 143.209008 234.12096 143.209008 
L 174.83904 143.209008 
Q 155.19744 143.209008 155.19744 154.186128 
L 155.19744 212.265072 
Q 155.19744 223.242192 174.83904 223.242192 
z
" clip-path="url(#p91c2de923f)" style="fill: #dbeafe; stroke: #1e3a8a; stroke-width: 2; stroke-linejoin: miter"/>
   </g>
   <g id="patch_4">
    <path d="M 290.90304 223.242192 
L 350.18496 223.242192 
Q 369.82656 223.242192 369.82656 212.265072 
L 369.82656 154.186128 
Q 369.82656 143.209008 350.18496 143.209008 
L 290.90304 143.209008 
Q 271.26144 143.209008 271.26144 154.186128 
L 271.26144 212.265072 
Q 271.26144 223.242192 290.90304 223.242192 
z
" clip-path="url(#p91c2de923f)" style="fill: #dbeafe; stroke: #1e3a8a; stroke-width: 2; stroke-linejoin: miter"/>
   </g>
   <g id="patch_5">
    <path d="M 406.96704 223.242192 
L 466.24896 223.242192 
Q 485.89056 223.242192 485.89056 212.265072 
L 485.89056 154.186128 
Q 485.89056 143.209008 466.24896 143.209008 
L 406.96704 143.209008 
Q 387.32544 143.209008 387.32544 154.186128 
L 387.32544 212.265072 
Q 387.32544 223.242192 406.96704 223.242192 
z
" clip-path="url(#p91c2de923f)" style="fill: #dbeafe; stroke: #1e3a8a; stroke-width: 2; stroke-linejoin: miter"/>
   </g>
   <g id="patch_6">
    <path d="M 531.95904 223.242192 
L 591.24096 223.242192 
Q 610.88256 223.242192 610.88256 212.265072 
L 610.88256 154.186128 
Q 610.88256 143.209008 591.24096 143.209008 
L 531.95904 143.209008 
Q 512.31744 143.209008 512.31744 154.186128 
L 512.31744 212.265072 
Q 512.31744 223.242192 531.95904 223.242192 
z
" clip-path="url(#p91c2de923f)" style="fill: #dbeafe; stroke: #1e3a8a; stroke-width: 2; stroke-linejoin: miter"/>
   </g>
   <g id="patch_7">
    <path d="M 656.95104 223.242192 
L 716.23296 223.242192 
Q 735.87456 223.242192 735.87456 212.265072 
L 735.87456 154.186128 
Q 735.87456 143.209008 716.23296 143.209008 
L 656.95104 143.209008 
Q 637.30944 143.209008 637.30944 154.186128 
L 637.30944 212.265072 
Q 637.30944 223.242192 656.95104 223.242192 
z
" clip-path="url(#p91c2de923f)" style="fill: #dbeafe; stroke: #1e3a8a; stroke-width: 2; stroke-linejoin: miter"/>
   </g>
   <g id="patch_8">
    <path d="M 773.01504 223.242192 
L 832.29696 223.242192 
Q 851.93856 223.242192 851.93856 212.265072 
L 851.93856 154.186128 
Q 851.93856 143.209008 832.29696 143.209008 
L 773.01504 143.209008 
Q 753.37344 143.209008 753.37344 154.186128 
L 753.37344 212.265072 
Q 753.37344 223.242192 773.01504 223.242192 
z
" clip-path="url(#p91c2de923f)" style="fill: #dbeafe; stroke: #1e3a8a; stroke-width: 2; stroke-linejoin: miter"/>
   </g>
   <g id="patch_9">
    <path d="M 139.520953 183.2256 
Q 146.447859 183.2256 151.138697 183.2256 
" clip-path="url(#p91c2de923f)" style="fill: none; stroke: #1e3a8a; stroke-width: 2; stroke-linecap: round"/>
    <path d="M 143.938697 179.6256 
L 151.138697 183.2256 
L 143.938697 186.8256 
z
" clip-path="url(#p91c2de923f)" style="fill: #1e3a8a; stroke: #1e3a8a; stroke-width: 2; stroke-linecap: round"/>
   </g>
   <g id="patch_10">
    <path d="M 255.584953 183.2256 
Q 262.511859 183.2256 267.202697 183.2256 
" clip-path="url(#p91c2de923f)" style="fill: none; stroke: #1e3a8a; stroke-width: 2; stroke-linecap: round"/>
    <path d="M 260.002697 179.6256 
L 267.202697 183.2256 
L 260.002697 186.8256 
z
" clip-path="url(#p91c2de923f)" style="fill: #1e3a8a; stroke: #1e3a8a; stroke-width: 2; stroke-linecap: round"/>
   </g>
   <g id="patch_11">
    <path d="M 371.648953 183.2256 
Q 378.575859 183.2256 383.266697 183.2256 
" clip-path="url(#p91c2de923f)" style="fill: none; stroke: #1e3a8a; stroke-width: 2; stroke-linecap: round"/>
    <path d="M 376.066697 179.6256 
L 383.266697 183.2256 
L 376.066697 186.8256 
z
" clip-path="url(#p91c2de923f)" style="fill: #1e3a8a; stroke: #1e3a8a; stroke-width: 2; stroke-linecap: round"/>
   </g>
   <g id="patch_12">
    <path d="M 487.709684 183.2256 
Q 499.102857 183.2256 508.259962 183.2256 
" clip-path="url(#p91c2de923f)" style="fill: none; stroke: #1e3a8a; stroke-width: 2; stroke-linecap: round"/>
    <path d="M 501.059962 179.6256 
L 508.259962 183.2256 
L 501.059962 186.8256 
z
" clip-path="url(#p91c2de923f)" style="fill: #1e3a8a; stroke: #1e3a8a; stroke-width: 2; stroke-linecap: round"/>
   </g>
   <g id="patch_13">
    <path d="M 612.701684 183.2256 
Q 624.094857 183.2256 633.251962 183.2256 
" clip-path="url(#p91c2de923f)" style="fill: none; stroke: #1e3a8a; stroke-width: 2; stroke-linecap: round"/>
    <path d="M 626.051962 179.6256 
L 633.251962 183.2256 
L 626.051962 186.8256 
z
" clip-path="url(#p91c2de923f)" style="fill: #1e3a8a; stroke: #1e3a8a; stroke-width: 2; stroke-linecap: round"/>
   </g>
   <g id="patch_14">
    <path d="M 737.696953 183.2256 
Q 744.623859 183.2256 749.314697 183.2256 
" clip-path="url(#p91c2de923f)" style="fill: none; stroke: #1e3a8a; stroke-width: 2; stroke-linecap: round"/>
    <path d="M 742.114697 179.6256 
L 749.314697 183.2256 
L 742.114697 186.8256 
z
" clip-path="url(#p91c2de923f)" style="fill: #1e3a8a; stroke: #1e3a8a; stroke-width: 2; stroke-linecap: round"/>
   </g>
   <g id="patch_15">
    <path d="M 290.90304 362.950992 
L 359.11296 362.950992 
Q 378.75456 362.950992 378.75456 351.973872 
L 378.75456 313.853328 
Q 378.75456 302.876208 359.11296 302.876208 
L 290.90304 302.876208 
Q 271.26144 302.876208 271.26144 313.853328 
L 271.26144 351.973872 
Q 271.26144 362.950992 290.90304 362.950992 
z
" clip-path="url(#p91c2de923f)" style="fill: #eff6ff; stroke: #1e3a8a; stroke-width: 2; stroke-linejoin: miter"/>
   </g>
   <g id="patch_16">
    <path d="M 320.655437 225.135316 
Q 322.775797 263.055569 324.77132 298.743241 
" clip-path="url(#p91c2de923f)" style="fill: none; stroke: #f59e0b; stroke-width: 2; stroke-linecap: round"/>
    <path d="M 327.963735 291.353486 
L 324.77132 298.743241 
L 320.774965 291.755455 
z
" clip-path="url(#p91c2de923f)" style="fill: #f59e0b; stroke: #f59e0b; stroke-width: 2; stroke-linecap: round"/>
   </g>
   <g id="patch_17">
    <path d="M 415.89504 362.950992 
L 484.10496 362.950992 
Q 503.74656 362.950992 503.74656 351.973872 
L 503.74656 313.853328 
Q 503.74656 302.876208 484.10496 302.876208 
L 415.89504 302.876208 
Q 396.25344 302.876208 396.25344 313.853328 
L 396.25344 351.973872 
Q 396.25344 362.950992 415.89504 362.950992 
z
" clip-path="url(#p91c2de923f)" style="fill: #fef3c7; stroke: #f59e0b; stroke-width: 2; stroke-linejoin: miter"/>
   </g>
   <g id="patch_18">
    <path d="M 441.293783 225.125571 
Q 445.535566 263.055323 449.528833 298.762859 
" clip-path="url(#p91c2de923f)" style="fill: none; stroke: #f59e0b; stroke-width: 2; stroke-linecap: round"/>
    <path d="M 452.306324 291.207361 
L 449.528833 298.762859 
L 445.15093 292.007568 
z
" clip-path="url(#p91c2de923f)" style="fill: #f59e0b; stroke: #f59e0b; stroke-width: 2; stroke-linecap: round"/>
   </g>
   <g id="patch_19">
    <path d="M 540.88704 362.950992 
L 609.09696 362.950992 
Q 628.73856 362.950992 628.73856 351.973872 
L 628.73856 313.853328 
Q 628.73856 302.876208 609.09696 302.876208 
L 540.88704 302.876208 
Q 521.24544 302.876208 521.24544 313.853328 
L 521.24544 351.973872 
Q 521.24544 362.950992 540.88704 362.950992 
z
" clip-path="url(#p91c2de923f)" style="fill: #ecfdf5; stroke: #10b981; stroke-width: 2; stroke-linejoin: miter"/>
   </g>
   <g id="patch_20">
    <path d="M 692.66304 362.950992 
L 778.72896 362.950992 
Q 798.37056 362.950992 798.37056 351.973872 
L 798.37056 313.853328 
Q 798.37056 302.876208 778.72896 302.876208 
L 692.66304 302.876208 
Q 673.02144 302.876208 673.02144 313.853328 
L 673.02144 351.973872 
Q 673.02144 362.950992 692.66304 362.950992 
z
" clip-path="url(#p91c2de923f)" style="fill: #ecfdf5; stroke: #10b981; stroke-width: 2; stroke-linejoin: miter"/>
   </g>
   <g id="patch_21">
    <path d="M 576.991046 302.976 
Q 624.095793 302.976 668.964472 302.976 
" clip-path="url(#p91c2de923f)" style="fill: none; stroke-dasharray: 7.4,3.2; stroke-dashoffset: 0; stroke: #10b981; stroke-width: 2; stroke-linecap: round"/>
    <path d="M 661.764472 299.376 
L 668.964472 302.976 
L 661.764472 306.576 
z
" clip-path="url(#p91c2de923f)" style="fill: #10b981; stroke-dasharray: 7.4,3.2; stroke-dashoffset: 0; stroke: #10b981; stroke-width: 2; stroke-linecap: round"/>
   </g>
   <g id="text_1">
    <!-- 第 3 页：系统启动整体框架 -->
    <g style="fill: #1e3a8a" transform="translate(305.9625 30.3609) scale(0.24 -0.24)">
     <defs>
      <path id="NotoSansCJKjp-Regular-7b2c" d="M 1133 2566 
C 1037 2061 877 1421 742 1005 
L 1216 934 
L 1280 1158 
L 2547 1158 
C 1965 640 1069 198 275 -26 
C 378 -115 518 -288 589 -410 
C 1414 -134 2342 390 2963 1005 
L 2963 -512 
L 3430 -512 
L 3430 1158 
L 5363 1158 
C 5299 576 5229 326 5139 237 
C 5082 192 5024 186 4909 186 
C 4794 179 4493 186 4179 218 
C 4256 96 4307 -90 4314 -224 
C 4646 -243 4960 -243 5120 -230 
C 5299 -218 5421 -179 5530 -70 
C 5690 90 5779 480 5869 1376 
C 5875 1440 5882 1568 5882 1568 
L 3430 1568 
L 3430 2163 
L 5510 2163 
L 5510 3622 
L 826 3622 
L 826 3213 
L 2963 3213 
L 2963 2566 
L 1133 2566 
z
M 1523 2163 
L 2963 2163 
L 2963 1568 
L 1382 1568 
L 1523 2163 
z
M 3430 3213 
L 5037 3213 
L 5037 2566 
L 3430 2566 
L 3430 3213 
z
M 1178 5408 
C 966 4838 614 4269 211 3898 
C 326 3834 518 3706 608 3635 
C 819 3846 1024 4128 1210 4435 
L 1446 4435 
C 1581 4179 1702 3878 1747 3674 
L 2170 3840 
C 2125 3994 2029 4224 1926 4435 
L 3110 4435 
L 3110 4819 
L 1421 4819 
C 1498 4973 1562 5126 1626 5286 
L 1178 5408 
z
M 3699 5408 
C 3488 4832 3104 4294 2650 3942 
C 2765 3885 2963 3744 3046 3667 
C 3283 3872 3507 4141 3706 4435 
L 4160 4435 
C 4352 4179 4544 3872 4621 3661 
L 5043 3827 
C 4973 4000 4826 4230 4672 4435 
L 6099 4435 
L 6099 4819 
L 3936 4819 
C 4019 4973 4090 5133 4154 5293 
L 3699 5408 
z
" transform="scale(0.015625)"/>
      <path id="NotoSansCJKjp-Regular-20" transform="scale(0.015625)"/>
      <path id="NotoSansCJKjp-Regular-33" d="M 1683 -83 
C 2522 -83 3194 416 3194 1254 
C 3194 1901 2752 2310 2202 2445 
L 2202 2477 
C 2701 2650 3034 3034 3034 3603 
C 3034 4346 2458 4774 1664 4774 
C 1126 4774 710 4538 358 4218 
L 672 3846 
C 941 4115 1267 4301 1645 4301 
C 2138 4301 2438 4006 2438 3558 
C 2438 3053 2112 2662 1139 2662 
L 1139 2214 
C 2227 2214 2598 1843 2598 1274 
C 2598 736 2208 403 1645 403 
C 1114 403 762 659 486 941 
L 186 563 
C 493 224 954 -83 1683 -83 
z
" transform="scale(0.015625)"/>
      <path id="NotoSansCJKjp-Regular-9875" d="M 2970 2957 
L 2970 1798 
C 2970 1114 2694 352 320 -122 
C 422 -224 557 -410 614 -512 
C 3104 26 3462 915 3462 1792 
L 3462 2957 
L 2970 2957 
z
M 3488 704 
C 4230 358 5197 -173 5664 -531 
L 5965 -147 
C 5466 205 4499 710 3770 1030 
L 3488 704 
z
M 1094 3808 
L 1094 819 
L 1587 819 
L 1587 3360 
L 4864 3360 
L 4864 832 
L 5370 832 
L 5370 3808 
L 3059 3808 
C 3181 4032 3309 4307 3424 4576 
L 5984 4576 
L 5984 5024 
L 474 5024 
L 474 4576 
L 2874 4576 
C 2797 4326 2682 4038 2579 3808 
L 1094 3808 
z
" transform="scale(0.015625)"/>
      <path id="NotoSansCJKjp-Regular-ff1a" d="M 3200 3482 
C 3456 3482 3686 3667 3686 3962 
C 3686 4256 3456 4442 3200 4442 
C 2944 4442 2714 4256 2714 3962 
C 2714 3667 2944 3482 3200 3482 
z
M 3200 346 
C 3456 346 3686 538 3686 826 
C 3686 1120 3456 1312 3200 1312 
C 2944 1312 2714 1120 2714 826 
C 2714 538 2944 346 3200 346 
z
" transform="scale(0.015625)"/>
      <path id="NotoSansCJKjp-Regular-7cfb" d="M 1715 1222 
C 1363 749 787 262 243 -51 
C 371 -128 582 -288 678 -378 
C 1197 -32 1805 512 2208 1043 
L 1715 1222 
z
M 4109 986 
C 4666 582 5350 -6 5677 -371 
L 6093 -64 
C 5741 301 5037 864 4493 1248 
L 4109 986 
z
M 5286 5286 
C 4179 5062 2208 4928 557 4883 
C 602 4768 659 4576 672 4448 
C 1235 4461 1843 4486 2445 4525 
C 2195 4198 1882 3840 1594 3565 
L 1158 3827 
L 832 3533 
C 1344 3232 1939 2790 2310 2445 
C 2125 2291 1933 2150 1760 2016 
L 358 2003 
L 403 1517 
L 2938 1581 
L 2938 -512 
L 3443 -512 
L 3443 1594 
L 5293 1645 
C 5466 1459 5613 1286 5715 1139 
L 6138 1427 
C 5811 1862 5126 2509 4563 2957 
L 4173 2707 
C 4403 2522 4646 2298 4883 2074 
L 2464 2029 
C 3226 2618 4083 3398 4730 4077 
L 4269 4326 
C 3853 3846 3270 3270 2682 2765 
C 2490 2938 2227 3136 1952 3328 
C 2317 3661 2739 4122 3072 4525 
L 3002 4563 
C 3974 4634 4915 4736 5632 4877 
L 5286 5286 
z
" transform="scale(0.015625)"/>
      <path id="NotoSansCJKjp-Regular-7edf" d="M 4467 2253 
L 4467 230 
C 4467 -243 4576 -384 5024 -384 
C 5114 -384 5498 -384 5587 -384 
C 5984 -384 6099 -141 6131 730 
C 6010 762 5818 838 5722 928 
C 5702 154 5677 38 5536 38 
C 5459 38 5158 38 5101 38 
C 4960 38 4941 58 4941 230 
L 4941 2253 
L 4467 2253 
z
M 3264 2240 
C 3226 973 3078 288 2029 -102 
C 2138 -192 2272 -371 2330 -493 
C 3488 -19 3686 806 3738 2240 
L 3264 2240 
z
M 269 339 
L 378 -134 
C 954 51 1709 288 2426 525 
L 2349 941 
C 1574 710 787 474 269 339 
z
M 3808 5274 
C 3930 5011 4090 4666 4154 4448 
L 2605 4448 
L 2605 4013 
L 3757 4013 
C 3469 3616 3027 3027 2880 2886 
C 2758 2771 2598 2726 2477 2694 
C 2528 2592 2618 2349 2637 2227 
C 2816 2304 3085 2336 5408 2554 
C 5510 2381 5606 2214 5670 2086 
L 6074 2310 
C 5882 2682 5466 3283 5120 3731 
L 4742 3539 
C 4883 3354 5030 3142 5165 2931 
L 3405 2784 
C 3693 3136 4058 3635 4326 4013 
L 6067 4013 
L 6067 4448 
L 4224 4448 
L 4634 4576 
C 4557 4781 4397 5133 4250 5389 
L 3808 5274 
z
M 384 2707 
C 480 2752 627 2784 1395 2893 
C 1120 2490 870 2176 755 2054 
C 550 1818 403 1658 262 1632 
C 320 1504 397 1267 422 1165 
C 557 1248 774 1318 2362 1664 
C 2349 1766 2342 1952 2355 2086 
L 1146 1850 
C 1632 2413 2112 3098 2515 3789 
L 2086 4045 
C 1965 3808 1830 3565 1683 3341 
L 896 3258 
C 1293 3808 1690 4506 1984 5178 
L 1498 5402 
C 1216 4627 742 3802 589 3590 
C 448 3373 326 3226 211 3200 
C 275 3066 352 2810 384 2707 
z
" transform="scale(0.015625)"/>
      <path id="NotoSansCJKjp-Regular-542f" d="M 915 4896 
L 915 2925 
C 915 1990 858 768 250 -147 
C 371 -205 563 -371 634 -474 
C 1184 346 1344 1440 1382 2349 
L 5562 2349 
L 5562 4045 
L 1395 4045 
L 1395 4442 
C 2790 4544 4352 4736 5414 4998 
L 5024 5357 
C 4141 5120 2560 4928 1171 4819 
L 915 4896 
z
M 1395 2771 
L 1395 2918 
L 1395 3629 
L 5088 3629 
L 5088 2771 
L 1395 2771 
z
M 1709 1677 
L 1709 -506 
L 2170 -506 
L 2170 -243 
L 5158 -243 
L 5158 -499 
L 5645 -499 
L 5645 1677 
L 1709 1677 
z
M 2170 173 
L 2170 1261 
L 5158 1261 
L 5158 173 
L 2170 173 
z
" transform="scale(0.015625)"/>
      <path id="NotoSansCJKjp-Regular-52a8" d="M 570 4851 
L 570 4422 
L 3046 4422 
L 3046 4851 
L 570 4851 
z
M 4179 5267 
C 4179 4813 4179 4352 4160 3898 
L 3245 3898 
L 3245 3437 
L 4141 3437 
C 4064 1978 3808 640 2931 -160 
C 3059 -230 3226 -390 3309 -506 
C 4250 390 4525 1850 4614 3437 
L 5568 3437 
C 5498 1165 5414 314 5242 122 
C 5178 45 5107 26 4992 26 
C 4858 26 4518 26 4160 64 
C 4243 -77 4294 -275 4307 -410 
C 4646 -435 4998 -435 5197 -416 
C 5402 -397 5530 -339 5658 -173 
C 5882 109 5958 1018 6048 3654 
C 6048 3725 6048 3898 6048 3898 
L 4634 3898 
C 4646 4352 4653 4813 4653 5267 
L 4179 5267 
z
M 570 282 
L 576 288 
L 576 275 
C 723 365 954 435 2733 838 
L 2854 410 
L 3277 550 
C 3155 998 2867 1760 2624 2336 
L 2227 2227 
C 2355 1926 2483 1574 2598 1242 
L 1075 922 
C 1325 1498 1568 2214 1728 2886 
L 3162 2886 
L 3162 3328 
L 346 3328 
L 346 2886 
L 1235 2886 
C 1069 2138 800 1382 710 1171 
C 602 928 518 755 416 723 
C 474 608 544 378 570 282 
z
" transform="scale(0.015625)"/>
      <path id="NotoSansCJKjp-Regular-6574" d="M 1357 1139 
L 1357 32 
L 301 32 
L 301 -371 
L 6118 -371 
L 6118 32 
L 3430 32 
L 3430 563 
L 5274 563 
L 5274 934 
L 3430 934 
L 3430 1427 
L 5696 1427 
L 5696 1824 
L 730 1824 
L 730 1427 
L 2957 1427 
L 2957 32 
L 1818 32 
L 1818 1139 
L 1357 1139 
z
M 4109 5376 
C 3930 4742 3597 4154 3162 3770 
L 3162 4282 
L 2054 4282 
L 2054 4608 
L 3315 4608 
L 3315 4960 
L 2054 4960 
L 2054 5376 
L 1626 5376 
L 1626 4960 
L 365 4960 
L 365 4608 
L 1626 4608 
L 1626 4282 
L 550 4282 
L 550 3110 
L 1440 3110 
C 1126 2790 646 2470 256 2304 
C 346 2234 474 2093 538 1997 
C 883 2176 1306 2496 1626 2822 
L 1626 1997 
L 2054 1997 
L 2054 2784 
C 2368 2611 2790 2362 2970 2227 
L 3206 2547 
C 3027 2650 2349 2989 2086 3110 
L 3162 3110 
L 3162 3725 
C 3264 3642 3411 3494 3462 3411 
C 3603 3546 3744 3699 3866 3878 
C 4000 3590 4186 3296 4416 3021 
C 4064 2714 3629 2490 3104 2330 
C 3200 2253 3341 2074 3392 1978 
C 3904 2163 4339 2400 4704 2714 
C 5030 2406 5434 2138 5926 1958 
C 5990 2067 6112 2246 6202 2336 
C 5715 2483 5318 2720 4998 3002 
C 5299 3347 5530 3757 5677 4269 
L 6093 4269 
L 6093 4659 
L 4314 4659 
C 4403 4858 4480 5069 4544 5280 
L 4109 5376 
z
M 947 3962 
L 1626 3962 
L 1626 3430 
L 947 3430 
L 947 3962 
z
M 2054 3962 
L 2752 3962 
L 2752 3430 
L 2054 3430 
L 2054 3962 
z
M 4122 4269 
L 5216 4269 
C 5101 3891 4928 3571 4698 3302 
C 4435 3603 4243 3930 4109 4250 
L 4122 4269 
z
" transform="scale(0.015625)"/>
      <path id="NotoSansCJKjp-Regular-4f53" d="M 1606 5350 
C 1286 4384 762 3424 192 2797 
C 288 2688 429 2432 474 2323 
C 666 2541 851 2790 1024 3066 
L 1024 -499 
L 1485 -499 
L 1485 3872 
C 1702 4307 1894 4768 2054 5222 
L 1606 5350 
z
M 2662 1120 
L 2662 678 
L 3718 678 
L 3718 -474 
L 4186 -474 
L 4186 678 
L 5216 678 
L 5216 1120 
L 4186 1120 
L 4186 3334 
C 4582 2221 5197 1146 5862 538 
C 5952 666 6112 832 6227 915 
C 5536 1472 4870 2547 4493 3622 
L 6106 3622 
L 6106 4083 
L 4186 4083 
L 4186 5357 
L 3718 5357 
L 3718 4083 
L 1907 4083 
L 1907 3622 
L 3430 3622 
C 3034 2534 2362 1446 1658 883 
C 1766 800 1926 634 2003 518 
C 2682 1133 3309 2189 3718 3315 
L 3718 1120 
L 2662 1120 
z
" transform="scale(0.015625)"/>
      <path id="NotoSansCJKjp-Regular-6846" d="M 3309 1280 
L 3309 858 
L 6010 858 
L 6010 1280 
L 4858 1280 
L 4858 2285 
L 5798 2285 
L 5798 2694 
L 4858 2694 
L 4858 3584 
L 5869 3584 
L 5869 4006 
L 3411 4006 
L 3411 3584 
L 4403 3584 
L 4403 2694 
L 3514 2694 
L 3514 2285 
L 4403 2285 
L 4403 1280 
L 3309 1280 
z
M 2579 5043 
L 2579 -512 
L 3040 -512 
L 3040 -154 
L 6163 -154 
L 6163 301 
L 3040 301 
L 3040 4602 
L 6074 4602 
L 6074 5043 
L 2579 5043 
z
M 1229 5376 
L 1229 3987 
L 333 3987 
L 333 3539 
L 1178 3539 
C 992 2669 602 1658 198 1120 
C 275 1011 390 832 442 704 
C 736 1120 1011 1792 1229 2483 
L 1229 -506 
L 1670 -506 
L 1670 2592 
C 1856 2272 2080 1882 2170 1677 
L 2438 2035 
C 2323 2208 1843 2938 1670 3168 
L 1670 3539 
L 2387 3539 
L 2387 3987 
L 1670 3987 
L 1670 5376 
L 1229 5376 
z
" transform="scale(0.015625)"/>
      <path id="NotoSansCJKjp-Regular-67b6" d="M 4038 4435 
L 5357 4435 
L 5357 3104 
L 4038 3104 
L 4038 4435 
z
M 3584 4858 
L 3584 2675 
L 5837 2675 
L 5837 4858 
L 3584 4858 
z
M 2938 2522 
L 2938 1901 
L 390 1901 
L 390 1472 
L 2586 1472 
C 2029 845 1101 275 250 -6 
C 358 -102 499 -282 570 -397 
C 1414 -77 2342 544 2938 1254 
L 2938 -518 
L 3437 -518 
L 3437 1216 
C 4032 531 4934 -45 5798 -346 
C 5875 -224 6016 -38 6125 58 
C 5235 314 4320 845 3770 1472 
L 5939 1472 
L 5939 1901 
L 3437 1901 
L 3437 2522 
L 2938 2522 
z
M 1370 5370 
C 1363 5133 1350 4915 1331 4704 
L 352 4704 
L 352 4275 
L 1274 4275 
C 1152 3571 877 3040 230 2701 
C 333 2624 467 2451 531 2342 
C 1286 2752 1600 3411 1741 4275 
L 2637 4275 
C 2579 3450 2515 3123 2426 3021 
C 2374 2970 2323 2957 2240 2963 
C 2144 2963 1920 2963 1677 2989 
C 1747 2874 1792 2688 1805 2560 
C 2061 2547 2310 2547 2445 2560 
C 2605 2573 2714 2611 2816 2720 
C 2963 2899 3034 3354 3110 4506 
C 3117 4570 3123 4704 3123 4704 
L 1798 4704 
C 1818 4915 1830 5139 1843 5370 
L 1370 5370 
z
" transform="scale(0.015625)"/>
     </defs>
     <use xlink:href="#NotoSansCJKjp-Regular-7b2c"/>
     <use xlink:href="#NotoSansCJKjp-Regular-20" transform="translate(99.999985 0)"/>
     <use xlink:href="#NotoSansCJKjp-Regular-33" transform="translate(122.399979 0)"/>
     <use xlink:href="#NotoSansCJKjp-Regular-20" transform="translate(177.899963 0)"/>
     <use xlink:href="#NotoSansCJKjp-Regular-9875" transform="translate(200.299957 0)"/>
     <use xlink:href="#NotoSansCJKjp-Regular-ff1a" transform="translate(300.299942 0)"/>
     <use xlink:href="#NotoSansCJKjp-Regular-7cfb" transform="translate(400.299927 0)"/>
     <use xlink:href="#NotoSansCJKjp-Regular-7edf" transform="translate(500.299911 0)"/>
     <use xlink:href="#NotoSansCJKjp-Regular-542f" transform="translate(600.299896 0)"/>
     <use xlink:href="#NotoSansCJKjp-Regular-52a8" transform="translate(700.299881 0)"/>
     <use xlink:href="#NotoSansCJKjp-Regular-6574" transform="translate(800.299866 0)"/>
     <use xlink:href="#NotoSansCJKjp-Regular-4f53" transform="translate(900.29985 0)"/>
     <use xlink:href="#NotoSansCJKjp-Regular-6846" transform="translate(1000.299835 0)"/>
     <use xlink:href="#NotoSansCJKjp-Regular-67b6" transform="translate(1100.29982 0)"/>
    </g>
   </g>
   <g id="text_2">
    <!-- QEMU virt -->
    <g style="fill: #111827" transform="translate(58.197094 179.213069) scale(0.13 -0.13)">
     <defs>
      <path id="NotoSansCJKjp-Regular-51" d="M 2374 410 
C 1530 410 979 1165 979 2362 
C 979 3533 1530 4256 2374 4256 
C 3219 4256 3770 3533 3770 2362 
C 3770 1165 3219 410 2374 410 
z
M 3808 -1178 
C 4090 -1178 4339 -1133 4480 -1069 
L 4365 -614 
C 4243 -653 4083 -685 3872 -685 
C 3366 -685 2931 -474 2720 -58 
C 3712 115 4378 1011 4378 2362 
C 4378 3866 3552 4774 2374 4774 
C 1197 4774 371 3866 371 2362 
C 371 986 1062 77 2086 -64 
C 2349 -704 2944 -1178 3808 -1178 
z
" transform="scale(0.015625)"/>
      <path id="NotoSansCJKjp-Regular-45" d="M 646 0 
L 3418 0 
L 3418 506 
L 1235 506 
L 1235 2214 
L 3014 2214 
L 3014 2720 
L 1235 2720 
L 1235 4192 
L 3347 4192 
L 3347 4691 
L 646 4691 
L 646 0 
z
" transform="scale(0.015625)"/>
      <path id="NotoSansCJKjp-Regular-4d" d="M 646 0 
L 1178 0 
L 1178 2598 
C 1178 3002 1139 3571 1101 3981 
L 1126 3981 
L 1504 2912 
L 2394 474 
L 2790 474 
L 3674 2912 
L 4051 3981 
L 4077 3981 
C 4045 3571 4000 3002 4000 2598 
L 4000 0 
L 4550 0 
L 4550 4691 
L 3840 4691 
L 2944 2182 
C 2835 1862 2739 1530 2618 1203 
L 2592 1203 
C 2477 1530 2374 1862 2253 2182 
L 1357 4691 
L 646 4691 
L 646 0 
z
" transform="scale(0.015625)"/>
      <path id="NotoSansCJKjp-Regular-55" d="M 2310 -83 
C 3264 -83 3994 429 3994 1933 
L 3994 4691 
L 3424 4691 
L 3424 1920 
C 3424 794 2931 435 2310 435 
C 1696 435 1216 794 1216 1920 
L 1216 4691 
L 627 4691 
L 627 1933 
C 627 429 1350 -83 2310 -83 
z
" transform="scale(0.015625)"/>
      <path id="NotoSansCJKjp-Regular-76" d="M 1338 0 
L 2022 0 
L 3251 3475 
L 2675 3475 
L 2016 1498 
C 1914 1158 1798 806 1696 474 
L 1664 474 
C 1562 806 1453 1158 1344 1498 
L 691 3475 
L 83 3475 
L 1338 0 
z
" transform="scale(0.015625)"/>
      <path id="NotoSansCJKjp-Regular-69" d="M 589 0 
L 1178 0 
L 1178 3475 
L 589 3475 
L 589 0 
z
M 883 4192 
C 1114 4192 1274 4346 1274 4582 
C 1274 4806 1114 4960 883 4960 
C 653 4960 499 4806 499 4582 
C 499 4346 653 4192 883 4192 
z
" transform="scale(0.015625)"/>
      <path id="NotoSansCJKjp-Regular-72" d="M 589 0 
L 1178 0 
L 1178 2234 
C 1408 2822 1760 3040 2048 3040 
C 2195 3040 2272 3021 2387 2982 
L 2496 3488 
C 2387 3546 2278 3565 2125 3565 
C 1741 3565 1382 3283 1139 2842 
L 1126 2842 
L 1069 3475 
L 589 3475 
L 589 0 
z
" transform="scale(0.015625)"/>
      <path id="NotoSansCJKjp-Regular-74" d="M 1677 -83 
C 1894 -83 2125 -19 2323 45 
L 2208 486 
C 2093 435 1939 390 1811 390 
C 1408 390 1274 634 1274 1056 
L 1274 3002 
L 2221 3002 
L 2221 3475 
L 1274 3475 
L 1274 4454 
L 787 4454 
L 723 3475 
L 173 3443 
L 173 3002 
L 691 3002 
L 691 1075 
C 691 378 941 -83 1677 -83 
z
" transform="scale(0.015625)"/>
     </defs>
     <use xlink:href="#NotoSansCJKjp-Regular-51"/>
     <use xlink:href="#NotoSansCJKjp-Regular-45" transform="translate(74.199982 0)"/>
     <use xlink:href="#NotoSansCJKjp-Regular-4d" transform="translate(133.099976 0)"/>
     <use xlink:href="#NotoSansCJKjp-Regular-55" transform="translate(214.299957 0)"/>
     <use xlink:href="#NotoSansCJKjp-Regular-20" transform="translate(286.399948 0)"/>
     <use xlink:href="#NotoSansCJKjp-Regular-76" transform="translate(308.799942 0)"/>
     <use xlink:href="#NotoSansCJKjp-Regular-69" transform="translate(360.899933 0)"/>
     <use xlink:href="#NotoSansCJKjp-Regular-72" transform="translate(388.399918 0)"/>
     <use xlink:href="#NotoSansCJKjp-Regular-74" transform="translate(427.199905 0)"/>
    </g>
    <!-- -kernel 加载 -->
    <g style="fill: #111827" transform="translate(52.579672 194.607506) scale(0.13 -0.13)">
     <defs>
      <path id="NotoSansCJKjp-Regular-2d" d="M 294 1568 
L 1933 1568 
L 1933 2016 
L 294 2016 
L 294 1568 
z
" transform="scale(0.015625)"/>
      <path id="NotoSansCJKjp-Regular-6b" d="M 589 0 
L 1165 0 
L 1165 915 
L 1818 1677 
L 2835 0 
L 3469 0 
L 2157 2074 
L 3315 3475 
L 2662 3475 
L 1190 1645 
L 1165 1645 
L 1165 5094 
L 589 5094 
L 589 0 
z
" transform="scale(0.015625)"/>
      <path id="NotoSansCJKjp-Regular-65" d="M 1997 -83 
C 2464 -83 2835 70 3136 269 
L 2931 659 
C 2669 486 2400 384 2061 384 
C 1402 384 947 858 909 1600 
L 3251 1600 
C 3264 1690 3277 1805 3277 1933 
C 3277 2925 2778 3565 1888 3565 
C 1094 3565 333 2867 333 1734 
C 333 589 1069 -83 1997 -83 
z
M 902 2016 
C 973 2707 1408 3098 1901 3098 
C 2445 3098 2765 2720 2765 2016 
L 902 2016 
z
" transform="scale(0.015625)"/>
      <path id="NotoSansCJKjp-Regular-6e" d="M 589 0 
L 1178 0 
L 1178 2522 
C 1523 2874 1766 3053 2125 3053 
C 2586 3053 2784 2778 2784 2125 
L 2784 0 
L 3366 0 
L 3366 2202 
C 3366 3085 3034 3565 2304 3565 
C 1830 3565 1466 3302 1139 2970 
L 1126 2970 
L 1069 3475 
L 589 3475 
L 589 0 
z
" transform="scale(0.015625)"/>
      <path id="NotoSansCJKjp-Regular-6c" d="M 1203 -83 
C 1363 -83 1459 -58 1542 -32 
L 1459 416 
C 1395 403 1370 403 1338 403 
C 1248 403 1178 474 1178 653 
L 1178 5094 
L 589 5094 
L 589 691 
C 589 198 768 -83 1203 -83 
z
" transform="scale(0.015625)"/>
      <path id="NotoSansCJKjp-Regular-52a0" d="M 3661 4582 
L 3661 -416 
L 4122 -416 
L 4122 58 
L 5363 58 
L 5363 -365 
L 5843 -365 
L 5843 4582 
L 3661 4582 
z
M 4122 518 
L 4122 4115 
L 5363 4115 
L 5363 518 
L 4122 518 
z
M 1248 5293 
L 1242 4160 
L 339 4160 
L 339 3693 
L 1229 3693 
C 1184 2080 986 659 179 -186 
C 301 -262 474 -410 550 -518 
C 1414 422 1638 1958 1696 3693 
L 2669 3693 
C 2618 1229 2560 352 2426 166 
C 2368 83 2304 58 2208 64 
C 2093 64 1818 64 1517 90 
C 1600 -45 1645 -250 1658 -390 
C 1946 -410 2240 -416 2419 -390 
C 2605 -365 2726 -307 2842 -141 
C 3040 134 3085 1069 3136 3917 
C 3136 3987 3136 4160 3136 4160 
L 1709 4160 
L 1722 5293 
L 1248 5293 
z
" transform="scale(0.015625)"/>
      <path id="NotoSansCJKjp-Regular-8f7d" d="M 4710 5018 
C 5005 4768 5344 4416 5491 4179 
L 5856 4435 
C 5696 4672 5350 5011 5056 5242 
L 4710 5018 
z
M 5370 3206 
C 5203 2598 4966 2010 4666 1478 
C 4544 2042 4461 2739 4410 3539 
L 6086 3539 
L 6086 3930 
L 4390 3930 
C 4371 4384 4365 4864 4371 5370 
L 3898 5370 
C 3898 4877 3910 4390 3930 3930 
L 2355 3930 
L 2355 4480 
L 3488 4480 
L 3488 4864 
L 2355 4864 
L 2355 5382 
L 1894 5382 
L 1894 4864 
L 672 4864 
L 672 4480 
L 1894 4480 
L 1894 3930 
L 346 3930 
L 346 3539 
L 3949 3539 
C 4013 2522 4134 1619 4326 928 
C 4013 480 3654 96 3245 -198 
C 3360 -282 3501 -422 3584 -525 
C 3923 -262 4230 58 4506 410 
C 4742 -141 5062 -461 5478 -461 
C 5926 -461 6086 -166 6163 794 
C 6048 838 5882 934 5786 1043 
C 5747 294 5683 6 5523 6 
C 5248 6 5011 320 4832 870 
C 5248 1530 5568 2285 5798 3078 
L 5370 3206 
z
M 416 589 
L 467 141 
L 2131 314 
L 2131 -486 
L 2579 -486 
L 2579 358 
L 3744 480 
L 3744 877 
L 2579 768 
L 2579 1370 
L 3597 1370 
L 3597 1786 
L 2579 1786 
L 2579 2304 
L 2131 2304 
L 2131 1786 
L 1242 1786 
C 1382 1997 1517 2240 1651 2502 
L 3731 2502 
L 3731 2899 
L 1843 2899 
C 1920 3066 1990 3232 2054 3398 
L 1581 3526 
C 1517 3315 1434 3098 1350 2899 
L 442 2899 
L 442 2502 
L 1171 2502 
C 1062 2285 973 2118 922 2042 
C 819 1869 723 1741 627 1722 
C 685 1600 749 1376 774 1280 
C 832 1331 1024 1370 1293 1370 
L 2131 1370 
L 2131 730 
L 416 589 
z
" transform="scale(0.015625)"/>
     </defs>
     <use xlink:href="#NotoSansCJKjp-Regular-2d"/>
     <use xlink:href="#NotoSansCJKjp-Regular-6b" transform="translate(34.699997 0)"/>
     <use xlink:href="#NotoSansCJKjp-Regular-65" transform="translate(89.899994 0)"/>
     <use xlink:href="#NotoSansCJKjp-Regular-72" transform="translate(145.299988 0)"/>
     <use xlink:href="#NotoSansCJKjp-Regular-6e" transform="translate(184.099976 0)"/>
     <use xlink:href="#NotoSansCJKjp-Regular-65" transform="translate(245.09996 0)"/>
     <use xlink:href="#NotoSansCJKjp-Regular-6c" transform="translate(300.499954 0)"/>
     <use xlink:href="#NotoSansCJKjp-Regular-20" transform="translate(328.899948 0)"/>
     <use xlink:href="#NotoSansCJKjp-Regular-52a0" transform="translate(351.299942 0)"/>
     <use xlink:href="#NotoSansCJKjp-Regular-8f7d" transform="translate(451.299927 0)"/>
    </g>
   </g>
   <g id="text_3">
    <!-- 内核镜像 -->
    <g style="fill: #111827" transform="translate(178.48 179.213069) scale(0.13 -0.13)">
     <defs>
      <path id="NotoSansCJKjp-Regular-5185" d="M 634 4282 
L 634 -525 
L 1107 -525 
L 1107 3808 
L 2957 3808 
C 2925 2963 2688 1907 1274 1146 
C 1389 1062 1549 883 1619 781 
C 2483 1286 2944 1894 3187 2509 
C 3776 1965 4422 1299 4749 864 
L 5146 1178 
C 4749 1658 3968 2406 3334 2970 
C 3398 3258 3430 3539 3443 3808 
L 5306 3808 
L 5306 128 
C 5306 13 5274 -26 5146 -32 
C 5018 -32 4582 -38 4128 -19 
C 4198 -154 4275 -371 4294 -506 
C 4870 -506 5267 -506 5491 -429 
C 5709 -346 5779 -192 5779 122 
L 5779 4282 
L 3450 4282 
L 3450 5376 
L 2963 5376 
L 2963 4282 
L 634 4282 
z
" transform="scale(0.015625)"/>
      <path id="NotoSansCJKjp-Regular-6838" d="M 5114 3488 
C 4858 3053 4512 2643 4096 2272 
C 3942 2419 3744 2592 3526 2765 
C 3821 3091 4179 3558 4467 3949 
L 4442 3962 
L 6125 3962 
L 6125 4403 
L 4570 4403 
L 4570 5363 
L 4102 5363 
L 4102 4403 
L 2496 4403 
L 2496 3962 
L 3878 3962 
C 3686 3648 3430 3290 3206 3008 
L 2874 3245 
L 2592 2925 
C 2976 2656 3437 2272 3738 1971 
C 3341 1670 2906 1408 2458 1216 
C 2566 1126 2701 973 2765 864 
C 3898 1402 4922 2298 5530 3315 
L 5114 3488 
z
M 5651 2317 
C 4992 1203 3757 339 2285 -115 
C 2400 -224 2515 -390 2579 -506 
C 3373 -237 4096 141 4704 608 
C 5120 230 5568 -230 5805 -531 
L 6195 -237 
C 5939 70 5466 525 5043 890 
C 5459 1261 5805 1670 6080 2131 
L 5651 2317 
z
M 1274 5376 
L 1274 4006 
L 333 4006 
L 333 3552 
L 1222 3552 
C 1024 2675 614 1664 205 1120 
C 288 1011 403 826 454 698 
C 762 1114 1050 1798 1274 2502 
L 1274 -506 
L 1722 -506 
L 1722 2496 
C 1933 2157 2182 1741 2291 1517 
L 2560 1888 
C 2445 2074 1907 2842 1722 3066 
L 1722 3552 
L 2483 3552 
L 2483 4006 
L 1722 4006 
L 1722 5376 
L 1274 5376 
z
" transform="scale(0.015625)"/>
      <path id="NotoSansCJKjp-Regular-955c" d="M 3398 1939 
L 5363 1939 
L 5363 1504 
L 3398 1504 
L 3398 1939 
z
M 3398 2675 
L 5363 2675 
L 5363 2253 
L 3398 2253 
L 3398 2675 
z
M 4026 5318 
L 4198 4909 
L 2854 4909 
L 2854 4512 
L 5933 4512 
L 5933 4909 
L 4685 4909 
C 4621 5069 4531 5261 4454 5414 
L 4026 5318 
z
M 5011 4454 
C 4954 4256 4845 3968 4742 3757 
L 3654 3757 
L 3994 3840 
C 3955 4013 3859 4275 3757 4467 
L 3366 4378 
C 3456 4186 3539 3930 3571 3757 
L 2662 3757 
L 2662 3347 
L 6080 3347 
L 6080 3757 
L 5178 3757 
L 5459 4352 
L 5011 4454 
z
M 2963 3008 
L 2963 1171 
L 3584 1171 
C 3520 384 3270 51 2253 -160 
C 2349 -243 2470 -422 2515 -531 
C 3661 -256 3962 205 4038 1171 
L 4602 1171 
L 4602 83 
C 4602 -320 4704 -435 5133 -435 
C 5222 -435 5587 -435 5683 -435 
C 6035 -435 6144 -262 6182 442 
C 6067 474 5888 525 5798 595 
C 5786 13 5754 -64 5626 -64 
C 5549 -64 5261 -64 5203 -64 
C 5075 -64 5050 -45 5050 90 
L 5050 1171 
L 5811 1171 
L 5811 3008 
L 2963 3008 
z
M 1120 5357 
C 928 4762 602 4186 224 3808 
C 307 3706 435 3469 474 3366 
C 691 3597 902 3891 1088 4211 
L 2438 4211 
L 2438 4646 
L 1312 4646 
C 1402 4838 1478 5037 1549 5235 
L 1120 5357 
z
M 371 2202 
L 371 1760 
L 1235 1760 
L 1235 550 
C 1235 262 1011 51 890 -26 
C 973 -128 1101 -339 1152 -454 
C 1248 -333 1427 -218 2566 493 
C 2528 589 2477 774 2458 902 
L 1690 454 
L 1690 1760 
L 2522 1760 
L 2522 2202 
L 1690 2202 
L 1690 3066 
L 2342 3066 
L 2342 3501 
L 659 3501 
L 659 3066 
L 1235 3066 
L 1235 2202 
L 371 2202 
z
" transform="scale(0.015625)"/>
      <path id="NotoSansCJKjp-Regular-50cf" d="M 3034 4589 
L 4282 4589 
C 4179 4422 4058 4250 3936 4115 
L 2643 4115 
C 2784 4269 2912 4429 3034 4589 
z
M 5754 2490 
C 5530 2272 5178 1984 4877 1766 
C 4749 2054 4646 2362 4563 2682 
L 5901 2682 
L 5901 4115 
L 4461 4115 
C 4627 4326 4800 4563 4928 4787 
L 4634 4992 
L 4544 4966 
L 3290 4966 
L 3482 5286 
L 3014 5370 
C 2758 4864 2278 4237 1613 3776 
C 1728 3718 1888 3597 1971 3494 
L 2157 3648 
L 2157 2682 
L 3366 2682 
C 2906 2394 2304 2144 1760 1984 
C 1850 1907 1984 1741 2042 1651 
C 2432 1792 2861 1984 3258 2208 
C 3366 2118 3456 2022 3539 1926 
C 3098 1587 2374 1242 1818 1075 
C 1907 992 2010 845 2067 749 
C 2605 954 3270 1306 3738 1651 
C 3814 1523 3878 1395 3930 1267 
C 3405 768 2458 243 1696 6 
C 1798 -83 1907 -237 1965 -346 
C 2650 -90 3462 378 4032 851 
C 4090 454 4006 122 3827 -6 
C 3718 -102 3597 -115 3437 -115 
C 3315 -115 3123 -109 2918 -83 
C 2989 -205 3027 -390 3034 -499 
C 3213 -512 3398 -518 3533 -518 
C 3789 -512 3962 -474 4147 -314 
C 4672 77 4659 1504 3590 2400 
C 3725 2490 3859 2586 3981 2682 
L 4147 2682 
C 4454 1402 5018 314 5869 -237 
C 5946 -115 6086 58 6195 147 
C 5722 416 5331 870 5037 1427 
C 5370 1632 5779 1933 6093 2202 
L 5754 2490 
z
M 2598 3763 
L 3776 3763 
L 3776 3034 
L 2598 3034 
L 2598 3763 
z
M 4211 3763 
L 5440 3763 
L 5440 3034 
L 4211 3034 
L 4211 3763 
z
M 1491 5344 
C 1184 4352 672 3366 115 2726 
C 198 2605 320 2355 365 2240 
C 576 2490 781 2778 973 3098 
L 973 -512 
L 1434 -512 
L 1434 3962 
C 1626 4365 1798 4794 1933 5222 
L 1491 5344 
z
" transform="scale(0.015625)"/>
     </defs>
     <use xlink:href="#NotoSansCJKjp-Regular-5185"/>
     <use xlink:href="#NotoSansCJKjp-Regular-6838" transform="translate(99.999985 0)"/>
     <use xlink:href="#NotoSansCJKjp-Regular-955c" transform="translate(199.999969 0)"/>
     <use xlink:href="#NotoSansCJKjp-Regular-50cf" transform="translate(299.999954 0)"/>
    </g>
    <!-- 0x80000000 -->
    <g style="fill: #111827" transform="translate(168.775703 194.607506) scale(0.13 -0.13)">
     <defs>
      <path id="NotoSansCJKjp-Regular-30" d="M 1779 -83 
C 2669 -83 3238 723 3238 2362 
C 3238 3987 2669 4774 1779 4774 
C 883 4774 320 3987 320 2362 
C 320 723 883 -83 1779 -83 
z
M 1779 390 
C 1248 390 883 986 883 2362 
C 883 3731 1248 4314 1779 4314 
C 2310 4314 2675 3731 2675 2362 
C 2675 986 2310 390 1779 390 
z
" transform="scale(0.015625)"/>
      <path id="NotoSansCJKjp-Regular-78" d="M 96 0 
L 710 0 
L 1178 813 
C 1299 1024 1408 1235 1530 1434 
L 1562 1434 
C 1696 1235 1824 1024 1939 813 
L 2451 0 
L 3091 0 
L 1946 1754 
L 3002 3475 
L 2394 3475 
L 1965 2714 
C 1856 2515 1760 2330 1658 2131 
L 1626 2131 
C 1510 2330 1389 2515 1286 2714 
L 819 3475 
L 186 3475 
L 1242 1811 
L 96 0 
z
" transform="scale(0.015625)"/>
      <path id="NotoSansCJKjp-Regular-38" d="M 1792 -83 
C 2669 -83 3258 448 3258 1126 
C 3258 1773 2880 2125 2470 2362 
L 2470 2394 
C 2746 2611 3091 3034 3091 3526 
C 3091 4250 2605 4762 1805 4762 
C 1075 4762 518 4282 518 3571 
C 518 3078 813 2726 1152 2490 
L 1152 2464 
C 723 2234 294 1792 294 1165 
C 294 442 922 -83 1792 -83 
z
M 2112 2547 
C 1555 2765 1050 3014 1050 3571 
C 1050 4026 1363 4326 1798 4326 
C 2298 4326 2592 3962 2592 3494 
C 2592 3149 2426 2829 2112 2547 
z
M 1798 352 
C 1235 352 813 717 813 1216 
C 813 1664 1082 2035 1459 2278 
C 2125 2010 2701 1779 2701 1146 
C 2701 678 2342 352 1798 352 
z
" transform="scale(0.015625)"/>
     </defs>
     <use xlink:href="#NotoSansCJKjp-Regular-30"/>
     <use xlink:href="#NotoSansCJKjp-Regular-78" transform="translate(55.499985 0)"/>
     <use xlink:href="#NotoSansCJKjp-Regular-38" transform="translate(105.299973 0)"/>
     <use xlink:href="#NotoSansCJKjp-Regular-30" transform="translate(160.799957 0)"/>
     <use xlink:href="#NotoSansCJKjp-Regular-30" transform="translate(216.299942 0)"/>
     <use xlink:href="#NotoSansCJKjp-Regular-30" transform="translate(271.799927 0)"/>
     <use xlink:href="#NotoSansCJKjp-Regular-30" transform="translate(327.299911 0)"/>
     <use xlink:href="#NotoSansCJKjp-Regular-30" transform="translate(382.799896 0)"/>
     <use xlink:href="#NotoSansCJKjp-Regular-30" transform="translate(438.299881 0)"/>
     <use xlink:href="#NotoSansCJKjp-Regular-30" transform="translate(493.799866 0)"/>
    </g>
   </g>
   <g id="text_4">
    <!-- _entry -->
    <g style="fill: #111827" transform="translate(300.985094 179.115569) scale(0.13 -0.13)">
     <defs>
      <path id="NotoSansCJKjp-Regular-5f" d="M 83 -896 
L 3488 -896 
L 3488 -512 
L 83 -512 
L 83 -896 
z
" transform="scale(0.015625)"/>
      <path id="NotoSansCJKjp-Regular-79" d="M 646 -1498 
C 1338 -1498 1702 -973 1946 -294 
L 3251 3475 
L 2682 3475 
L 2054 1549 
C 1965 1235 1862 883 1773 563 
L 1741 563 
C 1619 890 1504 1242 1395 1549 
L 691 3475 
L 83 3475 
L 1478 -6 
L 1402 -269 
C 1254 -698 1011 -1018 621 -1018 
C 525 -1018 422 -986 352 -960 
L 237 -1427 
C 346 -1472 486 -1498 646 -1498 
z
" transform="scale(0.015625)"/>
     </defs>
     <use xlink:href="#NotoSansCJKjp-Regular-5f"/>
     <use xlink:href="#NotoSansCJKjp-Regular-65" transform="translate(55.899994 0)"/>
     <use xlink:href="#NotoSansCJKjp-Regular-6e" transform="translate(111.299988 0)"/>
     <use xlink:href="#NotoSansCJKjp-Regular-74" transform="translate(172.299973 0)"/>
     <use xlink:href="#NotoSansCJKjp-Regular-72" transform="translate(209.999969 0)"/>
     <use xlink:href="#NotoSansCJKjp-Regular-79" transform="translate(248.799957 0)"/>
    </g>
    <!-- kernel/entry.S -->
    <g style="fill: #111827" transform="translate(277.266188 194.575006) scale(0.13 -0.13)">
     <defs>
      <path id="NotoSansCJKjp-Regular-2f" d="M 70 -1146 
L 499 -1146 
L 2413 5082 
L 1990 5082 
L 70 -1146 
z
" transform="scale(0.015625)"/>
      <path id="NotoSansCJKjp-Regular-2e" d="M 890 -83 
C 1120 -83 1312 96 1312 358 
C 1312 627 1120 806 890 806 
C 653 806 467 627 467 358 
C 467 96 653 -83 890 -83 
z
" transform="scale(0.015625)"/>
      <path id="NotoSansCJKjp-Regular-53" d="M 1946 -83 
C 2925 -83 3539 506 3539 1248 
C 3539 1946 3117 2266 2573 2502 
L 1907 2790 
C 1542 2944 1126 3117 1126 3578 
C 1126 3994 1472 4256 2003 4256 
C 2438 4256 2784 4090 3072 3821 
L 3379 4198 
C 3053 4538 2560 4774 2003 4774 
C 1152 4774 525 4256 525 3533 
C 525 2848 1043 2515 1478 2330 
L 2150 2035 
C 2598 1837 2938 1683 2938 1197 
C 2938 742 2573 435 1952 435 
C 1466 435 992 666 659 1018 
L 307 608 
C 710 186 1280 -83 1946 -83 
z
" transform="scale(0.015625)"/>
     </defs>
     <use xlink:href="#NotoSansCJKjp-Regular-6b"/>
     <use xlink:href="#NotoSansCJKjp-Regular-65" transform="translate(55.199997 0)"/>
     <use xlink:href="#NotoSansCJKjp-Regular-72" transform="translate(110.599991 0)"/>
     <use xlink:href="#NotoSansCJKjp-Regular-6e" transform="translate(149.399979 0)"/>
     <use xlink:href="#NotoSansCJKjp-Regular-65" transform="translate(210.399963 0)"/>
     <use xlink:href="#NotoSansCJKjp-Regular-6c" transform="translate(265.799957 0)"/>
     <use xlink:href="#NotoSansCJKjp-Regular-2f" transform="translate(294.199951 0)"/>
     <use xlink:href="#NotoSansCJKjp-Regular-65" transform="translate(333.399948 0)"/>
     <use xlink:href="#NotoSansCJKjp-Regular-6e" transform="translate(388.799942 0)"/>
     <use xlink:href="#NotoSansCJKjp-Regular-74" transform="translate(449.799927 0)"/>
     <use xlink:href="#NotoSansCJKjp-Regular-72" transform="translate(487.499924 0)"/>
     <use xlink:href="#NotoSansCJKjp-Regular-79" transform="translate(526.299911 0)"/>
     <use xlink:href="#NotoSansCJKjp-Regular-2e" transform="translate(578.399902 0)"/>
     <use xlink:href="#NotoSansCJKjp-Regular-53" transform="translate(606.19989 0)"/>
    </g>
   </g>
   <g id="text_5">
    <!-- start() -->
    <g style="fill: #111827" transform="translate(418.090109 179.213069) scale(0.13 -0.13)">
     <defs>
      <path id="NotoSansCJKjp-Regular-73" d="M 1498 -83 
C 2317 -83 2758 384 2758 947 
C 2758 1606 2208 1811 1702 2003 
C 1312 2150 954 2278 954 2605 
C 954 2880 1158 3110 1600 3110 
C 1907 3110 2150 2976 2387 2803 
L 2669 3168 
C 2406 3386 2022 3565 1594 3565 
C 832 3565 397 3130 397 2579 
C 397 1984 922 1754 1408 1574 
C 1792 1434 2202 1267 2202 915 
C 2202 614 1978 371 1517 371 
C 1101 371 794 538 486 787 
L 205 397 
C 531 122 1005 -83 1498 -83 
z
" transform="scale(0.015625)"/>
      <path id="NotoSansCJKjp-Regular-61" d="M 1389 -83 
C 1818 -83 2208 141 2541 416 
L 2560 416 
L 2611 0 
L 3091 0 
L 3091 2138 
C 3091 3002 2739 3565 1888 3565 
C 1325 3565 838 3315 525 3110 
L 749 2707 
C 1024 2893 1389 3078 1792 3078 
C 2362 3078 2509 2650 2509 2202 
C 1030 2035 378 1658 378 902 
C 378 275 806 -83 1389 -83 
z
M 1555 390 
C 1210 390 941 544 941 941 
C 941 1389 1338 1677 2509 1811 
L 2509 845 
C 2170 544 1888 390 1555 390 
z
" transform="scale(0.015625)"/>
      <path id="NotoSansCJKjp-Regular-28" d="M 1530 -1254 
L 1888 -1094 
C 1338 -186 1075 902 1075 1990 
C 1075 3072 1338 4154 1888 5069 
L 1530 5235 
C 941 4275 589 3245 589 1990 
C 589 730 941 -301 1530 -1254 
z
" transform="scale(0.015625)"/>
      <path id="NotoSansCJKjp-Regular-29" d="M 634 -1254 
C 1222 -301 1574 730 1574 1990 
C 1574 3245 1222 4275 634 5235 
L 269 5069 
C 819 4154 1094 3072 1094 1990 
C 1094 902 819 -186 269 -1094 
L 634 -1254 
z
" transform="scale(0.015625)"/>
     </defs>
     <use xlink:href="#NotoSansCJKjp-Regular-73"/>
     <use xlink:href="#NotoSansCJKjp-Regular-74" transform="translate(46.799988 0)"/>
     <use xlink:href="#NotoSansCJKjp-Regular-61" transform="translate(84.499985 0)"/>
     <use xlink:href="#NotoSansCJKjp-Regular-72" transform="translate(140.799973 0)"/>
     <use xlink:href="#NotoSansCJKjp-Regular-74" transform="translate(179.59996 0)"/>
     <use xlink:href="#NotoSansCJKjp-Regular-28" transform="translate(217.299957 0)"/>
     <use xlink:href="#NotoSansCJKjp-Regular-29" transform="translate(251.099945 0)"/>
    </g>
    <!-- M 态初始化 -->
    <g style="fill: #111827" transform="translate(403.873391 194.607506) scale(0.13 -0.13)">
     <defs>
      <path id="NotoSansCJKjp-Regular-6001" d="M 2438 2618 
C 2816 2400 3270 2067 3475 1830 
L 3904 2106 
C 3667 2349 3219 2669 2842 2874 
L 2438 2618 
z
M 1728 1542 
L 1728 288 
C 1728 -237 1920 -371 2662 -371 
C 2822 -371 3994 -371 4160 -371 
C 4774 -371 4928 -173 4992 634 
C 4858 666 4659 736 4557 819 
C 4518 160 4467 64 4128 64 
C 3866 64 2880 64 2688 64 
C 2272 64 2202 102 2202 288 
L 2202 1542 
L 1728 1542 
z
M 2624 1696 
C 2989 1357 3437 883 3635 576 
L 4032 838 
C 3814 1139 3360 1594 2989 1914 
L 2624 1696 
z
M 4800 1504 
C 5120 960 5446 230 5555 -224 
L 6016 -58 
C 5894 397 5555 1107 5222 1638 
L 4800 1504 
z
M 986 1542 
C 864 1030 640 378 346 -38 
L 781 -256 
C 1062 179 1274 870 1414 1402 
L 986 1542 
z
M 2982 5402 
C 2950 5088 2912 4774 2842 4474 
L 358 4474 
L 358 4026 
L 2714 4026 
C 2413 3194 1779 2502 288 2131 
C 390 2022 512 1837 563 1722 
C 2221 2170 2906 3014 3226 4026 
C 3706 2874 4544 2099 5805 1754 
C 5875 1888 6016 2086 6131 2195 
C 4979 2458 4166 3104 3725 4026 
L 6067 4026 
L 6067 4474 
L 3341 4474 
C 3405 4774 3450 5082 3482 5402 
L 2982 5402 
z
" transform="scale(0.015625)"/>
      <path id="NotoSansCJKjp-Regular-521d" d="M 2650 4787 
L 2650 4333 
L 3738 4333 
C 3706 2656 3590 781 2176 -160 
C 2304 -243 2464 -397 2547 -518 
C 4026 531 4173 2509 4224 4333 
L 5523 4333 
C 5459 1421 5376 358 5178 128 
C 5114 45 5050 19 4928 19 
C 4787 19 4448 19 4064 58 
C 4154 -90 4211 -301 4218 -442 
C 4563 -461 4915 -467 5133 -442 
C 5350 -416 5491 -352 5626 -154 
C 5869 166 5939 1248 6010 4518 
C 6016 4589 6016 4787 6016 4787 
L 2650 4787 
z
M 2541 2995 
C 2432 2803 2221 2515 2054 2310 
L 1818 2541 
C 2157 3008 2445 3520 2650 4038 
L 2381 4224 
L 2291 4198 
L 1754 4198 
L 1754 5376 
L 1280 5376 
L 1280 4198 
L 346 4198 
L 346 3763 
L 2054 3763 
C 1632 2880 877 1997 166 1504 
C 250 1421 384 1197 435 1082 
C 717 1293 1005 1568 1280 1875 
L 1280 -512 
L 1754 -512 
L 1754 2099 
C 2016 1798 2336 1408 2477 1203 
L 2771 1568 
L 2278 2080 
C 2451 2266 2656 2509 2861 2739 
L 2541 2995 
z
" transform="scale(0.015625)"/>
      <path id="NotoSansCJKjp-Regular-59cb" d="M 3136 2086 
L 3136 -518 
L 3597 -518 
L 3597 -230 
L 5389 -230 
L 5389 -493 
L 5869 -493 
L 5869 2086 
L 3136 2086 
z
M 3597 211 
L 3597 1645 
L 5389 1645 
L 5389 211 
L 3597 211 
z
M 3942 5382 
C 3782 4723 3482 3808 3213 3181 
L 2694 3155 
L 2752 2682 
L 5632 2893 
C 5709 2726 5779 2573 5824 2438 
L 6240 2669 
C 6074 3136 5632 3853 5203 4384 
L 4819 4192 
C 5018 3923 5222 3616 5402 3315 
L 3686 3206 
C 3955 3808 4250 4608 4474 5267 
L 3942 5382 
z
M 1254 5382 
C 1178 4979 1082 4518 979 4051 
L 282 4051 
L 282 3603 
L 883 3603 
C 698 2803 499 2016 339 1466 
L 742 1254 
L 819 1536 
C 1043 1395 1267 1235 1485 1075 
C 1178 512 787 109 314 -141 
C 416 -237 550 -416 614 -531 
C 1120 -224 1536 198 1862 774 
C 2131 544 2368 320 2528 122 
L 2816 506 
C 2643 717 2374 960 2067 1197 
C 2381 1920 2579 2835 2662 4006 
L 2374 4070 
L 2291 4051 
L 1434 4051 
C 1536 4499 1632 4934 1709 5325 
L 1254 5382 
z
M 1331 3603 
L 2176 3603 
C 2093 2765 1926 2061 1683 1485 
C 1434 1658 1178 1818 928 1958 
C 1062 2464 1197 3034 1331 3603 
z
" transform="scale(0.015625)"/>
      <path id="NotoSansCJKjp-Regular-5316" d="M 5517 4160 
C 5050 3725 4314 3232 3597 2829 
L 3597 5222 
L 3110 5222 
L 3110 480 
C 3110 -230 3315 -416 3987 -416 
C 4134 -416 5146 -416 5306 -416 
C 5978 -416 6112 -51 6189 998 
C 6048 1024 5856 1114 5734 1203 
C 5690 269 5638 32 5280 32 
C 5069 32 4192 32 4026 32 
C 3667 32 3597 109 3597 467 
L 3597 2342 
C 4390 2758 5254 3251 5862 3750 
L 5517 4160 
z
M 2003 5280 
C 1581 4262 870 3290 134 2675 
C 224 2560 371 2310 422 2189 
C 710 2451 998 2758 1267 3104 
L 1267 -499 
L 1747 -499 
L 1747 3776 
C 2022 4205 2272 4659 2470 5120 
L 2003 5280 
z
" transform="scale(0.015625)"/>
     </defs>
     <use xlink:href="#NotoSansCJKjp-Regular-4d"/>
     <use xlink:href="#NotoSansCJKjp-Regular-20" transform="translate(81.199982 0)"/>
     <use xlink:href="#NotoSansCJKjp-Regular-6001" transform="translate(103.599976 0)"/>
     <use xlink:href="#NotoSansCJKjp-Regular-521d" transform="translate(203.59996 0)"/>
     <use xlink:href="#NotoSansCJKjp-Regular-59cb" transform="translate(303.599945 0)"/>
     <use xlink:href="#NotoSansCJKjp-Regular-5316" transform="translate(403.59993 0)"/>
    </g>
   </g>
   <g id="text_6">
    <!-- main() -->
    <g style="fill: #111827" transform="translate(541.776016 179.213069) scale(0.13 -0.13)">
     <defs>
      <path id="NotoSansCJKjp-Regular-6d" d="M 589 0 
L 1178 0 
L 1178 2522 
C 1491 2880 1786 3053 2048 3053 
C 2490 3053 2694 2778 2694 2125 
L 2694 0 
L 3277 0 
L 3277 2522 
C 3603 2880 3885 3053 4154 3053 
C 4595 3053 4800 2778 4800 2125 
L 4800 0 
L 5382 0 
L 5382 2202 
C 5382 3085 5043 3565 4333 3565 
C 3904 3565 3546 3290 3181 2899 
C 3040 3309 2758 3565 2221 3565 
C 1805 3565 1446 3302 1139 2970 
L 1126 2970 
L 1069 3475 
L 589 3475 
L 589 0 
z
" transform="scale(0.015625)"/>
     </defs>
     <use xlink:href="#NotoSansCJKjp-Regular-6d"/>
     <use xlink:href="#NotoSansCJKjp-Regular-61" transform="translate(92.599991 0)"/>
     <use xlink:href="#NotoSansCJKjp-Regular-69" transform="translate(148.899979 0)"/>
     <use xlink:href="#NotoSansCJKjp-Regular-6e" transform="translate(176.399963 0)"/>
     <use xlink:href="#NotoSansCJKjp-Regular-28" transform="translate(237.399948 0)"/>
     <use xlink:href="#NotoSansCJKjp-Regular-29" transform="translate(271.199936 0)"/>
    </g>
    <!-- 内核主初始化 -->
    <g style="fill: #111827" transform="translate(522.6 194.607506) scale(0.13 -0.13)">
     <defs>
      <path id="NotoSansCJKjp-Regular-4e3b" d="M 2394 5088 
C 2784 4800 3232 4390 3488 4096 
L 659 4096 
L 659 3629 
L 2938 3629 
L 2938 2221 
L 954 2221 
L 954 1754 
L 2938 1754 
L 2938 173 
L 358 173 
L 358 -294 
L 6067 -294 
L 6067 173 
L 3456 173 
L 3456 1754 
L 5478 1754 
L 5478 2221 
L 3456 2221 
L 3456 3629 
L 5741 3629 
L 5741 4096 
L 3661 4096 
L 3968 4320 
C 3712 4621 3194 5056 2784 5350 
L 2394 5088 
z
" transform="scale(0.015625)"/>
     </defs>
     <use xlink:href="#NotoSansCJKjp-Regular-5185"/>
     <use xlink:href="#NotoSansCJKjp-Regular-6838" transform="translate(99.999985 0)"/>
     <use xlink:href="#NotoSansCJKjp-Regular-4e3b" transform="translate(199.999969 0)"/>
     <use xlink:href="#NotoSansCJKjp-Regular-521d" transform="translate(299.999954 0)"/>
     <use xlink:href="#NotoSansCJKjp-Regular-59cb" transform="translate(399.999939 0)"/>
     <use xlink:href="#NotoSansCJKjp-Regular-5316" transform="translate(499.999924 0)"/>
    </g>
   </g>
   <g id="text_7">
    <!-- userinit() / init -->
    <g style="fill: #111827" transform="translate(643.645281 186.910287) scale(0.13 -0.13)">
     <defs>
      <path id="NotoSansCJKjp-Regular-75" d="M 1606 -83 
C 2080 -83 2426 166 2752 544 
L 2771 544 
L 2816 0 
L 3302 0 
L 3302 3475 
L 2720 3475 
L 2720 1011 
C 2387 602 2138 422 1779 422 
C 1318 422 1126 698 1126 1344 
L 1126 3475 
L 538 3475 
L 538 1274 
C 538 384 870 -83 1606 -83 
z
" transform="scale(0.015625)"/>
     </defs>
     <use xlink:href="#NotoSansCJKjp-Regular-75"/>
     <use xlink:href="#NotoSansCJKjp-Regular-73" transform="translate(60.699997 0)"/>
     <use xlink:href="#NotoSansCJKjp-Regular-65" transform="translate(107.499985 0)"/>
     <use xlink:href="#NotoSansCJKjp-Regular-72" transform="translate(162.899979 0)"/>
     <use xlink:href="#NotoSansCJKjp-Regular-69" transform="translate(201.699966 0)"/>
     <use xlink:href="#NotoSansCJKjp-Regular-6e" transform="translate(229.199951 0)"/>
     <use xlink:href="#NotoSansCJKjp-Regular-69" transform="translate(290.199936 0)"/>
     <use xlink:href="#NotoSansCJKjp-Regular-74" transform="translate(317.699921 0)"/>
     <use xlink:href="#NotoSansCJKjp-Regular-28" transform="translate(355.399918 0)"/>
     <use xlink:href="#NotoSansCJKjp-Regular-29" transform="translate(389.199905 0)"/>
     <use xlink:href="#NotoSansCJKjp-Regular-20" transform="translate(422.999893 0)"/>
     <use xlink:href="#NotoSansCJKjp-Regular-2f" transform="translate(445.399887 0)"/>
     <use xlink:href="#NotoSansCJKjp-Regular-20" transform="translate(484.599884 0)"/>
     <use xlink:href="#NotoSansCJKjp-Regular-69" transform="translate(506.999878 0)"/>
     <use xlink:href="#NotoSansCJKjp-Regular-6e" transform="translate(534.499863 0)"/>
     <use xlink:href="#NotoSansCJKjp-Regular-69" transform="translate(595.499847 0)"/>
     <use xlink:href="#NotoSansCJKjp-Regular-74" transform="translate(622.999832 0)"/>
    </g>
   </g>
   <g id="text_8">
    <!-- sh shell -->
    <g style="fill: #111827" transform="translate(779.930375 186.910287) scale(0.13 -0.13)">
     <defs>
      <path id="NotoSansCJKjp-Regular-68" d="M 589 0 
L 1178 0 
L 1178 2522 
C 1523 2874 1766 3053 2125 3053 
C 2586 3053 2784 2778 2784 2125 
L 2784 0 
L 3366 0 
L 3366 2202 
C 3366 3085 3034 3565 2304 3565 
C 1830 3565 1472 3302 1152 2982 
L 1178 3699 
L 1178 5094 
L 589 5094 
L 589 0 
z
" transform="scale(0.015625)"/>
     </defs>
     <use xlink:href="#NotoSansCJKjp-Regular-73"/>
     <use xlink:href="#NotoSansCJKjp-Regular-68" transform="translate(46.799988 0)"/>
     <use xlink:href="#NotoSansCJKjp-Regular-20" transform="translate(107.499985 0)"/>
     <use xlink:href="#NotoSansCJKjp-Regular-73" transform="translate(129.899979 0)"/>
     <use xlink:href="#NotoSansCJKjp-Regular-68" transform="translate(176.699966 0)"/>
     <use xlink:href="#NotoSansCJKjp-Regular-65" transform="translate(237.399963 0)"/>
     <use xlink:href="#NotoSansCJKjp-Regular-6c" transform="translate(292.799957 0)"/>
     <use xlink:href="#NotoSansCJKjp-Regular-6c" transform="translate(321.199951 0)"/>
    </g>
   </g>
   <g id="text_9">
    <!-- 早期栈准备 -->
    <g style="fill: #111827" transform="translate(292.508 328.901069) scale(0.13 -0.13)">
     <defs>
      <path id="NotoSansCJKjp-Regular-65e9" d="M 1446 3552 
L 4909 3552 
L 4909 2854 
L 1446 2854 
L 1446 3552 
z
M 1446 4646 
L 4909 4646 
L 4909 3962 
L 1446 3962 
L 1446 4646 
z
M 301 1472 
L 301 1005 
L 2931 1005 
L 2931 -512 
L 3424 -512 
L 3424 1005 
L 6125 1005 
L 6125 1472 
L 3424 1472 
L 3424 2419 
L 5402 2419 
L 5402 5075 
L 973 5075 
L 973 2419 
L 2931 2419 
L 2931 1472 
L 301 1472 
z
" transform="scale(0.015625)"/>
      <path id="NotoSansCJKjp-Regular-671f" d="M 1139 915 
C 947 486 608 58 250 -230 
C 365 -301 557 -435 646 -512 
C 992 -192 1363 301 1594 787 
L 1139 915 
z
M 2054 717 
C 2304 416 2598 -6 2714 -269 
L 3110 -38 
C 2976 224 2682 621 2426 915 
L 2054 717 
z
M 5472 4621 
L 5472 3590 
L 4160 3590 
L 4160 4621 
L 5472 4621 
z
M 3712 5056 
L 3712 2733 
C 3712 1811 3661 589 3123 -262 
C 3232 -314 3430 -454 3507 -538 
C 3891 70 4058 890 4122 1664 
L 5472 1664 
L 5472 109 
C 5472 6 5434 -19 5344 -26 
C 5248 -32 4922 -32 4582 -19 
C 4646 -147 4717 -358 4736 -486 
C 5203 -486 5510 -480 5690 -397 
C 5875 -320 5933 -173 5933 102 
L 5933 5056 
L 3712 5056 
z
M 5472 3162 
L 5472 2099 
L 4147 2099 
C 4160 2323 4160 2534 4160 2733 
L 4160 3162 
L 5472 3162 
z
M 2477 5299 
L 2477 4525 
L 1312 4525 
L 1312 5299 
L 877 5299 
L 877 4525 
L 333 4525 
L 333 4096 
L 877 4096 
L 877 1478 
L 243 1478 
L 243 1050 
L 3398 1050 
L 3398 1478 
L 2925 1478 
L 2925 4096 
L 3398 4096 
L 3398 4525 
L 2925 4525 
L 2925 5299 
L 2477 5299 
z
M 1312 4096 
L 2477 4096 
L 2477 3526 
L 1312 3526 
L 1312 4096 
z
M 1312 3142 
L 2477 3142 
L 2477 2515 
L 1312 2515 
L 1312 3142 
z
M 1312 2125 
L 2477 2125 
L 2477 1478 
L 1312 1478 
L 1312 2125 
z
" transform="scale(0.015625)"/>
      <path id="NotoSansCJKjp-Regular-6808" d="M 4352 4941 
C 4614 4723 4947 4416 5101 4218 
L 5421 4493 
C 5261 4691 4928 4986 4666 5184 
L 4352 4941 
z
M 5638 2246 
C 5376 1850 5030 1485 4621 1171 
C 4512 1485 4416 1850 4333 2253 
L 5984 2573 
L 5888 3008 
L 4250 2694 
C 4205 2963 4166 3245 4134 3546 
L 5773 3802 
L 5690 4230 
L 4090 3987 
C 4058 4429 4038 4896 4038 5370 
L 3558 5370 
C 3565 4877 3590 4390 3629 3917 
L 2579 3757 
L 2650 3309 
L 3674 3469 
C 3706 3174 3744 2880 3789 2605 
L 2566 2368 
L 2662 1926 
L 3866 2163 
C 3962 1683 4077 1254 4211 877 
C 3642 506 2982 205 2285 0 
C 2394 -109 2515 -282 2573 -403 
C 3226 -186 3840 102 4390 454 
C 4672 -147 5030 -512 5446 -512 
C 5894 -512 6061 -224 6144 742 
C 6029 787 5856 890 5760 992 
C 5728 243 5645 -38 5485 -38 
C 5248 -38 5005 243 4787 736 
C 5293 1114 5722 1555 6048 2048 
L 5638 2246 
z
M 1222 5376 
L 1222 4141 
L 397 4141 
L 397 3693 
L 1190 3693 
C 992 2854 608 1882 218 1370 
C 307 1248 422 1037 474 902 
C 749 1299 1018 1933 1222 2592 
L 1222 -506 
L 1677 -506 
L 1677 2848 
C 1850 2534 2054 2157 2138 1952 
L 2432 2291 
C 2323 2477 1837 3219 1677 3443 
L 1677 3693 
L 2394 3693 
L 2394 4141 
L 1677 4141 
L 1677 5376 
L 1222 5376 
z
" transform="scale(0.015625)"/>
      <path id="NotoSansCJKjp-Regular-51c6" d="M 422 4646 
C 832 4378 1331 3962 1562 3686 
L 1888 4058 
C 1645 4339 1139 4717 730 4986 
L 422 4646 
z
M 230 307 
L 640 -19 
C 1011 518 1459 1235 1805 1843 
L 1453 2157 
C 1075 1504 576 749 230 307 
z
M 4122 2406 
L 4122 1555 
L 2989 1555 
L 2989 2406 
L 4122 2406 
z
M 3046 5376 
C 2733 4410 2208 3469 1606 2867 
C 1709 2790 1888 2592 1958 2502 
C 2157 2714 2349 2963 2528 3232 
L 2528 -512 
L 2989 -512 
L 2989 -205 
L 6144 -205 
L 6144 243 
L 4576 243 
L 4576 1120 
L 5837 1120 
L 5837 1555 
L 4576 1555 
L 4576 2406 
L 5837 2406 
L 5837 2842 
L 4576 2842 
L 4576 3674 
L 5997 3674 
L 5997 4109 
L 4659 4109 
C 4800 4442 4954 4851 5088 5210 
L 4595 5350 
C 4506 4986 4352 4480 4205 4109 
L 3034 4109 
C 3213 4474 3379 4858 3514 5248 
L 3046 5376 
z
M 4122 2842 
L 2989 2842 
L 2989 3674 
L 4122 3674 
L 4122 2842 
z
M 4122 1120 
L 4122 243 
L 2989 243 
L 2989 1120 
L 4122 1120 
z
" transform="scale(0.015625)"/>
      <path id="NotoSansCJKjp-Regular-5907" d="M 4384 4403 
C 4077 4077 3661 3795 3187 3552 
C 2752 3770 2381 4032 2106 4333 
L 2176 4403 
L 4384 4403 
z
M 2362 5395 
C 2042 4838 1414 4198 486 3763 
C 595 3686 742 3526 819 3411 
C 1178 3597 1491 3808 1766 4032 
C 2029 3763 2336 3526 2688 3322 
C 1907 2995 1024 2771 192 2656 
C 275 2547 371 2336 410 2202 
C 1338 2355 2323 2630 3194 3053 
C 3994 2669 4941 2419 5926 2291 
C 5990 2426 6118 2624 6227 2733 
C 5318 2835 4442 3027 3699 3322 
C 4307 3680 4826 4122 5171 4653 
L 4858 4851 
L 4774 4826 
L 2554 4826 
C 2675 4979 2784 5133 2880 5293 
L 2362 5395 
z
M 1587 826 
L 2944 826 
L 2944 115 
L 1587 115 
L 1587 826 
z
M 1587 1216 
L 1587 1862 
L 2944 1862 
L 2944 1216 
L 1587 1216 
z
M 4774 826 
L 4774 115 
L 3437 115 
L 3437 826 
L 4774 826 
z
M 4774 1216 
L 3437 1216 
L 3437 1862 
L 4774 1862 
L 4774 1216 
z
M 1088 2285 
L 1088 -512 
L 1587 -512 
L 1587 -307 
L 4774 -307 
L 4774 -499 
L 5293 -499 
L 5293 2285 
L 1088 2285 
z
" transform="scale(0.015625)"/>
     </defs>
     <use xlink:href="#NotoSansCJKjp-Regular-65e9"/>
     <use xlink:href="#NotoSansCJKjp-Regular-671f" transform="translate(99.999985 0)"/>
     <use xlink:href="#NotoSansCJKjp-Regular-6808" transform="translate(199.999969 0)"/>
     <use xlink:href="#NotoSansCJKjp-Regular-51c6" transform="translate(299.999954 0)"/>
     <use xlink:href="#NotoSansCJKjp-Regular-5907" transform="translate(399.999939 0)"/>
    </g>
    <!-- stack0 / sp -->
    <g style="fill: #111827" transform="translate(292.812687 344.295506) scale(0.13 -0.13)">
     <defs>
      <path id="NotoSansCJKjp-Regular-63" d="M 1958 -83 
C 2374 -83 2771 83 3085 352 
L 2829 749 
C 2611 557 2330 403 2010 403 
C 1370 403 934 934 934 1734 
C 934 2534 1395 3072 2029 3072 
C 2298 3072 2522 2950 2720 2771 
L 3014 3155 
C 2771 3373 2458 3565 2003 3565 
C 1107 3565 333 2893 333 1734 
C 333 582 1037 -83 1958 -83 
z
" transform="scale(0.015625)"/>
      <path id="NotoSansCJKjp-Regular-70" d="M 589 -1466 
L 1178 -1466 
L 1178 -288 
L 1158 320 
C 1472 58 1805 -83 2118 -83 
C 2912 -83 3629 602 3629 1792 
C 3629 2867 3142 3565 2246 3565 
C 1843 3565 1453 3334 1139 3072 
L 1126 3072 
L 1069 3475 
L 589 3475 
L 589 -1466 
z
M 2022 410 
C 1792 410 1485 499 1178 768 
L 1178 2598 
C 1510 2906 1811 3072 2099 3072 
C 2765 3072 3021 2560 3021 1786 
C 3021 928 2598 410 2022 410 
z
" transform="scale(0.015625)"/>
     </defs>
     <use xlink:href="#NotoSansCJKjp-Regular-73"/>
     <use xlink:href="#NotoSansCJKjp-Regular-74" transform="translate(46.799988 0)"/>
     <use xlink:href="#NotoSansCJKjp-Regular-61" transform="translate(84.499985 0)"/>
     <use xlink:href="#NotoSansCJKjp-Regular-63" transform="translate(140.799973 0)"/>
     <use xlink:href="#NotoSansCJKjp-Regular-6b" transform="translate(191.799957 0)"/>
     <use xlink:href="#NotoSansCJKjp-Regular-30" transform="translate(246.999954 0)"/>
     <use xlink:href="#NotoSansCJKjp-Regular-20" transform="translate(302.499939 0)"/>
     <use xlink:href="#NotoSansCJKjp-Regular-2f" transform="translate(324.899933 0)"/>
     <use xlink:href="#NotoSansCJKjp-Regular-20" transform="translate(364.09993 0)"/>
     <use xlink:href="#NotoSansCJKjp-Regular-73" transform="translate(386.499924 0)"/>
     <use xlink:href="#NotoSansCJKjp-Regular-70" transform="translate(433.299911 0)"/>
    </g>
   </g>
   <g id="text_10">
    <!-- M -&gt; S -->
    <g style="fill: #111827" transform="translate(432.072187 328.901069) scale(0.13 -0.13)">
     <defs>
      <path id="NotoSansCJKjp-Regular-3e" d="M 243 934 
L 3315 2144 
L 3315 2605 
L 243 3814 
L 243 3309 
L 1754 2746 
L 2714 2387 
L 2714 2362 
L 1754 2003 
L 243 1446 
L 243 934 
z
" transform="scale(0.015625)"/>
     </defs>
     <use xlink:href="#NotoSansCJKjp-Regular-4d"/>
     <use xlink:href="#NotoSansCJKjp-Regular-20" transform="translate(81.199982 0)"/>
     <use xlink:href="#NotoSansCJKjp-Regular-2d" transform="translate(103.599976 0)"/>
     <use xlink:href="#NotoSansCJKjp-Regular-3e" transform="translate(138.299973 0)"/>
     <use xlink:href="#NotoSansCJKjp-Regular-20" transform="translate(193.799957 0)"/>
     <use xlink:href="#NotoSansCJKjp-Regular-53" transform="translate(216.199951 0)"/>
    </g>
    <!-- mstatus / mepc / mret -->
    <g style="fill: #111827" transform="translate(382.911875 344.295506) scale(0.13 -0.13)">
     <use xlink:href="#NotoSansCJKjp-Regular-6d"/>
     <use xlink:href="#NotoSansCJKjp-Regular-73" transform="translate(92.599991 0)"/>
     <use xlink:href="#NotoSansCJKjp-Regular-74" transform="translate(139.399979 0)"/>
     <use xlink:href="#NotoSansCJKjp-Regular-61" transform="translate(177.099976 0)"/>
     <use xlink:href="#NotoSansCJKjp-Regular-74" transform="translate(233.399963 0)"/>
     <use xlink:href="#NotoSansCJKjp-Regular-75" transform="translate(271.09996 0)"/>
     <use xlink:href="#NotoSansCJKjp-Regular-73" transform="translate(331.799957 0)"/>
     <use xlink:href="#NotoSansCJKjp-Regular-20" transform="translate(378.599945 0)"/>
     <use xlink:href="#NotoSansCJKjp-Regular-2f" transform="translate(400.999939 0)"/>
     <use xlink:href="#NotoSansCJKjp-Regular-20" transform="translate(440.199936 0)"/>
     <use xlink:href="#NotoSansCJKjp-Regular-6d" transform="translate(462.59993 0)"/>
     <use xlink:href="#NotoSansCJKjp-Regular-65" transform="translate(555.199921 0)"/>
     <use xlink:href="#NotoSansCJKjp-Regular-70" transform="translate(610.599915 0)"/>
     <use xlink:href="#NotoSansCJKjp-Regular-63" transform="translate(672.599899 0)"/>
     <use xlink:href="#NotoSansCJKjp-Regular-20" transform="translate(723.599884 0)"/>
     <use xlink:href="#NotoSansCJKjp-Regular-2f" transform="translate(745.999878 0)"/>
     <use xlink:href="#NotoSansCJKjp-Regular-20" transform="translate(785.199875 0)"/>
     <use xlink:href="#NotoSansCJKjp-Regular-6d" transform="translate(807.599869 0)"/>
     <use xlink:href="#NotoSansCJKjp-Regular-72" transform="translate(900.19986 0)"/>
     <use xlink:href="#NotoSansCJKjp-Regular-65" transform="translate(938.999847 0)"/>
     <use xlink:href="#NotoSansCJKjp-Regular-74" transform="translate(994.399841 0)"/>
    </g>
   </g>
   <g id="text_11">
    <!-- 保存 DTB 指针 -->
    <g style="fill: #111827" transform="translate(533.442781 328.901069) scale(0.13 -0.13)">
     <defs>
      <path id="NotoSansCJKjp-Regular-4fdd" d="M 2893 4646 
L 5274 4646 
L 5274 3469 
L 2893 3469 
L 2893 4646 
z
M 2432 5075 
L 2432 3034 
L 3827 3034 
L 3827 2240 
L 1958 2240 
L 1958 1798 
L 3546 1798 
C 3110 1120 2432 474 1773 147 
C 1882 58 2029 -115 2106 -230 
C 2733 134 3379 774 3827 1485 
L 3827 -512 
L 4307 -512 
L 4307 1504 
C 4736 800 5350 128 5939 -243 
C 6022 -122 6170 45 6278 141 
C 5658 474 5005 1120 4595 1798 
L 6106 1798 
L 6106 2240 
L 4307 2240 
L 4307 3034 
L 5754 3034 
L 5754 5075 
L 2432 5075 
z
M 1773 5357 
C 1402 4390 787 3437 147 2822 
C 230 2714 371 2458 416 2349 
C 653 2586 883 2867 1107 3174 
L 1107 -493 
L 1568 -493 
L 1568 3885 
C 1818 4307 2042 4762 2221 5216 
L 1773 5357 
z
" transform="scale(0.015625)"/>
      <path id="NotoSansCJKjp-Regular-5b58" d="M 3936 2298 
L 3936 1702 
L 2144 1702 
L 2144 1254 
L 3936 1254 
L 3936 64 
C 3936 -26 3910 -51 3802 -58 
C 3686 -64 3302 -64 2874 -51 
C 2944 -186 3002 -371 3027 -512 
C 3578 -512 3936 -506 4147 -435 
C 4365 -365 4422 -224 4422 58 
L 4422 1254 
L 6125 1254 
L 6125 1702 
L 4422 1702 
L 4422 2029 
C 4877 2330 5376 2752 5722 3149 
L 5414 3386 
L 5318 3360 
L 2688 3360 
L 2688 2918 
L 4890 2918 
C 4666 2694 4390 2464 4128 2298 
L 3936 2298 
z
M 2464 5376 
C 2387 5101 2298 4819 2189 4538 
L 403 4538 
L 403 4077 
L 1990 4077 
C 1574 3194 986 2368 205 1818 
C 282 1709 403 1498 461 1370 
C 730 1562 979 1779 1203 2022 
L 1203 -499 
L 1690 -499 
L 1690 2605 
C 2022 3059 2304 3558 2534 4077 
L 6010 4077 
L 6010 4538 
L 2726 4538 
C 2816 4774 2899 5018 2970 5254 
L 2464 5376 
z
" transform="scale(0.015625)"/>
      <path id="NotoSansCJKjp-Regular-44" d="M 646 0 
L 1843 0 
C 3258 0 4026 877 4026 2362 
C 4026 3859 3258 4691 1818 4691 
L 646 4691 
L 646 0 
z
M 1235 486 
L 1235 4211 
L 1766 4211 
C 2874 4211 3418 3552 3418 2362 
C 3418 1178 2874 486 1766 486 
L 1235 486 
z
" transform="scale(0.015625)"/>
      <path id="NotoSansCJKjp-Regular-54" d="M 1619 0 
L 2214 0 
L 2214 4192 
L 3635 4192 
L 3635 4691 
L 198 4691 
L 198 4192 
L 1619 4192 
L 1619 0 
z
" transform="scale(0.015625)"/>
      <path id="NotoSansCJKjp-Regular-42" d="M 646 0 
L 2138 0 
C 3187 0 3917 454 3917 1376 
C 3917 2016 3520 2387 2963 2496 
L 2963 2528 
C 3405 2669 3648 3078 3648 3546 
C 3648 4371 2982 4691 2035 4691 
L 646 4691 
L 646 0 
z
M 1235 2701 
L 1235 4224 
L 1958 4224 
C 2694 4224 3066 4019 3066 3469 
C 3066 2989 2739 2701 1933 2701 
L 1235 2701 
z
M 1235 474 
L 1235 2240 
L 2054 2240 
C 2880 2240 3334 1978 3334 1395 
C 3334 762 2861 474 2054 474 
L 1235 474 
z
" transform="scale(0.015625)"/>
      <path id="NotoSansCJKjp-Regular-6307" d="M 5357 4998 
C 4870 4781 4058 4557 3296 4397 
L 3296 5350 
L 2822 5350 
L 2822 3533 
C 2822 2976 3021 2835 3763 2835 
C 3917 2835 5094 2835 5254 2835 
C 5888 2835 6048 3046 6118 3904 
C 5984 3930 5779 4006 5677 4077 
C 5638 3386 5581 3270 5229 3270 
C 4973 3270 3981 3270 3789 3270 
C 3373 3270 3296 3315 3296 3533 
L 3296 4000 
C 4128 4160 5075 4378 5722 4640 
L 5357 4998 
z
M 3277 858 
L 5363 858 
L 5363 186 
L 3277 186 
L 3277 858 
z
M 3277 1248 
L 3277 1888 
L 5363 1888 
L 5363 1248 
L 3277 1248 
z
M 2822 2298 
L 2822 -506 
L 3277 -506 
L 3277 -211 
L 5363 -211 
L 5363 -480 
L 5837 -480 
L 5837 2298 
L 2822 2298 
z
M 1178 5376 
L 1178 4083 
L 282 4083 
L 282 3629 
L 1178 3629 
L 1178 2253 
L 198 1984 
L 339 1517 
L 1178 1766 
L 1178 51 
C 1178 -38 1139 -64 1056 -70 
C 973 -70 710 -70 416 -64 
C 474 -192 544 -390 563 -506 
C 992 -512 1248 -493 1421 -422 
C 1587 -346 1645 -218 1645 58 
L 1645 1907 
L 2496 2170 
L 2438 2618 
L 1645 2387 
L 1645 3629 
L 2406 3629 
L 2406 4083 
L 1645 4083 
L 1645 5376 
L 1178 5376 
z
" transform="scale(0.015625)"/>
      <path id="NotoSansCJKjp-Regular-9488" d="M 4237 5318 
L 4237 3232 
L 2726 3232 
L 2726 2758 
L 4237 2758 
L 4237 -506 
L 4730 -506 
L 4730 2758 
L 6106 2758 
L 6106 3232 
L 4730 3232 
L 4730 5318 
L 4237 5318 
z
M 1190 5363 
C 979 4762 608 4192 198 3814 
C 275 3712 403 3462 442 3366 
C 678 3590 896 3866 1094 4179 
L 2707 4179 
L 2707 4634 
L 1357 4634 
C 1453 4832 1542 5030 1619 5235 
L 1190 5363 
z
M 390 2202 
L 390 1760 
L 1350 1760 
L 1350 435 
C 1350 166 1171 13 1050 -51 
C 1133 -154 1248 -358 1286 -480 
C 1395 -371 1581 -262 2835 390 
C 2803 486 2758 672 2746 806 
L 1811 339 
L 1811 1760 
L 2669 1760 
L 2669 2202 
L 1811 2202 
L 1811 3066 
L 2534 3066 
L 2534 3501 
L 691 3501 
L 691 3066 
L 1350 3066 
L 1350 2202 
L 390 2202 
z
" transform="scale(0.015625)"/>
     </defs>
     <use xlink:href="#NotoSansCJKjp-Regular-4fdd"/>
     <use xlink:href="#NotoSansCJKjp-Regular-5b58" transform="translate(99.999985 0)"/>
     <use xlink:href="#NotoSansCJKjp-Regular-20" transform="translate(199.999969 0)"/>
     <use xlink:href="#NotoSansCJKjp-Regular-44" transform="translate(222.399963 0)"/>
     <use xlink:href="#NotoSansCJKjp-Regular-54" transform="translate(291.199951 0)"/>
     <use xlink:href="#NotoSansCJKjp-Regular-42" transform="translate(351.099945 0)"/>
     <use xlink:href="#NotoSansCJKjp-Regular-20" transform="translate(416.799942 0)"/>
     <use xlink:href="#NotoSansCJKjp-Regular-6307" transform="translate(439.199936 0)"/>
     <use xlink:href="#NotoSansCJKjp-Regular-9488" transform="translate(539.199921 0)"/>
    </g>
    <!-- a1 -&gt; boot 参数 -->
    <g style="fill: #111827" transform="translate(530.148094 344.295506) scale(0.13 -0.13)">
     <defs>
      <path id="NotoSansCJKjp-Regular-31" d="M 563 0 
L 3136 0 
L 3136 486 
L 2195 486 
L 2195 4691 
L 1747 4691 
C 1491 4544 1190 4435 774 4358 
L 774 3987 
L 1613 3987 
L 1613 486 
L 563 486 
L 563 0 
z
" transform="scale(0.015625)"/>
      <path id="NotoSansCJKjp-Regular-62" d="M 2118 -83 
C 2912 -83 3629 602 3629 1792 
C 3629 2867 3142 3565 2246 3565 
C 1856 3565 1472 3347 1152 3078 
L 1178 3699 
L 1178 5094 
L 589 5094 
L 589 0 
L 1056 0 
L 1107 358 
L 1133 358 
C 1434 83 1798 -83 2118 -83 
z
M 2022 410 
C 1792 410 1478 499 1178 768 
L 1178 2598 
C 1504 2906 1811 3072 2099 3072 
C 2765 3072 3021 2560 3021 1786 
C 3021 928 2598 410 2022 410 
z
" transform="scale(0.015625)"/>
      <path id="NotoSansCJKjp-Regular-6f" d="M 1939 -83 
C 2790 -83 3546 582 3546 1734 
C 3546 2893 2790 3565 1939 3565 
C 1088 3565 333 2893 333 1734 
C 333 582 1088 -83 1939 -83 
z
M 1939 403 
C 1338 403 934 934 934 1734 
C 934 2534 1338 3072 1939 3072 
C 2541 3072 2950 2534 2950 1734 
C 2950 934 2541 403 1939 403 
z
" transform="scale(0.015625)"/>
      <path id="NotoSansCJKjp-Regular-53c2" d="M 3386 2579 
C 2976 2272 2214 1990 1594 1837 
C 1696 1754 1811 1626 1882 1542 
C 2522 1715 3283 2022 3770 2394 
L 3386 2579 
z
M 4051 1830 
C 3501 1408 2464 1062 1568 890 
C 1664 794 1773 646 1837 538 
C 2784 755 3814 1139 4435 1645 
L 4051 1830 
z
M 4890 1107 
C 4186 410 2752 19 1203 -147 
C 1286 -256 1382 -422 1427 -550 
C 3059 -339 4518 102 5306 909 
L 4890 1107 
z
M 339 3302 
L 339 2880 
L 1907 2880 
C 1440 2330 826 1907 122 1613 
C 230 1530 403 1338 474 1242 
C 1267 1626 1971 2163 2496 2880 
L 3930 2880 
C 4410 2208 5171 1600 5894 1274 
C 5965 1389 6106 1562 6214 1651 
C 5574 1894 4909 2362 4461 2880 
L 6080 2880 
L 6080 3302 
L 2771 3302 
C 2880 3488 2976 3686 3066 3891 
L 5056 3968 
C 5229 3808 5382 3654 5491 3526 
L 5894 3789 
C 5549 4192 4838 4749 4256 5107 
L 3885 4877 
C 4115 4723 4358 4544 4595 4358 
L 2182 4294 
C 2413 4576 2662 4922 2867 5229 
L 2349 5376 
C 2189 5050 1901 4614 1651 4282 
L 582 4262 
L 640 3827 
L 2541 3878 
C 2451 3674 2342 3482 2227 3302 
L 339 3302 
z
" transform="scale(0.015625)"/>
      <path id="NotoSansCJKjp-Regular-6570" d="M 2803 5254 
C 2688 4998 2483 4627 2317 4403 
L 2643 4243 
C 2816 4454 3027 4781 3219 5075 
L 2803 5254 
z
M 531 5075 
C 704 4806 870 4454 928 4230 
L 1312 4397 
C 1248 4627 1075 4973 890 5222 
L 531 5075 
z
M 4026 5382 
C 3846 4243 3507 3162 2970 2490 
C 3078 2413 3283 2246 3360 2163 
C 3533 2394 3693 2669 3827 2970 
C 3974 2310 4160 1709 4410 1184 
C 4090 698 3667 314 3110 19 
C 2912 166 2656 326 2374 480 
C 2598 774 2746 1126 2829 1562 
L 3398 1562 
L 3398 1958 
L 1677 1958 
L 1894 2413 
L 1779 2438 
L 2061 2438 
L 2061 3398 
C 2374 3168 2771 2854 2938 2701 
L 3206 3046 
C 3034 3174 2336 3616 2061 3776 
L 2061 3802 
L 3373 3802 
L 3373 4198 
L 2061 4198 
L 2061 5382 
L 1613 5382 
L 1613 4198 
L 288 4198 
L 288 3802 
L 1485 3802 
C 1171 3379 678 2982 218 2784 
C 314 2694 422 2528 480 2419 
C 870 2637 1293 2989 1613 3373 
L 1613 2477 
L 1440 2515 
L 1178 1958 
L 250 1958 
L 250 1562 
L 979 1562 
C 806 1222 627 896 486 653 
L 909 506 
L 1005 678 
C 1222 589 1434 493 1638 384 
C 1306 147 858 -13 269 -109 
C 352 -211 448 -384 480 -512 
C 1171 -365 1683 -154 2061 160 
C 2355 -13 2611 -186 2810 -352 
L 2963 -192 
C 3046 -301 3136 -448 3174 -531 
C 3802 -205 4288 205 4666 710 
C 4979 192 5370 -224 5862 -512 
C 5939 -378 6093 -192 6208 -96 
C 5690 173 5280 614 4960 1165 
C 5350 1856 5594 2707 5754 3750 
L 6144 3750 
L 6144 4198 
L 4262 4198 
C 4358 4557 4442 4928 4506 5312 
L 4026 5382 
z
M 1478 1562 
L 2368 1562 
C 2285 1216 2157 928 1965 698 
C 1715 819 1459 934 1197 1030 
L 1478 1562 
z
M 4134 3750 
L 5254 3750 
C 5139 2950 4966 2266 4698 1696 
C 4435 2298 4250 3002 4134 3750 
z
" transform="scale(0.015625)"/>
     </defs>
     <use xlink:href="#NotoSansCJKjp-Regular-61"/>
     <use xlink:href="#NotoSansCJKjp-Regular-31" transform="translate(56.299988 0)"/>
     <use xlink:href="#NotoSansCJKjp-Regular-20" transform="translate(111.799973 0)"/>
     <use xlink:href="#NotoSansCJKjp-Regular-2d" transform="translate(134.199966 0)"/>
     <use xlink:href="#NotoSansCJKjp-Regular-3e" transform="translate(168.899963 0)"/>
     <use xlink:href="#NotoSansCJKjp-Regular-20" transform="translate(224.399948 0)"/>
     <use xlink:href="#NotoSansCJKjp-Regular-62" transform="translate(246.799942 0)"/>
     <use xlink:href="#NotoSansCJKjp-Regular-6f" transform="translate(308.59993 0)"/>
     <use xlink:href="#NotoSansCJKjp-Regular-6f" transform="translate(369.199921 0)"/>
     <use xlink:href="#NotoSansCJKjp-Regular-74" transform="translate(429.799911 0)"/>
     <use xlink:href="#NotoSansCJKjp-Regular-20" transform="translate(467.499908 0)"/>
     <use xlink:href="#NotoSansCJKjp-Regular-53c2" transform="translate(489.899902 0)"/>
     <use xlink:href="#NotoSansCJKjp-Regular-6570" transform="translate(589.899887 0)"/>
    </g>
   </g>
   <g id="text_12">
    <!-- 运行时内存探测 -->
    <g style="fill: #111827" transform="translate(690.196 328.764975) scale(0.13 -0.13)">
     <defs>
      <path id="NotoSansCJKjp-Regular-8fd0" d="M 576 4998 
C 960 4787 1408 4448 1619 4198 
L 1958 4525 
C 1741 4774 1280 5094 896 5299 
L 576 4998 
z
M 326 3699 
C 730 3494 1210 3174 1434 2925 
L 1766 3270 
C 1530 3514 1043 3821 640 4013 
L 326 3699 
z
M 2458 5011 
L 2458 4557 
L 5677 4557 
L 5677 5011 
L 2458 5011 
z
M 1606 2400 
L 294 2400 
L 294 1952 
L 1139 1952 
L 1139 749 
C 832 480 493 218 211 19 
L 461 -461 
C 794 -179 1107 96 1402 371 
C 1811 -134 2394 -358 3238 -390 
C 3955 -416 5299 -403 6010 -371 
C 6035 -230 6112 -6 6170 109 
C 5402 58 3942 38 3232 64 
C 2483 96 1920 314 1606 781 
L 1606 2400 
z
M 4506 2490 
C 4749 2195 4998 1843 5216 1498 
L 3149 1338 
C 3392 1837 3667 2496 3885 3059 
L 6144 3059 
L 6144 3514 
L 2042 3514 
L 2042 3059 
L 3322 3059 
C 3155 2490 2893 1792 2662 1299 
L 2093 1261 
L 2170 781 
C 3021 858 4262 966 5453 1082 
C 5555 890 5638 710 5696 557 
L 6118 787 
C 5914 1312 5382 2099 4890 2682 
L 4506 2490 
z
" transform="scale(0.015625)"/>
      <path id="NotoSansCJKjp-Regular-884c" d="M 2784 4992 
L 2784 4531 
L 5933 4531 
L 5933 4992 
L 2784 4992 
z
M 1709 5382 
C 1382 4915 762 4346 224 3981 
C 307 3891 442 3706 506 3597 
C 1082 4006 1741 4634 2170 5190 
L 1709 5382 
z
M 2502 3226 
L 2502 2765 
L 4659 2765 
L 4659 109 
C 4659 6 4614 -26 4493 -32 
C 4378 -38 3942 -38 3488 -19 
C 3558 -160 3629 -358 3648 -493 
C 4275 -493 4640 -493 4858 -422 
C 5069 -339 5146 -192 5146 102 
L 5146 2765 
L 6112 2765 
L 6112 3226 
L 2502 3226 
z
M 1965 4006 
C 1523 3277 819 2534 160 2061 
C 256 1965 429 1754 499 1658 
C 736 1850 986 2080 1229 2330 
L 1229 -531 
L 1702 -531 
L 1702 2854 
C 1971 3174 2214 3507 2419 3840 
L 1965 4006 
z
" transform="scale(0.015625)"/>
      <path id="NotoSansCJKjp-Regular-65f6" d="M 3034 2893 
C 3373 2400 3808 1722 4013 1331 
L 4435 1574 
C 4218 1965 3776 2618 3430 3104 
L 3034 2893 
z
M 2074 2573 
L 2074 1114 
L 979 1114 
L 979 2573 
L 2074 2573 
z
M 2074 3002 
L 979 3002 
L 979 4403 
L 2074 4403 
L 2074 3002 
z
M 518 4838 
L 518 160 
L 979 160 
L 979 678 
L 2522 678 
L 2522 4838 
L 518 4838 
z
M 4890 5344 
L 4890 4096 
L 2816 4096 
L 2816 3622 
L 4890 3622 
L 4890 211 
C 4890 83 4838 38 4710 38 
C 4570 26 4096 26 3597 45 
C 3667 -96 3744 -314 3776 -448 
C 4416 -448 4826 -442 5056 -358 
C 5286 -282 5376 -141 5376 211 
L 5376 3622 
L 6157 3622 
L 6157 4096 
L 5376 4096 
L 5376 5344 
L 4890 5344 
z
" transform="scale(0.015625)"/>
      <path id="NotoSansCJKjp-Regular-63a2" d="M 4442 4403 
L 4442 3270 
C 4442 2842 4538 2720 5005 2720 
C 5094 2720 5542 2720 5638 2720 
C 5990 2720 6112 2880 6157 3514 
C 6035 3546 5856 3610 5760 3680 
C 5747 3174 5722 3117 5581 3117 
C 5491 3117 5133 3117 5062 3117 
C 4902 3117 4877 3136 4877 3270 
L 4877 4403 
L 4442 4403 
z
M 2394 5024 
L 2394 3872 
L 2816 3872 
L 2816 4602 
L 5594 4602 
L 5594 3891 
L 6022 3891 
L 6022 5024 
L 2394 5024 
z
M 3418 4397 
C 3366 3571 3174 3149 2246 2918 
C 2336 2842 2451 2682 2496 2573 
C 3552 2867 3795 3398 3859 4397 
L 3418 4397 
z
M 3923 2771 
L 3923 2074 
L 2291 2074 
L 2291 1638 
L 3622 1638 
C 3238 992 2611 422 1946 134 
C 2048 45 2182 -128 2253 -237 
C 2906 90 3514 672 3923 1357 
L 3923 -512 
L 4397 -512 
L 4397 1363 
C 4787 723 5357 128 5926 -205 
C 6003 -83 6150 83 6253 173 
C 5670 461 5069 1030 4704 1638 
L 6074 1638 
L 6074 2074 
L 4397 2074 
L 4397 2771 
L 3923 2771 
z
M 1069 5370 
L 1069 4083 
L 269 4083 
L 269 3635 
L 1069 3635 
L 1069 2323 
L 179 2054 
L 301 1594 
L 1069 1843 
L 1069 45 
C 1069 -45 1037 -70 960 -70 
C 883 -77 634 -77 358 -64 
C 416 -198 480 -397 493 -512 
C 902 -518 1146 -499 1299 -422 
C 1459 -352 1517 -218 1517 45 
L 1517 1990 
L 2221 2221 
L 2150 2662 
L 1517 2464 
L 1517 3635 
L 2208 3635 
L 2208 4083 
L 1517 4083 
L 1517 5370 
L 1069 5370 
z
" transform="scale(0.015625)"/>
      <path id="NotoSansCJKjp-Regular-6d4b" d="M 3110 589 
C 3437 269 3814 -179 3994 -467 
L 4307 -250 
C 4122 26 3738 461 3411 774 
L 3110 589 
z
M 1997 5005 
L 1997 986 
L 2374 986 
L 2374 4634 
L 3763 4634 
L 3763 1005 
L 4154 1005 
L 4154 5005 
L 1997 5005 
z
M 5549 5293 
L 5549 45 
C 5549 -51 5510 -83 5421 -83 
C 5331 -90 5030 -90 4691 -83 
C 4749 -198 4813 -384 4832 -486 
C 5280 -493 5555 -480 5722 -410 
C 5882 -339 5946 -218 5946 45 
L 5946 5293 
L 5549 5293 
z
M 4672 4800 
L 4672 966 
L 5056 966 
L 5056 4800 
L 4672 4800 
z
M 2854 4179 
L 2854 1914 
C 2854 1139 2726 339 1658 -205 
C 1728 -262 1850 -422 1894 -499 
C 3046 83 3226 1050 3226 1907 
L 3226 4179 
L 2854 4179 
z
M 518 4966 
C 877 4768 1338 4461 1555 4256 
L 1850 4646 
C 1619 4838 1152 5120 806 5306 
L 518 4966 
z
M 243 3238 
C 595 3040 1062 2752 1293 2560 
L 1581 2944 
C 1338 3130 864 3405 518 3584 
L 243 3238 
z
M 371 -173 
L 806 -429 
C 1075 160 1395 947 1626 1619 
L 1242 1869 
C 986 1152 627 320 371 -173 
z
" transform="scale(0.015625)"/>
     </defs>
     <use xlink:href="#NotoSansCJKjp-Regular-8fd0"/>
     <use xlink:href="#NotoSansCJKjp-Regular-884c" transform="translate(99.999985 0)"/>
     <use xlink:href="#NotoSansCJKjp-Regular-65f6" transform="translate(199.999969 0)"/>
     <use xlink:href="#NotoSansCJKjp-Regular-5185" transform="translate(299.999954 0)"/>
     <use xlink:href="#NotoSansCJKjp-Regular-5b58" transform="translate(399.999939 0)"/>
     <use xlink:href="#NotoSansCJKjp-Regular-63a2" transform="translate(499.999924 0)"/>
     <use xlink:href="#NotoSansCJKjp-Regular-6d4b" transform="translate(599.999908 0)"/>
    </g>
    <!-- /memory/reg -->
    <g style="fill: #111827" transform="translate(695.324906 344.159413) scale(0.13 -0.13)">
     <defs>
      <path id="NotoSansCJKjp-Regular-67" d="M 1760 -1600 
C 2835 -1600 3520 -1043 3520 -397 
C 3520 179 3110 429 2310 429 
L 1626 429 
C 1158 429 1018 589 1018 806 
C 1018 998 1114 1114 1242 1222 
C 1395 1146 1587 1101 1754 1101 
C 2470 1101 3027 1568 3027 2310 
C 3027 2611 2912 2867 2746 3027 
L 3456 3027 
L 3456 3475 
L 2246 3475 
C 2125 3526 1952 3565 1754 3565 
C 1056 3565 454 3085 454 2323 
C 454 1907 678 1568 909 1389 
L 909 1363 
C 723 1235 525 1005 525 717 
C 525 442 659 256 838 147 
L 838 115 
C 512 -83 326 -371 326 -672 
C 326 -1267 915 -1600 1760 -1600 
z
M 1754 1498 
C 1357 1498 1018 1818 1018 2323 
C 1018 2835 1350 3136 1754 3136 
C 2170 3136 2496 2835 2496 2323 
C 2496 1818 2157 1498 1754 1498 
z
M 1843 -1197 
C 1210 -1197 838 -960 838 -589 
C 838 -390 941 -179 1190 0 
C 1344 -38 1510 -51 1638 -51 
L 2240 -51 
C 2701 -51 2944 -166 2944 -493 
C 2944 -851 2515 -1197 1843 -1197 
z
" transform="scale(0.015625)"/>
     </defs>
     <use xlink:href="#NotoSansCJKjp-Regular-2f"/>
     <use xlink:href="#NotoSansCJKjp-Regular-6d" transform="translate(39.199997 0)"/>
     <use xlink:href="#NotoSansCJKjp-Regular-65" transform="translate(131.799988 0)"/>
     <use xlink:href="#NotoSansCJKjp-Regular-6d" transform="translate(187.199982 0)"/>
     <use xlink:href="#NotoSansCJKjp-Regular-6f" transform="translate(279.799973 0)"/>
     <use xlink:href="#NotoSansCJKjp-Regular-72" transform="translate(340.399963 0)"/>
     <use xlink:href="#NotoSansCJKjp-Regular-79" transform="translate(379.199951 0)"/>
     <use xlink:href="#NotoSansCJKjp-Regular-2f" transform="translate(431.299942 0)"/>
     <use xlink:href="#NotoSansCJKjp-Regular-72" transform="translate(470.499939 0)"/>
     <use xlink:href="#NotoSansCJKjp-Regular-65" transform="translate(509.299927 0)"/>
     <use xlink:href="#NotoSansCJKjp-Regular-67" transform="translate(564.699921 0)"/>
    </g>
   </g>
   <g id="text_13">
    <!-- 供后续使用 -->
    <g style="fill: #10b981" transform="translate(596.596 293.619813) scale(0.11 -0.11)">
     <defs>
      <path id="NotoSansCJKjp-Regular-4f9b" d="M 3098 1139 
C 2829 640 2381 141 1939 -192 
C 2054 -262 2234 -416 2323 -493 
C 2758 -128 3245 442 3558 992 
L 3098 1139 
z
M 4557 902 
C 4979 474 5453 -122 5670 -512 
L 6074 -256 
C 5850 128 5370 698 4934 1120 
L 4557 902 
z
M 1722 5363 
C 1357 4390 762 3424 134 2810 
C 218 2694 358 2445 403 2330 
C 621 2554 832 2816 1037 3098 
L 1037 -499 
L 1510 -499 
L 1510 3840 
C 1766 4282 1990 4749 2176 5222 
L 1722 5363 
z
M 4685 5312 
L 4685 4006 
L 3437 4006 
L 3437 5306 
L 2970 5306 
L 2970 4006 
L 2144 4006 
L 2144 3546 
L 2970 3546 
L 2970 1965 
L 1984 1965 
L 1984 1498 
L 6144 1498 
L 6144 1965 
L 5158 1965 
L 5158 3546 
L 6074 3546 
L 6074 4006 
L 5158 4006 
L 5158 5312 
L 4685 5312 
z
M 3437 3546 
L 4685 3546 
L 4685 1965 
L 3437 1965 
L 3437 3546 
z
" transform="scale(0.015625)"/>
      <path id="NotoSansCJKjp-Regular-540e" d="M 5222 5325 
C 4352 5088 2829 4902 1446 4787 
L 954 4883 
L 954 3085 
C 954 2099 883 774 205 -198 
C 326 -256 512 -416 582 -518 
C 1338 538 1434 2048 1434 3078 
L 1434 3142 
L 6163 3142 
L 6163 3603 
L 1434 3603 
L 1434 4358 
C 2886 4461 4518 4653 5626 4947 
L 5222 5325 
z
M 1997 2227 
L 1997 -518 
L 2458 -518 
L 2458 -186 
L 5114 -186 
L 5114 -506 
L 5600 -506 
L 5600 2227 
L 1997 2227 
z
M 2458 262 
L 2458 1779 
L 5114 1779 
L 5114 262 
L 2458 262 
z
" transform="scale(0.015625)"/>
      <path id="NotoSansCJKjp-Regular-7eed" d="M 3034 2893 
C 3315 2726 3654 2483 3821 2298 
L 4051 2566 
C 3885 2746 3539 2982 3258 3130 
L 3034 2893 
z
M 2566 2310 
C 2867 2144 3219 1875 3386 1690 
L 3622 1965 
C 3443 2150 3091 2400 2797 2560 
L 2566 2310 
z
M 4410 672 
C 4915 326 5523 -186 5811 -525 
L 6125 -224 
C 5824 109 5203 602 4704 934 
L 4410 672 
z
M 275 371 
L 384 -77 
C 928 128 1638 403 2310 659 
L 2234 1056 
C 1504 794 768 525 275 371 
z
M 2566 3795 
L 2566 3379 
L 5446 3379 
C 5357 3104 5254 2822 5165 2624 
L 5549 2522 
C 5696 2829 5862 3309 5997 3738 
L 5690 3814 
L 5613 3795 
L 4435 3795 
L 4435 4371 
L 5664 4371 
L 5664 4781 
L 4435 4781 
L 4435 5376 
L 3962 5376 
L 3962 4781 
L 2803 4781 
L 2803 4371 
L 3962 4371 
L 3962 3795 
L 2566 3795 
z
M 4147 3130 
L 4147 2368 
C 4147 2131 4134 1869 4070 1606 
L 2432 1606 
L 2432 1184 
L 3923 1184 
C 3686 698 3226 218 2310 -166 
C 2400 -256 2534 -416 2592 -525 
C 3686 -51 4192 563 4416 1184 
L 6010 1184 
L 6010 1606 
L 4531 1606 
C 4582 1862 4595 2118 4595 2355 
L 4595 3130 
L 4147 3130 
z
M 390 2707 
C 480 2752 627 2790 1376 2886 
C 1107 2470 864 2138 755 2010 
C 563 1766 422 1600 294 1574 
C 339 1466 410 1254 435 1165 
C 557 1254 768 1325 2266 1734 
C 2253 1824 2240 2010 2240 2138 
L 1126 1862 
C 1574 2432 2016 3117 2381 3802 
L 2003 4019 
C 1894 3776 1760 3533 1626 3302 
L 864 3226 
C 1242 3782 1619 4486 1894 5171 
L 1478 5363 
C 1216 4589 755 3750 608 3533 
C 467 3315 358 3162 243 3136 
C 294 3014 365 2797 390 2707 
z
" transform="scale(0.015625)"/>
      <path id="NotoSansCJKjp-Regular-4f7f" d="M 3834 5350 
L 3834 4666 
L 2054 4666 
L 2054 4224 
L 3834 4224 
L 3834 3597 
L 2240 3597 
L 2240 1824 
L 3802 1824 
C 3757 1472 3661 1139 3456 838 
C 3117 1075 2842 1363 2643 1696 
L 2240 1562 
C 2477 1152 2790 806 3168 518 
C 2874 250 2438 26 1818 -134 
C 1920 -237 2054 -422 2112 -531 
C 2778 -333 3238 -64 3565 250 
C 4211 -141 5018 -397 5933 -525 
C 5997 -384 6118 -198 6221 -90 
C 5299 13 4493 237 3846 589 
C 4102 966 4218 1382 4269 1824 
L 5946 1824 
L 5946 3597 
L 4301 3597 
L 4301 4224 
L 6157 4224 
L 6157 4666 
L 4301 4666 
L 4301 5350 
L 3834 5350 
z
M 2688 3194 
L 3834 3194 
L 3834 2522 
L 3827 2234 
L 2688 2234 
L 2688 3194 
z
M 4301 3194 
L 5485 3194 
L 5485 2234 
L 4294 2234 
L 4301 2522 
L 4301 3194 
z
M 1779 5389 
C 1402 4416 781 3469 134 2854 
C 218 2739 352 2490 403 2381 
C 646 2624 883 2906 1107 3219 
L 1107 -538 
L 1568 -538 
L 1568 3917 
C 1818 4346 2048 4794 2227 5248 
L 1779 5389 
z
" transform="scale(0.015625)"/>
      <path id="NotoSansCJKjp-Regular-7528" d="M 979 4928 
L 979 2605 
C 979 1702 915 570 205 -230 
C 314 -288 506 -448 576 -544 
C 1069 0 1286 736 1382 1453 
L 2989 1453 
L 2989 -454 
L 3475 -454 
L 3475 1453 
L 5203 1453 
L 5203 141 
C 5203 26 5158 -13 5030 -19 
C 4909 -26 4474 -32 4026 -13 
C 4090 -141 4166 -352 4192 -474 
C 4794 -480 5165 -474 5382 -397 
C 5600 -320 5677 -173 5677 141 
L 5677 4928 
L 979 4928 
z
M 1453 4467 
L 2989 4467 
L 2989 3437 
L 1453 3437 
L 1453 4467 
z
M 5203 4467 
L 5203 3437 
L 3475 3437 
L 3475 4467 
L 5203 4467 
z
M 1453 2982 
L 2989 2982 
L 2989 1907 
L 1427 1907 
C 1446 2150 1453 2387 1453 2605 
L 1453 2982 
z
M 5203 2982 
L 5203 1907 
L 3475 1907 
L 3475 2982 
L 5203 2982 
z
" transform="scale(0.015625)"/>
     </defs>
     <use xlink:href="#NotoSansCJKjp-Regular-4f9b"/>
     <use xlink:href="#NotoSansCJKjp-Regular-540e" transform="translate(99.999985 0)"/>
     <use xlink:href="#NotoSansCJKjp-Regular-7eed" transform="translate(199.999969 0)"/>
     <use xlink:href="#NotoSansCJKjp-Regular-4f7f" transform="translate(299.999954 0)"/>
     <use xlink:href="#NotoSansCJKjp-Regular-7528" transform="translate(399.999939 0)"/>
    </g>
   </g>
  </g>
 </g>
 <defs>
  <clipPath id="p91c2de923f">
   <rect x="3.6" y="3.6" width="892.8" height="498.96"/>
  </clipPath>
 </defs>
</svg>
