<?xml version="1.0" encoding="utf-8" standalone="no"?>
<!DOCTYPE svg PUBLIC "-//W3C//DTD SVG 1.1//EN"
  "http://www.w3.org/Graphics/SVG/1.1/DTD/svg11.dtd">
<svg xmlns:xlink="http://www.w3.org/1999/xlink" width="900pt" height="506.16pt" viewBox="0 0 900 506.16" xmlns="http://www.w3.org/2000/svg" version="1.1">
 <metadata>
  <rdf:RDF xmlns:dc="http://purl.org/dc/elements/1.1/" xmlns:cc="http://creativecommons.org/ns#" xmlns:rdf="http://www.w3.org/1999/02/22-rdf-syntax-ns#">
   <cc:Work>
    <dc:type rdf:resource="http://purl.org/dc/dcmitype/StillImage"/>
    <dc:date>2026-06-21T07:27:28.563259</dc:date>
    <dc:format>image/svg+xml</dc:format>
    <dc:creator>
     <cc:Agent>
      <dc:title>Matplotlib v3.10.9, https://matplotlib.org/</dc:title>
     </cc:Agent>
    </dc:creator>
   </cc:Work>
  </rdf:RDF>
 </metadata>
 <defs>
  <style type="text/css">*{stroke-linejoin: round; stroke-linecap: butt}</style>
 </defs>
 <g id="figure_1">
  <g id="patch_1">
   <path d="M 0 506.16 
L 900 506.16 
L 900 -0 
L 0 -0 
z
" style="fill: #ffffff"/>
  </g>
  <g id="axes_1">
   <g id="patch_2">
    <path d="M 153.32256 173.396088 
L 746.67744 173.396088 
Q 771.67584 173.396088 771.67584 159.425208 
L 771.67584 97.254792 
Q 771.67584 83.283912 746.67744 83.283912 
L 153.32256 83.283912 
Q 128.32416 83.283912 128.32416 97.254792 
L 128.32416 159.425208 
Q 128.32416 173.396088 153.32256 173.396088 
z
" clip-path="url(#p9421c272c7)" style="fill: #f8fafc; stroke: #6b7280; stroke-width: 2.2; stroke-linejoin: miter"/>
   </g>
   <g id="patch_3">
    <path d="M 219.47904 153.387792 
L 323.40096 153.387792 
Q 343.04256 153.387792 343.04256 142.410672 
L 343.04256 114.269328 
Q 343.04256 103.292208 323.40096 103.292208 
L 219.47904 103.292208 
Q 199.83744 103.292208 199.83744 114.269328 
L 199.83744 142.410672 
Q 199.83744 153.387792 219.47904 153.387792 
z
" clip-path="url(#p9421c272c7)" style="fill: #e0f2fe; stroke: #1e3a8a; stroke-width: 2; stroke-linejoin: miter"/>
   </g>
   <g id="patch_4">
    <path d="M 398.03904 153.387792 
L 501.96096 153.387792 
Q 521.60256 153.387792 521.60256 142.410672 
L 521.60256 114.269328 
Q 521.60256 103.292208 501.96096 103.292208 
L 398.03904 103.292208 
Q 378.39744 103.292208 378.39744 114.269328 
L 378.39744 142.410672 
Q 378.39744 153.387792 398.03904 153.387792 
z
" clip-path="url(#p9421c272c7)" style="fill: #e0f2fe; stroke: #1e3a8a; stroke-width: 2; stroke-linejoin: miter"/>
   </g>
   <g id="patch_5">
    <path d="M 576.59904 153.387792 
L 698.37696 153.387792 
Q 718.01856 153.387792 718.01856 142.410672 
L 718.01856 114.269328 
Q 718.01856 103.292208 698.37696 103.292208 
L 576.59904 103.292208 
Q 556.95744 103.292208 556.95744 114.269328 
L 556.95744 142.410672 
Q 556.95744 153.387792 576.59904 153.387792 
z
" clip-path="url(#p9421c272c7)" style="fill: #e0f2fe; stroke: #1e3a8a; stroke-width: 2; stroke-linejoin: miter"/>
   </g>
   <g id="patch_6">
    <path d="M 344.864953 128.34 
Q 360.718445 128.34 374.33587 128.34 
" clip-path="url(#p9421c272c7)" style="fill: none; stroke: #1e3a8a; stroke-width: 2; stroke-linecap: round"/>
    <path d="M 367.13587 124.74 
L 374.33587 128.34 
L 367.13587 131.94 
z
" clip-path="url(#p9421c272c7)" style="fill: #1e3a8a; stroke: #1e3a8a; stroke-width: 2; stroke-linecap: round"/>
   </g>
   <g id="patch_7">
    <path d="M 523.424953 128.34 
Q 539.278445 128.34 552.89587 128.34 
" clip-path="url(#p9421c272c7)" style="fill: none; stroke: #1e3a8a; stroke-width: 2; stroke-linecap: round"/>
    <path d="M 545.69587 124.74 
L 552.89587 128.34 
L 545.69587 131.94 
z
" clip-path="url(#p9421c272c7)" style="fill: #1e3a8a; stroke: #1e3a8a; stroke-width: 2; stroke-linecap: round"/>
   </g>
   <g id="patch_8">
    <path d="M 117.61056 303.125688 
L 782.38944 303.125688 
Q 807.38784 303.125688 807.38784 289.154808 
L 807.38784 226.984392 
Q 807.38784 213.013512 782.38944 213.013512 
L 117.61056 213.013512 
Q 92.61216 213.013512 92.61216 226.984392 
L 92.61216 289.154808 
Q 92.61216 303.125688 117.61056 303.125688 
z
" clip-path="url(#p9421c272c7)" style="fill: #f8fafc; stroke: #6b7280; stroke-width: 2.2; stroke-linejoin: miter"/>
   </g>
   <g id="patch_9">
    <path d="M 156.98304 283.117392 
L 260.90496 283.117392 
Q 280.54656 283.117392 280.54656 272.140272 
L 280.54656 243.998928 
Q 280.54656 233.021808 260.90496 233.021808 
L 156.98304 233.021808 
Q 137.34144 233.021808 137.34144 243.998928 
L 137.34144 272.140272 
Q 137.34144 283.117392 156.98304 283.117392 
z
" clip-path="url(#p9421c272c7)" style="fill: #dbeafe; stroke: #1e3a8a; stroke-width: 2; stroke-linejoin: miter"/>
   </g>
   <g id="patch_10">
    <path d="M 335.54304 283.117392 
L 439.46496 283.117392 
Q 459.10656 283.117392 459.10656 272.140272 
L 459.10656 243.998928 
Q 459.10656 233.021808 439.46496 233.021808 
L 335.54304 233.021808 
Q 315.90144 233.021808 315.90144 243.998928 
L 315.90144 272.140272 
Q 315.90144 283.117392 335.54304 283.117392 
z
" clip-path="url(#p9421c272c7)" style="fill: #dbeafe; stroke: #1e3a8a; stroke-width: 2; stroke-linejoin: miter"/>
   </g>
   <g id="patch_11">
    <path d="M 514.10304 283.117392 
L 618.02496 283.117392 
Q 637.66656 283.117392 637.66656 272.140272 
L 637.66656 243.998928 
Q 637.66656 233.021808 618.02496 233.021808 
L 514.10304 233.021808 
Q 494.46144 233.021808 494.46144 243.998928 
L 494.46144 272.140272 
Q 494.46144 283.117392 514.10304 283.117392 
z
" clip-path="url(#p9421c272c7)" style="fill: #dbeafe; stroke: #1e3a8a; stroke-width: 2; stroke-linejoin: miter"/>
   </g>
   <g id="patch_12">
    <path d="M 692.66304 283.117392 
L 743.01696 283.117392 
Q 762.65856 283.117392 762.65856 272.140272 
L 762.65856 243.998928 
Q 762.65856 233.021808 743.01696 233.021808 
L 692.66304 233.021808 
Q 673.02144 233.021808 673.02144 243.998928 
L 673.02144 272.140272 
Q 673.02144 283.117392 692.66304 283.117392 
z
" clip-path="url(#p9421c272c7)" style="fill: #fef3c7; stroke: #f59e0b; stroke-width: 2; stroke-linejoin: miter"/>
   </g>
   <g id="patch_13">
    <path d="M 282.368953 258.0696 
Q 298.222445 258.0696 311.83987 258.0696 
" clip-path="url(#p9421c272c7)" style="fill: none; stroke: #1e3a8a; stroke-width: 2; stroke-linecap: round"/>
    <path d="M 304.63987 254.4696 
L 311.83987 258.0696 
L 304.63987 261.6696 
z
" clip-path="url(#p9421c272c7)" style="fill: #1e3a8a; stroke: #1e3a8a; stroke-width: 2; stroke-linecap: round"/>
   </g>
   <g id="patch_14">
    <path d="M 460.928953 258.0696 
Q 476.782445 258.0696 490.39987 258.0696 
" clip-path="url(#p9421c272c7)" style="fill: none; stroke: #1e3a8a; stroke-width: 2; stroke-linecap: round"/>
    <path d="M 483.19987 254.4696 
L 490.39987 258.0696 
L 483.19987 261.6696 
z
" clip-path="url(#p9421c272c7)" style="fill: #1e3a8a; stroke: #1e3a8a; stroke-width: 2; stroke-linecap: round"/>
   </g>
   <g id="patch_15">
    <path d="M 639.488953 258.0696 
Q 655.342445 258.0696 668.95987 258.0696 
" clip-path="url(#p9421c272c7)" style="fill: none; stroke: #1e3a8a; stroke-width: 2; stroke-linecap: round"/>
    <path d="M 661.75987 254.4696 
L 668.95987 258.0696 
L 661.75987 261.6696 
z
" clip-path="url(#p9421c272c7)" style="fill: #1e3a8a; stroke: #1e3a8a; stroke-width: 2; stroke-linecap: round"/>
   </g>
   <g id="patch_16">
    <path d="M 153.32256 432.855288 
L 746.67744 432.855288 
Q 771.67584 432.855288 771.67584 418.884408 
L 771.67584 356.713992 
Q 771.67584 342.743112 746.67744 342.743112 
L 153.32256 342.743112 
Q 128.32416 342.743112 128.32416 356.713992 
L 128.32416 418.884408 
Q 128.32416 432.855288 153.32256 432.855288 
z
" clip-path="url(#p9421c272c7)" style="fill: #f8fafc; stroke: #6b7280; stroke-width: 2.2; stroke-linejoin: miter"/>
   </g>
   <g id="patch_17">
    <path d="M 183.76704 412.846992 
L 305.54496 412.846992 
Q 325.18656 412.846992 325.18656 401.869872 
L 325.18656 373.728528 
Q 325.18656 362.751408 305.54496 362.751408 
L 183.76704 362.751408 
Q 164.12544 362.751408 164.12544 373.728528 
L 164.12544 401.869872 
Q 164.12544 412.846992 183.76704 412.846992 
z
" clip-path="url(#p9421c272c7)" style="fill: #ecfdf5; stroke: #10b981; stroke-width: 2; stroke-linejoin: miter"/>
   </g>
   <g id="patch_18">
    <path d="M 380.18304 412.846992 
L 466.24896 412.846992 
Q 485.89056 412.846992 485.89056 401.869872 
L 485.89056 373.728528 
Q 485.89056 362.751408 466.24896 362.751408 
L 380.18304 362.751408 
Q 360.54144 362.751408 360.54144 373.728528 
L 360.54144 401.869872 
Q 360.54144 412.846992 380.18304 412.846992 
z
" clip-path="url(#p9421c272c7)" style="fill: #ecfdf5; stroke: #10b981; stroke-width: 2; stroke-linejoin: miter"/>
   </g>
   <g id="patch_19">
    <path d="M 540.88704 412.846992 
L 626.95296 412.846992 
Q 646.59456 412.846992 646.59456 401.869872 
L 646.59456 373.728528 
Q 646.59456 362.751408 626.95296 362.751408 
L 540.88704 362.751408 
Q 521.24544 362.751408 521.24544 373.728528 
L 521.24544 401.869872 
Q 521.24544 412.846992 540.88704 412.846992 
z
" clip-path="url(#p9421c272c7)" style="fill: #ecfdf5; stroke: #10b981; stroke-width: 2; stroke-linejoin: miter"/>
   </g>
   <g id="patch_20">
    <path d="M 683.73504 412.846992 
L 716.23296 412.846992 
Q 735.87456 412.846992 735.87456 401.869872 
L 735.87456 373.728528 
Q 735.87456 362.751408 716.23296 362.751408 
L 683.73504 362.751408 
Q 664.09344 362.751408 664.09344 373.728528 
L 664.09344 401.869872 
Q 664.09344 412.846992 683.73504 412.846992 
z
" clip-path="url(#p9421c272c7)" style="fill: #ecfdf5; stroke: #10b981; stroke-width: 2; stroke-linejoin: miter"/>
   </g>
   <g id="patch_21">
    <path d="M 327.008953 387.7992 
Q 342.862445 387.7992 356.47987 387.7992 
" clip-path="url(#p9421c272c7)" style="fill: none; stroke: #10b981; stroke-width: 2; stroke-linecap: round"/>
    <path d="M 349.27987 384.1992 
L 356.47987 387.7992 
L 349.27987 391.3992 
z
" clip-path="url(#p9421c272c7)" style="fill: #10b981; stroke: #10b981; stroke-width: 2; stroke-linecap: round"/>
   </g>
   <g id="patch_22">
    <path d="M 487.712953 387.7992 
Q 503.566445 387.7992 517.18387 387.7992 
" clip-path="url(#p9421c272c7)" style="fill: none; stroke: #10b981; stroke-width: 2; stroke-linecap: round"/>
    <path d="M 509.98387 384.1992 
L 517.18387 387.7992 
L 509.98387 391.3992 
z
" clip-path="url(#p9421c272c7)" style="fill: #10b981; stroke: #10b981; stroke-width: 2; stroke-linecap: round"/>
   </g>
   <g id="patch_23">
    <path d="M 648.416953 387.7992 
Q 655.343859 387.7992 660.034697 387.7992 
" clip-path="url(#p9421c272c7)" style="fill: none; stroke: #10b981; stroke-width: 2; stroke-linecap: round"/>
    <path d="M 652.834697 384.1992 
L 660.034697 387.7992 
L 652.834697 391.3992 
z
" clip-path="url(#p9421c272c7)" style="fill: #10b981; stroke: #10b981; stroke-width: 2; stroke-linecap: round"/>
   </g>
   <g id="patch_24">
    <path d="M 450 175.249062 
Q 450 193.204128 450 208.923125 
" clip-path="url(#p9421c272c7)" style="fill: none; stroke: #1e3a8a; stroke-width: 2; stroke-linecap: round"/>
    <path d="M 453.6 201.723125 
L 450 208.923125 
L 446.4 201.723125 
z
" clip-path="url(#p9421c272c7)" style="fill: #1e3a8a; stroke: #1e3a8a; stroke-width: 2; stroke-linecap: round"/>
   </g>
   <g id="patch_25">
    <path d="M 450 304.978662 
Q 450 322.933728 450 338.652725 
" clip-path="url(#p9421c272c7)" style="fill: none; stroke: #1e3a8a; stroke-width: 2; stroke-linecap: round"/>
    <path d="M 453.6 331.452725 
L 450 338.652725 
L 446.4 331.452725 
z
" clip-path="url(#p9421c272c7)" style="fill: #1e3a8a; stroke: #1e3a8a; stroke-width: 2; stroke-linecap: round"/>
   </g>
   <g id="text_1">
    <!-- 第 6 页：内存系统整体结构 -->
    <g style="fill: #1e3a8a" transform="translate(305.9625 30.3609) scale(0.24 -0.24)">
     <defs>
      <path id="NotoSansCJKjp-Regular-7b2c" d="M 1133 2566 
C 1037 2061 877 1421 742 1005 
L 1216 934 
L 1280 1158 
L 2547 1158 
C 1965 640 1069 198 275 -26 
C 378 -115 518 -288 589 -410 
C 1414 -134 2342 390 2963 1005 
L 2963 -512 
L 3430 -512 
L 3430 1158 
L 5363 1158 
C 5299 576 5229 326 5139 237 
C 5082 192 5024 186 4909 186 
C 4794 179 4493 186 4179 218 
C 4256 96 4307 -90 4314 -224 
C 4646 -243 4960 -243 5120 -230 
C 5299 -218 5421 -179 5530 -70 
C 5690 90 5779 480 5869 1376 
C 5875 1440 5882 1568 5882 1568 
L 3430 1568 
L 3430 2163 
L 5510 2163 
L 5510 3622 
L 826 3622 
L 826 3213 
L 2963 3213 
L 2963 2566 
L 1133 2566 
z
M 1523 2163 
L 2963 2163 
L 2963 1568 
L 1382 1568 
L 1523 2163 
z
M 3430 3213 
L 5037 3213 
L 5037 2566 
L 3430 2566 
L 3430 3213 
z
M 1178 5408 
C 966 4838 614 4269 211 3898 
C 326 3834 518 3706 608 3635 
C 819 3846 1024 4128 1210 4435 
L 1446 4435 
C 1581 4179 1702 3878 1747 3674 
L 2170 3840 
C 2125 3994 2029 4224 1926 4435 
L 3110 4435 
L 3110 4819 
L 1421 4819 
C 1498 4973 1562 5126 1626 5286 
L 1178 5408 
z
M 3699 5408 
C 3488 4832 3104 4294 2650 3942 
C 2765 3885 2963 3744 3046 3667 
C 3283 3872 3507 4141 3706 4435 
L 4160 4435 
C 4352 4179 4544 3872 4621 3661 
L 5043 3827 
C 4973 4000 4826 4230 4672 4435 
L 6099 4435 
L 6099 4819 
L 3936 4819 
C 4019 4973 4090 5133 4154 5293 
L 3699 5408 
z
" transform="scale(0.015625)"/>
      <path id="NotoSansCJKjp-Regular-20" transform="scale(0.015625)"/>
      <path id="NotoSansCJKjp-Regular-36" d="M 1926 -83 
C 2656 -83 3277 531 3277 1440 
C 3277 2426 2765 2912 1971 2912 
C 1606 2912 1197 2701 909 2349 
C 934 3802 1466 4294 2118 4294 
C 2400 4294 2682 4154 2861 3936 
L 3194 4294 
C 2931 4576 2579 4774 2093 4774 
C 1184 4774 358 4077 358 2240 
C 358 691 1030 -83 1926 -83 
z
M 922 1882 
C 1229 2317 1587 2477 1875 2477 
C 2445 2477 2720 2074 2720 1440 
C 2720 800 2374 378 1926 378 
C 1338 378 986 909 922 1882 
z
" transform="scale(0.015625)"/>
      <path id="NotoSansCJKjp-Regular-9875" d="M 2970 2957 
L 2970 1798 
C 2970 1114 2694 352 320 -122 
C 422 -224 557 -410 614 -512 
C 3104 26 3462 915 3462 1792 
L 3462 2957 
L 2970 2957 
z
M 3488 704 
C 4230 358 5197 -173 5664 -531 
L 5965 -147 
C 5466 205 4499 710 3770 1030 
L 3488 704 
z
M 1094 3808 
L 1094 819 
L 1587 819 
L 1587 3360 
L 4864 3360 
L 4864 832 
L 5370 832 
L 5370 3808 
L 3059 3808 
C 3181 4032 3309 4307 3424 4576 
L 5984 4576 
L 5984 5024 
L 474 5024 
L 474 4576 
L 2874 4576 
C 2797 4326 2682 4038 2579 3808 
L 1094 3808 
z
" transform="scale(0.015625)"/>
      <path id="NotoSansCJKjp-Regular-ff1a" d="M 3200 3482 
C 3456 3482 3686 3667 3686 3962 
C 3686 4256 3456 4442 3200 4442 
C 2944 4442 2714 4256 2714 3962 
C 2714 3667 2944 3482 3200 3482 
z
M 3200 346 
C 3456 346 3686 538 3686 826 
C 3686 1120 3456 1312 3200 1312 
C 2944 1312 2714 1120 2714 826 
C 2714 538 2944 346 3200 346 
z
" transform="scale(0.015625)"/>
      <path id="NotoSansCJKjp-Regular-5185" d="M 634 4282 
L 634 -525 
L 1107 -525 
L 1107 3808 
L 2957 3808 
C 2925 2963 2688 1907 1274 1146 
C 1389 1062 1549 883 1619 781 
C 2483 1286 2944 1894 3187 2509 
C 3776 1965 4422 1299 4749 864 
L 5146 1178 
C 4749 1658 3968 2406 3334 2970 
C 3398 3258 3430 3539 3443 3808 
L 5306 3808 
L 5306 128 
C 5306 13 5274 -26 5146 -32 
C 5018 -32 4582 -38 4128 -19 
C 4198 -154 4275 -371 4294 -506 
C 4870 -506 5267 -506 5491 -429 
C 5709 -346 5779 -192 5779 122 
L 5779 4282 
L 3450 4282 
L 3450 5376 
L 2963 5376 
L 2963 4282 
L 634 4282 
z
" transform="scale(0.015625)"/>
      <path id="NotoSansCJKjp-Regular-5b58" d="M 3936 2298 
L 3936 1702 
L 2144 1702 
L 2144 1254 
L 3936 1254 
L 3936 64 
C 3936 -26 3910 -51 3802 -58 
C 3686 -64 3302 -64 2874 -51 
C 2944 -186 3002 -371 3027 -512 
C 3578 -512 3936 -506 4147 -435 
C 4365 -365 4422 -224 4422 58 
L 4422 1254 
L 6125 1254 
L 6125 1702 
L 4422 1702 
L 4422 2029 
C 4877 2330 5376 2752 5722 3149 
L 5414 3386 
L 5318 3360 
L 2688 3360 
L 2688 2918 
L 4890 2918 
C 4666 2694 4390 2464 4128 2298 
L 3936 2298 
z
M 2464 5376 
C 2387 5101 2298 4819 2189 4538 
L 403 4538 
L 403 4077 
L 1990 4077 
C 1574 3194 986 2368 205 1818 
C 282 1709 403 1498 461 1370 
C 730 1562 979 1779 1203 2022 
L 1203 -499 
L 1690 -499 
L 1690 2605 
C 2022 3059 2304 3558 2534 4077 
L 6010 4077 
L 6010 4538 
L 2726 4538 
C 2816 4774 2899 5018 2970 5254 
L 2464 5376 
z
" transform="scale(0.015625)"/>
      <path id="NotoSansCJKjp-Regular-7cfb" d="M 1715 1222 
C 1363 749 787 262 243 -51 
C 371 -128 582 -288 678 -378 
C 1197 -32 1805 512 2208 1043 
L 1715 1222 
z
M 4109 986 
C 4666 582 5350 -6 5677 -371 
L 6093 -64 
C 5741 301 5037 864 4493 1248 
L 4109 986 
z
M 5286 5286 
C 4179 5062 2208 4928 557 4883 
C 602 4768 659 4576 672 4448 
C 1235 4461 1843 4486 2445 4525 
C 2195 4198 1882 3840 1594 3565 
L 1158 3827 
L 832 3533 
C 1344 3232 1939 2790 2310 2445 
C 2125 2291 1933 2150 1760 2016 
L 358 2003 
L 403 1517 
L 2938 1581 
L 2938 -512 
L 3443 -512 
L 3443 1594 
L 5293 1645 
C 5466 1459 5613 1286 5715 1139 
L 6138 1427 
C 5811 1862 5126 2509 4563 2957 
L 4173 2707 
C 4403 2522 4646 2298 4883 2074 
L 2464 2029 
C 3226 2618 4083 3398 4730 4077 
L 4269 4326 
C 3853 3846 3270 3270 2682 2765 
C 2490 2938 2227 3136 1952 3328 
C 2317 3661 2739 4122 3072 4525 
L 3002 4563 
C 3974 4634 4915 4736 5632 4877 
L 5286 5286 
z
" transform="scale(0.015625)"/>
      <path id="NotoSansCJKjp-Regular-7edf" d="M 4467 2253 
L 4467 230 
C 4467 -243 4576 -384 5024 -384 
C 5114 -384 5498 -384 5587 -384 
C 5984 -384 6099 -141 6131 730 
C 6010 762 5818 838 5722 928 
C 5702 154 5677 38 5536 38 
C 5459 38 5158 38 5101 38 
C 4960 38 4941 58 4941 230 
L 4941 2253 
L 4467 2253 
z
M 3264 2240 
C 3226 973 3078 288 2029 -102 
C 2138 -192 2272 -371 2330 -493 
C 3488 -19 3686 806 3738 2240 
L 3264 2240 
z
M 269 339 
L 378 -134 
C 954 51 1709 288 2426 525 
L 2349 941 
C 1574 710 787 474 269 339 
z
M 3808 5274 
C 3930 5011 4090 4666 4154 4448 
L 2605 4448 
L 2605 4013 
L 3757 4013 
C 3469 3616 3027 3027 2880 2886 
C 2758 2771 2598 2726 2477 2694 
C 2528 2592 2618 2349 2637 2227 
C 2816 2304 3085 2336 5408 2554 
C 5510 2381 5606 2214 5670 2086 
L 6074 2310 
C 5882 2682 5466 3283 5120 3731 
L 4742 3539 
C 4883 3354 5030 3142 5165 2931 
L 3405 2784 
C 3693 3136 4058 3635 4326 4013 
L 6067 4013 
L 6067 4448 
L 4224 4448 
L 4634 4576 
C 4557 4781 4397 5133 4250 5389 
L 3808 5274 
z
M 384 2707 
C 480 2752 627 2784 1395 2893 
C 1120 2490 870 2176 755 2054 
C 550 1818 403 1658 262 1632 
C 320 1504 397 1267 422 1165 
C 557 1248 774 1318 2362 1664 
C 2349 1766 2342 1952 2355 2086 
L 1146 1850 
C 1632 2413 2112 3098 2515 3789 
L 2086 4045 
C 1965 3808 1830 3565 1683 3341 
L 896 3258 
C 1293 3808 1690 4506 1984 5178 
L 1498 5402 
C 1216 4627 742 3802 589 3590 
C 448 3373 326 3226 211 3200 
C 275 3066 352 2810 384 2707 
z
" transform="scale(0.015625)"/>
      <path id="NotoSansCJKjp-Regular-6574" d="M 1357 1139 
L 1357 32 
L 301 32 
L 301 -371 
L 6118 -371 
L 6118 32 
L 3430 32 
L 3430 563 
L 5274 563 
L 5274 934 
L 3430 934 
L 3430 1427 
L 5696 1427 
L 5696 1824 
L 730 1824 
L 730 1427 
L 2957 1427 
L 2957 32 
L 1818 32 
L 1818 1139 
L 1357 1139 
z
M 4109 5376 
C 3930 4742 3597 4154 3162 3770 
L 3162 4282 
L 2054 4282 
L 2054 4608 
L 3315 4608 
L 3315 4960 
L 2054 4960 
L 2054 5376 
L 1626 5376 
L 1626 4960 
L 365 4960 
L 365 4608 
L 1626 4608 
L 1626 4282 
L 550 4282 
L 550 3110 
L 1440 3110 
C 1126 2790 646 2470 256 2304 
C 346 2234 474 2093 538 1997 
C 883 2176 1306 2496 1626 2822 
L 1626 1997 
L 2054 1997 
L 2054 2784 
C 2368 2611 2790 2362 2970 2227 
L 3206 2547 
C 3027 2650 2349 2989 2086 3110 
L 3162 3110 
L 3162 3725 
C 3264 3642 3411 3494 3462 3411 
C 3603 3546 3744 3699 3866 3878 
C 4000 3590 4186 3296 4416 3021 
C 4064 2714 3629 2490 3104 2330 
C 3200 2253 3341 2074 3392 1978 
C 3904 2163 4339 2400 4704 2714 
C 5030 2406 5434 2138 5926 1958 
C 5990 2067 6112 2246 6202 2336 
C 5715 2483 5318 2720 4998 3002 
C 5299 3347 5530 3757 5677 4269 
L 6093 4269 
L 6093 4659 
L 4314 4659 
C 4403 4858 4480 5069 4544 5280 
L 4109 5376 
z
M 947 3962 
L 1626 3962 
L 1626 3430 
L 947 3430 
L 947 3962 
z
M 2054 3962 
L 2752 3962 
L 2752 3430 
L 2054 3430 
L 2054 3962 
z
M 4122 4269 
L 5216 4269 
C 5101 3891 4928 3571 4698 3302 
C 4435 3603 4243 3930 4109 4250 
L 4122 4269 
z
" transform="scale(0.015625)"/>
      <path id="NotoSansCJKjp-Regular-4f53" d="M 1606 5350 
C 1286 4384 762 3424 192 2797 
C 288 2688 429 2432 474 2323 
C 666 2541 851 2790 1024 3066 
L 1024 -499 
L 1485 -499 
L 1485 3872 
C 1702 4307 1894 4768 2054 5222 
L 1606 5350 
z
M 2662 1120 
L 2662 678 
L 3718 678 
L 3718 -474 
L 4186 -474 
L 4186 678 
L 5216 678 
L 5216 1120 
L 4186 1120 
L 4186 3334 
C 4582 2221 5197 1146 5862 538 
C 5952 666 6112 832 6227 915 
C 5536 1472 4870 2547 4493 3622 
L 6106 3622 
L 6106 4083 
L 4186 4083 
L 4186 5357 
L 3718 5357 
L 3718 4083 
L 1907 4083 
L 1907 3622 
L 3430 3622 
C 3034 2534 2362 1446 1658 883 
C 1766 800 1926 634 2003 518 
C 2682 1133 3309 2189 3718 3315 
L 3718 1120 
L 2662 1120 
z
" transform="scale(0.015625)"/>
      <path id="NotoSansCJKjp-Regular-7ed3" d="M 224 339 
L 307 -154 
C 941 -13 1792 166 2598 352 
L 2560 794 
C 1702 621 819 435 224 339 
z
M 358 2733 
C 454 2778 614 2810 1427 2906 
C 1139 2502 870 2182 749 2061 
C 538 1830 390 1677 243 1645 
C 301 1517 378 1280 403 1178 
C 557 1261 787 1312 2573 1638 
C 2560 1741 2541 1933 2547 2061 
L 1120 1830 
C 1638 2387 2144 3066 2579 3757 
L 2138 4026 
C 2016 3795 1875 3565 1728 3341 
L 877 3270 
C 1254 3802 1626 4480 1914 5133 
L 1421 5338 
C 1165 4589 704 3795 557 3590 
C 422 3386 307 3238 192 3213 
C 250 3078 333 2835 358 2733 
z
M 4090 5382 
L 4090 4518 
L 2611 4518 
L 2611 4058 
L 4090 4058 
L 4090 3059 
L 2771 3059 
L 2771 2598 
L 5926 2598 
L 5926 3059 
L 4582 3059 
L 4582 4058 
L 6035 4058 
L 6035 4518 
L 4582 4518 
L 4582 5382 
L 4090 5382 
z
M 2938 1946 
L 2938 -506 
L 3405 -506 
L 3405 -230 
L 5286 -230 
L 5286 -480 
L 5766 -480 
L 5766 1946 
L 2938 1946 
z
M 3405 205 
L 3405 1510 
L 5286 1510 
L 5286 205 
L 3405 205 
z
" transform="scale(0.015625)"/>
      <path id="NotoSansCJKjp-Regular-6784" d="M 3341 5376 
C 3181 4723 2931 4090 2618 3578 
L 2618 4006 
L 1766 4006 
L 1766 5376 
L 1306 5376 
L 1306 4006 
L 307 4006 
L 307 3546 
L 1242 3546 
C 1024 2694 576 1702 147 1184 
C 224 1069 346 870 397 742 
C 730 1171 1056 1882 1306 2605 
L 1306 -506 
L 1766 -506 
L 1766 2483 
C 1990 2176 2266 1779 2381 1568 
L 2682 1958 
C 2547 2138 1958 2842 1766 3046 
L 1766 3546 
L 2598 3546 
C 2483 3354 2349 3174 2214 3021 
C 2336 2950 2534 2797 2618 2720 
C 2874 3034 3110 3430 3322 3878 
L 5530 3878 
C 5446 1254 5350 275 5158 51 
C 5094 -32 5030 -51 4915 -45 
C 4781 -45 4474 -45 4128 -13 
C 4211 -154 4269 -358 4282 -493 
C 4595 -512 4915 -518 5107 -493 
C 5318 -467 5453 -416 5587 -237 
C 5824 77 5914 1069 6010 4077 
C 6010 4141 6010 4326 6010 4326 
L 3514 4326 
C 3629 4627 3738 4947 3827 5267 
L 3341 5376 
z
M 2432 1248 
L 2541 794 
L 4589 1101 
C 4646 928 4698 774 4723 640 
L 5126 794 
C 5030 1184 4749 1811 4474 2298 
L 4102 2170 
C 4224 1958 4339 1709 4442 1466 
L 3392 1344 
C 3603 1901 3827 2662 4000 3283 
L 3533 3386 
C 3411 2765 3168 1875 2950 1299 
L 2432 1248 
z
" transform="scale(0.015625)"/>
     </defs>
     <use xlink:href="#NotoSansCJKjp-Regular-7b2c"/>
     <use xlink:href="#NotoSansCJKjp-Regular-20" transform="translate(99.999985 0)"/>
     <use xlink:href="#NotoSansCJKjp-Regular-36" transform="translate(122.399979 0)"/>
     <use xlink:href="#NotoSansCJKjp-Regular-20" transform="translate(177.899963 0)"/>
     <use xlink:href="#NotoSansCJKjp-Regular-9875" transform="translate(200.299957 0)"/>
     <use xlink:href="#NotoSansCJKjp-Regular-ff1a" transform="translate(300.299942 0)"/>
     <use xlink:href="#NotoSansCJKjp-Regular-5185" transform="translate(400.299927 0)"/>
     <use xlink:href="#NotoSansCJKjp-Regular-5b58" transform="translate(500.299911 0)"/>
     <use xlink:href="#NotoSansCJKjp-Regular-7cfb" transform="translate(600.299896 0)"/>
     <use xlink:href="#NotoSansCJKjp-Regular-7edf" transform="translate(700.299881 0)"/>
     <use xlink:href="#NotoSansCJKjp-Regular-6574" transform="translate(800.299866 0)"/>
     <use xlink:href="#NotoSansCJKjp-Regular-4f53" transform="translate(900.29985 0)"/>
     <use xlink:href="#NotoSansCJKjp-Regular-7ed3" transform="translate(1000.299835 0)"/>
     <use xlink:href="#NotoSansCJKjp-Regular-6784" transform="translate(1100.29982 0)"/>
    </g>
   </g>
   <g id="text_2">
    <!-- 堆级分配 -->
    <g style="fill: #1e3a8a" transform="translate(146.448 102.653962) scale(0.15 -0.15)">
     <defs>
      <path id="NotoSansCJKjp-Regular-5806" d="M 4320 2445 
L 4320 1594 
L 3328 1594 
L 3328 2445 
L 4320 2445 
z
M 3328 5389 
C 3046 4435 2566 3520 1984 2931 
C 2086 2848 2266 2656 2342 2566 
C 2522 2765 2694 2995 2861 3245 
L 2861 -506 
L 3328 -506 
L 3328 -141 
L 6163 -141 
L 6163 301 
L 4794 301 
L 4794 1158 
L 5888 1158 
L 5888 1594 
L 4794 1594 
L 4794 2445 
L 5888 2445 
L 5888 2874 
L 4794 2874 
L 4794 3718 
L 6042 3718 
L 6042 4160 
L 4781 4160 
C 4954 4474 5133 4858 5280 5210 
L 4762 5325 
C 4659 4986 4480 4518 4307 4160 
L 3366 4160 
C 3533 4518 3674 4890 3795 5274 
L 3328 5389 
z
M 4320 2874 
L 3328 2874 
L 3328 3718 
L 4320 3718 
L 4320 2874 
z
M 4320 1158 
L 4320 301 
L 3328 301 
L 3328 1158 
L 4320 1158 
z
M 218 1024 
L 384 544 
C 960 774 1728 1088 2432 1382 
L 2342 1837 
L 1587 1542 
L 1587 3405 
L 2278 3405 
L 2278 3859 
L 1587 3859 
L 1587 5299 
L 1126 5299 
L 1126 3859 
L 333 3859 
L 333 3405 
L 1126 3405 
L 1126 1363 
L 218 1024 
z
" transform="scale(0.015625)"/>
      <path id="NotoSansCJKjp-Regular-7ea7" d="M 269 358 
L 384 -115 
C 992 115 1792 422 2547 723 
L 2451 1139 
C 1651 845 813 538 269 358 
z
M 2560 4960 
L 2560 4512 
L 3277 4512 
C 3200 2458 2976 794 2106 -230 
C 2221 -294 2445 -448 2528 -525 
C 3078 192 3379 1133 3552 2272 
C 3770 1747 4038 1261 4352 832 
C 3968 403 3507 77 3008 -154 
C 3110 -230 3277 -410 3347 -525 
C 3821 -288 4262 38 4646 467 
C 4998 64 5402 -269 5856 -499 
C 5926 -378 6074 -205 6182 -115 
C 5722 102 5306 429 4947 832 
C 5389 1427 5728 2182 5926 3110 
L 5626 3232 
L 5536 3213 
L 4883 3213 
C 5043 3738 5229 4410 5376 4960 
L 2560 4960 
z
M 3757 4512 
L 4774 4512 
C 4621 3910 4429 3238 4269 2790 
L 5370 2790 
C 5210 2170 4960 1645 4646 1197 
C 4218 1779 3885 2470 3661 3194 
C 3706 3610 3731 4051 3757 4512 
z
M 352 2707 
C 448 2752 602 2790 1427 2899 
C 1133 2477 858 2138 736 2003 
C 538 1760 384 1600 243 1574 
C 294 1453 365 1229 390 1133 
C 531 1235 749 1318 2458 1830 
C 2438 1933 2426 2118 2426 2234 
L 1171 1882 
C 1645 2445 2112 3117 2515 3795 
L 2112 4038 
C 1990 3795 1850 3558 1702 3328 
L 858 3238 
C 1248 3795 1632 4499 1926 5178 
L 1485 5382 
C 1210 4602 723 3770 576 3552 
C 429 3334 320 3187 198 3155 
C 256 3034 326 2803 352 2707 
z
" transform="scale(0.015625)"/>
      <path id="NotoSansCJKjp-Regular-5206" d="M 2074 5248 
C 1677 4256 966 3373 147 2829 
C 262 2739 474 2554 563 2451 
C 1363 3059 2118 4019 2586 5101 
L 2074 5248 
z
M 4307 5261 
L 3846 5075 
C 4326 4122 5139 3085 5850 2509 
C 5939 2643 6118 2829 6253 2931 
C 5549 3424 4723 4397 4307 5261 
z
M 1197 2957 
L 1197 2490 
L 2509 2490 
C 2368 1402 2010 378 486 -122 
C 595 -224 736 -416 800 -544 
C 2445 51 2854 1216 3027 2490 
L 4685 2490 
C 4608 864 4512 224 4346 58 
C 4282 -6 4205 -26 4077 -26 
C 3923 -26 3533 -19 3110 19 
C 3200 -115 3258 -320 3270 -461 
C 3674 -486 4070 -493 4288 -474 
C 4506 -454 4653 -410 4781 -243 
C 5005 0 5094 736 5190 2726 
C 5197 2790 5197 2957 5197 2957 
L 1197 2957 
z
" transform="scale(0.015625)"/>
      <path id="NotoSansCJKjp-Regular-914d" d="M 3546 5088 
L 3546 4627 
L 5491 4627 
L 5491 3072 
L 3565 3072 
L 3565 294 
C 3565 -294 3744 -448 4339 -448 
C 4461 -448 5280 -448 5414 -448 
C 5997 -448 6138 -154 6195 890 
C 6061 922 5862 1011 5747 1094 
C 5715 173 5670 6 5382 6 
C 5203 6 4525 6 4390 6 
C 4096 6 4038 51 4038 294 
L 4038 2611 
L 5491 2611 
L 5491 2176 
L 5952 2176 
L 5952 5088 
L 3546 5088 
z
M 915 1011 
L 2688 1011 
L 2688 346 
L 915 346 
L 915 1011 
z
M 915 1370 
L 915 3539 
L 1350 3539 
L 1350 3034 
C 1350 2688 1286 2272 915 1946 
C 979 1907 1082 1811 1126 1754 
C 1530 2125 1619 2637 1619 3027 
L 1619 3539 
L 1978 3539 
L 1978 2330 
C 1978 2022 2054 1965 2310 1965 
C 2355 1965 2573 1965 2624 1965 
L 2688 1965 
L 2688 1370 
L 915 1370 
z
M 365 5126 
L 365 4698 
L 1286 4698 
L 1286 3955 
L 525 3955 
L 525 -486 
L 915 -486 
L 915 -45 
L 2688 -45 
L 2688 -397 
L 3085 -397 
L 3085 3955 
L 2362 3955 
L 2362 4698 
L 3232 4698 
L 3232 5126 
L 365 5126 
z
M 1632 3955 
L 1632 4698 
L 2010 4698 
L 2010 3955 
L 1632 3955 
z
M 2253 3539 
L 2688 3539 
L 2688 2246 
L 2669 2259 
C 2656 2246 2643 2240 2573 2240 
C 2528 2240 2368 2240 2336 2240 
C 2259 2240 2253 2253 2253 2336 
L 2253 3539 
z
" transform="scale(0.015625)"/>
     </defs>
     <use xlink:href="#NotoSansCJKjp-Regular-5806"/>
     <use xlink:href="#NotoSansCJKjp-Regular-7ea7" transform="translate(99.999985 0)"/>
     <use xlink:href="#NotoSansCJKjp-Regular-5206" transform="translate(199.999969 0)"/>
     <use xlink:href="#NotoSansCJKjp-Regular-914d" transform="translate(299.999954 0)"/>
    </g>
   </g>
   <g id="text_3">
    <!-- kmalloc(n) -->
    <g style="fill: #111827" transform="translate(238.868906 132.024687) scale(0.13 -0.13)">
     <defs>
      <path id="NotoSansCJKjp-Regular-6b" d="M 589 0 
L 1165 0 
L 1165 915 
L 1818 1677 
L 2835 0 
L 3469 0 
L 2157 2074 
L 3315 3475 
L 2662 3475 
L 1190 1645 
L 1165 1645 
L 1165 5094 
L 589 5094 
L 589 0 
z
" transform="scale(0.015625)"/>
      <path id="NotoSansCJKjp-Regular-6d" d="M 589 0 
L 1178 0 
L 1178 2522 
C 1491 2880 1786 3053 2048 3053 
C 2490 3053 2694 2778 2694 2125 
L 2694 0 
L 3277 0 
L 3277 2522 
C 3603 2880 3885 3053 4154 3053 
C 4595 3053 4800 2778 4800 2125 
L 4800 0 
L 5382 0 
L 5382 2202 
C 5382 3085 5043 3565 4333 3565 
C 3904 3565 3546 3290 3181 2899 
C 3040 3309 2758 3565 2221 3565 
C 1805 3565 1446 3302 1139 2970 
L 1126 2970 
L 1069 3475 
L 589 3475 
L 589 0 
z
" transform="scale(0.015625)"/>
      <path id="NotoSansCJKjp-Regular-61" d="M 1389 -83 
C 1818 -83 2208 141 2541 416 
L 2560 416 
L 2611 0 
L 3091 0 
L 3091 2138 
C 3091 3002 2739 3565 1888 3565 
C 1325 3565 838 3315 525 3110 
L 749 2707 
C 1024 2893 1389 3078 1792 3078 
C 2362 3078 2509 2650 2509 2202 
C 1030 2035 378 1658 378 902 
C 378 275 806 -83 1389 -83 
z
M 1555 390 
C 1210 390 941 544 941 941 
C 941 1389 1338 1677 2509 1811 
L 2509 845 
C 2170 544 1888 390 1555 390 
z
" transform="scale(0.015625)"/>
      <path id="NotoSansCJKjp-Regular-6c" d="M 1203 -83 
C 1363 -83 1459 -58 1542 -32 
L 1459 416 
C 1395 403 1370 403 1338 403 
C 1248 403 1178 474 1178 653 
L 1178 5094 
L 589 5094 
L 589 691 
C 589 198 768 -83 1203 -83 
z
" transform="scale(0.015625)"/>
      <path id="NotoSansCJKjp-Regular-6f" d="M 1939 -83 
C 2790 -83 3546 582 3546 1734 
C 3546 2893 2790 3565 1939 3565 
C 1088 3565 333 2893 333 1734 
C 333 582 1088 -83 1939 -83 
z
M 1939 403 
C 1338 403 934 934 934 1734 
C 934 2534 1338 3072 1939 3072 
C 2541 3072 2950 2534 2950 1734 
C 2950 934 2541 403 1939 403 
z
" transform="scale(0.015625)"/>
      <path id="NotoSansCJKjp-Regular-63" d="M 1958 -83 
C 2374 -83 2771 83 3085 352 
L 2829 749 
C 2611 557 2330 403 2010 403 
C 1370 403 934 934 934 1734 
C 934 2534 1395 3072 2029 3072 
C 2298 3072 2522 2950 2720 2771 
L 3014 3155 
C 2771 3373 2458 3565 2003 3565 
C 1107 3565 333 2893 333 1734 
C 333 582 1037 -83 1958 -83 
z
" transform="scale(0.015625)"/>
      <path id="NotoSansCJKjp-Regular-28" d="M 1530 -1254 
L 1888 -1094 
C 1338 -186 1075 902 1075 1990 
C 1075 3072 1338 4154 1888 5069 
L 1530 5235 
C 941 4275 589 3245 589 1990 
C 589 730 941 -301 1530 -1254 
z
" transform="scale(0.015625)"/>
      <path id="NotoSansCJKjp-Regular-6e" d="M 589 0 
L 1178 0 
L 1178 2522 
C 1523 2874 1766 3053 2125 3053 
C 2586 3053 2784 2778 2784 2125 
L 2784 0 
L 3366 0 
L 3366 2202 
C 3366 3085 3034 3565 2304 3565 
C 1830 3565 1466 3302 1139 2970 
L 1126 2970 
L 1069 3475 
L 589 3475 
L 589 0 
z
" transform="scale(0.015625)"/>
      <path id="NotoSansCJKjp-Regular-29" d="M 634 -1254 
C 1222 -301 1574 730 1574 1990 
C 1574 3245 1222 4275 634 5235 
L 269 5069 
C 819 4154 1094 3072 1094 1990 
C 1094 902 819 -186 269 -1094 
L 634 -1254 
z
" transform="scale(0.015625)"/>
     </defs>
     <use xlink:href="#NotoSansCJKjp-Regular-6b"/>
     <use xlink:href="#NotoSansCJKjp-Regular-6d" transform="translate(55.199997 0)"/>
     <use xlink:href="#NotoSansCJKjp-Regular-61" transform="translate(147.799988 0)"/>
     <use xlink:href="#NotoSansCJKjp-Regular-6c" transform="translate(204.099976 0)"/>
     <use xlink:href="#NotoSansCJKjp-Regular-6c" transform="translate(232.499969 0)"/>
     <use xlink:href="#NotoSansCJKjp-Regular-6f" transform="translate(260.899963 0)"/>
     <use xlink:href="#NotoSansCJKjp-Regular-63" transform="translate(321.499954 0)"/>
     <use xlink:href="#NotoSansCJKjp-Regular-28" transform="translate(372.499939 0)"/>
     <use xlink:href="#NotoSansCJKjp-Regular-6e" transform="translate(406.299927 0)"/>
     <use xlink:href="#NotoSansCJKjp-Regular-29" transform="translate(467.299911 0)"/>
    </g>
   </g>
   <g id="text_4">
    <!-- kmfree(p) -->
    <g style="fill: #111827" transform="translate(420.1325 132.167891) scale(0.13 -0.13)">
     <defs>
      <path id="NotoSansCJKjp-Regular-66" d="M 211 3002 
L 685 3002 
L 685 0 
L 1267 0 
L 1267 3002 
L 2003 3002 
L 2003 3475 
L 1267 3475 
L 1267 4026 
C 1267 4474 1427 4710 1760 4710 
C 1882 4710 2022 4678 2150 4614 
L 2278 5069 
C 2118 5133 1914 5178 1696 5178 
C 1005 5178 685 4736 685 4032 
L 685 3475 
L 211 3443 
L 211 3002 
z
" transform="scale(0.015625)"/>
      <path id="NotoSansCJKjp-Regular-72" d="M 589 0 
L 1178 0 
L 1178 2234 
C 1408 2822 1760 3040 2048 3040 
C 2195 3040 2272 3021 2387 2982 
L 2496 3488 
C 2387 3546 2278 3565 2125 3565 
C 1741 3565 1382 3283 1139 2842 
L 1126 2842 
L 1069 3475 
L 589 3475 
L 589 0 
z
" transform="scale(0.015625)"/>
      <path id="NotoSansCJKjp-Regular-65" d="M 1997 -83 
C 2464 -83 2835 70 3136 269 
L 2931 659 
C 2669 486 2400 384 2061 384 
C 1402 384 947 858 909 1600 
L 3251 1600 
C 3264 1690 3277 1805 3277 1933 
C 3277 2925 2778 3565 1888 3565 
C 1094 3565 333 2867 333 1734 
C 333 589 1069 -83 1997 -83 
z
M 902 2016 
C 973 2707 1408 3098 1901 3098 
C 2445 3098 2765 2720 2765 2016 
L 902 2016 
z
" transform="scale(0.015625)"/>
      <path id="NotoSansCJKjp-Regular-70" d="M 589 -1466 
L 1178 -1466 
L 1178 -288 
L 1158 320 
C 1472 58 1805 -83 2118 -83 
C 2912 -83 3629 602 3629 1792 
C 3629 2867 3142 3565 2246 3565 
C 1843 3565 1453 3334 1139 3072 
L 1126 3072 
L 1069 3475 
L 589 3475 
L 589 -1466 
z
M 2022 410 
C 1792 410 1485 499 1178 768 
L 1178 2598 
C 1510 2906 1811 3072 2099 3072 
C 2765 3072 3021 2560 3021 1786 
C 3021 928 2598 410 2022 410 
z
" transform="scale(0.015625)"/>
     </defs>
     <use xlink:href="#NotoSansCJKjp-Regular-6b"/>
     <use xlink:href="#NotoSansCJKjp-Regular-6d" transform="translate(55.199997 0)"/>
     <use xlink:href="#NotoSansCJKjp-Regular-66" transform="translate(147.799988 0)"/>
     <use xlink:href="#NotoSansCJKjp-Regular-72" transform="translate(180.299973 0)"/>
     <use xlink:href="#NotoSansCJKjp-Regular-65" transform="translate(219.09996 0)"/>
     <use xlink:href="#NotoSansCJKjp-Regular-65" transform="translate(274.499954 0)"/>
     <use xlink:href="#NotoSansCJKjp-Regular-28" transform="translate(329.899948 0)"/>
     <use xlink:href="#NotoSansCJKjp-Regular-70" transform="translate(363.699936 0)"/>
     <use xlink:href="#NotoSansCJKjp-Regular-29" transform="translate(425.699921 0)"/>
    </g>
   </g>
   <g id="text_5">
    <!-- slab / 大对象回退 -->
    <g style="fill: #111827" transform="translate(586.962687 132.024687) scale(0.13 -0.13)">
     <defs>
      <path id="NotoSansCJKjp-Regular-73" d="M 1498 -83 
C 2317 -83 2758 384 2758 947 
C 2758 1606 2208 1811 1702 2003 
C 1312 2150 954 2278 954 2605 
C 954 2880 1158 3110 1600 3110 
C 1907 3110 2150 2976 2387 2803 
L 2669 3168 
C 2406 3386 2022 3565 1594 3565 
C 832 3565 397 3130 397 2579 
C 397 1984 922 1754 1408 1574 
C 1792 1434 2202 1267 2202 915 
C 2202 614 1978 371 1517 371 
C 1101 371 794 538 486 787 
L 205 397 
C 531 122 1005 -83 1498 -83 
z
" transform="scale(0.015625)"/>
      <path id="NotoSansCJKjp-Regular-62" d="M 2118 -83 
C 2912 -83 3629 602 3629 1792 
C 3629 2867 3142 3565 2246 3565 
C 1856 3565 1472 3347 1152 3078 
L 1178 3699 
L 1178 5094 
L 589 5094 
L 589 0 
L 1056 0 
L 1107 358 
L 1133 358 
C 1434 83 1798 -83 2118 -83 
z
M 2022 410 
C 1792 410 1478 499 1178 768 
L 1178 2598 
C 1504 2906 1811 3072 2099 3072 
C 2765 3072 3021 2560 3021 1786 
C 3021 928 2598 410 2022 410 
z
" transform="scale(0.015625)"/>
      <path id="NotoSansCJKjp-Regular-2f" d="M 70 -1146 
L 499 -1146 
L 2413 5082 
L 1990 5082 
L 70 -1146 
z
" transform="scale(0.015625)"/>
      <path id="NotoSansCJKjp-Regular-5927" d="M 2950 5370 
C 2944 4864 2950 4218 2854 3539 
L 397 3539 
L 397 3046 
L 2771 3046 
C 2515 1830 1875 589 275 -102 
C 410 -205 563 -378 640 -499 
C 2202 218 2893 1446 3206 2682 
C 3706 1222 4531 90 5773 -499 
C 5856 -358 6010 -160 6131 -51 
C 4890 467 4051 1632 3603 3046 
L 6029 3046 
L 6029 3539 
L 3366 3539 
C 3456 4211 3462 4851 3469 5370 
L 2950 5370 
z
" transform="scale(0.015625)"/>
      <path id="NotoSansCJKjp-Regular-5bf9" d="M 3213 2522 
C 3514 2067 3802 1459 3904 1075 
L 4326 1286 
C 4224 1670 3917 2259 3603 2701 
L 3213 2522 
z
M 582 2899 
C 973 2547 1389 2131 1760 1709 
C 1376 890 870 269 288 -109 
C 403 -205 550 -384 627 -499 
C 1216 -77 1715 512 2106 1299 
C 2394 941 2630 602 2784 314 
L 3168 666 
C 2982 998 2682 1395 2330 1798 
C 2624 2534 2835 3411 2944 4448 
L 2630 4538 
L 2547 4518 
L 448 4518 
L 448 4064 
L 2419 4064 
C 2323 3373 2170 2752 1965 2202 
C 1626 2554 1267 2899 922 3200 
L 582 2899 
z
M 4896 5376 
L 4896 3834 
L 3085 3834 
L 3085 3373 
L 4896 3373 
L 4896 141 
C 4896 26 4851 -6 4742 -13 
C 4634 -13 4275 -19 3872 0 
C 3936 -147 4006 -371 4032 -506 
C 4576 -506 4902 -493 5094 -410 
C 5293 -326 5370 -179 5370 141 
L 5370 3373 
L 6138 3373 
L 6138 3834 
L 5370 3834 
L 5370 5376 
L 4896 5376 
z
" transform="scale(0.015625)"/>
      <path id="NotoSansCJKjp-Regular-8c61" d="M 2125 5402 
C 1786 4877 1158 4243 320 3776 
C 429 3712 576 3558 653 3450 
C 781 3526 902 3610 1024 3693 
L 1024 2611 
L 2611 2611 
C 1984 2317 1158 2080 429 1933 
C 506 1850 627 1664 685 1581 
C 1171 1702 1722 1869 2234 2067 
C 2362 1984 2477 1901 2579 1811 
C 2042 1466 1165 1158 454 1011 
C 538 928 666 768 723 666 
C 1408 845 2253 1190 2835 1568 
C 2931 1466 3014 1363 3078 1254 
C 2432 723 1286 211 346 -19 
C 442 -109 570 -275 627 -384 
C 1491 -134 2547 358 3251 915 
C 3411 499 3341 147 3123 0 
C 2995 -96 2861 -109 2701 -109 
C 2560 -109 2342 -102 2125 -83 
C 2208 -205 2253 -390 2266 -518 
C 2451 -525 2643 -531 2784 -531 
C 3046 -525 3219 -486 3424 -346 
C 4051 58 3962 1363 2656 2246 
C 2893 2355 3123 2470 3315 2592 
C 3744 1197 4563 166 5824 -320 
C 5894 -192 6029 -6 6138 83 
C 5414 320 4832 755 4403 1331 
C 4890 1574 5478 1933 5933 2253 
L 5542 2534 
C 5203 2259 4659 1894 4192 1638 
C 4013 1933 3866 2259 3750 2611 
L 5446 2611 
L 5446 4090 
L 3686 4090 
C 3872 4301 4045 4538 4173 4755 
L 3846 4973 
L 3770 4947 
L 2368 4947 
C 2464 5062 2547 5184 2630 5299 
L 2125 5402 
z
M 2035 4563 
L 3488 4563 
C 3386 4403 3251 4230 3117 4090 
L 1536 4090 
C 1715 4243 1882 4403 2035 4563 
z
M 1478 3718 
L 2944 3718 
L 2944 2982 
L 1478 2982 
L 1478 3718 
z
M 3418 3718 
L 4973 3718 
L 4973 2982 
L 3418 2982 
L 3418 3718 
z
" transform="scale(0.015625)"/>
      <path id="NotoSansCJKjp-Regular-56de" d="M 2394 3200 
L 3955 3200 
L 3955 1734 
L 2394 1734 
L 2394 3200 
z
M 1939 3635 
L 1939 1306 
L 4429 1306 
L 4429 3635 
L 1939 3635 
z
M 525 5114 
L 525 -506 
L 1018 -506 
L 1018 -160 
L 5370 -160 
L 5370 -506 
L 5882 -506 
L 5882 5114 
L 525 5114 
z
M 1018 294 
L 1018 4634 
L 5370 4634 
L 5370 294 
L 1018 294 
z
" transform="scale(0.015625)"/>
      <path id="NotoSansCJKjp-Regular-9000" d="M 442 4896 
C 858 4614 1338 4186 1542 3872 
L 1920 4186 
C 1696 4499 1216 4915 794 5184 
L 442 4896 
z
M 5632 2739 
C 5382 2509 4966 2202 4621 1978 
C 4474 2202 4358 2438 4262 2701 
L 5504 2701 
L 5504 5101 
L 2573 5101 
L 2573 1011 
L 2131 915 
L 2214 461 
C 2810 608 3597 806 4346 998 
L 4307 1421 
L 3040 1120 
L 3040 2701 
L 3834 2701 
C 4173 1613 4813 794 5798 416 
C 5869 544 6003 730 6112 826 
C 5594 992 5165 1286 4838 1683 
C 5203 1888 5651 2182 6010 2458 
L 5632 2739 
z
M 3040 4685 
L 5037 4685 
L 5037 4102 
L 3040 4102 
L 3040 4685 
z
M 3040 3117 
L 3040 3725 
L 5037 3725 
L 5037 3117 
L 3040 3117 
z
M 1677 2848 
L 314 2848 
L 314 2400 
L 1210 2400 
L 1210 768 
C 890 499 518 230 230 32 
L 480 -461 
C 826 -173 1152 102 1459 378 
C 1869 -128 2445 -358 3283 -390 
C 3994 -416 5318 -403 6016 -371 
C 6035 -224 6118 6 6176 115 
C 5414 64 3981 45 3283 77 
C 2541 102 1978 326 1677 794 
L 1677 2848 
z
" transform="scale(0.015625)"/>
     </defs>
     <use xlink:href="#NotoSansCJKjp-Regular-73"/>
     <use xlink:href="#NotoSansCJKjp-Regular-6c" transform="translate(46.799988 0)"/>
     <use xlink:href="#NotoSansCJKjp-Regular-61" transform="translate(75.199982 0)"/>
     <use xlink:href="#NotoSansCJKjp-Regular-62" transform="translate(131.499969 0)"/>
     <use xlink:href="#NotoSansCJKjp-Regular-20" transform="translate(193.299957 0)"/>
     <use xlink:href="#NotoSansCJKjp-Regular-2f" transform="translate(215.699951 0)"/>
     <use xlink:href="#NotoSansCJKjp-Regular-20" transform="translate(254.899948 0)"/>
     <use xlink:href="#NotoSansCJKjp-Regular-5927" transform="translate(277.299942 0)"/>
     <use xlink:href="#NotoSansCJKjp-Regular-5bf9" transform="translate(377.299927 0)"/>
     <use xlink:href="#NotoSansCJKjp-Regular-8c61" transform="translate(477.299911 0)"/>
     <use xlink:href="#NotoSansCJKjp-Regular-56de" transform="translate(577.299896 0)"/>
     <use xlink:href="#NotoSansCJKjp-Regular-9000" transform="translate(677.299881 0)"/>
    </g>
   </g>
   <g id="text_6">
    <!-- 虚拟内存管理 -->
    <g style="fill: #1e3a8a" transform="translate(110.736 232.383562) scale(0.15 -0.15)">
     <defs>
      <path id="NotoSansCJKjp-Regular-865a" d="M 1517 1453 
C 1728 1094 1939 608 2016 301 
L 2438 467 
C 2355 768 2125 1235 1907 1587 
L 1517 1453 
z
M 5114 1632 
C 4966 1280 4685 768 4467 448 
L 4806 314 
C 5043 608 5338 1075 5581 1472 
L 5114 1632 
z
M 826 4064 
L 826 2528 
C 826 1709 774 563 269 -256 
C 384 -301 589 -429 678 -506 
C 1210 352 1299 1638 1299 2528 
L 1299 3654 
L 2893 3654 
L 2893 3174 
L 1606 3059 
L 1645 2707 
L 2893 2822 
L 2893 2662 
C 2893 2202 3078 2093 3782 2093 
C 3936 2093 5094 2093 5261 2093 
C 5773 2093 5914 2227 5971 2752 
C 5850 2771 5670 2829 5568 2893 
C 5536 2522 5491 2464 5216 2464 
C 4966 2464 3987 2464 3802 2464 
C 3411 2464 3341 2496 3341 2662 
L 3341 2861 
L 4915 3008 
L 4883 3347 
L 3341 3213 
L 3341 3654 
L 5382 3654 
C 5325 3462 5261 3277 5197 3136 
L 5626 2995 
C 5747 3245 5888 3635 5997 3981 
L 5638 4083 
L 5555 4064 
L 3366 4064 
L 3366 4486 
L 5562 4486 
L 5562 4883 
L 3366 4883 
L 3366 5376 
L 2893 5376 
L 2893 4064 
L 826 4064 
z
M 3840 1875 
L 3840 32 
L 3110 32 
L 3110 1875 
L 2656 1875 
L 2656 32 
L 1171 32 
L 1171 -378 
L 5952 -378 
L 5952 32 
L 4288 32 
L 4288 1875 
L 3840 1875 
z
" transform="scale(0.015625)"/>
      <path id="NotoSansCJKjp-Regular-62df" d="M 3494 4134 
C 3789 3693 4077 3104 4179 2726 
L 4589 2918 
C 4480 3296 4173 3866 3878 4301 
L 3494 4134 
z
M 2675 5075 
L 2675 1158 
C 2413 1043 2176 934 1978 858 
L 2195 397 
C 2765 672 3488 1037 4173 1382 
L 4058 1798 
L 3130 1363 
L 3130 5075 
L 2675 5075 
z
M 5248 5126 
C 5229 2112 4922 614 2701 -102 
C 2803 -205 2957 -429 3008 -531 
C 3904 -198 4506 243 4915 851 
C 5254 378 5587 -154 5741 -518 
L 6163 -224 
C 5978 186 5562 794 5165 1286 
C 5600 2208 5715 3443 5741 5133 
L 5248 5126 
z
M 1178 5376 
L 1178 4083 
L 294 4083 
L 294 3629 
L 1178 3629 
L 1178 2259 
L 179 1984 
L 320 1517 
L 1178 1773 
L 1178 51 
C 1178 -38 1139 -64 1056 -70 
C 973 -70 704 -70 416 -64 
C 474 -192 544 -384 563 -499 
C 986 -499 1242 -486 1414 -416 
C 1574 -339 1638 -211 1638 58 
L 1638 1914 
L 2419 2150 
L 2355 2598 
L 1638 2387 
L 1638 3629 
L 2336 3629 
L 2336 4083 
L 1638 4083 
L 1638 5376 
L 1178 5376 
z
" transform="scale(0.015625)"/>
      <path id="NotoSansCJKjp-Regular-7ba1" d="M 1453 2803 
L 1453 -518 
L 1907 -518 
L 1907 -301 
L 4922 -301 
L 4922 -506 
L 5402 -506 
L 5402 1075 
L 1907 1075 
L 1907 1517 
L 4992 1517 
L 4992 2803 
L 1453 2803 
z
M 4922 77 
L 1907 77 
L 1907 698 
L 4922 698 
L 4922 77 
z
M 3686 5408 
C 3558 5088 3360 4781 3117 4518 
L 3117 4883 
L 1427 4883 
C 1498 5018 1562 5152 1619 5286 
L 1171 5408 
C 973 4902 621 4403 243 4070 
C 352 4013 550 3878 640 3808 
C 826 3994 1018 4230 1190 4493 
L 1459 4493 
C 1587 4275 1715 4006 1760 3834 
L 2202 3962 
C 2150 4109 2054 4307 1946 4493 
L 3091 4493 
C 2963 4358 2829 4237 2688 4134 
L 2950 3994 
L 2950 3578 
L 525 3578 
L 525 2374 
L 979 2374 
L 979 3200 
L 5459 3200 
L 5459 2374 
L 5926 2374 
L 5926 3578 
L 3418 3578 
L 3418 4083 
L 3315 4083 
C 3443 4205 3565 4346 3680 4493 
L 4192 4493 
C 4371 4275 4550 3994 4634 3814 
L 5069 3962 
C 4998 4109 4864 4314 4717 4493 
L 6125 4493 
L 6125 4883 
L 3942 4883 
C 4019 5018 4090 5152 4147 5293 
L 3686 5408 
z
M 1907 2432 
L 4512 2432 
L 4512 1882 
L 1907 1882 
L 1907 2432 
z
" transform="scale(0.015625)"/>
      <path id="NotoSansCJKjp-Regular-7406" d="M 3046 3456 
L 4026 3456 
L 4026 2630 
L 3046 2630 
L 3046 3456 
z
M 4442 3456 
L 5421 3456 
L 5421 2630 
L 4442 2630 
L 4442 3456 
z
M 3046 4659 
L 4026 4659 
L 4026 3846 
L 3046 3846 
L 3046 4659 
z
M 4442 4659 
L 5421 4659 
L 5421 3846 
L 4442 3846 
L 4442 4659 
z
M 2035 141 
L 2035 -301 
L 6189 -301 
L 6189 141 
L 4480 141 
L 4480 1024 
L 5971 1024 
L 5971 1459 
L 4480 1459 
L 4480 2214 
L 5882 2214 
L 5882 5082 
L 2605 5082 
L 2605 2214 
L 3987 2214 
L 3987 1459 
L 2528 1459 
L 2528 1024 
L 3987 1024 
L 3987 141 
L 2035 141 
z
M 224 640 
L 346 154 
C 909 339 1645 589 2336 819 
L 2253 1286 
L 1549 1050 
L 1549 2643 
L 2195 2643 
L 2195 3091 
L 1549 3091 
L 1549 4493 
L 2291 4493 
L 2291 4941 
L 294 4941 
L 294 4493 
L 1088 4493 
L 1088 3091 
L 358 3091 
L 358 2643 
L 1088 2643 
L 1088 902 
C 762 800 467 710 224 640 
z
" transform="scale(0.015625)"/>
     </defs>
     <use xlink:href="#NotoSansCJKjp-Regular-865a"/>
     <use xlink:href="#NotoSansCJKjp-Regular-62df" transform="translate(99.999985 0)"/>
     <use xlink:href="#NotoSansCJKjp-Regular-5185" transform="translate(199.999969 0)"/>
     <use xlink:href="#NotoSansCJKjp-Regular-5b58" transform="translate(299.999954 0)"/>
     <use xlink:href="#NotoSansCJKjp-Regular-7ba1" transform="translate(399.999939 0)"/>
     <use xlink:href="#NotoSansCJKjp-Regular-7406" transform="translate(499.999924 0)"/>
    </g>
   </g>
   <g id="text_7">
    <!-- 页表创建 -->
    <g style="fill: #111827" transform="translate(182.944 254.057069) scale(0.13 -0.13)">
     <defs>
      <path id="NotoSansCJKjp-Regular-8868" d="M 896 -64 
L 1050 -512 
C 1811 -320 2912 -45 3923 224 
L 3872 653 
L 2272 256 
L 2272 1715 
C 2637 1946 2970 2208 3232 2470 
C 3680 1005 4512 -26 5875 -493 
C 5946 -358 6086 -166 6195 -70 
C 5472 147 4896 538 4461 1062 
C 4896 1312 5421 1664 5824 1990 
L 5446 2285 
C 5133 1997 4640 1638 4224 1376 
C 4000 1709 3821 2086 3686 2502 
L 5997 2502 
L 5997 2918 
L 3430 2918 
L 3430 3501 
L 5523 3501 
L 5523 3898 
L 3430 3898 
L 3430 4422 
L 5773 4422 
L 5773 4845 
L 3430 4845 
L 3430 5376 
L 2944 5376 
L 2944 4845 
L 640 4845 
L 640 4422 
L 2944 4422 
L 2944 3898 
L 928 3898 
L 928 3501 
L 2944 3501 
L 2944 2918 
L 403 2918 
L 403 2502 
L 2630 2502 
C 1990 1971 1024 1491 179 1254 
C 282 1152 422 979 493 858 
C 909 998 1363 1197 1798 1434 
L 1798 141 
L 896 -64 
z
" transform="scale(0.015625)"/>
      <path id="NotoSansCJKjp-Regular-521b" d="M 5363 5274 
L 5363 128 
C 5363 6 5318 -32 5197 -38 
C 5069 -38 4666 -45 4218 -32 
C 4288 -160 4365 -365 4390 -486 
C 4986 -493 5338 -480 5549 -410 
C 5754 -326 5843 -192 5843 128 
L 5843 5274 
L 5363 5274 
z
M 4115 4634 
L 4115 1075 
L 4576 1075 
L 4576 4634 
L 4115 4634 
z
M 909 3034 
L 909 288 
C 909 -282 1101 -416 1722 -416 
C 1856 -416 2765 -416 2912 -416 
C 3482 -416 3622 -166 3686 717 
C 3552 749 3366 819 3258 902 
C 3226 141 3181 0 2880 0 
C 2682 0 1920 0 1760 0 
C 1434 0 1382 45 1382 288 
L 1382 2605 
L 2765 2605 
C 2714 1830 2656 1517 2579 1427 
C 2534 1370 2483 1363 2394 1363 
C 2304 1363 2080 1370 1843 1395 
C 1907 1274 1958 1107 1965 979 
C 2221 960 2470 966 2598 973 
C 2758 992 2867 1030 2963 1139 
C 3110 1299 3181 1734 3238 2842 
C 3245 2906 3245 3034 3245 3034 
L 909 3034 
z
M 2003 5363 
C 1664 4538 986 3654 173 3072 
C 282 2995 448 2835 525 2739 
C 1158 3226 1702 3866 2112 4563 
C 2618 4013 3174 3354 3456 2925 
L 3808 3245 
C 3501 3699 2854 4410 2317 4954 
L 2451 5235 
L 2003 5363 
z
" transform="scale(0.015625)"/>
      <path id="NotoSansCJKjp-Regular-5efa" d="M 2470 4864 
L 2470 4480 
L 3776 4480 
L 3776 4026 
L 2010 4026 
L 2010 3635 
L 3776 3635 
L 3776 3162 
L 2426 3162 
L 2426 2771 
L 3776 2771 
L 3776 2298 
L 2381 2298 
L 2381 1926 
L 3776 1926 
L 3776 1421 
L 2099 1421 
L 2099 1024 
L 3776 1024 
L 3776 346 
L 4243 346 
L 4243 1024 
L 6010 1024 
L 6010 1421 
L 4243 1421 
L 4243 1926 
L 5728 1926 
L 5728 2298 
L 4243 2298 
L 4243 2771 
L 5664 2771 
L 5664 3635 
L 6150 3635 
L 6150 4026 
L 5664 4026 
L 5664 4864 
L 4243 4864 
L 4243 5325 
L 3776 5325 
L 3776 4864 
L 2470 4864 
z
M 4243 3635 
L 5197 3635 
L 5197 3162 
L 4243 3162 
L 4243 3635 
z
M 4243 4026 
L 4243 4480 
L 5197 4480 
L 5197 4026 
L 4243 4026 
z
M 870 2202 
L 486 2061 
C 646 1536 851 1120 1094 800 
C 858 371 570 45 218 -192 
C 320 -256 506 -429 576 -525 
C 902 -288 1184 26 1421 435 
C 2099 -186 3021 -339 4192 -339 
L 5997 -339 
C 6022 -205 6112 19 6189 128 
C 5850 115 4467 115 4198 115 
C 3136 122 2253 256 1632 851 
C 1888 1440 2067 2176 2163 3091 
L 1882 3155 
L 1798 3149 
L 1133 3149 
C 1434 3757 1741 4410 1946 4896 
L 1619 4992 
L 1542 4973 
L 262 4973 
L 262 4538 
L 1312 4538 
C 1050 3974 672 3187 346 2586 
L 787 2464 
L 915 2714 
L 1664 2714 
C 1587 2144 1466 1658 1299 1242 
C 1126 1504 986 1818 870 2202 
z
" transform="scale(0.015625)"/>
     </defs>
     <use xlink:href="#NotoSansCJKjp-Regular-9875"/>
     <use xlink:href="#NotoSansCJKjp-Regular-8868" transform="translate(99.999985 0)"/>
     <use xlink:href="#NotoSansCJKjp-Regular-521b" transform="translate(199.999969 0)"/>
     <use xlink:href="#NotoSansCJKjp-Regular-5efa" transform="translate(299.999954 0)"/>
    </g>
    <!-- kvmmake / uvmcreate -->
    <g style="fill: #111827" transform="translate(141.122594 269.451506) scale(0.13 -0.13)">
     <defs>
      <path id="NotoSansCJKjp-Regular-76" d="M 1338 0 
L 2022 0 
L 3251 3475 
L 2675 3475 
L 2016 1498 
C 1914 1158 1798 806 1696 474 
L 1664 474 
C 1562 806 1453 1158 1344 1498 
L 691 3475 
L 83 3475 
L 1338 0 
z
" transform="scale(0.015625)"/>
      <path id="NotoSansCJKjp-Regular-75" d="M 1606 -83 
C 2080 -83 2426 166 2752 544 
L 2771 544 
L 2816 0 
L 3302 0 
L 3302 3475 
L 2720 3475 
L 2720 1011 
C 2387 602 2138 422 1779 422 
C 1318 422 1126 698 1126 1344 
L 1126 3475 
L 538 3475 
L 538 1274 
C 538 384 870 -83 1606 -83 
z
" transform="scale(0.015625)"/>
      <path id="NotoSansCJKjp-Regular-74" d="M 1677 -83 
C 1894 -83 2125 -19 2323 45 
L 2208 486 
C 2093 435 1939 390 1811 390 
C 1408 390 1274 634 1274 1056 
L 1274 3002 
L 2221 3002 
L 2221 3475 
L 1274 3475 
L 1274 4454 
L 787 4454 
L 723 3475 
L 173 3443 
L 173 3002 
L 691 3002 
L 691 1075 
C 691 378 941 -83 1677 -83 
z
" transform="scale(0.015625)"/>
     </defs>
     <use xlink:href="#NotoSansCJKjp-Regular-6b"/>
     <use xlink:href="#NotoSansCJKjp-Regular-76" transform="translate(55.199997 0)"/>
     <use xlink:href="#NotoSansCJKjp-Regular-6d" transform="translate(107.299988 0)"/>
     <use xlink:href="#NotoSansCJKjp-Regular-6d" transform="translate(199.899979 0)"/>
     <use xlink:href="#NotoSansCJKjp-Regular-61" transform="translate(292.499969 0)"/>
     <use xlink:href="#NotoSansCJKjp-Regular-6b" transform="translate(348.799957 0)"/>
     <use xlink:href="#NotoSansCJKjp-Regular-65" transform="translate(403.999954 0)"/>
     <use xlink:href="#NotoSansCJKjp-Regular-20" transform="translate(459.399948 0)"/>
     <use xlink:href="#NotoSansCJKjp-Regular-2f" transform="translate(481.799942 0)"/>
     <use xlink:href="#NotoSansCJKjp-Regular-20" transform="translate(520.999939 0)"/>
     <use xlink:href="#NotoSansCJKjp-Regular-75" transform="translate(543.399933 0)"/>
     <use xlink:href="#NotoSansCJKjp-Regular-76" transform="translate(604.09993 0)"/>
     <use xlink:href="#NotoSansCJKjp-Regular-6d" transform="translate(656.199921 0)"/>
     <use xlink:href="#NotoSansCJKjp-Regular-63" transform="translate(748.799911 0)"/>
     <use xlink:href="#NotoSansCJKjp-Regular-72" transform="translate(799.799896 0)"/>
     <use xlink:href="#NotoSansCJKjp-Regular-65" transform="translate(838.599884 0)"/>
     <use xlink:href="#NotoSansCJKjp-Regular-61" transform="translate(893.999878 0)"/>
     <use xlink:href="#NotoSansCJKjp-Regular-74" transform="translate(950.299866 0)"/>
     <use xlink:href="#NotoSansCJKjp-Regular-65" transform="translate(987.999863 0)"/>
    </g>
   </g>
   <g id="text_8">
    <!-- 地址映射 -->
    <g style="fill: #111827" transform="translate(361.504 253.920975) scale(0.13 -0.13)">
     <defs>
      <path id="NotoSansCJKjp-Regular-5730" d="M 2746 4781 
L 2746 3027 
L 2054 2739 
L 2234 2310 
L 2746 2528 
L 2746 506 
C 2746 -192 2957 -365 3693 -365 
C 3859 -365 5094 -365 5274 -365 
C 5939 -365 6099 -83 6170 800 
C 6042 819 5850 896 5741 979 
C 5696 243 5632 70 5254 70 
C 4998 70 3923 70 3712 70 
C 3283 70 3206 141 3206 493 
L 3206 2726 
L 4064 3091 
L 4064 915 
L 4518 915 
L 4518 3283 
L 5414 3667 
C 5414 2637 5402 1926 5370 1773 
C 5338 1626 5280 1600 5178 1600 
C 5114 1600 4902 1600 4749 1613 
C 4806 1504 4845 1318 4864 1190 
C 5043 1190 5299 1190 5466 1242 
C 5658 1286 5779 1402 5818 1664 
C 5862 1914 5875 2874 5875 4077 
L 5901 4166 
L 5562 4294 
L 5472 4224 
L 5376 4134 
L 4518 3776 
L 4518 5376 
L 4064 5376 
L 4064 3584 
L 3206 3226 
L 3206 4781 
L 2746 4781 
z
M 211 986 
L 403 506 
C 966 755 1696 1082 2381 1402 
L 2272 1830 
L 1542 1523 
L 1542 3379 
L 2298 3379 
L 2298 3834 
L 1542 3834 
L 1542 5299 
L 1088 5299 
L 1088 3834 
L 269 3834 
L 269 3379 
L 1088 3379 
L 1088 1331 
C 755 1197 454 1075 211 986 
z
" transform="scale(0.015625)"/>
      <path id="NotoSansCJKjp-Regular-5740" d="M 2778 3974 
L 2778 179 
L 1997 179 
L 1997 -282 
L 6157 -282 
L 6157 179 
L 4678 179 
L 4678 2694 
L 6061 2694 
L 6061 3162 
L 4678 3162 
L 4678 5331 
L 4192 5331 
L 4192 179 
L 3251 179 
L 3251 3974 
L 2778 3974 
z
M 218 1043 
L 397 570 
C 998 813 1786 1146 2515 1466 
L 2432 1888 
L 1613 1568 
L 1613 3379 
L 2451 3379 
L 2451 3834 
L 1613 3834 
L 1613 5293 
L 1165 5293 
L 1165 3834 
L 288 3834 
L 288 3379 
L 1165 3379 
L 1165 1395 
C 806 1254 480 1133 218 1043 
z
" transform="scale(0.015625)"/>
      <path id="NotoSansCJKjp-Regular-6620" d="M 4032 5344 
L 4032 4352 
L 2803 4352 
L 2803 2234 
L 2374 2234 
L 2374 1792 
L 3930 1792 
C 3750 1018 3283 346 2086 -141 
C 2189 -224 2323 -397 2387 -499 
C 3539 -19 4064 653 4301 1414 
C 4614 518 5126 -154 5888 -531 
C 5958 -410 6093 -230 6202 -141 
C 5414 192 4890 890 4614 1792 
L 6182 1792 
L 6182 2234 
L 5811 2234 
L 5811 4352 
L 4474 4352 
L 4474 5344 
L 4032 5344 
z
M 3238 2234 
L 3238 3910 
L 4032 3910 
L 4032 2906 
C 4032 2675 4026 2451 4000 2234 
L 3238 2234 
z
M 5363 2234 
L 4448 2234 
C 4467 2451 4474 2675 4474 2906 
L 4474 3910 
L 5363 3910 
L 5363 2234 
z
M 1728 2624 
L 1728 1139 
L 928 1139 
L 928 2624 
L 1728 2624 
z
M 1728 3046 
L 928 3046 
L 928 4474 
L 1728 4474 
L 1728 3046 
z
M 486 4909 
L 486 179 
L 928 179 
L 928 704 
L 2176 704 
L 2176 4909 
L 486 4909 
z
" transform="scale(0.015625)"/>
      <path id="NotoSansCJKjp-Regular-5c04" d="M 3494 2528 
C 3776 2061 4038 1440 4122 1050 
L 4563 1229 
C 4474 1626 4192 2227 3898 2688 
L 3494 2528 
z
M 1222 3366 
L 2496 3366 
L 2496 2816 
L 1222 2816 
L 1222 3366 
z
M 1222 3731 
L 1222 4275 
L 2496 4275 
L 2496 3731 
L 1222 3731 
z
M 1222 2451 
L 2496 2451 
L 2496 2189 
L 2349 1984 
L 1222 1843 
L 1222 2451 
z
M 250 1728 
L 320 1293 
C 787 1357 1363 1440 1958 1530 
C 1440 986 813 531 147 205 
C 243 122 410 -58 474 -154 
C 1216 250 1920 806 2496 1485 
L 2496 51 
C 2496 -45 2464 -70 2368 -77 
C 2272 -83 1971 -90 1638 -77 
C 1702 -192 1773 -390 1792 -512 
C 2246 -512 2534 -506 2714 -429 
C 2880 -352 2944 -218 2944 45 
L 2944 2074 
C 3053 2234 3155 2406 3251 2579 
L 2944 2682 
L 2944 4659 
L 1914 4659 
C 2010 4851 2106 5082 2195 5299 
L 1651 5382 
C 1606 5171 1510 4883 1421 4659 
L 787 4659 
L 787 1792 
L 250 1728 
z
M 4973 5344 
L 4973 3802 
L 3187 3802 
L 3187 3354 
L 4973 3354 
L 4973 102 
C 4973 -13 4928 -45 4813 -51 
C 4710 -51 4352 -58 3949 -45 
C 4019 -173 4102 -384 4128 -506 
C 4666 -512 4979 -499 5178 -416 
C 5370 -339 5446 -198 5446 102 
L 5446 3354 
L 6144 3354 
L 6144 3802 
L 5446 3802 
L 5446 5344 
L 4973 5344 
z
" transform="scale(0.015625)"/>
     </defs>
     <use xlink:href="#NotoSansCJKjp-Regular-5730"/>
     <use xlink:href="#NotoSansCJKjp-Regular-5740" transform="translate(99.999985 0)"/>
     <use xlink:href="#NotoSansCJKjp-Regular-6620" transform="translate(199.999969 0)"/>
     <use xlink:href="#NotoSansCJKjp-Regular-5c04" transform="translate(299.999954 0)"/>
    </g>
    <!-- walk / mappages -->
    <g style="fill: #111827" transform="translate(336.029078 269.315412) scale(0.13 -0.13)">
     <defs>
      <path id="NotoSansCJKjp-Regular-77" d="M 1139 0 
L 1818 0 
L 2310 1862 
C 2400 2195 2470 2522 2547 2874 
L 2579 2874 
C 2662 2522 2726 2202 2816 1875 
L 3315 0 
L 4026 0 
L 4966 3475 
L 4403 3475 
L 3898 1466 
C 3821 1133 3757 819 3686 499 
L 3654 499 
C 3571 819 3494 1133 3411 1466 
L 2867 3475 
L 2298 3475 
L 1754 1466 
C 1670 1133 1594 819 1523 499 
L 1491 499 
C 1421 819 1357 1133 1286 1466 
L 768 3475 
L 173 3475 
L 1139 0 
z
" transform="scale(0.015625)"/>
      <path id="NotoSansCJKjp-Regular-67" d="M 1760 -1600 
C 2835 -1600 3520 -1043 3520 -397 
C 3520 179 3110 429 2310 429 
L 1626 429 
C 1158 429 1018 589 1018 806 
C 1018 998 1114 1114 1242 1222 
C 1395 1146 1587 1101 1754 1101 
C 2470 1101 3027 1568 3027 2310 
C 3027 2611 2912 2867 2746 3027 
L 3456 3027 
L 3456 3475 
L 2246 3475 
C 2125 3526 1952 3565 1754 3565 
C 1056 3565 454 3085 454 2323 
C 454 1907 678 1568 909 1389 
L 909 1363 
C 723 1235 525 1005 525 717 
C 525 442 659 256 838 147 
L 838 115 
C 512 -83 326 -371 326 -672 
C 326 -1267 915 -1600 1760 -1600 
z
M 1754 1498 
C 1357 1498 1018 1818 1018 2323 
C 1018 2835 1350 3136 1754 3136 
C 2170 3136 2496 2835 2496 2323 
C 2496 1818 2157 1498 1754 1498 
z
M 1843 -1197 
C 1210 -1197 838 -960 838 -589 
C 838 -390 941 -179 1190 0 
C 1344 -38 1510 -51 1638 -51 
L 2240 -51 
C 2701 -51 2944 -166 2944 -493 
C 2944 -851 2515 -1197 1843 -1197 
z
" transform="scale(0.015625)"/>
     </defs>
     <use xlink:href="#NotoSansCJKjp-Regular-77"/>
     <use xlink:href="#NotoSansCJKjp-Regular-61" transform="translate(80.199982 0)"/>
     <use xlink:href="#NotoSansCJKjp-Regular-6c" transform="translate(136.499969 0)"/>
     <use xlink:href="#NotoSansCJKjp-Regular-6b" transform="translate(164.899963 0)"/>
     <use xlink:href="#NotoSansCJKjp-Regular-20" transform="translate(220.09996 0)"/>
     <use xlink:href="#NotoSansCJKjp-Regular-2f" transform="translate(242.499954 0)"/>
     <use xlink:href="#NotoSansCJKjp-Regular-20" transform="translate(281.699951 0)"/>
     <use xlink:href="#NotoSansCJKjp-Regular-6d" transform="translate(304.099945 0)"/>
     <use xlink:href="#NotoSansCJKjp-Regular-61" transform="translate(396.699936 0)"/>
     <use xlink:href="#NotoSansCJKjp-Regular-70" transform="translate(452.999924 0)"/>
     <use xlink:href="#NotoSansCJKjp-Regular-70" transform="translate(514.999908 0)"/>
     <use xlink:href="#NotoSansCJKjp-Regular-61" transform="translate(576.999893 0)"/>
     <use xlink:href="#NotoSansCJKjp-Regular-67" transform="translate(633.299881 0)"/>
     <use xlink:href="#NotoSansCJKjp-Regular-65" transform="translate(689.699875 0)"/>
     <use xlink:href="#NotoSansCJKjp-Regular-73" transform="translate(745.099869 0)"/>
    </g>
   </g>
   <g id="text_9">
    <!-- 地址回收 -->
    <g style="fill: #111827" transform="translate(540.064 253.954694) scale(0.13 -0.13)">
     <defs>
      <path id="NotoSansCJKjp-Regular-6536" d="M 3642 5376 
C 3405 4320 2995 3302 2438 2650 
L 2438 5344 
L 1965 5344 
L 1965 1677 
L 1120 1446 
L 1120 4640 
L 659 4640 
L 659 1331 
L 224 1222 
L 378 736 
L 1965 1229 
L 1965 -512 
L 2438 -512 
L 2438 2611 
C 2554 2522 2739 2362 2810 2278 
C 3002 2515 3187 2803 3354 3117 
C 3546 2374 3808 1702 4147 1133 
C 3718 614 3181 211 2490 -96 
C 2586 -205 2726 -416 2778 -531 
C 3443 -205 3987 211 4422 723 
C 4819 186 5312 -237 5914 -525 
C 5984 -397 6138 -211 6240 -115 
C 5626 147 5133 576 4730 1120 
C 5216 1824 5549 2682 5786 3731 
L 6170 3731 
L 6170 4186 
L 3808 4186 
C 3936 4538 4038 4909 4128 5280 
L 3642 5376 
z
M 5286 3731 
C 5107 2874 4838 2150 4454 1549 
C 4090 2176 3827 2918 3654 3731 
L 5286 3731 
z
" transform="scale(0.015625)"/>
     </defs>
     <use xlink:href="#NotoSansCJKjp-Regular-5730"/>
     <use xlink:href="#NotoSansCJKjp-Regular-5740" transform="translate(99.999985 0)"/>
     <use xlink:href="#NotoSansCJKjp-Regular-56de" transform="translate(199.999969 0)"/>
     <use xlink:href="#NotoSansCJKjp-Regular-6536" transform="translate(299.999954 0)"/>
    </g>
    <!-- uvmunmap / uvmfree -->
    <g style="fill: #111827" transform="translate(500.4465 269.553881) scale(0.13 -0.13)">
     <use xlink:href="#NotoSansCJKjp-Regular-75"/>
     <use xlink:href="#NotoSansCJKjp-Regular-76" transform="translate(60.699997 0)"/>
     <use xlink:href="#NotoSansCJKjp-Regular-6d" transform="translate(112.799988 0)"/>
     <use xlink:href="#NotoSansCJKjp-Regular-75" transform="translate(205.399979 0)"/>
     <use xlink:href="#NotoSansCJKjp-Regular-6e" transform="translate(266.099976 0)"/>
     <use xlink:href="#NotoSansCJKjp-Regular-6d" transform="translate(327.09996 0)"/>
     <use xlink:href="#NotoSansCJKjp-Regular-61" transform="translate(419.699951 0)"/>
     <use xlink:href="#NotoSansCJKjp-Regular-70" transform="translate(475.999939 0)"/>
     <use xlink:href="#NotoSansCJKjp-Regular-20" transform="translate(537.999924 0)"/>
     <use xlink:href="#NotoSansCJKjp-Regular-2f" transform="translate(560.399918 0)"/>
     <use xlink:href="#NotoSansCJKjp-Regular-20" transform="translate(599.599915 0)"/>
     <use xlink:href="#NotoSansCJKjp-Regular-75" transform="translate(621.999908 0)"/>
     <use xlink:href="#NotoSansCJKjp-Regular-76" transform="translate(682.699905 0)"/>
     <use xlink:href="#NotoSansCJKjp-Regular-6d" transform="translate(734.799896 0)"/>
     <use xlink:href="#NotoSansCJKjp-Regular-66" transform="translate(827.399887 0)"/>
     <use xlink:href="#NotoSansCJKjp-Regular-72" transform="translate(859.899872 0)"/>
     <use xlink:href="#NotoSansCJKjp-Regular-65" transform="translate(898.69986 0)"/>
     <use xlink:href="#NotoSansCJKjp-Regular-65" transform="translate(954.099854 0)"/>
    </g>
   </g>
   <g id="text_10">
    <!-- lazy sbrk -->
    <g style="fill: #111827" transform="translate(691.235703 261.721788) scale(0.13 -0.13)">
     <defs>
      <path id="NotoSansCJKjp-Regular-7a" d="M 224 0 
L 2854 0 
L 2854 474 
L 960 474 
L 2797 3162 
L 2797 3475 
L 422 3475 
L 422 3002 
L 2054 3002 
L 224 314 
L 224 0 
z
" transform="scale(0.015625)"/>
      <path id="NotoSansCJKjp-Regular-79" d="M 646 -1498 
C 1338 -1498 1702 -973 1946 -294 
L 3251 3475 
L 2682 3475 
L 2054 1549 
C 1965 1235 1862 883 1773 563 
L 1741 563 
C 1619 890 1504 1242 1395 1549 
L 691 3475 
L 83 3475 
L 1478 -6 
L 1402 -269 
C 1254 -698 1011 -1018 621 -1018 
C 525 -1018 422 -986 352 -960 
L 237 -1427 
C 346 -1472 486 -1498 646 -1498 
z
" transform="scale(0.015625)"/>
     </defs>
     <use xlink:href="#NotoSansCJKjp-Regular-6c"/>
     <use xlink:href="#NotoSansCJKjp-Regular-61" transform="translate(28.399994 0)"/>
     <use xlink:href="#NotoSansCJKjp-Regular-7a" transform="translate(84.699982 0)"/>
     <use xlink:href="#NotoSansCJKjp-Regular-79" transform="translate(132.199966 0)"/>
     <use xlink:href="#NotoSansCJKjp-Regular-20" transform="translate(184.299957 0)"/>
     <use xlink:href="#NotoSansCJKjp-Regular-73" transform="translate(206.699951 0)"/>
     <use xlink:href="#NotoSansCJKjp-Regular-62" transform="translate(253.499939 0)"/>
     <use xlink:href="#NotoSansCJKjp-Regular-72" transform="translate(315.299927 0)"/>
     <use xlink:href="#NotoSansCJKjp-Regular-6b" transform="translate(354.099915 0)"/>
    </g>
   </g>
   <g id="text_11">
    <!-- 物理页框管理 -->
    <g style="fill: #1e3a8a" transform="translate(146.448 362.113163) scale(0.15 -0.15)">
     <defs>
      <path id="NotoSansCJKjp-Regular-7269" d="M 3418 5376 
C 3206 4403 2822 3488 2285 2906 
C 2394 2842 2579 2707 2656 2630 
C 2938 2957 3181 3379 3392 3853 
L 3942 3853 
C 3648 2822 3078 1747 2400 1210 
C 2528 1139 2682 1024 2778 928 
C 3482 1542 4064 2746 4358 3853 
L 4883 3853 
C 4550 2234 3859 640 2803 -115 
C 2938 -179 3110 -307 3206 -403 
C 4269 442 4979 2163 5306 3853 
L 5606 3853 
C 5478 1299 5338 346 5133 115 
C 5062 32 4998 13 4890 13 
C 4768 13 4512 19 4224 45 
C 4301 -90 4346 -294 4358 -435 
C 4640 -454 4915 -454 5088 -435 
C 5280 -410 5408 -358 5536 -179 
C 5792 134 5933 1139 6074 4058 
C 6080 4122 6086 4301 6086 4301 
L 3571 4301 
C 3680 4614 3782 4954 3859 5293 
L 3418 5376 
z
M 627 5005 
C 550 4218 422 3405 186 2867 
C 288 2822 474 2707 550 2650 
C 659 2912 755 3245 832 3603 
L 1421 3603 
L 1421 2157 
C 973 2029 550 1907 224 1824 
L 352 1363 
L 1421 1696 
L 1421 -512 
L 1869 -512 
L 1869 1837 
L 2675 2093 
L 2611 2515 
L 1869 2291 
L 1869 3603 
L 2528 3603 
L 2528 4064 
L 1869 4064 
L 1869 5370 
L 1421 5370 
L 1421 4064 
L 922 4064 
C 966 4352 1011 4646 1043 4941 
L 627 5005 
z
" transform="scale(0.015625)"/>
      <path id="NotoSansCJKjp-Regular-6846" d="M 3309 1280 
L 3309 858 
L 6010 858 
L 6010 1280 
L 4858 1280 
L 4858 2285 
L 5798 2285 
L 5798 2694 
L 4858 2694 
L 4858 3584 
L 5869 3584 
L 5869 4006 
L 3411 4006 
L 3411 3584 
L 4403 3584 
L 4403 2694 
L 3514 2694 
L 3514 2285 
L 4403 2285 
L 4403 1280 
L 3309 1280 
z
M 2579 5043 
L 2579 -512 
L 3040 -512 
L 3040 -154 
L 6163 -154 
L 6163 301 
L 3040 301 
L 3040 4602 
L 6074 4602 
L 6074 5043 
L 2579 5043 
z
M 1229 5376 
L 1229 3987 
L 333 3987 
L 333 3539 
L 1178 3539 
C 992 2669 602 1658 198 1120 
C 275 1011 390 832 442 704 
C 736 1120 1011 1792 1229 2483 
L 1229 -506 
L 1670 -506 
L 1670 2592 
C 1856 2272 2080 1882 2170 1677 
L 2438 2035 
C 2323 2208 1843 2938 1670 3168 
L 1670 3539 
L 2387 3539 
L 2387 3987 
L 1670 3987 
L 1670 5376 
L 1229 5376 
z
" transform="scale(0.015625)"/>
     </defs>
     <use xlink:href="#NotoSansCJKjp-Regular-7269"/>
     <use xlink:href="#NotoSansCJKjp-Regular-7406" transform="translate(99.999985 0)"/>
     <use xlink:href="#NotoSansCJKjp-Regular-9875" transform="translate(199.999969 0)"/>
     <use xlink:href="#NotoSansCJKjp-Regular-6846" transform="translate(299.999954 0)"/>
     <use xlink:href="#NotoSansCJKjp-Regular-7ba1" transform="translate(399.999939 0)"/>
     <use xlink:href="#NotoSansCJKjp-Regular-7406" transform="translate(499.999924 0)"/>
    </g>
   </g>
   <g id="text_12">
    <!-- 运行时内存探测 -->
    <g style="fill: #111827" transform="translate(199.156 383.650575) scale(0.13 -0.13)">
     <defs>
      <path id="NotoSansCJKjp-Regular-8fd0" d="M 576 4998 
C 960 4787 1408 4448 1619 4198 
L 1958 4525 
C 1741 4774 1280 5094 896 5299 
L 576 4998 
z
M 326 3699 
C 730 3494 1210 3174 1434 2925 
L 1766 3270 
C 1530 3514 1043 3821 640 4013 
L 326 3699 
z
M 2458 5011 
L 2458 4557 
L 5677 4557 
L 5677 5011 
L 2458 5011 
z
M 1606 2400 
L 294 2400 
L 294 1952 
L 1139 1952 
L 1139 749 
C 832 480 493 218 211 19 
L 461 -461 
C 794 -179 1107 96 1402 371 
C 1811 -134 2394 -358 3238 -390 
C 3955 -416 5299 -403 6010 -371 
C 6035 -230 6112 -6 6170 109 
C 5402 58 3942 38 3232 64 
C 2483 96 1920 314 1606 781 
L 1606 2400 
z
M 4506 2490 
C 4749 2195 4998 1843 5216 1498 
L 3149 1338 
C 3392 1837 3667 2496 3885 3059 
L 6144 3059 
L 6144 3514 
L 2042 3514 
L 2042 3059 
L 3322 3059 
C 3155 2490 2893 1792 2662 1299 
L 2093 1261 
L 2170 781 
C 3021 858 4262 966 5453 1082 
C 5555 890 5638 710 5696 557 
L 6118 787 
C 5914 1312 5382 2099 4890 2682 
L 4506 2490 
z
" transform="scale(0.015625)"/>
      <path id="NotoSansCJKjp-Regular-884c" d="M 2784 4992 
L 2784 4531 
L 5933 4531 
L 5933 4992 
L 2784 4992 
z
M 1709 5382 
C 1382 4915 762 4346 224 3981 
C 307 3891 442 3706 506 3597 
C 1082 4006 1741 4634 2170 5190 
L 1709 5382 
z
M 2502 3226 
L 2502 2765 
L 4659 2765 
L 4659 109 
C 4659 6 4614 -26 4493 -32 
C 4378 -38 3942 -38 3488 -19 
C 3558 -160 3629 -358 3648 -493 
C 4275 -493 4640 -493 4858 -422 
C 5069 -339 5146 -192 5146 102 
L 5146 2765 
L 6112 2765 
L 6112 3226 
L 2502 3226 
z
M 1965 4006 
C 1523 3277 819 2534 160 2061 
C 256 1965 429 1754 499 1658 
C 736 1850 986 2080 1229 2330 
L 1229 -531 
L 1702 -531 
L 1702 2854 
C 1971 3174 2214 3507 2419 3840 
L 1965 4006 
z
" transform="scale(0.015625)"/>
      <path id="NotoSansCJKjp-Regular-65f6" d="M 3034 2893 
C 3373 2400 3808 1722 4013 1331 
L 4435 1574 
C 4218 1965 3776 2618 3430 3104 
L 3034 2893 
z
M 2074 2573 
L 2074 1114 
L 979 1114 
L 979 2573 
L 2074 2573 
z
M 2074 3002 
L 979 3002 
L 979 4403 
L 2074 4403 
L 2074 3002 
z
M 518 4838 
L 518 160 
L 979 160 
L 979 678 
L 2522 678 
L 2522 4838 
L 518 4838 
z
M 4890 5344 
L 4890 4096 
L 2816 4096 
L 2816 3622 
L 4890 3622 
L 4890 211 
C 4890 83 4838 38 4710 38 
C 4570 26 4096 26 3597 45 
C 3667 -96 3744 -314 3776 -448 
C 4416 -448 4826 -442 5056 -358 
C 5286 -282 5376 -141 5376 211 
L 5376 3622 
L 6157 3622 
L 6157 4096 
L 5376 4096 
L 5376 5344 
L 4890 5344 
z
" transform="scale(0.015625)"/>
      <path id="NotoSansCJKjp-Regular-63a2" d="M 4442 4403 
L 4442 3270 
C 4442 2842 4538 2720 5005 2720 
C 5094 2720 5542 2720 5638 2720 
C 5990 2720 6112 2880 6157 3514 
C 6035 3546 5856 3610 5760 3680 
C 5747 3174 5722 3117 5581 3117 
C 5491 3117 5133 3117 5062 3117 
C 4902 3117 4877 3136 4877 3270 
L 4877 4403 
L 4442 4403 
z
M 2394 5024 
L 2394 3872 
L 2816 3872 
L 2816 4602 
L 5594 4602 
L 5594 3891 
L 6022 3891 
L 6022 5024 
L 2394 5024 
z
M 3418 4397 
C 3366 3571 3174 3149 2246 2918 
C 2336 2842 2451 2682 2496 2573 
C 3552 2867 3795 3398 3859 4397 
L 3418 4397 
z
M 3923 2771 
L 3923 2074 
L 2291 2074 
L 2291 1638 
L 3622 1638 
C 3238 992 2611 422 1946 134 
C 2048 45 2182 -128 2253 -237 
C 2906 90 3514 672 3923 1357 
L 3923 -512 
L 4397 -512 
L 4397 1363 
C 4787 723 5357 128 5926 -205 
C 6003 -83 6150 83 6253 173 
C 5670 461 5069 1030 4704 1638 
L 6074 1638 
L 6074 2074 
L 4397 2074 
L 4397 2771 
L 3923 2771 
z
M 1069 5370 
L 1069 4083 
L 269 4083 
L 269 3635 
L 1069 3635 
L 1069 2323 
L 179 2054 
L 301 1594 
L 1069 1843 
L 1069 45 
C 1069 -45 1037 -70 960 -70 
C 883 -77 634 -77 358 -64 
C 416 -198 480 -397 493 -512 
C 902 -518 1146 -499 1299 -422 
C 1459 -352 1517 -218 1517 45 
L 1517 1990 
L 2221 2221 
L 2150 2662 
L 1517 2464 
L 1517 3635 
L 2208 3635 
L 2208 4083 
L 1517 4083 
L 1517 5370 
L 1069 5370 
z
" transform="scale(0.015625)"/>
      <path id="NotoSansCJKjp-Regular-6d4b" d="M 3110 589 
C 3437 269 3814 -179 3994 -467 
L 4307 -250 
C 4122 26 3738 461 3411 774 
L 3110 589 
z
M 1997 5005 
L 1997 986 
L 2374 986 
L 2374 4634 
L 3763 4634 
L 3763 1005 
L 4154 1005 
L 4154 5005 
L 1997 5005 
z
M 5549 5293 
L 5549 45 
C 5549 -51 5510 -83 5421 -83 
C 5331 -90 5030 -90 4691 -83 
C 4749 -198 4813 -384 4832 -486 
C 5280 -493 5555 -480 5722 -410 
C 5882 -339 5946 -218 5946 45 
L 5946 5293 
L 5549 5293 
z
M 4672 4800 
L 4672 966 
L 5056 966 
L 5056 4800 
L 4672 4800 
z
M 2854 4179 
L 2854 1914 
C 2854 1139 2726 339 1658 -205 
C 1728 -262 1850 -422 1894 -499 
C 3046 83 3226 1050 3226 1907 
L 3226 4179 
L 2854 4179 
z
M 518 4966 
C 877 4768 1338 4461 1555 4256 
L 1850 4646 
C 1619 4838 1152 5120 806 5306 
L 518 4966 
z
M 243 3238 
C 595 3040 1062 2752 1293 2560 
L 1581 2944 
C 1338 3130 864 3405 518 3584 
L 243 3238 
z
M 371 -173 
L 806 -429 
C 1075 160 1395 947 1626 1619 
L 1242 1869 
C 986 1152 627 320 371 -173 
z
" transform="scale(0.015625)"/>
     </defs>
     <use xlink:href="#NotoSansCJKjp-Regular-8fd0"/>
     <use xlink:href="#NotoSansCJKjp-Regular-884c" transform="translate(99.999985 0)"/>
     <use xlink:href="#NotoSansCJKjp-Regular-65f6" transform="translate(199.999969 0)"/>
     <use xlink:href="#NotoSansCJKjp-Regular-5185" transform="translate(299.999954 0)"/>
     <use xlink:href="#NotoSansCJKjp-Regular-5b58" transform="translate(399.999939 0)"/>
     <use xlink:href="#NotoSansCJKjp-Regular-63a2" transform="translate(499.999924 0)"/>
     <use xlink:href="#NotoSansCJKjp-Regular-6d4b" transform="translate(599.999908 0)"/>
    </g>
    <!-- DTB /memory/reg -->
    <g style="fill: #111827" transform="translate(190.192094 399.045012) scale(0.13 -0.13)">
     <defs>
      <path id="NotoSansCJKjp-Regular-44" d="M 646 0 
L 1843 0 
C 3258 0 4026 877 4026 2362 
C 4026 3859 3258 4691 1818 4691 
L 646 4691 
L 646 0 
z
M 1235 486 
L 1235 4211 
L 1766 4211 
C 2874 4211 3418 3552 3418 2362 
C 3418 1178 2874 486 1766 486 
L 1235 486 
z
" transform="scale(0.015625)"/>
      <path id="NotoSansCJKjp-Regular-54" d="M 1619 0 
L 2214 0 
L 2214 4192 
L 3635 4192 
L 3635 4691 
L 198 4691 
L 198 4192 
L 1619 4192 
L 1619 0 
z
" transform="scale(0.015625)"/>
      <path id="NotoSansCJKjp-Regular-42" d="M 646 0 
L 2138 0 
C 3187 0 3917 454 3917 1376 
C 3917 2016 3520 2387 2963 2496 
L 2963 2528 
C 3405 2669 3648 3078 3648 3546 
C 3648 4371 2982 4691 2035 4691 
L 646 4691 
L 646 0 
z
M 1235 2701 
L 1235 4224 
L 1958 4224 
C 2694 4224 3066 4019 3066 3469 
C 3066 2989 2739 2701 1933 2701 
L 1235 2701 
z
M 1235 474 
L 1235 2240 
L 2054 2240 
C 2880 2240 3334 1978 3334 1395 
C 3334 762 2861 474 2054 474 
L 1235 474 
z
" transform="scale(0.015625)"/>
     </defs>
     <use xlink:href="#NotoSansCJKjp-Regular-44"/>
     <use xlink:href="#NotoSansCJKjp-Regular-54" transform="translate(68.799988 0)"/>
     <use xlink:href="#NotoSansCJKjp-Regular-42" transform="translate(128.699982 0)"/>
     <use xlink:href="#NotoSansCJKjp-Regular-20" transform="translate(194.399979 0)"/>
     <use xlink:href="#NotoSansCJKjp-Regular-2f" transform="translate(216.799973 0)"/>
     <use xlink:href="#NotoSansCJKjp-Regular-6d" transform="translate(255.999969 0)"/>
     <use xlink:href="#NotoSansCJKjp-Regular-65" transform="translate(348.59996 0)"/>
     <use xlink:href="#NotoSansCJKjp-Regular-6d" transform="translate(403.999954 0)"/>
     <use xlink:href="#NotoSansCJKjp-Regular-6f" transform="translate(496.599945 0)"/>
     <use xlink:href="#NotoSansCJKjp-Regular-72" transform="translate(557.199936 0)"/>
     <use xlink:href="#NotoSansCJKjp-Regular-79" transform="translate(595.999924 0)"/>
     <use xlink:href="#NotoSansCJKjp-Regular-2f" transform="translate(648.099915 0)"/>
     <use xlink:href="#NotoSansCJKjp-Regular-72" transform="translate(687.299911 0)"/>
     <use xlink:href="#NotoSansCJKjp-Regular-65" transform="translate(726.099899 0)"/>
     <use xlink:href="#NotoSansCJKjp-Regular-67" transform="translate(781.499893 0)"/>
    </g>
   </g>
   <g id="text_13">
    <!-- kalloc() -->
    <g style="fill: #111827" transform="translate(400.6285 391.483888) scale(0.13 -0.13)">
     <use xlink:href="#NotoSansCJKjp-Regular-6b"/>
     <use xlink:href="#NotoSansCJKjp-Regular-61" transform="translate(55.199997 0)"/>
     <use xlink:href="#NotoSansCJKjp-Regular-6c" transform="translate(111.499985 0)"/>
     <use xlink:href="#NotoSansCJKjp-Regular-6c" transform="translate(139.899979 0)"/>
     <use xlink:href="#NotoSansCJKjp-Regular-6f" transform="translate(168.299973 0)"/>
     <use xlink:href="#NotoSansCJKjp-Regular-63" transform="translate(228.899963 0)"/>
     <use xlink:href="#NotoSansCJKjp-Regular-28" transform="translate(279.899948 0)"/>
     <use xlink:href="#NotoSansCJKjp-Regular-29" transform="translate(313.699936 0)"/>
    </g>
   </g>
   <g id="text_14">
    <!-- kfree() -->
    <g style="fill: #111827" transform="translate(564.101094 391.483888) scale(0.13 -0.13)">
     <use xlink:href="#NotoSansCJKjp-Regular-6b"/>
     <use xlink:href="#NotoSansCJKjp-Regular-66" transform="translate(55.199997 0)"/>
     <use xlink:href="#NotoSansCJKjp-Regular-72" transform="translate(87.699982 0)"/>
     <use xlink:href="#NotoSansCJKjp-Regular-65" transform="translate(126.499969 0)"/>
     <use xlink:href="#NotoSansCJKjp-Regular-65" transform="translate(181.899963 0)"/>
     <use xlink:href="#NotoSansCJKjp-Regular-28" transform="translate(237.299957 0)"/>
     <use xlink:href="#NotoSansCJKjp-Regular-29" transform="translate(271.099945 0)"/>
    </g>
   </g>
   <g id="text_15">
    <!-- freelist -->
    <g style="fill: #111827" transform="translate(682.245641 384.403981) scale(0.11 -0.11)">
     <defs>
      <path id="NotoSansCJKjp-Regular-69" d="M 589 0 
L 1178 0 
L 1178 3475 
L 589 3475 
L 589 0 
z
M 883 4192 
C 1114 4192 1274 4346 1274 4582 
C 1274 4806 1114 4960 883 4960 
C 653 4960 499 4806 499 4582 
C 499 4346 653 4192 883 4192 
z
" transform="scale(0.015625)"/>
     </defs>
     <use xlink:href="#NotoSansCJKjp-Regular-66"/>
     <use xlink:href="#NotoSansCJKjp-Regular-72" transform="translate(32.499985 0)"/>
     <use xlink:href="#NotoSansCJKjp-Regular-65" transform="translate(71.299973 0)"/>
     <use xlink:href="#NotoSansCJKjp-Regular-65" transform="translate(126.699966 0)"/>
     <use xlink:href="#NotoSansCJKjp-Regular-6c" transform="translate(182.09996 0)"/>
     <use xlink:href="#NotoSansCJKjp-Regular-69" transform="translate(210.499954 0)"/>
     <use xlink:href="#NotoSansCJKjp-Regular-73" transform="translate(237.999939 0)"/>
     <use xlink:href="#NotoSansCJKjp-Regular-74" transform="translate(284.799927 0)"/>
    </g>
    <!-- 4KB -->
    <g style="fill: #111827" transform="translate(689.765172 397.430044) scale(0.11 -0.11)">
     <defs>
      <path id="NotoSansCJKjp-Regular-34" d="M 2176 0 
L 2726 0 
L 2726 1293 
L 3354 1293 
L 3354 1760 
L 2726 1760 
L 2726 4691 
L 2080 4691 
L 128 1677 
L 128 1293 
L 2176 1293 
L 2176 0 
z
M 2176 1760 
L 736 1760 
L 1805 3360 
C 1939 3590 2067 3827 2182 4051 
L 2208 4051 
C 2195 3814 2176 3430 2176 3200 
L 2176 1760 
z
" transform="scale(0.015625)"/>
      <path id="NotoSansCJKjp-Regular-4b" d="M 646 0 
L 1235 0 
L 1235 1485 
L 2042 2445 
L 3450 0 
L 4109 0 
L 2413 2912 
L 3885 4691 
L 3213 4691 
L 1248 2336 
L 1235 2336 
L 1235 4691 
L 646 4691 
L 646 0 
z
" transform="scale(0.015625)"/>
     </defs>
     <use xlink:href="#NotoSansCJKjp-Regular-34"/>
     <use xlink:href="#NotoSansCJKjp-Regular-4b" transform="translate(55.499985 0)"/>
     <use xlink:href="#NotoSansCJKjp-Regular-42" transform="translate(120.099976 0)"/>
    </g>
   </g>
   <g id="text_16">
    <!-- 建立映射/分配对象 -->
    <g style="fill: #1e3a8a" transform="translate(399.647812 201.59565) scale(0.12 -0.12)">
     <defs>
      <path id="NotoSansCJKjp-Regular-7acb" d="M 1408 3194 
C 1728 2362 1971 1267 2003 563 
L 2496 685 
C 2445 1395 2202 2464 1862 3309 
L 1408 3194 
z
M 2938 5376 
L 2938 4115 
L 550 4115 
L 550 3642 
L 5894 3642 
L 5894 4115 
L 3437 4115 
L 3437 5376 
L 2938 5376 
z
M 4461 3347 
C 4275 2400 3910 1069 3590 243 
L 333 243 
L 333 -230 
L 6074 -230 
L 6074 243 
L 4096 243 
C 4403 1062 4762 2272 5011 3245 
L 4461 3347 
z
" transform="scale(0.015625)"/>
     </defs>
     <use xlink:href="#NotoSansCJKjp-Regular-5efa"/>
     <use xlink:href="#NotoSansCJKjp-Regular-7acb" transform="translate(99.999985 0)"/>
     <use xlink:href="#NotoSansCJKjp-Regular-6620" transform="translate(199.999969 0)"/>
     <use xlink:href="#NotoSansCJKjp-Regular-5c04" transform="translate(299.999954 0)"/>
     <use xlink:href="#NotoSansCJKjp-Regular-2f" transform="translate(399.999939 0)"/>
     <use xlink:href="#NotoSansCJKjp-Regular-5206" transform="translate(439.199936 0)"/>
     <use xlink:href="#NotoSansCJKjp-Regular-914d" transform="translate(539.199921 0)"/>
     <use xlink:href="#NotoSansCJKjp-Regular-5bf9" transform="translate(639.199905 0)"/>
     <use xlink:href="#NotoSansCJKjp-Regular-8c61" transform="translate(739.19989 0)"/>
    </g>
   </g>
   <g id="text_17">
    <!-- 底层页框支撑 -->
    <g style="fill: #1e3a8a" transform="translate(414 331.32525) scale(0.12 -0.12)">
     <defs>
      <path id="NotoSansCJKjp-Regular-5e95" d="M 1446 26 
L 1446 -403 
L 4314 -403 
L 4314 26 
L 1446 26 
z
M 5139 4122 
C 4493 3930 3360 3750 2349 3648 
L 1997 3750 
L 1997 902 
L 1382 838 
L 1440 397 
C 2118 480 3078 589 3994 710 
L 3987 1133 
L 2451 954 
L 2451 2099 
L 3987 2099 
C 4179 634 4634 -358 5446 -358 
C 5869 -365 6042 -115 6112 781 
C 5990 819 5824 909 5722 998 
C 5696 358 5638 96 5478 96 
C 4973 90 4614 870 4448 2099 
L 6067 2099 
L 6067 2528 
L 4403 2528 
C 4378 2835 4358 3168 4352 3514 
C 4781 3590 5178 3680 5510 3776 
L 5139 4122 
z
M 2451 2528 
L 2451 3264 
C 2912 3309 3411 3366 3885 3437 
C 3891 3123 3910 2816 3942 2528 
L 2451 2528 
z
M 774 4730 
L 774 2880 
C 774 1952 730 646 198 -269 
C 314 -320 512 -448 595 -531 
C 1152 435 1235 1888 1235 2880 
L 1235 4294 
L 6093 4294 
L 6093 4730 
L 3635 4730 
L 3635 5376 
L 3142 5376 
L 3142 4730 
L 774 4730 
z
" transform="scale(0.015625)"/>
      <path id="NotoSansCJKjp-Regular-5c42" d="M 1946 2918 
L 1946 2490 
L 5587 2490 
L 5587 2918 
L 1946 2918 
z
M 1338 4653 
L 5190 4653 
L 5190 3885 
L 1338 3885 
L 1338 4653 
z
M 851 5069 
L 851 3194 
C 851 2176 794 749 198 -256 
C 320 -301 531 -422 627 -499 
C 1248 550 1338 2118 1338 3194 
L 1338 3469 
L 5670 3469 
L 5670 5069 
L 851 5069 
z
M 1843 -410 
C 2042 -333 2349 -307 5139 -122 
C 5235 -288 5325 -448 5389 -570 
L 5830 -352 
C 5613 38 5158 717 4806 1210 
L 4390 1037 
C 4557 806 4736 531 4902 262 
L 2432 115 
C 2771 474 3117 928 3411 1395 
L 6035 1395 
L 6035 1818 
L 1530 1818 
L 1530 1395 
L 2803 1395 
C 2522 909 2163 461 2048 333 
C 1907 173 1779 58 1670 38 
C 1728 -83 1811 -314 1843 -410 
z
" transform="scale(0.015625)"/>
      <path id="NotoSansCJKjp-Regular-652f" d="M 2938 5376 
L 2938 4397 
L 493 4397 
L 493 3923 
L 2938 3923 
L 2938 2931 
L 787 2931 
L 787 2464 
L 1811 2464 
L 1421 2323 
C 1747 1664 2189 1126 2746 691 
C 2016 326 1158 90 250 -51 
C 346 -160 474 -384 518 -512 
C 1478 -333 2400 -51 3187 384 
C 3917 -64 4806 -371 5850 -531 
C 5920 -390 6048 -186 6157 -70 
C 5190 58 4352 307 3654 678 
C 4390 1184 4973 1862 5338 2758 
L 5005 2950 
L 4915 2931 
L 3437 2931 
L 3437 3923 
L 5894 3923 
L 5894 4397 
L 3437 4397 
L 3437 5376 
L 2938 5376 
z
M 1875 2464 
L 4640 2464 
C 4314 1830 3821 1331 3213 954 
C 2624 1350 2176 1856 1875 2464 
z
" transform="scale(0.015625)"/>
      <path id="NotoSansCJKjp-Regular-6491" d="M 3213 3526 
L 4954 3526 
L 4954 3059 
L 3213 3059 
L 3213 3526 
z
M 2797 3846 
L 2797 2733 
L 5402 2733 
L 5402 3846 
L 2797 3846 
z
M 5453 2566 
C 4749 2432 3456 2355 2406 2330 
C 2445 2240 2490 2093 2502 2003 
C 2938 2003 3418 2022 3891 2048 
L 3891 1670 
L 2298 1670 
L 2298 1318 
L 3891 1318 
L 3891 896 
L 2067 896 
L 2067 544 
L 3891 544 
L 3891 -13 
C 3891 -96 3866 -128 3763 -128 
C 3661 -134 3296 -134 2925 -122 
C 2989 -237 3053 -390 3085 -506 
C 3590 -506 3910 -506 4102 -442 
C 4301 -384 4371 -275 4371 -19 
L 4371 544 
L 6163 544 
L 6163 896 
L 4371 896 
L 4371 1318 
L 5888 1318 
L 5888 1670 
L 4371 1670 
L 4371 2086 
C 4877 2125 5357 2182 5728 2259 
L 5453 2566 
z
M 5210 5274 
C 5126 5094 4960 4838 4838 4666 
L 5152 4544 
L 4333 4544 
L 4333 5376 
L 3872 5376 
L 3872 4544 
L 3168 4544 
L 3430 4666 
C 3347 4838 3168 5094 2995 5293 
L 2605 5133 
C 2746 4954 2893 4717 2982 4544 
L 2234 4544 
L 2234 3526 
L 2662 3526 
L 2662 4186 
L 5549 4186 
L 5549 3526 
L 5990 3526 
L 5990 4544 
L 5222 4544 
C 5357 4698 5517 4896 5670 5114 
L 5210 5274 
z
M 1024 5376 
L 1024 4083 
L 256 4083 
L 256 3635 
L 1024 3635 
L 1024 2323 
L 173 2067 
L 294 1606 
L 1024 1843 
L 1024 51 
C 1024 -32 992 -58 915 -64 
C 838 -70 589 -70 314 -58 
C 371 -192 429 -390 448 -512 
C 851 -512 1107 -499 1254 -422 
C 1414 -346 1472 -211 1472 58 
L 1472 1990 
L 2208 2234 
L 2138 2675 
L 1472 2464 
L 1472 3635 
L 2086 3635 
L 2086 4083 
L 1472 4083 
L 1472 5376 
L 1024 5376 
z
" transform="scale(0.015625)"/>
     </defs>
     <use xlink:href="#NotoSansCJKjp-Regular-5e95"/>
     <use xlink:href="#NotoSansCJKjp-Regular-5c42" transform="translate(99.999985 0)"/>
     <use xlink:href="#NotoSansCJKjp-Regular-9875" transform="translate(199.999969 0)"/>
     <use xlink:href="#NotoSansCJKjp-Regular-6846" transform="translate(299.999954 0)"/>
     <use xlink:href="#NotoSansCJKjp-Regular-652f" transform="translate(399.999939 0)"/>
     <use xlink:href="#NotoSansCJKjp-Regular-6491" transform="translate(499.999924 0)"/>
    </g>
   </g>
  </g>
 </g>
 <defs>
  <clipPath id="p9421c272c7">
   <rect x="3.6" y="3.6" width="892.8" height="498.96"/>
  </clipPath>
 </defs>
</svg>
